G04 #@! TF.GenerationSoftware,KiCad,Pcbnew,(5.1.6)-1*
G04 #@! TF.CreationDate,2020-07-24T04:57:18+02:00*
G04 #@! TF.ProjectId,AnalogControlBoard_Rev1.1,416e616c-6f67-4436-9f6e-74726f6c426f,rev?*
G04 #@! TF.SameCoordinates,Original*
G04 #@! TF.FileFunction,Legend,Bot*
G04 #@! TF.FilePolarity,Positive*
%FSLAX46Y46*%
G04 Gerber Fmt 4.6, Leading zero omitted, Abs format (unit mm)*
G04 Created by KiCad (PCBNEW (5.1.6)-1) date 2020-07-24 04:57:18*
%MOMM*%
%LPD*%
G01*
G04 APERTURE LIST*
%ADD10C,0.150000*%
%ADD11C,0.125000*%
%ADD12C,0.200000*%
%ADD13C,0.120000*%
G04 APERTURE END LIST*
D10*
X156807803Y-96012000D02*
G75*
G03*
X156807803Y-96012000I-89803J0D01*
G01*
X156972000Y-96012000D02*
G75*
G03*
X156972000Y-96012000I-254000J0D01*
G01*
D11*
X128841523Y-105191714D02*
X129222476Y-105191714D01*
X129032000Y-105382190D02*
X129032000Y-105001238D01*
X119697523Y-115605714D02*
X120078476Y-115605714D01*
X119888000Y-115796190D02*
X119888000Y-115415238D01*
D12*
X128940000Y-119100714D02*
X128882857Y-118986428D01*
X128882857Y-118815000D01*
X128940000Y-118643571D01*
X129054285Y-118529285D01*
X129168571Y-118472142D01*
X129397142Y-118415000D01*
X129568571Y-118415000D01*
X129797142Y-118472142D01*
X129911428Y-118529285D01*
X130025714Y-118643571D01*
X130082857Y-118815000D01*
X130082857Y-118929285D01*
X130025714Y-119100714D01*
X129968571Y-119157857D01*
X129568571Y-119157857D01*
X129568571Y-118929285D01*
X130082857Y-119672142D02*
X128882857Y-119672142D01*
X130082857Y-120357857D01*
X128882857Y-120357857D01*
X130082857Y-120929285D02*
X128882857Y-120929285D01*
X128882857Y-121215000D01*
X128940000Y-121386428D01*
X129054285Y-121500714D01*
X129168571Y-121557857D01*
X129397142Y-121615000D01*
X129568571Y-121615000D01*
X129797142Y-121557857D01*
X129911428Y-121500714D01*
X130025714Y-121386428D01*
X130082857Y-121215000D01*
X130082857Y-120929285D01*
X131422857Y-118415000D02*
X132622857Y-118815000D01*
X131422857Y-119215000D01*
X132508571Y-120300714D02*
X132565714Y-120243571D01*
X132622857Y-120072142D01*
X132622857Y-119957857D01*
X132565714Y-119786428D01*
X132451428Y-119672142D01*
X132337142Y-119615000D01*
X132108571Y-119557857D01*
X131937142Y-119557857D01*
X131708571Y-119615000D01*
X131594285Y-119672142D01*
X131480000Y-119786428D01*
X131422857Y-119957857D01*
X131422857Y-120072142D01*
X131480000Y-120243571D01*
X131537142Y-120300714D01*
X132508571Y-121500714D02*
X132565714Y-121443571D01*
X132622857Y-121272142D01*
X132622857Y-121157857D01*
X132565714Y-120986428D01*
X132451428Y-120872142D01*
X132337142Y-120815000D01*
X132108571Y-120757857D01*
X131937142Y-120757857D01*
X131708571Y-120815000D01*
X131594285Y-120872142D01*
X131480000Y-120986428D01*
X131422857Y-121157857D01*
X131422857Y-121272142D01*
X131480000Y-121443571D01*
X131537142Y-121500714D01*
X134705714Y-117265714D02*
X134705714Y-118180000D01*
X135162857Y-119380000D02*
X135162857Y-118694285D01*
X135162857Y-119037142D02*
X133962857Y-119037142D01*
X134134285Y-118922857D01*
X134248571Y-118808571D01*
X134305714Y-118694285D01*
X133962857Y-120465714D02*
X133962857Y-119894285D01*
X134534285Y-119837142D01*
X134477142Y-119894285D01*
X134420000Y-120008571D01*
X134420000Y-120294285D01*
X134477142Y-120408571D01*
X134534285Y-120465714D01*
X134648571Y-120522857D01*
X134934285Y-120522857D01*
X135048571Y-120465714D01*
X135105714Y-120408571D01*
X135162857Y-120294285D01*
X135162857Y-120008571D01*
X135105714Y-119894285D01*
X135048571Y-119837142D01*
X133962857Y-120865714D02*
X135162857Y-121265714D01*
X133962857Y-121665714D01*
X137245714Y-117265714D02*
X137245714Y-118180000D01*
X137702857Y-117722857D02*
X136788571Y-117722857D01*
X137702857Y-119380000D02*
X137702857Y-118694285D01*
X137702857Y-119037142D02*
X136502857Y-119037142D01*
X136674285Y-118922857D01*
X136788571Y-118808571D01*
X136845714Y-118694285D01*
X136502857Y-120465714D02*
X136502857Y-119894285D01*
X137074285Y-119837142D01*
X137017142Y-119894285D01*
X136960000Y-120008571D01*
X136960000Y-120294285D01*
X137017142Y-120408571D01*
X137074285Y-120465714D01*
X137188571Y-120522857D01*
X137474285Y-120522857D01*
X137588571Y-120465714D01*
X137645714Y-120408571D01*
X137702857Y-120294285D01*
X137702857Y-120008571D01*
X137645714Y-119894285D01*
X137588571Y-119837142D01*
X136502857Y-120865714D02*
X137702857Y-121265714D01*
X136502857Y-121665714D01*
X153069857Y-127066857D02*
X151869857Y-127066857D01*
X151869857Y-127352571D01*
X151927000Y-127524000D01*
X152041285Y-127638285D01*
X152155571Y-127695428D01*
X152384142Y-127752571D01*
X152555571Y-127752571D01*
X152784142Y-127695428D01*
X152898428Y-127638285D01*
X153012714Y-127524000D01*
X153069857Y-127352571D01*
X153069857Y-127066857D01*
X153069857Y-128895428D02*
X153069857Y-128209714D01*
X153069857Y-128552571D02*
X151869857Y-128552571D01*
X152041285Y-128438285D01*
X152155571Y-128324000D01*
X152212714Y-128209714D01*
X151869857Y-129295428D02*
X151869857Y-130095428D01*
X153069857Y-129581142D01*
X150402857Y-127066857D02*
X149202857Y-127066857D01*
X149202857Y-127352571D01*
X149260000Y-127524000D01*
X149374285Y-127638285D01*
X149488571Y-127695428D01*
X149717142Y-127752571D01*
X149888571Y-127752571D01*
X150117142Y-127695428D01*
X150231428Y-127638285D01*
X150345714Y-127524000D01*
X150402857Y-127352571D01*
X150402857Y-127066857D01*
X150402857Y-128895428D02*
X150402857Y-128209714D01*
X150402857Y-128552571D02*
X149202857Y-128552571D01*
X149374285Y-128438285D01*
X149488571Y-128324000D01*
X149545714Y-128209714D01*
X150402857Y-129466857D02*
X150402857Y-129695428D01*
X150345714Y-129809714D01*
X150288571Y-129866857D01*
X150117142Y-129981142D01*
X149888571Y-130038285D01*
X149431428Y-130038285D01*
X149317142Y-129981142D01*
X149260000Y-129924000D01*
X149202857Y-129809714D01*
X149202857Y-129581142D01*
X149260000Y-129466857D01*
X149317142Y-129409714D01*
X149431428Y-129352571D01*
X149717142Y-129352571D01*
X149831428Y-129409714D01*
X149888571Y-129466857D01*
X149945714Y-129581142D01*
X149945714Y-129809714D01*
X149888571Y-129924000D01*
X149831428Y-129981142D01*
X149717142Y-130038285D01*
X147862857Y-127066857D02*
X146662857Y-127066857D01*
X146662857Y-127352571D01*
X146720000Y-127524000D01*
X146834285Y-127638285D01*
X146948571Y-127695428D01*
X147177142Y-127752571D01*
X147348571Y-127752571D01*
X147577142Y-127695428D01*
X147691428Y-127638285D01*
X147805714Y-127524000D01*
X147862857Y-127352571D01*
X147862857Y-127066857D01*
X146777142Y-128209714D02*
X146720000Y-128266857D01*
X146662857Y-128381142D01*
X146662857Y-128666857D01*
X146720000Y-128781142D01*
X146777142Y-128838285D01*
X146891428Y-128895428D01*
X147005714Y-128895428D01*
X147177142Y-128838285D01*
X147862857Y-128152571D01*
X147862857Y-128895428D01*
X147862857Y-130038285D02*
X147862857Y-129352571D01*
X147862857Y-129695428D02*
X146662857Y-129695428D01*
X146834285Y-129581142D01*
X146948571Y-129466857D01*
X147005714Y-129352571D01*
X145322857Y-127066857D02*
X144122857Y-127066857D01*
X144122857Y-127352571D01*
X144180000Y-127524000D01*
X144294285Y-127638285D01*
X144408571Y-127695428D01*
X144637142Y-127752571D01*
X144808571Y-127752571D01*
X145037142Y-127695428D01*
X145151428Y-127638285D01*
X145265714Y-127524000D01*
X145322857Y-127352571D01*
X145322857Y-127066857D01*
X144237142Y-128209714D02*
X144180000Y-128266857D01*
X144122857Y-128381142D01*
X144122857Y-128666857D01*
X144180000Y-128781142D01*
X144237142Y-128838285D01*
X144351428Y-128895428D01*
X144465714Y-128895428D01*
X144637142Y-128838285D01*
X145322857Y-128152571D01*
X145322857Y-128895428D01*
X144122857Y-129295428D02*
X144122857Y-130038285D01*
X144580000Y-129638285D01*
X144580000Y-129809714D01*
X144637142Y-129924000D01*
X144694285Y-129981142D01*
X144808571Y-130038285D01*
X145094285Y-130038285D01*
X145208571Y-129981142D01*
X145265714Y-129924000D01*
X145322857Y-129809714D01*
X145322857Y-129466857D01*
X145265714Y-129352571D01*
X145208571Y-129295428D01*
X142782857Y-127066857D02*
X141582857Y-127066857D01*
X141582857Y-127352571D01*
X141640000Y-127524000D01*
X141754285Y-127638285D01*
X141868571Y-127695428D01*
X142097142Y-127752571D01*
X142268571Y-127752571D01*
X142497142Y-127695428D01*
X142611428Y-127638285D01*
X142725714Y-127524000D01*
X142782857Y-127352571D01*
X142782857Y-127066857D01*
X141697142Y-128209714D02*
X141640000Y-128266857D01*
X141582857Y-128381142D01*
X141582857Y-128666857D01*
X141640000Y-128781142D01*
X141697142Y-128838285D01*
X141811428Y-128895428D01*
X141925714Y-128895428D01*
X142097142Y-128838285D01*
X142782857Y-128152571D01*
X142782857Y-128895428D01*
X141582857Y-129981142D02*
X141582857Y-129409714D01*
X142154285Y-129352571D01*
X142097142Y-129409714D01*
X142040000Y-129524000D01*
X142040000Y-129809714D01*
X142097142Y-129924000D01*
X142154285Y-129981142D01*
X142268571Y-130038285D01*
X142554285Y-130038285D01*
X142668571Y-129981142D01*
X142725714Y-129924000D01*
X142782857Y-129809714D01*
X142782857Y-129524000D01*
X142725714Y-129409714D01*
X142668571Y-129352571D01*
X140242857Y-127066857D02*
X139042857Y-127066857D01*
X139042857Y-127352571D01*
X139100000Y-127524000D01*
X139214285Y-127638285D01*
X139328571Y-127695428D01*
X139557142Y-127752571D01*
X139728571Y-127752571D01*
X139957142Y-127695428D01*
X140071428Y-127638285D01*
X140185714Y-127524000D01*
X140242857Y-127352571D01*
X140242857Y-127066857D01*
X139157142Y-128209714D02*
X139100000Y-128266857D01*
X139042857Y-128381142D01*
X139042857Y-128666857D01*
X139100000Y-128781142D01*
X139157142Y-128838285D01*
X139271428Y-128895428D01*
X139385714Y-128895428D01*
X139557142Y-128838285D01*
X140242857Y-128152571D01*
X140242857Y-128895428D01*
X139042857Y-129295428D02*
X139042857Y-130095428D01*
X140242857Y-129581142D01*
X140242857Y-118557857D02*
X139042857Y-118557857D01*
X139042857Y-118843571D01*
X139100000Y-119015000D01*
X139214285Y-119129285D01*
X139328571Y-119186428D01*
X139557142Y-119243571D01*
X139728571Y-119243571D01*
X139957142Y-119186428D01*
X140071428Y-119129285D01*
X140185714Y-119015000D01*
X140242857Y-118843571D01*
X140242857Y-118557857D01*
X139157142Y-119700714D02*
X139100000Y-119757857D01*
X139042857Y-119872142D01*
X139042857Y-120157857D01*
X139100000Y-120272142D01*
X139157142Y-120329285D01*
X139271428Y-120386428D01*
X139385714Y-120386428D01*
X139557142Y-120329285D01*
X140242857Y-119643571D01*
X140242857Y-120386428D01*
X139042857Y-121415000D02*
X139042857Y-121186428D01*
X139100000Y-121072142D01*
X139157142Y-121015000D01*
X139328571Y-120900714D01*
X139557142Y-120843571D01*
X140014285Y-120843571D01*
X140128571Y-120900714D01*
X140185714Y-120957857D01*
X140242857Y-121072142D01*
X140242857Y-121300714D01*
X140185714Y-121415000D01*
X140128571Y-121472142D01*
X140014285Y-121529285D01*
X139728571Y-121529285D01*
X139614285Y-121472142D01*
X139557142Y-121415000D01*
X139500000Y-121300714D01*
X139500000Y-121072142D01*
X139557142Y-120957857D01*
X139614285Y-120900714D01*
X139728571Y-120843571D01*
X142782857Y-118557857D02*
X141582857Y-118557857D01*
X141582857Y-118843571D01*
X141640000Y-119015000D01*
X141754285Y-119129285D01*
X141868571Y-119186428D01*
X142097142Y-119243571D01*
X142268571Y-119243571D01*
X142497142Y-119186428D01*
X142611428Y-119129285D01*
X142725714Y-119015000D01*
X142782857Y-118843571D01*
X142782857Y-118557857D01*
X141697142Y-119700714D02*
X141640000Y-119757857D01*
X141582857Y-119872142D01*
X141582857Y-120157857D01*
X141640000Y-120272142D01*
X141697142Y-120329285D01*
X141811428Y-120386428D01*
X141925714Y-120386428D01*
X142097142Y-120329285D01*
X142782857Y-119643571D01*
X142782857Y-120386428D01*
X141982857Y-121415000D02*
X142782857Y-121415000D01*
X141525714Y-121129285D02*
X142382857Y-120843571D01*
X142382857Y-121586428D01*
X145322857Y-118557857D02*
X144122857Y-118557857D01*
X144122857Y-118843571D01*
X144180000Y-119015000D01*
X144294285Y-119129285D01*
X144408571Y-119186428D01*
X144637142Y-119243571D01*
X144808571Y-119243571D01*
X145037142Y-119186428D01*
X145151428Y-119129285D01*
X145265714Y-119015000D01*
X145322857Y-118843571D01*
X145322857Y-118557857D01*
X144237142Y-119700714D02*
X144180000Y-119757857D01*
X144122857Y-119872142D01*
X144122857Y-120157857D01*
X144180000Y-120272142D01*
X144237142Y-120329285D01*
X144351428Y-120386428D01*
X144465714Y-120386428D01*
X144637142Y-120329285D01*
X145322857Y-119643571D01*
X145322857Y-120386428D01*
X144237142Y-120843571D02*
X144180000Y-120900714D01*
X144122857Y-121015000D01*
X144122857Y-121300714D01*
X144180000Y-121415000D01*
X144237142Y-121472142D01*
X144351428Y-121529285D01*
X144465714Y-121529285D01*
X144637142Y-121472142D01*
X145322857Y-120786428D01*
X145322857Y-121529285D01*
X147862857Y-118557857D02*
X146662857Y-118557857D01*
X146662857Y-118843571D01*
X146720000Y-119015000D01*
X146834285Y-119129285D01*
X146948571Y-119186428D01*
X147177142Y-119243571D01*
X147348571Y-119243571D01*
X147577142Y-119186428D01*
X147691428Y-119129285D01*
X147805714Y-119015000D01*
X147862857Y-118843571D01*
X147862857Y-118557857D01*
X146777142Y-119700714D02*
X146720000Y-119757857D01*
X146662857Y-119872142D01*
X146662857Y-120157857D01*
X146720000Y-120272142D01*
X146777142Y-120329285D01*
X146891428Y-120386428D01*
X147005714Y-120386428D01*
X147177142Y-120329285D01*
X147862857Y-119643571D01*
X147862857Y-120386428D01*
X146662857Y-121129285D02*
X146662857Y-121243571D01*
X146720000Y-121357857D01*
X146777142Y-121415000D01*
X146891428Y-121472142D01*
X147120000Y-121529285D01*
X147405714Y-121529285D01*
X147634285Y-121472142D01*
X147748571Y-121415000D01*
X147805714Y-121357857D01*
X147862857Y-121243571D01*
X147862857Y-121129285D01*
X147805714Y-121015000D01*
X147748571Y-120957857D01*
X147634285Y-120900714D01*
X147405714Y-120843571D01*
X147120000Y-120843571D01*
X146891428Y-120900714D01*
X146777142Y-120957857D01*
X146720000Y-121015000D01*
X146662857Y-121129285D01*
X150402857Y-118557857D02*
X149202857Y-118557857D01*
X149202857Y-118843571D01*
X149260000Y-119015000D01*
X149374285Y-119129285D01*
X149488571Y-119186428D01*
X149717142Y-119243571D01*
X149888571Y-119243571D01*
X150117142Y-119186428D01*
X150231428Y-119129285D01*
X150345714Y-119015000D01*
X150402857Y-118843571D01*
X150402857Y-118557857D01*
X150402857Y-120386428D02*
X150402857Y-119700714D01*
X150402857Y-120043571D02*
X149202857Y-120043571D01*
X149374285Y-119929285D01*
X149488571Y-119815000D01*
X149545714Y-119700714D01*
X149717142Y-121072142D02*
X149660000Y-120957857D01*
X149602857Y-120900714D01*
X149488571Y-120843571D01*
X149431428Y-120843571D01*
X149317142Y-120900714D01*
X149260000Y-120957857D01*
X149202857Y-121072142D01*
X149202857Y-121300714D01*
X149260000Y-121415000D01*
X149317142Y-121472142D01*
X149431428Y-121529285D01*
X149488571Y-121529285D01*
X149602857Y-121472142D01*
X149660000Y-121415000D01*
X149717142Y-121300714D01*
X149717142Y-121072142D01*
X149774285Y-120957857D01*
X149831428Y-120900714D01*
X149945714Y-120843571D01*
X150174285Y-120843571D01*
X150288571Y-120900714D01*
X150345714Y-120957857D01*
X150402857Y-121072142D01*
X150402857Y-121300714D01*
X150345714Y-121415000D01*
X150288571Y-121472142D01*
X150174285Y-121529285D01*
X149945714Y-121529285D01*
X149831428Y-121472142D01*
X149774285Y-121415000D01*
X149717142Y-121300714D01*
X152942857Y-118557857D02*
X151742857Y-118557857D01*
X151742857Y-118843571D01*
X151800000Y-119015000D01*
X151914285Y-119129285D01*
X152028571Y-119186428D01*
X152257142Y-119243571D01*
X152428571Y-119243571D01*
X152657142Y-119186428D01*
X152771428Y-119129285D01*
X152885714Y-119015000D01*
X152942857Y-118843571D01*
X152942857Y-118557857D01*
X152942857Y-120386428D02*
X152942857Y-119700714D01*
X152942857Y-120043571D02*
X151742857Y-120043571D01*
X151914285Y-119929285D01*
X152028571Y-119815000D01*
X152085714Y-119700714D01*
X151742857Y-121415000D02*
X151742857Y-121186428D01*
X151800000Y-121072142D01*
X151857142Y-121015000D01*
X152028571Y-120900714D01*
X152257142Y-120843571D01*
X152714285Y-120843571D01*
X152828571Y-120900714D01*
X152885714Y-120957857D01*
X152942857Y-121072142D01*
X152942857Y-121300714D01*
X152885714Y-121415000D01*
X152828571Y-121472142D01*
X152714285Y-121529285D01*
X152428571Y-121529285D01*
X152314285Y-121472142D01*
X152257142Y-121415000D01*
X152200000Y-121300714D01*
X152200000Y-121072142D01*
X152257142Y-120957857D01*
X152314285Y-120900714D01*
X152428571Y-120843571D01*
X113817214Y-120367357D02*
X114217214Y-119795928D01*
X114502928Y-120367357D02*
X114502928Y-119167357D01*
X114045785Y-119167357D01*
X113931500Y-119224500D01*
X113874357Y-119281642D01*
X113817214Y-119395928D01*
X113817214Y-119567357D01*
X113874357Y-119681642D01*
X113931500Y-119738785D01*
X114045785Y-119795928D01*
X114502928Y-119795928D01*
X112845785Y-120310214D02*
X112960071Y-120367357D01*
X113188642Y-120367357D01*
X113302928Y-120310214D01*
X113360071Y-120195928D01*
X113360071Y-119738785D01*
X113302928Y-119624500D01*
X113188642Y-119567357D01*
X112960071Y-119567357D01*
X112845785Y-119624500D01*
X112788642Y-119738785D01*
X112788642Y-119853071D01*
X113360071Y-119967357D01*
X112331500Y-120310214D02*
X112217214Y-120367357D01*
X111988642Y-120367357D01*
X111874357Y-120310214D01*
X111817214Y-120195928D01*
X111817214Y-120138785D01*
X111874357Y-120024500D01*
X111988642Y-119967357D01*
X112160071Y-119967357D01*
X112274357Y-119910214D01*
X112331500Y-119795928D01*
X112331500Y-119738785D01*
X112274357Y-119624500D01*
X112160071Y-119567357D01*
X111988642Y-119567357D01*
X111874357Y-119624500D01*
X110845785Y-120310214D02*
X110960071Y-120367357D01*
X111188642Y-120367357D01*
X111302928Y-120310214D01*
X111360071Y-120195928D01*
X111360071Y-119738785D01*
X111302928Y-119624500D01*
X111188642Y-119567357D01*
X110960071Y-119567357D01*
X110845785Y-119624500D01*
X110788642Y-119738785D01*
X110788642Y-119853071D01*
X111360071Y-119967357D01*
X110445785Y-119567357D02*
X109988642Y-119567357D01*
X110274357Y-119167357D02*
X110274357Y-120195928D01*
X110217214Y-120310214D01*
X110102928Y-120367357D01*
X109988642Y-120367357D01*
X130702000Y-89766857D02*
X130702000Y-90624000D01*
X130759142Y-90795428D01*
X130873428Y-90909714D01*
X131044857Y-90966857D01*
X131159142Y-90966857D01*
X130187714Y-89881142D02*
X130130571Y-89824000D01*
X130016285Y-89766857D01*
X129730571Y-89766857D01*
X129616285Y-89824000D01*
X129559142Y-89881142D01*
X129502000Y-89995428D01*
X129502000Y-90109714D01*
X129559142Y-90281142D01*
X130244857Y-90966857D01*
X129502000Y-90966857D01*
D10*
X139602981Y-109728000D02*
G75*
G03*
X139602981Y-109728000I-283981J0D01*
G01*
X139498605Y-109728000D02*
G75*
G03*
X139498605Y-109728000I-179605J0D01*
G01*
X124870981Y-98933000D02*
G75*
G03*
X124870981Y-98933000I-283981J0D01*
G01*
X124714000Y-98933000D02*
G75*
G03*
X124714000Y-98933000I-127000J0D01*
G01*
D12*
X114960285Y-111668000D02*
X115074571Y-111610857D01*
X115246000Y-111610857D01*
X115417428Y-111668000D01*
X115531714Y-111782285D01*
X115588857Y-111896571D01*
X115646000Y-112125142D01*
X115646000Y-112296571D01*
X115588857Y-112525142D01*
X115531714Y-112639428D01*
X115417428Y-112753714D01*
X115246000Y-112810857D01*
X115131714Y-112810857D01*
X114960285Y-112753714D01*
X114903142Y-112696571D01*
X114903142Y-112296571D01*
X115131714Y-112296571D01*
X114388857Y-112810857D02*
X114388857Y-111610857D01*
X113703142Y-112810857D01*
X113703142Y-111610857D01*
X113131714Y-112810857D02*
X113131714Y-111610857D01*
X112846000Y-111610857D01*
X112674571Y-111668000D01*
X112560285Y-111782285D01*
X112503142Y-111896571D01*
X112446000Y-112125142D01*
X112446000Y-112296571D01*
X112503142Y-112525142D01*
X112560285Y-112639428D01*
X112674571Y-112753714D01*
X112846000Y-112810857D01*
X113131714Y-112810857D01*
X114423714Y-110270857D02*
X114423714Y-109070857D01*
X114138000Y-109070857D01*
X113966571Y-109128000D01*
X113852285Y-109242285D01*
X113795142Y-109356571D01*
X113738000Y-109585142D01*
X113738000Y-109756571D01*
X113795142Y-109985142D01*
X113852285Y-110099428D01*
X113966571Y-110213714D01*
X114138000Y-110270857D01*
X114423714Y-110270857D01*
X112595142Y-110270857D02*
X113280857Y-110270857D01*
X112938000Y-110270857D02*
X112938000Y-109070857D01*
X113052285Y-109242285D01*
X113166571Y-109356571D01*
X113280857Y-109413714D01*
X114423714Y-107730857D02*
X114423714Y-106530857D01*
X114138000Y-106530857D01*
X113966571Y-106588000D01*
X113852285Y-106702285D01*
X113795142Y-106816571D01*
X113738000Y-107045142D01*
X113738000Y-107216571D01*
X113795142Y-107445142D01*
X113852285Y-107559428D01*
X113966571Y-107673714D01*
X114138000Y-107730857D01*
X114423714Y-107730857D01*
X113338000Y-106530857D02*
X112595142Y-106530857D01*
X112995142Y-106988000D01*
X112823714Y-106988000D01*
X112709428Y-107045142D01*
X112652285Y-107102285D01*
X112595142Y-107216571D01*
X112595142Y-107502285D01*
X112652285Y-107616571D01*
X112709428Y-107673714D01*
X112823714Y-107730857D01*
X113166571Y-107730857D01*
X113280857Y-107673714D01*
X113338000Y-107616571D01*
X114423714Y-105190857D02*
X114423714Y-103990857D01*
X114138000Y-103990857D01*
X113966571Y-104048000D01*
X113852285Y-104162285D01*
X113795142Y-104276571D01*
X113738000Y-104505142D01*
X113738000Y-104676571D01*
X113795142Y-104905142D01*
X113852285Y-105019428D01*
X113966571Y-105133714D01*
X114138000Y-105190857D01*
X114423714Y-105190857D01*
X112652285Y-103990857D02*
X113223714Y-103990857D01*
X113280857Y-104562285D01*
X113223714Y-104505142D01*
X113109428Y-104448000D01*
X112823714Y-104448000D01*
X112709428Y-104505142D01*
X112652285Y-104562285D01*
X112595142Y-104676571D01*
X112595142Y-104962285D01*
X112652285Y-105076571D01*
X112709428Y-105133714D01*
X112823714Y-105190857D01*
X113109428Y-105190857D01*
X113223714Y-105133714D01*
X113280857Y-105076571D01*
X114423714Y-102650857D02*
X114423714Y-101450857D01*
X114138000Y-101450857D01*
X113966571Y-101508000D01*
X113852285Y-101622285D01*
X113795142Y-101736571D01*
X113738000Y-101965142D01*
X113738000Y-102136571D01*
X113795142Y-102365142D01*
X113852285Y-102479428D01*
X113966571Y-102593714D01*
X114138000Y-102650857D01*
X114423714Y-102650857D01*
X113338000Y-101450857D02*
X112538000Y-101450857D01*
X113052285Y-102650857D01*
X114423714Y-100110857D02*
X114423714Y-98910857D01*
X114138000Y-98910857D01*
X113966571Y-98968000D01*
X113852285Y-99082285D01*
X113795142Y-99196571D01*
X113738000Y-99425142D01*
X113738000Y-99596571D01*
X113795142Y-99825142D01*
X113852285Y-99939428D01*
X113966571Y-100053714D01*
X114138000Y-100110857D01*
X114423714Y-100110857D01*
X113166571Y-100110857D02*
X112938000Y-100110857D01*
X112823714Y-100053714D01*
X112766571Y-99996571D01*
X112652285Y-99825142D01*
X112595142Y-99596571D01*
X112595142Y-99139428D01*
X112652285Y-99025142D01*
X112709428Y-98968000D01*
X112823714Y-98910857D01*
X113052285Y-98910857D01*
X113166571Y-98968000D01*
X113223714Y-99025142D01*
X113280857Y-99139428D01*
X113280857Y-99425142D01*
X113223714Y-99539428D01*
X113166571Y-99596571D01*
X113052285Y-99653714D01*
X112823714Y-99653714D01*
X112709428Y-99596571D01*
X112652285Y-99539428D01*
X112595142Y-99425142D01*
X115503142Y-97570857D02*
X115503142Y-96370857D01*
X115217428Y-96370857D01*
X115046000Y-96428000D01*
X114931714Y-96542285D01*
X114874571Y-96656571D01*
X114817428Y-96885142D01*
X114817428Y-97056571D01*
X114874571Y-97285142D01*
X114931714Y-97399428D01*
X115046000Y-97513714D01*
X115217428Y-97570857D01*
X115503142Y-97570857D01*
X113674571Y-97570857D02*
X114360285Y-97570857D01*
X114017428Y-97570857D02*
X114017428Y-96370857D01*
X114131714Y-96542285D01*
X114246000Y-96656571D01*
X114360285Y-96713714D01*
X112531714Y-97570857D02*
X113217428Y-97570857D01*
X112874571Y-97570857D02*
X112874571Y-96370857D01*
X112988857Y-96542285D01*
X113103142Y-96656571D01*
X113217428Y-96713714D01*
X115503142Y-95030857D02*
X115503142Y-93830857D01*
X115217428Y-93830857D01*
X115046000Y-93888000D01*
X114931714Y-94002285D01*
X114874571Y-94116571D01*
X114817428Y-94345142D01*
X114817428Y-94516571D01*
X114874571Y-94745142D01*
X114931714Y-94859428D01*
X115046000Y-94973714D01*
X115217428Y-95030857D01*
X115503142Y-95030857D01*
X113674571Y-95030857D02*
X114360285Y-95030857D01*
X114017428Y-95030857D02*
X114017428Y-93830857D01*
X114131714Y-94002285D01*
X114246000Y-94116571D01*
X114360285Y-94173714D01*
X113274571Y-93830857D02*
X112531714Y-93830857D01*
X112931714Y-94288000D01*
X112760285Y-94288000D01*
X112646000Y-94345142D01*
X112588857Y-94402285D01*
X112531714Y-94516571D01*
X112531714Y-94802285D01*
X112588857Y-94916571D01*
X112646000Y-94973714D01*
X112760285Y-95030857D01*
X113103142Y-95030857D01*
X113217428Y-94973714D01*
X113274571Y-94916571D01*
X115503142Y-92490857D02*
X115503142Y-91290857D01*
X115217428Y-91290857D01*
X115046000Y-91348000D01*
X114931714Y-91462285D01*
X114874571Y-91576571D01*
X114817428Y-91805142D01*
X114817428Y-91976571D01*
X114874571Y-92205142D01*
X114931714Y-92319428D01*
X115046000Y-92433714D01*
X115217428Y-92490857D01*
X115503142Y-92490857D01*
X113674571Y-92490857D02*
X114360285Y-92490857D01*
X114017428Y-92490857D02*
X114017428Y-91290857D01*
X114131714Y-91462285D01*
X114246000Y-91576571D01*
X114360285Y-91633714D01*
X112588857Y-91290857D02*
X113160285Y-91290857D01*
X113217428Y-91862285D01*
X113160285Y-91805142D01*
X113046000Y-91748000D01*
X112760285Y-91748000D01*
X112646000Y-91805142D01*
X112588857Y-91862285D01*
X112531714Y-91976571D01*
X112531714Y-92262285D01*
X112588857Y-92376571D01*
X112646000Y-92433714D01*
X112760285Y-92490857D01*
X113046000Y-92490857D01*
X113160285Y-92433714D01*
X113217428Y-92376571D01*
X114960285Y-88808000D02*
X115074571Y-88750857D01*
X115246000Y-88750857D01*
X115417428Y-88808000D01*
X115531714Y-88922285D01*
X115588857Y-89036571D01*
X115646000Y-89265142D01*
X115646000Y-89436571D01*
X115588857Y-89665142D01*
X115531714Y-89779428D01*
X115417428Y-89893714D01*
X115246000Y-89950857D01*
X115131714Y-89950857D01*
X114960285Y-89893714D01*
X114903142Y-89836571D01*
X114903142Y-89436571D01*
X115131714Y-89436571D01*
X114388857Y-89950857D02*
X114388857Y-88750857D01*
X113703142Y-89950857D01*
X113703142Y-88750857D01*
X113131714Y-89950857D02*
X113131714Y-88750857D01*
X112846000Y-88750857D01*
X112674571Y-88808000D01*
X112560285Y-88922285D01*
X112503142Y-89036571D01*
X112446000Y-89265142D01*
X112446000Y-89436571D01*
X112503142Y-89665142D01*
X112560285Y-89779428D01*
X112674571Y-89893714D01*
X112846000Y-89950857D01*
X113131714Y-89950857D01*
X147566000Y-60197904D02*
X147613619Y-60293142D01*
X147613619Y-60436000D01*
X147566000Y-60578857D01*
X147470761Y-60674095D01*
X147375523Y-60721714D01*
X147185047Y-60769333D01*
X147042190Y-60769333D01*
X146851714Y-60721714D01*
X146756476Y-60674095D01*
X146661238Y-60578857D01*
X146613619Y-60436000D01*
X146613619Y-60340761D01*
X146661238Y-60197904D01*
X146708857Y-60150285D01*
X147042190Y-60150285D01*
X147042190Y-60340761D01*
X146613619Y-59721714D02*
X147613619Y-59721714D01*
X146613619Y-59150285D01*
X147613619Y-59150285D01*
X146613619Y-58674095D02*
X147613619Y-58674095D01*
X147613619Y-58436000D01*
X147566000Y-58293142D01*
X147470761Y-58197904D01*
X147375523Y-58150285D01*
X147185047Y-58102666D01*
X147042190Y-58102666D01*
X146851714Y-58150285D01*
X146756476Y-58197904D01*
X146661238Y-58293142D01*
X146613619Y-58436000D01*
X146613619Y-58674095D01*
X151843333Y-61028571D02*
X151843333Y-60552380D01*
X151557619Y-61123809D02*
X152557619Y-60790476D01*
X151557619Y-60457142D01*
X151557619Y-60123809D02*
X152557619Y-60123809D01*
X151557619Y-59123809D02*
X151557619Y-59695238D01*
X151557619Y-59409523D02*
X152557619Y-59409523D01*
X152414761Y-59504761D01*
X152319523Y-59600000D01*
X152271904Y-59695238D01*
X152557619Y-58790476D02*
X152557619Y-58171428D01*
X152176666Y-58504761D01*
X152176666Y-58361904D01*
X152129047Y-58266666D01*
X152081428Y-58219047D01*
X151986190Y-58171428D01*
X151748095Y-58171428D01*
X151652857Y-58219047D01*
X151605238Y-58266666D01*
X151557619Y-58361904D01*
X151557619Y-58647619D01*
X151605238Y-58742857D01*
X151652857Y-58790476D01*
X149353333Y-61008571D02*
X149353333Y-60532380D01*
X149067619Y-61103809D02*
X150067619Y-60770476D01*
X149067619Y-60437142D01*
X149067619Y-60103809D02*
X150067619Y-60103809D01*
X149067619Y-59103809D02*
X149067619Y-59675238D01*
X149067619Y-59389523D02*
X150067619Y-59389523D01*
X149924761Y-59484761D01*
X149829523Y-59580000D01*
X149781904Y-59675238D01*
X150067619Y-58199047D02*
X150067619Y-58675238D01*
X149591428Y-58722857D01*
X149639047Y-58675238D01*
X149686666Y-58580000D01*
X149686666Y-58341904D01*
X149639047Y-58246666D01*
X149591428Y-58199047D01*
X149496190Y-58151428D01*
X149258095Y-58151428D01*
X149162857Y-58199047D01*
X149115238Y-58246666D01*
X149067619Y-58341904D01*
X149067619Y-58580000D01*
X149115238Y-58675238D01*
X149162857Y-58722857D01*
D10*
X124336000Y-98790000D02*
X124336000Y-99290000D01*
X124336000Y-99290000D02*
X124436000Y-99290000D01*
X124436000Y-99290000D02*
X124436000Y-98890000D01*
X124236000Y-99390000D02*
X124236000Y-98790000D01*
X124236000Y-98790000D02*
X124436000Y-98790000D01*
X121336000Y-96190000D02*
X121636000Y-96190000D01*
X121336000Y-99390000D02*
X121636000Y-99390000D01*
X124536000Y-96190000D02*
X124236000Y-96190000D01*
X124536000Y-99390000D02*
X124236000Y-99390000D01*
X121336000Y-97190000D02*
X121336000Y-96190000D01*
X124536000Y-97190000D02*
X124536000Y-96190000D01*
X121336000Y-99390000D02*
X121336000Y-98390000D01*
X124536000Y-99390000D02*
X124536000Y-98390000D01*
X150287000Y-130373500D02*
X149787000Y-132193500D01*
X149787000Y-132193500D02*
X149287000Y-130373500D01*
X149287000Y-130373500D02*
X150287000Y-130373500D01*
D13*
X119538000Y-91659000D02*
X120238000Y-91659000D01*
X120238000Y-90459000D02*
X119538000Y-90459000D01*
X126334000Y-90459000D02*
X125634000Y-90459000D01*
X125634000Y-91659000D02*
X126334000Y-91659000D01*
X154782000Y-89316000D02*
X154082000Y-89316000D01*
X154082000Y-90516000D02*
X154782000Y-90516000D01*
X148936000Y-96743000D02*
X148936000Y-96043000D01*
X147736000Y-96043000D02*
X147736000Y-96743000D01*
X125634000Y-93183000D02*
X126334000Y-93183000D01*
X126334000Y-91983000D02*
X125634000Y-91983000D01*
X119538000Y-93183000D02*
X120238000Y-93183000D01*
X120238000Y-91983000D02*
X119538000Y-91983000D01*
X112350000Y-115895500D02*
X112350000Y-116895500D01*
X113710000Y-116895500D02*
X113710000Y-115895500D01*
X123139950Y-100612650D02*
X122439950Y-100612650D01*
X122439950Y-101812650D02*
X123139950Y-101812650D01*
X154782000Y-85760000D02*
X154082000Y-85760000D01*
X154082000Y-86960000D02*
X154782000Y-86960000D01*
X151038000Y-83724000D02*
X151038000Y-84424000D01*
X152238000Y-84424000D02*
X152238000Y-83724000D01*
X149006000Y-83724000D02*
X149006000Y-84424000D01*
X150206000Y-84424000D02*
X150206000Y-83724000D01*
X147228000Y-83724000D02*
X147228000Y-84424000D01*
X148428000Y-84424000D02*
X148428000Y-83724000D01*
X152816000Y-83724000D02*
X152816000Y-84424000D01*
X154016000Y-84424000D02*
X154016000Y-83724000D01*
X154782000Y-87538000D02*
X154082000Y-87538000D01*
X154082000Y-88738000D02*
X154782000Y-88738000D01*
X125999950Y-99084650D02*
X125999950Y-99784650D01*
X127199950Y-99784650D02*
X127199950Y-99084650D01*
X119960950Y-99784650D02*
X119960950Y-99084650D01*
X118760950Y-99084650D02*
X118760950Y-99784650D01*
X127199950Y-96736650D02*
X127199950Y-96036650D01*
X125999950Y-96036650D02*
X125999950Y-96736650D01*
X118760950Y-96036650D02*
X118760950Y-96736650D01*
X119960950Y-96736650D02*
X119960950Y-96036650D01*
X119653000Y-105786000D02*
X120913000Y-105786000D01*
X126473000Y-105786000D02*
X125213000Y-105786000D01*
X119653000Y-109546000D02*
X119653000Y-105786000D01*
X126473000Y-111796000D02*
X126473000Y-105786000D01*
X123301000Y-115383500D02*
X121301000Y-115383500D01*
X121301000Y-113343500D02*
X123301000Y-113343500D01*
X126996000Y-108632500D02*
X126996000Y-106632500D01*
X129036000Y-106632500D02*
X129036000Y-108632500D01*
D10*
X106423000Y-117724500D02*
X106423000Y-121924500D01*
X109223000Y-121924500D02*
X109223000Y-117724500D01*
D13*
X122346000Y-85082000D02*
X122346000Y-84082000D01*
X120986000Y-84082000D02*
X120986000Y-85082000D01*
X135382000Y-100967000D02*
X133962000Y-100967000D01*
X136142000Y-107567000D02*
X133962000Y-107567000D01*
X129542000Y-107567000D02*
X131722000Y-107567000D01*
X130302000Y-100967000D02*
X131722000Y-100967000D01*
X136142000Y-107567000D02*
X136142000Y-101727000D01*
X136142000Y-101727000D02*
X135382000Y-100967000D01*
X130302000Y-100967000D02*
X129542000Y-101727000D01*
X129542000Y-101727000D02*
X129542000Y-107567000D01*
X126334000Y-93507000D02*
X125634000Y-93507000D01*
X125634000Y-94707000D02*
X126334000Y-94707000D01*
X124298000Y-93695000D02*
X124298000Y-92995000D01*
X123098000Y-92995000D02*
X123098000Y-93695000D01*
X122774000Y-93695000D02*
X122774000Y-92995000D01*
X121574000Y-92995000D02*
X121574000Y-93695000D01*
X120238000Y-93507000D02*
X119538000Y-93507000D01*
X119538000Y-94707000D02*
X120238000Y-94707000D01*
X136683000Y-95215000D02*
X137383000Y-95215000D01*
X137383000Y-94015000D02*
X136683000Y-94015000D01*
X135732000Y-84617000D02*
X135032000Y-84617000D01*
X135032000Y-85817000D02*
X135732000Y-85817000D01*
X135732000Y-86522000D02*
X135032000Y-86522000D01*
X135032000Y-87722000D02*
X135732000Y-87722000D01*
X131861000Y-85756000D02*
X131861000Y-86456000D01*
X133061000Y-86456000D02*
X133061000Y-85756000D01*
X133772000Y-91578000D02*
X133772000Y-89778000D01*
X136992000Y-89778000D02*
X136992000Y-92228000D01*
D10*
X156253000Y-96535000D02*
X157653000Y-96535000D01*
X156253000Y-101635000D02*
X152103000Y-101635000D01*
X156253000Y-96485000D02*
X152103000Y-96485000D01*
X156253000Y-101635000D02*
X156253000Y-101490000D01*
X152103000Y-101635000D02*
X152103000Y-101490000D01*
X152103000Y-96485000D02*
X152103000Y-96630000D01*
X156253000Y-96485000D02*
X156253000Y-96535000D01*
X124820430Y-96970945D02*
X125629954Y-96970945D01*
X125725192Y-97018564D01*
X125772811Y-97066183D01*
X125820430Y-97161421D01*
X125820430Y-97351897D01*
X125772811Y-97447135D01*
X125725192Y-97494754D01*
X125629954Y-97542373D01*
X124820430Y-97542373D01*
X124915669Y-97970945D02*
X124868050Y-98018564D01*
X124820430Y-98113802D01*
X124820430Y-98351897D01*
X124868050Y-98447135D01*
X124915669Y-98494754D01*
X125010907Y-98542373D01*
X125106145Y-98542373D01*
X125249002Y-98494754D01*
X125820430Y-97923326D01*
X125820430Y-98542373D01*
X117628907Y-91422492D02*
X117676526Y-91470111D01*
X117819383Y-91517730D01*
X117914621Y-91517730D01*
X118057478Y-91470111D01*
X118152716Y-91374873D01*
X118200335Y-91279635D01*
X118247954Y-91089159D01*
X118247954Y-90946302D01*
X118200335Y-90755826D01*
X118152716Y-90660588D01*
X118057478Y-90565350D01*
X117914621Y-90517730D01*
X117819383Y-90517730D01*
X117676526Y-90565350D01*
X117628907Y-90612969D01*
X117247954Y-90612969D02*
X117200335Y-90565350D01*
X117105097Y-90517730D01*
X116867002Y-90517730D01*
X116771764Y-90565350D01*
X116724145Y-90612969D01*
X116676526Y-90708207D01*
X116676526Y-90803445D01*
X116724145Y-90946302D01*
X117295573Y-91517730D01*
X116676526Y-91517730D01*
X116343192Y-90517730D02*
X115676526Y-90517730D01*
X116105097Y-91517730D01*
X126626857Y-89892142D02*
X126674476Y-89939761D01*
X126817333Y-89987380D01*
X126912571Y-89987380D01*
X127055428Y-89939761D01*
X127150666Y-89844523D01*
X127198285Y-89749285D01*
X127245904Y-89558809D01*
X127245904Y-89415952D01*
X127198285Y-89225476D01*
X127150666Y-89130238D01*
X127055428Y-89035000D01*
X126912571Y-88987380D01*
X126817333Y-88987380D01*
X126674476Y-89035000D01*
X126626857Y-89082619D01*
X126245904Y-89082619D02*
X126198285Y-89035000D01*
X126103047Y-88987380D01*
X125864952Y-88987380D01*
X125769714Y-89035000D01*
X125722095Y-89082619D01*
X125674476Y-89177857D01*
X125674476Y-89273095D01*
X125722095Y-89415952D01*
X126293523Y-89987380D01*
X125674476Y-89987380D01*
X125103047Y-89415952D02*
X125198285Y-89368333D01*
X125245904Y-89320714D01*
X125293523Y-89225476D01*
X125293523Y-89177857D01*
X125245904Y-89082619D01*
X125198285Y-89035000D01*
X125103047Y-88987380D01*
X124912571Y-88987380D01*
X124817333Y-89035000D01*
X124769714Y-89082619D01*
X124722095Y-89177857D01*
X124722095Y-89225476D01*
X124769714Y-89320714D01*
X124817333Y-89368333D01*
X124912571Y-89415952D01*
X125103047Y-89415952D01*
X125198285Y-89463571D01*
X125245904Y-89511190D01*
X125293523Y-89606428D01*
X125293523Y-89796904D01*
X125245904Y-89892142D01*
X125198285Y-89939761D01*
X125103047Y-89987380D01*
X124912571Y-89987380D01*
X124817333Y-89939761D01*
X124769714Y-89892142D01*
X124722095Y-89796904D01*
X124722095Y-89606428D01*
X124769714Y-89511190D01*
X124817333Y-89463571D01*
X124912571Y-89415952D01*
X159138857Y-90273142D02*
X159186476Y-90320761D01*
X159329333Y-90368380D01*
X159424571Y-90368380D01*
X159567428Y-90320761D01*
X159662666Y-90225523D01*
X159710285Y-90130285D01*
X159757904Y-89939809D01*
X159757904Y-89796952D01*
X159710285Y-89606476D01*
X159662666Y-89511238D01*
X159567428Y-89416000D01*
X159424571Y-89368380D01*
X159329333Y-89368380D01*
X159186476Y-89416000D01*
X159138857Y-89463619D01*
X158805523Y-89368380D02*
X158186476Y-89368380D01*
X158519809Y-89749333D01*
X158376952Y-89749333D01*
X158281714Y-89796952D01*
X158234095Y-89844571D01*
X158186476Y-89939809D01*
X158186476Y-90177904D01*
X158234095Y-90273142D01*
X158281714Y-90320761D01*
X158376952Y-90368380D01*
X158662666Y-90368380D01*
X158757904Y-90320761D01*
X158805523Y-90273142D01*
X157615047Y-89796952D02*
X157710285Y-89749333D01*
X157757904Y-89701714D01*
X157805523Y-89606476D01*
X157805523Y-89558857D01*
X157757904Y-89463619D01*
X157710285Y-89416000D01*
X157615047Y-89368380D01*
X157424571Y-89368380D01*
X157329333Y-89416000D01*
X157281714Y-89463619D01*
X157234095Y-89558857D01*
X157234095Y-89606476D01*
X157281714Y-89701714D01*
X157329333Y-89749333D01*
X157424571Y-89796952D01*
X157615047Y-89796952D01*
X157710285Y-89844571D01*
X157757904Y-89892190D01*
X157805523Y-89987428D01*
X157805523Y-90177904D01*
X157757904Y-90273142D01*
X157710285Y-90320761D01*
X157615047Y-90368380D01*
X157424571Y-90368380D01*
X157329333Y-90320761D01*
X157281714Y-90273142D01*
X157234095Y-90177904D01*
X157234095Y-89987428D01*
X157281714Y-89892190D01*
X157329333Y-89844571D01*
X157424571Y-89796952D01*
X147193142Y-95750142D02*
X147240761Y-95702523D01*
X147288380Y-95559666D01*
X147288380Y-95464428D01*
X147240761Y-95321571D01*
X147145523Y-95226333D01*
X147050285Y-95178714D01*
X146859809Y-95131095D01*
X146716952Y-95131095D01*
X146526476Y-95178714D01*
X146431238Y-95226333D01*
X146336000Y-95321571D01*
X146288380Y-95464428D01*
X146288380Y-95559666D01*
X146336000Y-95702523D01*
X146383619Y-95750142D01*
X147288380Y-96702523D02*
X147288380Y-96131095D01*
X147288380Y-96416809D02*
X146288380Y-96416809D01*
X146431238Y-96321571D01*
X146526476Y-96226333D01*
X146574095Y-96131095D01*
X146288380Y-97559666D02*
X146288380Y-97369190D01*
X146336000Y-97273952D01*
X146383619Y-97226333D01*
X146526476Y-97131095D01*
X146716952Y-97083476D01*
X147097904Y-97083476D01*
X147193142Y-97131095D01*
X147240761Y-97178714D01*
X147288380Y-97273952D01*
X147288380Y-97464428D01*
X147240761Y-97559666D01*
X147193142Y-97607285D01*
X147097904Y-97654904D01*
X146859809Y-97654904D01*
X146764571Y-97607285D01*
X146716952Y-97559666D01*
X146669333Y-97464428D01*
X146669333Y-97273952D01*
X146716952Y-97178714D01*
X146764571Y-97131095D01*
X146859809Y-97083476D01*
X129439907Y-92946492D02*
X129487526Y-92994111D01*
X129630383Y-93041730D01*
X129725621Y-93041730D01*
X129868478Y-92994111D01*
X129963716Y-92898873D01*
X130011335Y-92803635D01*
X130058954Y-92613159D01*
X130058954Y-92470302D01*
X130011335Y-92279826D01*
X129963716Y-92184588D01*
X129868478Y-92089350D01*
X129725621Y-92041730D01*
X129630383Y-92041730D01*
X129487526Y-92089350D01*
X129439907Y-92136969D01*
X128487526Y-93041730D02*
X129058954Y-93041730D01*
X128773240Y-93041730D02*
X128773240Y-92041730D01*
X128868478Y-92184588D01*
X128963716Y-92279826D01*
X129058954Y-92327445D01*
X128011335Y-93041730D02*
X127820859Y-93041730D01*
X127725621Y-92994111D01*
X127678002Y-92946492D01*
X127582764Y-92803635D01*
X127535145Y-92613159D01*
X127535145Y-92232207D01*
X127582764Y-92136969D01*
X127630383Y-92089350D01*
X127725621Y-92041730D01*
X127916097Y-92041730D01*
X128011335Y-92089350D01*
X128058954Y-92136969D01*
X128106573Y-92232207D01*
X128106573Y-92470302D01*
X128058954Y-92565540D01*
X128011335Y-92613159D01*
X127916097Y-92660778D01*
X127725621Y-92660778D01*
X127630383Y-92613159D01*
X127582764Y-92565540D01*
X127535145Y-92470302D01*
X117628907Y-92946492D02*
X117676526Y-92994111D01*
X117819383Y-93041730D01*
X117914621Y-93041730D01*
X118057478Y-92994111D01*
X118152716Y-92898873D01*
X118200335Y-92803635D01*
X118247954Y-92613159D01*
X118247954Y-92470302D01*
X118200335Y-92279826D01*
X118152716Y-92184588D01*
X118057478Y-92089350D01*
X117914621Y-92041730D01*
X117819383Y-92041730D01*
X117676526Y-92089350D01*
X117628907Y-92136969D01*
X117247954Y-92136969D02*
X117200335Y-92089350D01*
X117105097Y-92041730D01*
X116867002Y-92041730D01*
X116771764Y-92089350D01*
X116724145Y-92136969D01*
X116676526Y-92232207D01*
X116676526Y-92327445D01*
X116724145Y-92470302D01*
X117295573Y-93041730D01*
X116676526Y-93041730D01*
X116295573Y-92136969D02*
X116247954Y-92089350D01*
X116152716Y-92041730D01*
X115914621Y-92041730D01*
X115819383Y-92089350D01*
X115771764Y-92136969D01*
X115724145Y-92232207D01*
X115724145Y-92327445D01*
X115771764Y-92470302D01*
X116343192Y-93041730D01*
X115724145Y-93041730D01*
X115006380Y-116292333D02*
X114530190Y-115959000D01*
X115006380Y-115720904D02*
X114006380Y-115720904D01*
X114006380Y-116101857D01*
X114054000Y-116197095D01*
X114101619Y-116244714D01*
X114196857Y-116292333D01*
X114339714Y-116292333D01*
X114434952Y-116244714D01*
X114482571Y-116197095D01*
X114530190Y-116101857D01*
X114530190Y-115720904D01*
X115006380Y-116768523D02*
X115006380Y-116959000D01*
X114958761Y-117054238D01*
X114911142Y-117101857D01*
X114768285Y-117197095D01*
X114577809Y-117244714D01*
X114196857Y-117244714D01*
X114101619Y-117197095D01*
X114054000Y-117149476D01*
X114006380Y-117054238D01*
X114006380Y-116863761D01*
X114054000Y-116768523D01*
X114101619Y-116720904D01*
X114196857Y-116673285D01*
X114434952Y-116673285D01*
X114530190Y-116720904D01*
X114577809Y-116768523D01*
X114625428Y-116863761D01*
X114625428Y-117054238D01*
X114577809Y-117149476D01*
X114530190Y-117197095D01*
X114434952Y-117244714D01*
X122956616Y-103069792D02*
X123004235Y-103117411D01*
X123147092Y-103165030D01*
X123242330Y-103165030D01*
X123385188Y-103117411D01*
X123480426Y-103022173D01*
X123528045Y-102926935D01*
X123575664Y-102736459D01*
X123575664Y-102593602D01*
X123528045Y-102403126D01*
X123480426Y-102307888D01*
X123385188Y-102212650D01*
X123242330Y-102165030D01*
X123147092Y-102165030D01*
X123004235Y-102212650D01*
X122956616Y-102260269D01*
X122099473Y-102498364D02*
X122099473Y-103165030D01*
X122337569Y-102117411D02*
X122575664Y-102831697D01*
X121956616Y-102831697D01*
X159138857Y-86717142D02*
X159186476Y-86764761D01*
X159329333Y-86812380D01*
X159424571Y-86812380D01*
X159567428Y-86764761D01*
X159662666Y-86669523D01*
X159710285Y-86574285D01*
X159757904Y-86383809D01*
X159757904Y-86240952D01*
X159710285Y-86050476D01*
X159662666Y-85955238D01*
X159567428Y-85860000D01*
X159424571Y-85812380D01*
X159329333Y-85812380D01*
X159186476Y-85860000D01*
X159138857Y-85907619D01*
X158805523Y-85812380D02*
X158186476Y-85812380D01*
X158519809Y-86193333D01*
X158376952Y-86193333D01*
X158281714Y-86240952D01*
X158234095Y-86288571D01*
X158186476Y-86383809D01*
X158186476Y-86621904D01*
X158234095Y-86717142D01*
X158281714Y-86764761D01*
X158376952Y-86812380D01*
X158662666Y-86812380D01*
X158757904Y-86764761D01*
X158805523Y-86717142D01*
X157234095Y-86812380D02*
X157805523Y-86812380D01*
X157519809Y-86812380D02*
X157519809Y-85812380D01*
X157615047Y-85955238D01*
X157710285Y-86050476D01*
X157805523Y-86098095D01*
X151995142Y-79367142D02*
X152042761Y-79319523D01*
X152090380Y-79176666D01*
X152090380Y-79081428D01*
X152042761Y-78938571D01*
X151947523Y-78843333D01*
X151852285Y-78795714D01*
X151661809Y-78748095D01*
X151518952Y-78748095D01*
X151328476Y-78795714D01*
X151233238Y-78843333D01*
X151138000Y-78938571D01*
X151090380Y-79081428D01*
X151090380Y-79176666D01*
X151138000Y-79319523D01*
X151185619Y-79367142D01*
X151090380Y-79700476D02*
X151090380Y-80319523D01*
X151471333Y-79986190D01*
X151471333Y-80129047D01*
X151518952Y-80224285D01*
X151566571Y-80271904D01*
X151661809Y-80319523D01*
X151899904Y-80319523D01*
X151995142Y-80271904D01*
X152042761Y-80224285D01*
X152090380Y-80129047D01*
X152090380Y-79843333D01*
X152042761Y-79748095D01*
X151995142Y-79700476D01*
X151185619Y-80700476D02*
X151138000Y-80748095D01*
X151090380Y-80843333D01*
X151090380Y-81081428D01*
X151138000Y-81176666D01*
X151185619Y-81224285D01*
X151280857Y-81271904D01*
X151376095Y-81271904D01*
X151518952Y-81224285D01*
X152090380Y-80652857D01*
X152090380Y-81271904D01*
X150026642Y-79494142D02*
X150074261Y-79446523D01*
X150121880Y-79303666D01*
X150121880Y-79208428D01*
X150074261Y-79065571D01*
X149979023Y-78970333D01*
X149883785Y-78922714D01*
X149693309Y-78875095D01*
X149550452Y-78875095D01*
X149359976Y-78922714D01*
X149264738Y-78970333D01*
X149169500Y-79065571D01*
X149121880Y-79208428D01*
X149121880Y-79303666D01*
X149169500Y-79446523D01*
X149217119Y-79494142D01*
X149121880Y-79827476D02*
X149121880Y-80446523D01*
X149502833Y-80113190D01*
X149502833Y-80256047D01*
X149550452Y-80351285D01*
X149598071Y-80398904D01*
X149693309Y-80446523D01*
X149931404Y-80446523D01*
X150026642Y-80398904D01*
X150074261Y-80351285D01*
X150121880Y-80256047D01*
X150121880Y-79970333D01*
X150074261Y-79875095D01*
X150026642Y-79827476D01*
X149455214Y-81303666D02*
X150121880Y-81303666D01*
X149074261Y-81065571D02*
X149788547Y-80827476D01*
X149788547Y-81446523D01*
X148312142Y-79494142D02*
X148359761Y-79446523D01*
X148407380Y-79303666D01*
X148407380Y-79208428D01*
X148359761Y-79065571D01*
X148264523Y-78970333D01*
X148169285Y-78922714D01*
X147978809Y-78875095D01*
X147835952Y-78875095D01*
X147645476Y-78922714D01*
X147550238Y-78970333D01*
X147455000Y-79065571D01*
X147407380Y-79208428D01*
X147407380Y-79303666D01*
X147455000Y-79446523D01*
X147502619Y-79494142D01*
X147740714Y-80351285D02*
X148407380Y-80351285D01*
X147359761Y-80113190D02*
X148074047Y-79875095D01*
X148074047Y-80494142D01*
X148407380Y-81398904D02*
X148407380Y-80827476D01*
X148407380Y-81113190D02*
X147407380Y-81113190D01*
X147550238Y-81017952D01*
X147645476Y-80922714D01*
X147693095Y-80827476D01*
X153773142Y-79367142D02*
X153820761Y-79319523D01*
X153868380Y-79176666D01*
X153868380Y-79081428D01*
X153820761Y-78938571D01*
X153725523Y-78843333D01*
X153630285Y-78795714D01*
X153439809Y-78748095D01*
X153296952Y-78748095D01*
X153106476Y-78795714D01*
X153011238Y-78843333D01*
X152916000Y-78938571D01*
X152868380Y-79081428D01*
X152868380Y-79176666D01*
X152916000Y-79319523D01*
X152963619Y-79367142D01*
X153201714Y-80224285D02*
X153868380Y-80224285D01*
X152820761Y-79986190D02*
X153535047Y-79748095D01*
X153535047Y-80367142D01*
X152963619Y-80700476D02*
X152916000Y-80748095D01*
X152868380Y-80843333D01*
X152868380Y-81081428D01*
X152916000Y-81176666D01*
X152963619Y-81224285D01*
X153058857Y-81271904D01*
X153154095Y-81271904D01*
X153296952Y-81224285D01*
X153868380Y-80652857D01*
X153868380Y-81271904D01*
X159138857Y-88495142D02*
X159186476Y-88542761D01*
X159329333Y-88590380D01*
X159424571Y-88590380D01*
X159567428Y-88542761D01*
X159662666Y-88447523D01*
X159710285Y-88352285D01*
X159757904Y-88161809D01*
X159757904Y-88018952D01*
X159710285Y-87828476D01*
X159662666Y-87733238D01*
X159567428Y-87638000D01*
X159424571Y-87590380D01*
X159329333Y-87590380D01*
X159186476Y-87638000D01*
X159138857Y-87685619D01*
X158281714Y-87923714D02*
X158281714Y-88590380D01*
X158519809Y-87542761D02*
X158757904Y-88257047D01*
X158138857Y-88257047D01*
X157329333Y-87923714D02*
X157329333Y-88590380D01*
X157567428Y-87542761D02*
X157805523Y-88257047D01*
X157186476Y-88257047D01*
X128373142Y-99528333D02*
X128420761Y-99480714D01*
X128468380Y-99337857D01*
X128468380Y-99242619D01*
X128420761Y-99099761D01*
X128325523Y-99004523D01*
X128230285Y-98956904D01*
X128039809Y-98909285D01*
X127896952Y-98909285D01*
X127706476Y-98956904D01*
X127611238Y-99004523D01*
X127516000Y-99099761D01*
X127468380Y-99242619D01*
X127468380Y-99337857D01*
X127516000Y-99480714D01*
X127563619Y-99528333D01*
X128468380Y-100480714D02*
X128468380Y-99909285D01*
X128468380Y-100195000D02*
X127468380Y-100195000D01*
X127611238Y-100099761D01*
X127706476Y-100004523D01*
X127754095Y-99909285D01*
X118218092Y-99267983D02*
X118265711Y-99220364D01*
X118313330Y-99077507D01*
X118313330Y-98982269D01*
X118265711Y-98839411D01*
X118170473Y-98744173D01*
X118075235Y-98696554D01*
X117884759Y-98648935D01*
X117741902Y-98648935D01*
X117551426Y-98696554D01*
X117456188Y-98744173D01*
X117360950Y-98839411D01*
X117313330Y-98982269D01*
X117313330Y-99077507D01*
X117360950Y-99220364D01*
X117408569Y-99267983D01*
X117408569Y-99648935D02*
X117360950Y-99696554D01*
X117313330Y-99791792D01*
X117313330Y-100029888D01*
X117360950Y-100125126D01*
X117408569Y-100172745D01*
X117503807Y-100220364D01*
X117599045Y-100220364D01*
X117741902Y-100172745D01*
X118313330Y-99601316D01*
X118313330Y-100220364D01*
X128500142Y-95750142D02*
X128547761Y-95702523D01*
X128595380Y-95559666D01*
X128595380Y-95464428D01*
X128547761Y-95321571D01*
X128452523Y-95226333D01*
X128357285Y-95178714D01*
X128166809Y-95131095D01*
X128023952Y-95131095D01*
X127833476Y-95178714D01*
X127738238Y-95226333D01*
X127643000Y-95321571D01*
X127595380Y-95464428D01*
X127595380Y-95559666D01*
X127643000Y-95702523D01*
X127690619Y-95750142D01*
X128595380Y-96702523D02*
X128595380Y-96131095D01*
X128595380Y-96416809D02*
X127595380Y-96416809D01*
X127738238Y-96321571D01*
X127833476Y-96226333D01*
X127881095Y-96131095D01*
X127595380Y-97321571D02*
X127595380Y-97416809D01*
X127643000Y-97512047D01*
X127690619Y-97559666D01*
X127785857Y-97607285D01*
X127976333Y-97654904D01*
X128214428Y-97654904D01*
X128404904Y-97607285D01*
X128500142Y-97559666D01*
X128547761Y-97512047D01*
X128595380Y-97416809D01*
X128595380Y-97321571D01*
X128547761Y-97226333D01*
X128500142Y-97178714D01*
X128404904Y-97131095D01*
X128214428Y-97083476D01*
X127976333Y-97083476D01*
X127785857Y-97131095D01*
X127690619Y-97178714D01*
X127643000Y-97226333D01*
X127595380Y-97321571D01*
X118213142Y-95877142D02*
X118260761Y-95829523D01*
X118308380Y-95686666D01*
X118308380Y-95591428D01*
X118260761Y-95448571D01*
X118165523Y-95353333D01*
X118070285Y-95305714D01*
X117879809Y-95258095D01*
X117736952Y-95258095D01*
X117546476Y-95305714D01*
X117451238Y-95353333D01*
X117356000Y-95448571D01*
X117308380Y-95591428D01*
X117308380Y-95686666D01*
X117356000Y-95829523D01*
X117403619Y-95877142D01*
X118308380Y-96829523D02*
X118308380Y-96258095D01*
X118308380Y-96543809D02*
X117308380Y-96543809D01*
X117451238Y-96448571D01*
X117546476Y-96353333D01*
X117594095Y-96258095D01*
X117308380Y-97734285D02*
X117308380Y-97258095D01*
X117784571Y-97210476D01*
X117736952Y-97258095D01*
X117689333Y-97353333D01*
X117689333Y-97591428D01*
X117736952Y-97686666D01*
X117784571Y-97734285D01*
X117879809Y-97781904D01*
X118117904Y-97781904D01*
X118213142Y-97734285D01*
X118260761Y-97686666D01*
X118308380Y-97591428D01*
X118308380Y-97353333D01*
X118260761Y-97258095D01*
X118213142Y-97210476D01*
X118197380Y-106870595D02*
X119006904Y-106870595D01*
X119102142Y-106918214D01*
X119149761Y-106965833D01*
X119197380Y-107061071D01*
X119197380Y-107251547D01*
X119149761Y-107346785D01*
X119102142Y-107394404D01*
X119006904Y-107442023D01*
X118197380Y-107442023D01*
X118197380Y-108346785D02*
X118197380Y-108156309D01*
X118245000Y-108061071D01*
X118292619Y-108013452D01*
X118435476Y-107918214D01*
X118625952Y-107870595D01*
X119006904Y-107870595D01*
X119102142Y-107918214D01*
X119149761Y-107965833D01*
X119197380Y-108061071D01*
X119197380Y-108251547D01*
X119149761Y-108346785D01*
X119102142Y-108394404D01*
X119006904Y-108442023D01*
X118768809Y-108442023D01*
X118673571Y-108394404D01*
X118625952Y-108346785D01*
X118578333Y-108251547D01*
X118578333Y-108061071D01*
X118625952Y-107965833D01*
X118673571Y-107918214D01*
X118768809Y-107870595D01*
X122943857Y-116470642D02*
X122991476Y-116518261D01*
X123134333Y-116565880D01*
X123229571Y-116565880D01*
X123372428Y-116518261D01*
X123467666Y-116423023D01*
X123515285Y-116327785D01*
X123562904Y-116137309D01*
X123562904Y-115994452D01*
X123515285Y-115803976D01*
X123467666Y-115708738D01*
X123372428Y-115613500D01*
X123229571Y-115565880D01*
X123134333Y-115565880D01*
X122991476Y-115613500D01*
X122943857Y-115661119D01*
X121991476Y-116565880D02*
X122562904Y-116565880D01*
X122277190Y-116565880D02*
X122277190Y-115565880D01*
X122372428Y-115708738D01*
X122467666Y-115803976D01*
X122562904Y-115851595D01*
X121658142Y-115565880D02*
X120991476Y-115565880D01*
X121420047Y-116565880D01*
X128309642Y-103179642D02*
X128357261Y-103132023D01*
X128404880Y-102989166D01*
X128404880Y-102893928D01*
X128357261Y-102751071D01*
X128262023Y-102655833D01*
X128166785Y-102608214D01*
X127976309Y-102560595D01*
X127833452Y-102560595D01*
X127642976Y-102608214D01*
X127547738Y-102655833D01*
X127452500Y-102751071D01*
X127404880Y-102893928D01*
X127404880Y-102989166D01*
X127452500Y-103132023D01*
X127500119Y-103179642D01*
X128404880Y-104132023D02*
X128404880Y-103560595D01*
X128404880Y-103846309D02*
X127404880Y-103846309D01*
X127547738Y-103751071D01*
X127642976Y-103655833D01*
X127690595Y-103560595D01*
X127833452Y-104703452D02*
X127785833Y-104608214D01*
X127738214Y-104560595D01*
X127642976Y-104512976D01*
X127595357Y-104512976D01*
X127500119Y-104560595D01*
X127452500Y-104608214D01*
X127404880Y-104703452D01*
X127404880Y-104893928D01*
X127452500Y-104989166D01*
X127500119Y-105036785D01*
X127595357Y-105084404D01*
X127642976Y-105084404D01*
X127738214Y-105036785D01*
X127785833Y-104989166D01*
X127833452Y-104893928D01*
X127833452Y-104703452D01*
X127881071Y-104608214D01*
X127928690Y-104560595D01*
X128023928Y-104512976D01*
X128214404Y-104512976D01*
X128309642Y-104560595D01*
X128357261Y-104608214D01*
X128404880Y-104703452D01*
X128404880Y-104893928D01*
X128357261Y-104989166D01*
X128309642Y-105036785D01*
X128214404Y-105084404D01*
X128023928Y-105084404D01*
X127928690Y-105036785D01*
X127881071Y-104989166D01*
X127833452Y-104893928D01*
X123832880Y-84320142D02*
X123356690Y-83986809D01*
X123832880Y-83748714D02*
X122832880Y-83748714D01*
X122832880Y-84129666D01*
X122880500Y-84224904D01*
X122928119Y-84272523D01*
X123023357Y-84320142D01*
X123166214Y-84320142D01*
X123261452Y-84272523D01*
X123309071Y-84224904D01*
X123356690Y-84129666D01*
X123356690Y-83748714D01*
X123832880Y-85272523D02*
X123832880Y-84701095D01*
X123832880Y-84986809D02*
X122832880Y-84986809D01*
X122975738Y-84891571D01*
X123070976Y-84796333D01*
X123118595Y-84701095D01*
X123832880Y-86224904D02*
X123832880Y-85653476D01*
X123832880Y-85939190D02*
X122832880Y-85939190D01*
X122975738Y-85843952D01*
X123070976Y-85748714D01*
X123118595Y-85653476D01*
X137644142Y-104259142D02*
X137691761Y-104211523D01*
X137739380Y-104068666D01*
X137739380Y-103973428D01*
X137691761Y-103830571D01*
X137596523Y-103735333D01*
X137501285Y-103687714D01*
X137310809Y-103640095D01*
X137167952Y-103640095D01*
X136977476Y-103687714D01*
X136882238Y-103735333D01*
X136787000Y-103830571D01*
X136739380Y-103973428D01*
X136739380Y-104068666D01*
X136787000Y-104211523D01*
X136834619Y-104259142D01*
X136834619Y-104640095D02*
X136787000Y-104687714D01*
X136739380Y-104782952D01*
X136739380Y-105021047D01*
X136787000Y-105116285D01*
X136834619Y-105163904D01*
X136929857Y-105211523D01*
X137025095Y-105211523D01*
X137167952Y-105163904D01*
X137739380Y-104592476D01*
X137739380Y-105211523D01*
X136739380Y-105544857D02*
X136739380Y-106163904D01*
X137120333Y-105830571D01*
X137120333Y-105973428D01*
X137167952Y-106068666D01*
X137215571Y-106116285D01*
X137310809Y-106163904D01*
X137548904Y-106163904D01*
X137644142Y-106116285D01*
X137691761Y-106068666D01*
X137739380Y-105973428D01*
X137739380Y-105687714D01*
X137691761Y-105592476D01*
X137644142Y-105544857D01*
X130817928Y-99758547D02*
X130817928Y-100520452D01*
X131198880Y-100139500D02*
X130436976Y-100139500D01*
X128627166Y-94368880D02*
X128960500Y-93892690D01*
X129198595Y-94368880D02*
X129198595Y-93368880D01*
X128817642Y-93368880D01*
X128722404Y-93416500D01*
X128674785Y-93464119D01*
X128627166Y-93559357D01*
X128627166Y-93702214D01*
X128674785Y-93797452D01*
X128722404Y-93845071D01*
X128817642Y-93892690D01*
X129198595Y-93892690D01*
X127674785Y-94368880D02*
X128246214Y-94368880D01*
X127960500Y-94368880D02*
X127960500Y-93368880D01*
X128055738Y-93511738D01*
X128150976Y-93606976D01*
X128246214Y-93654595D01*
X124150380Y-90638333D02*
X123674190Y-90305000D01*
X124150380Y-90066904D02*
X123150380Y-90066904D01*
X123150380Y-90447857D01*
X123198000Y-90543095D01*
X123245619Y-90590714D01*
X123340857Y-90638333D01*
X123483714Y-90638333D01*
X123578952Y-90590714D01*
X123626571Y-90543095D01*
X123674190Y-90447857D01*
X123674190Y-90066904D01*
X123245619Y-91019285D02*
X123198000Y-91066904D01*
X123150380Y-91162142D01*
X123150380Y-91400238D01*
X123198000Y-91495476D01*
X123245619Y-91543095D01*
X123340857Y-91590714D01*
X123436095Y-91590714D01*
X123578952Y-91543095D01*
X124150380Y-90971666D01*
X124150380Y-91590714D01*
X122626380Y-90638333D02*
X122150190Y-90305000D01*
X122626380Y-90066904D02*
X121626380Y-90066904D01*
X121626380Y-90447857D01*
X121674000Y-90543095D01*
X121721619Y-90590714D01*
X121816857Y-90638333D01*
X121959714Y-90638333D01*
X122054952Y-90590714D01*
X122102571Y-90543095D01*
X122150190Y-90447857D01*
X122150190Y-90066904D01*
X121626380Y-90971666D02*
X121626380Y-91590714D01*
X122007333Y-91257380D01*
X122007333Y-91400238D01*
X122054952Y-91495476D01*
X122102571Y-91543095D01*
X122197809Y-91590714D01*
X122435904Y-91590714D01*
X122531142Y-91543095D01*
X122578761Y-91495476D01*
X122626380Y-91400238D01*
X122626380Y-91114523D01*
X122578761Y-91019285D01*
X122531142Y-90971666D01*
X117514666Y-94559380D02*
X117848000Y-94083190D01*
X118086095Y-94559380D02*
X118086095Y-93559380D01*
X117705142Y-93559380D01*
X117609904Y-93607000D01*
X117562285Y-93654619D01*
X117514666Y-93749857D01*
X117514666Y-93892714D01*
X117562285Y-93987952D01*
X117609904Y-94035571D01*
X117705142Y-94083190D01*
X118086095Y-94083190D01*
X116657523Y-93892714D02*
X116657523Y-94559380D01*
X116895619Y-93511761D02*
X117133714Y-94226047D01*
X116514666Y-94226047D01*
X137675857Y-96750142D02*
X137723476Y-96797761D01*
X137866333Y-96845380D01*
X137961571Y-96845380D01*
X138104428Y-96797761D01*
X138199666Y-96702523D01*
X138247285Y-96607285D01*
X138294904Y-96416809D01*
X138294904Y-96273952D01*
X138247285Y-96083476D01*
X138199666Y-95988238D01*
X138104428Y-95893000D01*
X137961571Y-95845380D01*
X137866333Y-95845380D01*
X137723476Y-95893000D01*
X137675857Y-95940619D01*
X137294904Y-95940619D02*
X137247285Y-95893000D01*
X137152047Y-95845380D01*
X136913952Y-95845380D01*
X136818714Y-95893000D01*
X136771095Y-95940619D01*
X136723476Y-96035857D01*
X136723476Y-96131095D01*
X136771095Y-96273952D01*
X137342523Y-96845380D01*
X136723476Y-96845380D01*
X135818714Y-95845380D02*
X136294904Y-95845380D01*
X136342523Y-96321571D01*
X136294904Y-96273952D01*
X136199666Y-96226333D01*
X135961571Y-96226333D01*
X135866333Y-96273952D01*
X135818714Y-96321571D01*
X135771095Y-96416809D01*
X135771095Y-96654904D01*
X135818714Y-96750142D01*
X135866333Y-96797761D01*
X135961571Y-96845380D01*
X136199666Y-96845380D01*
X136294904Y-96797761D01*
X136342523Y-96750142D01*
X135897857Y-83542142D02*
X135945476Y-83589761D01*
X136088333Y-83637380D01*
X136183571Y-83637380D01*
X136326428Y-83589761D01*
X136421666Y-83494523D01*
X136469285Y-83399285D01*
X136516904Y-83208809D01*
X136516904Y-83065952D01*
X136469285Y-82875476D01*
X136421666Y-82780238D01*
X136326428Y-82685000D01*
X136183571Y-82637380D01*
X136088333Y-82637380D01*
X135945476Y-82685000D01*
X135897857Y-82732619D01*
X135516904Y-82732619D02*
X135469285Y-82685000D01*
X135374047Y-82637380D01*
X135135952Y-82637380D01*
X135040714Y-82685000D01*
X134993095Y-82732619D01*
X134945476Y-82827857D01*
X134945476Y-82923095D01*
X134993095Y-83065952D01*
X135564523Y-83637380D01*
X134945476Y-83637380D01*
X134088333Y-82637380D02*
X134278809Y-82637380D01*
X134374047Y-82685000D01*
X134421666Y-82732619D01*
X134516904Y-82875476D01*
X134564523Y-83065952D01*
X134564523Y-83446904D01*
X134516904Y-83542142D01*
X134469285Y-83589761D01*
X134374047Y-83637380D01*
X134183571Y-83637380D01*
X134088333Y-83589761D01*
X134040714Y-83542142D01*
X133993095Y-83446904D01*
X133993095Y-83208809D01*
X134040714Y-83113571D01*
X134088333Y-83065952D01*
X134183571Y-83018333D01*
X134374047Y-83018333D01*
X134469285Y-83065952D01*
X134516904Y-83113571D01*
X134564523Y-83208809D01*
X138469666Y-87574380D02*
X138803000Y-87098190D01*
X139041095Y-87574380D02*
X139041095Y-86574380D01*
X138660142Y-86574380D01*
X138564904Y-86622000D01*
X138517285Y-86669619D01*
X138469666Y-86764857D01*
X138469666Y-86907714D01*
X138517285Y-87002952D01*
X138564904Y-87050571D01*
X138660142Y-87098190D01*
X139041095Y-87098190D01*
X137564904Y-86574380D02*
X138041095Y-86574380D01*
X138088714Y-87050571D01*
X138041095Y-87002952D01*
X137945857Y-86955333D01*
X137707761Y-86955333D01*
X137612523Y-87002952D01*
X137564904Y-87050571D01*
X137517285Y-87145809D01*
X137517285Y-87383904D01*
X137564904Y-87479142D01*
X137612523Y-87526761D01*
X137707761Y-87574380D01*
X137945857Y-87574380D01*
X138041095Y-87526761D01*
X138088714Y-87479142D01*
X131389380Y-85939333D02*
X130913190Y-85606000D01*
X131389380Y-85367904D02*
X130389380Y-85367904D01*
X130389380Y-85748857D01*
X130437000Y-85844095D01*
X130484619Y-85891714D01*
X130579857Y-85939333D01*
X130722714Y-85939333D01*
X130817952Y-85891714D01*
X130865571Y-85844095D01*
X130913190Y-85748857D01*
X130913190Y-85367904D01*
X130389380Y-86796476D02*
X130389380Y-86606000D01*
X130437000Y-86510761D01*
X130484619Y-86463142D01*
X130627476Y-86367904D01*
X130817952Y-86320285D01*
X131198904Y-86320285D01*
X131294142Y-86367904D01*
X131341761Y-86415523D01*
X131389380Y-86510761D01*
X131389380Y-86701238D01*
X131341761Y-86796476D01*
X131294142Y-86844095D01*
X131198904Y-86891714D01*
X130960809Y-86891714D01*
X130865571Y-86844095D01*
X130817952Y-86796476D01*
X130770333Y-86701238D01*
X130770333Y-86510761D01*
X130817952Y-86415523D01*
X130865571Y-86367904D01*
X130960809Y-86320285D01*
X137734380Y-89916095D02*
X138543904Y-89916095D01*
X138639142Y-89963714D01*
X138686761Y-90011333D01*
X138734380Y-90106571D01*
X138734380Y-90297047D01*
X138686761Y-90392285D01*
X138639142Y-90439904D01*
X138543904Y-90487523D01*
X137734380Y-90487523D01*
X137734380Y-90868476D02*
X137734380Y-91487523D01*
X138115333Y-91154190D01*
X138115333Y-91297047D01*
X138162952Y-91392285D01*
X138210571Y-91439904D01*
X138305809Y-91487523D01*
X138543904Y-91487523D01*
X138639142Y-91439904D01*
X138686761Y-91392285D01*
X138734380Y-91297047D01*
X138734380Y-91011333D01*
X138686761Y-90916095D01*
X138639142Y-90868476D01*
X154939904Y-95012380D02*
X154939904Y-95821904D01*
X154892285Y-95917142D01*
X154844666Y-95964761D01*
X154749428Y-96012380D01*
X154558952Y-96012380D01*
X154463714Y-95964761D01*
X154416095Y-95917142D01*
X154368476Y-95821904D01*
X154368476Y-95012380D01*
X153844666Y-96012380D02*
X153654190Y-96012380D01*
X153558952Y-95964761D01*
X153511333Y-95917142D01*
X153416095Y-95774285D01*
X153368476Y-95583809D01*
X153368476Y-95202857D01*
X153416095Y-95107619D01*
X153463714Y-95060000D01*
X153558952Y-95012380D01*
X153749428Y-95012380D01*
X153844666Y-95060000D01*
X153892285Y-95107619D01*
X153939904Y-95202857D01*
X153939904Y-95440952D01*
X153892285Y-95536190D01*
X153844666Y-95583809D01*
X153749428Y-95631428D01*
X153558952Y-95631428D01*
X153463714Y-95583809D01*
X153416095Y-95536190D01*
X153368476Y-95440952D01*
M02*
