G04 #@! TF.GenerationSoftware,KiCad,Pcbnew,(5.1.6)-1*
G04 #@! TF.CreationDate,2020-07-24T04:57:18+02:00*
G04 #@! TF.ProjectId,AnalogControlBoard_Rev1.1,416e616c-6f67-4436-9f6e-74726f6c426f,rev?*
G04 #@! TF.SameCoordinates,Original*
G04 #@! TF.FileFunction,Profile,NP*
%FSLAX46Y46*%
G04 Gerber Fmt 4.6, Leading zero omitted, Abs format (unit mm)*
G04 Created by KiCad (PCBNEW (5.1.6)-1) date 2020-07-24 04:57:18*
%MOMM*%
%LPD*%
G01*
G04 APERTURE LIST*
G04 #@! TA.AperFunction,Profile*
%ADD10C,0.150000*%
G04 #@! TD*
G04 APERTURE END LIST*
D10*
X104536666Y-49530000D02*
G75*
G03*
X104536666Y-49530000I-1666666J0D01*
G01*
X100370000Y-49530000D02*
X105370000Y-49530000D01*
X102870000Y-47030000D02*
X102870000Y-52030000D01*
X185801000Y-127254000D02*
X160274000Y-127254000D01*
X182372000Y-52070000D02*
X185801000Y-52070000D01*
X185801000Y-123698000D02*
X185801000Y-127254000D01*
X181356000Y-123698000D02*
X185801000Y-123698000D01*
X181356000Y-120396000D02*
X181356000Y-123698000D01*
X185801000Y-120396000D02*
X181356000Y-120396000D01*
X185801000Y-116078000D02*
X185801000Y-120396000D01*
X181356000Y-116078000D02*
X185801000Y-116078000D01*
X181356000Y-112776000D02*
X181356000Y-116078000D01*
X185801000Y-112776000D02*
X181356000Y-112776000D01*
X185801000Y-108458000D02*
X185801000Y-112776000D01*
X181356000Y-108458000D02*
X185801000Y-108458000D01*
X181356000Y-105156000D02*
X181356000Y-108458000D01*
X185801000Y-105156000D02*
X181356000Y-105156000D01*
X185801000Y-100838000D02*
X185801000Y-105156000D01*
X181356000Y-100838000D02*
X185801000Y-100838000D01*
X181356000Y-97536000D02*
X181356000Y-100838000D01*
X185801000Y-97536000D02*
X181356000Y-97536000D01*
X185801000Y-93218000D02*
X185801000Y-97536000D01*
X181356000Y-93218000D02*
X185801000Y-93218000D01*
X181356000Y-89916000D02*
X181356000Y-93218000D01*
X185801000Y-89916000D02*
X181356000Y-89916000D01*
X185801000Y-85598000D02*
X185801000Y-89916000D01*
X181356000Y-85598000D02*
X185801000Y-85598000D01*
X181356000Y-82296000D02*
X181356000Y-85598000D01*
X185801000Y-82296000D02*
X181356000Y-82296000D01*
X185801000Y-77978000D02*
X185801000Y-82296000D01*
X181356000Y-77978000D02*
X185801000Y-77978000D01*
X181356000Y-74676000D02*
X181356000Y-77978000D01*
X185801000Y-74676000D02*
X181356000Y-74676000D01*
X185801000Y-70358000D02*
X185801000Y-74676000D01*
X181356000Y-70358000D02*
X185801000Y-70358000D01*
X181356000Y-67056000D02*
X181356000Y-70358000D01*
X185801000Y-67056000D02*
X181356000Y-67056000D01*
X185801000Y-52070000D02*
X185801000Y-67056000D01*
X182372000Y-56642000D02*
X182372000Y-52070000D01*
X178943000Y-56642000D02*
X182372000Y-56642000D01*
X178943000Y-52070000D02*
X178943000Y-56642000D01*
X174752000Y-52070000D02*
X178943000Y-52070000D01*
X174752000Y-56642000D02*
X174752000Y-52070000D01*
X171323000Y-56642000D02*
X174752000Y-56642000D01*
X171323000Y-52070000D02*
X171323000Y-56642000D01*
X167132000Y-52070000D02*
X171323000Y-52070000D01*
X167132000Y-56642000D02*
X167132000Y-52070000D01*
X163703000Y-56642000D02*
X167132000Y-56642000D01*
X163703000Y-52070000D02*
X163703000Y-56642000D01*
X159512000Y-52070000D02*
X163703000Y-52070000D01*
X159512000Y-56642000D02*
X159512000Y-52070000D01*
X156083000Y-56642000D02*
X159512000Y-56642000D01*
X156083000Y-52070000D02*
X156083000Y-56642000D01*
X143002000Y-52070000D02*
X156083000Y-52070000D01*
X143002000Y-56642000D02*
X143002000Y-52070000D01*
X139573000Y-56642000D02*
X143002000Y-56642000D01*
X139573000Y-52070000D02*
X139573000Y-56642000D01*
X135382000Y-52070000D02*
X139573000Y-52070000D01*
X135382000Y-56642000D02*
X135382000Y-52070000D01*
X131953000Y-56642000D02*
X135382000Y-56642000D01*
X131953000Y-52070000D02*
X131953000Y-56642000D01*
X127762000Y-52070000D02*
X131953000Y-52070000D01*
X127762000Y-56642000D02*
X127762000Y-52070000D01*
X124333000Y-56642000D02*
X127762000Y-56642000D01*
X124333000Y-52070000D02*
X124333000Y-56642000D01*
X120142000Y-52070000D02*
X124333000Y-52070000D01*
X120142000Y-56642000D02*
X120142000Y-52070000D01*
X116713000Y-56642000D02*
X120142000Y-56642000D01*
X116713000Y-52070000D02*
X116713000Y-56642000D01*
X105664000Y-52070000D02*
X116713000Y-52070000D01*
X105664000Y-55626000D02*
X105664000Y-52070000D01*
X110109000Y-55626000D02*
X105664000Y-55626000D01*
X110109000Y-58928000D02*
X110109000Y-55626000D01*
X105664000Y-58928000D02*
X110109000Y-58928000D01*
X105664000Y-63246000D02*
X105664000Y-58928000D01*
X110109000Y-63246000D02*
X105664000Y-63246000D01*
X110109000Y-66548000D02*
X110109000Y-63246000D01*
X105664000Y-66548000D02*
X110109000Y-66548000D01*
X105664000Y-66675000D02*
X105664000Y-66548000D01*
X105664000Y-70866000D02*
X105664000Y-66675000D01*
X110109000Y-70866000D02*
X105664000Y-70866000D01*
X110109000Y-74168000D02*
X110109000Y-70866000D01*
X105664000Y-74168000D02*
X110109000Y-74168000D01*
X110236000Y-81788000D02*
X110236000Y-78486000D01*
X105664000Y-81788000D02*
X110236000Y-81788000D01*
X105664000Y-81915000D02*
X105664000Y-81788000D01*
X105664000Y-78486000D02*
X105664000Y-74168000D01*
X105664000Y-127254000D02*
X105664000Y-81915000D01*
X110236000Y-78486000D02*
X105664000Y-78486000D01*
X158794800Y-128922400D02*
X158794800Y-130222400D01*
X160694800Y-127222400D02*
G75*
G03*
X158794800Y-128922400I-100000J-1800000D01*
G01*
X158794800Y-130222400D02*
G75*
G03*
X160594800Y-132022400I1800000J0D01*
G01*
X160594800Y-132022400D02*
X165794800Y-132022400D01*
X163294800Y-137022400D02*
X153594800Y-137022400D01*
X165794800Y-134522400D02*
X163294800Y-137022400D01*
X165794800Y-132022400D02*
X165794800Y-134522400D01*
X139144800Y-131572400D02*
X139144800Y-139372400D01*
X139694800Y-139922400D02*
X139144800Y-139372400D01*
X137344800Y-139372400D02*
X136794800Y-139922400D01*
X137344800Y-131522400D02*
X137344800Y-139372400D01*
X138244800Y-130622400D02*
G75*
G03*
X137344800Y-131522400I0J-900000D01*
G01*
X139144800Y-131522400D02*
G75*
G03*
X138244800Y-130622400I-900000J0D01*
G01*
X153094800Y-136522400D02*
X153594800Y-137022400D01*
X153094800Y-132022400D02*
X153094800Y-136522400D01*
X153094800Y-132022400D02*
G75*
G03*
X151694800Y-130622400I-1400000J0D01*
G01*
X151794800Y-130622400D02*
G75*
G03*
X150294800Y-131922400I-100000J-1400000D01*
G01*
X150294800Y-139422400D02*
X150294800Y-131922400D01*
X149794800Y-139922400D02*
X150294800Y-139422400D01*
X139694800Y-139922400D02*
X149794800Y-139922400D01*
X130594800Y-139922400D02*
X136794800Y-139922400D01*
X130194800Y-139522400D02*
X130594800Y-139922400D01*
X130194800Y-132122400D02*
X130194800Y-139522400D01*
X128794800Y-130622400D02*
X128894800Y-130622400D01*
X128794800Y-130622400D02*
G75*
G03*
X127394800Y-132022400I0J-1400000D01*
G01*
X130194800Y-132122400D02*
G75*
G03*
X128894800Y-130622400I-1400000J100000D01*
G01*
X119794800Y-127222400D02*
X105694800Y-127222400D01*
X119894800Y-132022400D02*
X114694800Y-132022400D01*
X121694800Y-129122400D02*
X121694800Y-130022400D01*
X121694800Y-129122400D02*
G75*
G03*
X119794800Y-127222400I-1900000J0D01*
G01*
X119894800Y-132022400D02*
G75*
G03*
X121694800Y-130022400I-100000J1900000D01*
G01*
X117194800Y-137022400D02*
X126894800Y-137022400D01*
X114694800Y-134522400D02*
X117194800Y-137022400D01*
X114694800Y-134522400D02*
X114694800Y-132022400D01*
X127394800Y-136522400D02*
X126894800Y-137022400D01*
X127394800Y-132022400D02*
X127394800Y-136522400D01*
X105664000Y-127254000D02*
X105664000Y-127000000D01*
M02*
