G04 #@! TF.GenerationSoftware,KiCad,Pcbnew,(5.1.6)-1*
G04 #@! TF.CreationDate,2020-07-24T04:57:18+02:00*
G04 #@! TF.ProjectId,AnalogControlBoard_Rev1.1,416e616c-6f67-4436-9f6e-74726f6c426f,rev?*
G04 #@! TF.SameCoordinates,Original*
G04 #@! TF.FileFunction,Soldermask,Top*
G04 #@! TF.FilePolarity,Negative*
%FSLAX46Y46*%
G04 Gerber Fmt 4.6, Leading zero omitted, Abs format (unit mm)*
G04 Created by KiCad (PCBNEW (5.1.6)-1) date 2020-07-24 04:57:18*
%MOMM*%
%LPD*%
G01*
G04 APERTURE LIST*
%ADD10C,0.050000*%
G04 APERTURE END LIST*
D10*
G36*
X149167000Y-137753500D02*
G01*
X148367000Y-137753500D01*
X148367000Y-133453500D01*
X149167000Y-133453500D01*
X149167000Y-137753500D01*
G37*
G36*
X141167000Y-137753500D02*
G01*
X140367000Y-137753500D01*
X140367000Y-133453500D01*
X141167000Y-133453500D01*
X141167000Y-137753500D01*
G37*
G36*
X131167000Y-137753500D02*
G01*
X130367000Y-137753500D01*
X130367000Y-133453500D01*
X131167000Y-133453500D01*
X131167000Y-137753500D01*
G37*
G36*
X132167000Y-137753500D02*
G01*
X131367000Y-137753500D01*
X131367000Y-133453500D01*
X132167000Y-133453500D01*
X132167000Y-137753500D01*
G37*
G36*
X133167000Y-137753500D02*
G01*
X132367000Y-137753500D01*
X132367000Y-133453500D01*
X133167000Y-133453500D01*
X133167000Y-137753500D01*
G37*
G36*
X134167000Y-137753500D02*
G01*
X133367000Y-137753500D01*
X133367000Y-133453500D01*
X134167000Y-133453500D01*
X134167000Y-137753500D01*
G37*
G36*
X135167000Y-137753500D02*
G01*
X134367000Y-137753500D01*
X134367000Y-133453500D01*
X135167000Y-133453500D01*
X135167000Y-137753500D01*
G37*
G36*
X136167000Y-137753500D02*
G01*
X135367000Y-137753500D01*
X135367000Y-133453500D01*
X136167000Y-133453500D01*
X136167000Y-137753500D01*
G37*
G36*
X137167000Y-137753500D02*
G01*
X136367000Y-137753500D01*
X136367000Y-133453500D01*
X137167000Y-133453500D01*
X137167000Y-137753500D01*
G37*
G36*
X142167000Y-137753500D02*
G01*
X141367000Y-137753500D01*
X141367000Y-133453500D01*
X142167000Y-133453500D01*
X142167000Y-137753500D01*
G37*
G36*
X143167000Y-137753500D02*
G01*
X142367000Y-137753500D01*
X142367000Y-133453500D01*
X143167000Y-133453500D01*
X143167000Y-137753500D01*
G37*
G36*
X144167000Y-137753500D02*
G01*
X143367000Y-137753500D01*
X143367000Y-133453500D01*
X144167000Y-133453500D01*
X144167000Y-137753500D01*
G37*
G36*
X145167000Y-137753500D02*
G01*
X144367000Y-137753500D01*
X144367000Y-133453500D01*
X145167000Y-133453500D01*
X145167000Y-137753500D01*
G37*
G36*
X146167000Y-137753500D02*
G01*
X145367000Y-137753500D01*
X145367000Y-133453500D01*
X146167000Y-133453500D01*
X146167000Y-137753500D01*
G37*
G36*
X147167000Y-137753500D02*
G01*
X146367000Y-137753500D01*
X146367000Y-133453500D01*
X147167000Y-133453500D01*
X147167000Y-137753500D01*
G37*
G36*
X148167000Y-137753500D02*
G01*
X147367000Y-137753500D01*
X147367000Y-133453500D01*
X148167000Y-133453500D01*
X148167000Y-137753500D01*
G37*
G36*
X140167000Y-137753500D02*
G01*
X139367000Y-137753500D01*
X139367000Y-133453500D01*
X140167000Y-133453500D01*
X140167000Y-137753500D01*
G37*
G36*
X150167000Y-136753500D02*
G01*
X149367000Y-136753500D01*
X149367000Y-133453500D01*
X150167000Y-133453500D01*
X150167000Y-136753500D01*
G37*
G36*
X132226601Y-127381529D02*
G01*
X132342520Y-127404586D01*
X132506310Y-127472430D01*
X132653717Y-127570924D01*
X132779076Y-127696283D01*
X132877570Y-127843690D01*
X132945414Y-128007480D01*
X132980000Y-128181358D01*
X132980000Y-128358642D01*
X132945414Y-128532520D01*
X132877570Y-128696310D01*
X132779076Y-128843717D01*
X132653717Y-128969076D01*
X132506310Y-129067570D01*
X132342520Y-129135414D01*
X132226601Y-129158471D01*
X132168644Y-129170000D01*
X131991356Y-129170000D01*
X131933399Y-129158471D01*
X131817480Y-129135414D01*
X131653690Y-129067570D01*
X131506283Y-128969076D01*
X131380924Y-128843717D01*
X131282430Y-128696310D01*
X131214586Y-128532520D01*
X131180000Y-128358642D01*
X131180000Y-128181358D01*
X131214586Y-128007480D01*
X131282430Y-127843690D01*
X131380924Y-127696283D01*
X131506283Y-127570924D01*
X131653690Y-127472430D01*
X131817480Y-127404586D01*
X131933399Y-127381529D01*
X131991356Y-127370000D01*
X132168644Y-127370000D01*
X132226601Y-127381529D01*
G37*
G36*
X130440000Y-129170000D02*
G01*
X128640000Y-129170000D01*
X128640000Y-127370000D01*
X130440000Y-127370000D01*
X130440000Y-129170000D01*
G37*
G36*
X134766601Y-127381529D02*
G01*
X134882520Y-127404586D01*
X135046310Y-127472430D01*
X135193717Y-127570924D01*
X135319076Y-127696283D01*
X135417570Y-127843690D01*
X135485414Y-128007480D01*
X135520000Y-128181358D01*
X135520000Y-128358642D01*
X135485414Y-128532520D01*
X135417570Y-128696310D01*
X135319076Y-128843717D01*
X135193717Y-128969076D01*
X135046310Y-129067570D01*
X134882520Y-129135414D01*
X134766601Y-129158471D01*
X134708644Y-129170000D01*
X134531356Y-129170000D01*
X134473399Y-129158471D01*
X134357480Y-129135414D01*
X134193690Y-129067570D01*
X134046283Y-128969076D01*
X133920924Y-128843717D01*
X133822430Y-128696310D01*
X133754586Y-128532520D01*
X133720000Y-128358642D01*
X133720000Y-128181358D01*
X133754586Y-128007480D01*
X133822430Y-127843690D01*
X133920924Y-127696283D01*
X134046283Y-127570924D01*
X134193690Y-127472430D01*
X134357480Y-127404586D01*
X134473399Y-127381529D01*
X134531356Y-127370000D01*
X134708644Y-127370000D01*
X134766601Y-127381529D01*
G37*
G36*
X137306601Y-127381529D02*
G01*
X137422520Y-127404586D01*
X137586310Y-127472430D01*
X137733717Y-127570924D01*
X137859076Y-127696283D01*
X137957570Y-127843690D01*
X138025414Y-128007480D01*
X138060000Y-128181358D01*
X138060000Y-128358642D01*
X138025414Y-128532520D01*
X137957570Y-128696310D01*
X137859076Y-128843717D01*
X137733717Y-128969076D01*
X137586310Y-129067570D01*
X137422520Y-129135414D01*
X137306601Y-129158471D01*
X137248644Y-129170000D01*
X137071356Y-129170000D01*
X137013399Y-129158471D01*
X136897480Y-129135414D01*
X136733690Y-129067570D01*
X136586283Y-128969076D01*
X136460924Y-128843717D01*
X136362430Y-128696310D01*
X136294586Y-128532520D01*
X136260000Y-128358642D01*
X136260000Y-128181358D01*
X136294586Y-128007480D01*
X136362430Y-127843690D01*
X136460924Y-127696283D01*
X136586283Y-127570924D01*
X136733690Y-127472430D01*
X136897480Y-127404586D01*
X137013399Y-127381529D01*
X137071356Y-127370000D01*
X137248644Y-127370000D01*
X137306601Y-127381529D01*
G37*
G36*
X130440000Y-126630000D02*
G01*
X128640000Y-126630000D01*
X128640000Y-124830000D01*
X130440000Y-124830000D01*
X130440000Y-126630000D01*
G37*
G36*
X152541048Y-124840424D02*
G01*
X152662520Y-124864586D01*
X152826310Y-124932430D01*
X152973717Y-125030924D01*
X153099076Y-125156283D01*
X153197570Y-125303690D01*
X153265414Y-125467480D01*
X153288471Y-125583399D01*
X153297372Y-125628142D01*
X153300000Y-125641358D01*
X153300000Y-125818642D01*
X153265414Y-125992520D01*
X153197570Y-126156310D01*
X153099076Y-126303717D01*
X152973717Y-126429076D01*
X152826310Y-126527570D01*
X152662520Y-126595414D01*
X152546601Y-126618471D01*
X152488644Y-126630000D01*
X152311356Y-126630000D01*
X152253399Y-126618471D01*
X152137480Y-126595414D01*
X151973690Y-126527570D01*
X151826283Y-126429076D01*
X151700924Y-126303717D01*
X151602430Y-126156310D01*
X151534586Y-125992520D01*
X151500000Y-125818642D01*
X151500000Y-125641358D01*
X151502629Y-125628142D01*
X151511529Y-125583399D01*
X151534586Y-125467480D01*
X151602430Y-125303690D01*
X151700924Y-125156283D01*
X151826283Y-125030924D01*
X151973690Y-124932430D01*
X152137480Y-124864586D01*
X152258952Y-124840424D01*
X152311356Y-124830000D01*
X152488644Y-124830000D01*
X152541048Y-124840424D01*
G37*
G36*
X150001048Y-124840424D02*
G01*
X150122520Y-124864586D01*
X150286310Y-124932430D01*
X150433717Y-125030924D01*
X150559076Y-125156283D01*
X150657570Y-125303690D01*
X150725414Y-125467480D01*
X150748471Y-125583399D01*
X150757372Y-125628142D01*
X150760000Y-125641358D01*
X150760000Y-125818642D01*
X150725414Y-125992520D01*
X150657570Y-126156310D01*
X150559076Y-126303717D01*
X150433717Y-126429076D01*
X150286310Y-126527570D01*
X150122520Y-126595414D01*
X150006601Y-126618471D01*
X149948644Y-126630000D01*
X149771356Y-126630000D01*
X149713399Y-126618471D01*
X149597480Y-126595414D01*
X149433690Y-126527570D01*
X149286283Y-126429076D01*
X149160924Y-126303717D01*
X149062430Y-126156310D01*
X148994586Y-125992520D01*
X148960000Y-125818642D01*
X148960000Y-125641358D01*
X148962629Y-125628142D01*
X148971529Y-125583399D01*
X148994586Y-125467480D01*
X149062430Y-125303690D01*
X149160924Y-125156283D01*
X149286283Y-125030924D01*
X149433690Y-124932430D01*
X149597480Y-124864586D01*
X149718952Y-124840424D01*
X149771356Y-124830000D01*
X149948644Y-124830000D01*
X150001048Y-124840424D01*
G37*
G36*
X147461048Y-124840424D02*
G01*
X147582520Y-124864586D01*
X147746310Y-124932430D01*
X147893717Y-125030924D01*
X148019076Y-125156283D01*
X148117570Y-125303690D01*
X148185414Y-125467480D01*
X148208471Y-125583399D01*
X148217372Y-125628142D01*
X148220000Y-125641358D01*
X148220000Y-125818642D01*
X148185414Y-125992520D01*
X148117570Y-126156310D01*
X148019076Y-126303717D01*
X147893717Y-126429076D01*
X147746310Y-126527570D01*
X147582520Y-126595414D01*
X147466601Y-126618471D01*
X147408644Y-126630000D01*
X147231356Y-126630000D01*
X147173399Y-126618471D01*
X147057480Y-126595414D01*
X146893690Y-126527570D01*
X146746283Y-126429076D01*
X146620924Y-126303717D01*
X146522430Y-126156310D01*
X146454586Y-125992520D01*
X146420000Y-125818642D01*
X146420000Y-125641358D01*
X146422629Y-125628142D01*
X146431529Y-125583399D01*
X146454586Y-125467480D01*
X146522430Y-125303690D01*
X146620924Y-125156283D01*
X146746283Y-125030924D01*
X146893690Y-124932430D01*
X147057480Y-124864586D01*
X147178952Y-124840424D01*
X147231356Y-124830000D01*
X147408644Y-124830000D01*
X147461048Y-124840424D01*
G37*
G36*
X132221048Y-124840424D02*
G01*
X132342520Y-124864586D01*
X132506310Y-124932430D01*
X132653717Y-125030924D01*
X132779076Y-125156283D01*
X132877570Y-125303690D01*
X132945414Y-125467480D01*
X132968471Y-125583399D01*
X132977372Y-125628142D01*
X132980000Y-125641358D01*
X132980000Y-125818642D01*
X132945414Y-125992520D01*
X132877570Y-126156310D01*
X132779076Y-126303717D01*
X132653717Y-126429076D01*
X132506310Y-126527570D01*
X132342520Y-126595414D01*
X132226601Y-126618471D01*
X132168644Y-126630000D01*
X131991356Y-126630000D01*
X131933399Y-126618471D01*
X131817480Y-126595414D01*
X131653690Y-126527570D01*
X131506283Y-126429076D01*
X131380924Y-126303717D01*
X131282430Y-126156310D01*
X131214586Y-125992520D01*
X131180000Y-125818642D01*
X131180000Y-125641358D01*
X131182629Y-125628142D01*
X131191529Y-125583399D01*
X131214586Y-125467480D01*
X131282430Y-125303690D01*
X131380924Y-125156283D01*
X131506283Y-125030924D01*
X131653690Y-124932430D01*
X131817480Y-124864586D01*
X131938952Y-124840424D01*
X131991356Y-124830000D01*
X132168644Y-124830000D01*
X132221048Y-124840424D01*
G37*
G36*
X134761048Y-124840424D02*
G01*
X134882520Y-124864586D01*
X135046310Y-124932430D01*
X135193717Y-125030924D01*
X135319076Y-125156283D01*
X135417570Y-125303690D01*
X135485414Y-125467480D01*
X135508471Y-125583399D01*
X135517372Y-125628142D01*
X135520000Y-125641358D01*
X135520000Y-125818642D01*
X135485414Y-125992520D01*
X135417570Y-126156310D01*
X135319076Y-126303717D01*
X135193717Y-126429076D01*
X135046310Y-126527570D01*
X134882520Y-126595414D01*
X134766601Y-126618471D01*
X134708644Y-126630000D01*
X134531356Y-126630000D01*
X134473399Y-126618471D01*
X134357480Y-126595414D01*
X134193690Y-126527570D01*
X134046283Y-126429076D01*
X133920924Y-126303717D01*
X133822430Y-126156310D01*
X133754586Y-125992520D01*
X133720000Y-125818642D01*
X133720000Y-125641358D01*
X133722629Y-125628142D01*
X133731529Y-125583399D01*
X133754586Y-125467480D01*
X133822430Y-125303690D01*
X133920924Y-125156283D01*
X134046283Y-125030924D01*
X134193690Y-124932430D01*
X134357480Y-124864586D01*
X134478952Y-124840424D01*
X134531356Y-124830000D01*
X134708644Y-124830000D01*
X134761048Y-124840424D01*
G37*
G36*
X137301048Y-124840424D02*
G01*
X137422520Y-124864586D01*
X137586310Y-124932430D01*
X137733717Y-125030924D01*
X137859076Y-125156283D01*
X137957570Y-125303690D01*
X138025414Y-125467480D01*
X138048471Y-125583399D01*
X138057372Y-125628142D01*
X138060000Y-125641358D01*
X138060000Y-125818642D01*
X138025414Y-125992520D01*
X137957570Y-126156310D01*
X137859076Y-126303717D01*
X137733717Y-126429076D01*
X137586310Y-126527570D01*
X137422520Y-126595414D01*
X137306601Y-126618471D01*
X137248644Y-126630000D01*
X137071356Y-126630000D01*
X137013399Y-126618471D01*
X136897480Y-126595414D01*
X136733690Y-126527570D01*
X136586283Y-126429076D01*
X136460924Y-126303717D01*
X136362430Y-126156310D01*
X136294586Y-125992520D01*
X136260000Y-125818642D01*
X136260000Y-125641358D01*
X136262629Y-125628142D01*
X136271529Y-125583399D01*
X136294586Y-125467480D01*
X136362430Y-125303690D01*
X136460924Y-125156283D01*
X136586283Y-125030924D01*
X136733690Y-124932430D01*
X136897480Y-124864586D01*
X137018952Y-124840424D01*
X137071356Y-124830000D01*
X137248644Y-124830000D01*
X137301048Y-124840424D01*
G37*
G36*
X139841048Y-124840424D02*
G01*
X139962520Y-124864586D01*
X140126310Y-124932430D01*
X140273717Y-125030924D01*
X140399076Y-125156283D01*
X140497570Y-125303690D01*
X140565414Y-125467480D01*
X140588471Y-125583399D01*
X140597372Y-125628142D01*
X140600000Y-125641358D01*
X140600000Y-125818642D01*
X140565414Y-125992520D01*
X140497570Y-126156310D01*
X140399076Y-126303717D01*
X140273717Y-126429076D01*
X140126310Y-126527570D01*
X139962520Y-126595414D01*
X139846601Y-126618471D01*
X139788644Y-126630000D01*
X139611356Y-126630000D01*
X139553399Y-126618471D01*
X139437480Y-126595414D01*
X139273690Y-126527570D01*
X139126283Y-126429076D01*
X139000924Y-126303717D01*
X138902430Y-126156310D01*
X138834586Y-125992520D01*
X138800000Y-125818642D01*
X138800000Y-125641358D01*
X138802629Y-125628142D01*
X138811529Y-125583399D01*
X138834586Y-125467480D01*
X138902430Y-125303690D01*
X139000924Y-125156283D01*
X139126283Y-125030924D01*
X139273690Y-124932430D01*
X139437480Y-124864586D01*
X139558952Y-124840424D01*
X139611356Y-124830000D01*
X139788644Y-124830000D01*
X139841048Y-124840424D01*
G37*
G36*
X144921048Y-124840424D02*
G01*
X145042520Y-124864586D01*
X145206310Y-124932430D01*
X145353717Y-125030924D01*
X145479076Y-125156283D01*
X145577570Y-125303690D01*
X145645414Y-125467480D01*
X145668471Y-125583399D01*
X145677372Y-125628142D01*
X145680000Y-125641358D01*
X145680000Y-125818642D01*
X145645414Y-125992520D01*
X145577570Y-126156310D01*
X145479076Y-126303717D01*
X145353717Y-126429076D01*
X145206310Y-126527570D01*
X145042520Y-126595414D01*
X144926601Y-126618471D01*
X144868644Y-126630000D01*
X144691356Y-126630000D01*
X144633399Y-126618471D01*
X144517480Y-126595414D01*
X144353690Y-126527570D01*
X144206283Y-126429076D01*
X144080924Y-126303717D01*
X143982430Y-126156310D01*
X143914586Y-125992520D01*
X143880000Y-125818642D01*
X143880000Y-125641358D01*
X143882629Y-125628142D01*
X143891529Y-125583399D01*
X143914586Y-125467480D01*
X143982430Y-125303690D01*
X144080924Y-125156283D01*
X144206283Y-125030924D01*
X144353690Y-124932430D01*
X144517480Y-124864586D01*
X144638952Y-124840424D01*
X144691356Y-124830000D01*
X144868644Y-124830000D01*
X144921048Y-124840424D01*
G37*
G36*
X142381048Y-124840424D02*
G01*
X142502520Y-124864586D01*
X142666310Y-124932430D01*
X142813717Y-125030924D01*
X142939076Y-125156283D01*
X143037570Y-125303690D01*
X143105414Y-125467480D01*
X143128471Y-125583399D01*
X143137372Y-125628142D01*
X143140000Y-125641358D01*
X143140000Y-125818642D01*
X143105414Y-125992520D01*
X143037570Y-126156310D01*
X142939076Y-126303717D01*
X142813717Y-126429076D01*
X142666310Y-126527570D01*
X142502520Y-126595414D01*
X142386601Y-126618471D01*
X142328644Y-126630000D01*
X142151356Y-126630000D01*
X142093399Y-126618471D01*
X141977480Y-126595414D01*
X141813690Y-126527570D01*
X141666283Y-126429076D01*
X141540924Y-126303717D01*
X141442430Y-126156310D01*
X141374586Y-125992520D01*
X141340000Y-125818642D01*
X141340000Y-125641358D01*
X141342629Y-125628142D01*
X141351529Y-125583399D01*
X141374586Y-125467480D01*
X141442430Y-125303690D01*
X141540924Y-125156283D01*
X141666283Y-125030924D01*
X141813690Y-124932430D01*
X141977480Y-124864586D01*
X142098952Y-124840424D01*
X142151356Y-124830000D01*
X142328644Y-124830000D01*
X142381048Y-124840424D01*
G37*
G36*
X157499601Y-124651029D02*
G01*
X157615520Y-124674086D01*
X157779310Y-124741930D01*
X157926717Y-124840424D01*
X158052076Y-124965783D01*
X158150570Y-125113190D01*
X158218414Y-125276980D01*
X158241471Y-125392899D01*
X158253000Y-125450856D01*
X158253000Y-125628144D01*
X158241471Y-125686101D01*
X158218414Y-125802020D01*
X158150570Y-125965810D01*
X158052076Y-126113217D01*
X157926717Y-126238576D01*
X157779310Y-126337070D01*
X157615520Y-126404914D01*
X157499601Y-126427971D01*
X157441644Y-126439500D01*
X157264356Y-126439500D01*
X157206399Y-126427971D01*
X157090480Y-126404914D01*
X156926690Y-126337070D01*
X156779283Y-126238576D01*
X156653924Y-126113217D01*
X156555430Y-125965810D01*
X156487586Y-125802020D01*
X156464529Y-125686101D01*
X156453000Y-125628144D01*
X156453000Y-125450856D01*
X156464529Y-125392899D01*
X156487586Y-125276980D01*
X156555430Y-125113190D01*
X156653924Y-124965783D01*
X156779283Y-124840424D01*
X156926690Y-124741930D01*
X157090480Y-124674086D01*
X157206399Y-124651029D01*
X157264356Y-124639500D01*
X157441644Y-124639500D01*
X157499601Y-124651029D01*
G37*
G36*
X121885000Y-125048000D02*
G01*
X121335000Y-125048000D01*
X121335000Y-123198000D01*
X121885000Y-123198000D01*
X121885000Y-125048000D01*
G37*
G36*
X119285000Y-125048000D02*
G01*
X118735000Y-125048000D01*
X118735000Y-123198000D01*
X119285000Y-123198000D01*
X119285000Y-125048000D01*
G37*
G36*
X118635000Y-125048000D02*
G01*
X118085000Y-125048000D01*
X118085000Y-123198000D01*
X118635000Y-123198000D01*
X118635000Y-125048000D01*
G37*
G36*
X117985000Y-125048000D02*
G01*
X117435000Y-125048000D01*
X117435000Y-123198000D01*
X117985000Y-123198000D01*
X117985000Y-125048000D01*
G37*
G36*
X117335000Y-125048000D02*
G01*
X116785000Y-125048000D01*
X116785000Y-123198000D01*
X117335000Y-123198000D01*
X117335000Y-125048000D01*
G37*
G36*
X119935000Y-125048000D02*
G01*
X119385000Y-125048000D01*
X119385000Y-123198000D01*
X119935000Y-123198000D01*
X119935000Y-125048000D01*
G37*
G36*
X120585000Y-125048000D02*
G01*
X120035000Y-125048000D01*
X120035000Y-123198000D01*
X120585000Y-123198000D01*
X120585000Y-125048000D01*
G37*
G36*
X122535000Y-125048000D02*
G01*
X121985000Y-125048000D01*
X121985000Y-123198000D01*
X122535000Y-123198000D01*
X122535000Y-125048000D01*
G37*
G36*
X123185000Y-125048000D02*
G01*
X122635000Y-125048000D01*
X122635000Y-123198000D01*
X123185000Y-123198000D01*
X123185000Y-125048000D01*
G37*
G36*
X123835000Y-125048000D02*
G01*
X123285000Y-125048000D01*
X123285000Y-123198000D01*
X123835000Y-123198000D01*
X123835000Y-125048000D01*
G37*
G36*
X124485000Y-125048000D02*
G01*
X123935000Y-125048000D01*
X123935000Y-123198000D01*
X124485000Y-123198000D01*
X124485000Y-125048000D01*
G37*
G36*
X125135000Y-125048000D02*
G01*
X124585000Y-125048000D01*
X124585000Y-123198000D01*
X125135000Y-123198000D01*
X125135000Y-125048000D01*
G37*
G36*
X125785000Y-125048000D02*
G01*
X125235000Y-125048000D01*
X125235000Y-123198000D01*
X125785000Y-123198000D01*
X125785000Y-125048000D01*
G37*
G36*
X121235000Y-125048000D02*
G01*
X120685000Y-125048000D01*
X120685000Y-123198000D01*
X121235000Y-123198000D01*
X121235000Y-125048000D01*
G37*
G36*
X175711401Y-123088929D02*
G01*
X175827320Y-123111986D01*
X175991110Y-123179830D01*
X176138517Y-123278324D01*
X176263876Y-123403683D01*
X176362370Y-123551090D01*
X176430214Y-123714880D01*
X176464800Y-123888758D01*
X176464800Y-124066042D01*
X176430214Y-124239920D01*
X176362370Y-124403710D01*
X176263876Y-124551117D01*
X176138517Y-124676476D01*
X175991110Y-124774970D01*
X175827320Y-124842814D01*
X175717863Y-124864586D01*
X175653444Y-124877400D01*
X175476156Y-124877400D01*
X175411737Y-124864586D01*
X175302280Y-124842814D01*
X175138490Y-124774970D01*
X174991083Y-124676476D01*
X174865724Y-124551117D01*
X174767230Y-124403710D01*
X174699386Y-124239920D01*
X174664800Y-124066042D01*
X174664800Y-123888758D01*
X174699386Y-123714880D01*
X174767230Y-123551090D01*
X174865724Y-123403683D01*
X174991083Y-123278324D01*
X175138490Y-123179830D01*
X175302280Y-123111986D01*
X175418199Y-123088929D01*
X175476156Y-123077400D01*
X175653444Y-123077400D01*
X175711401Y-123088929D01*
G37*
G36*
X173924800Y-124877400D02*
G01*
X172124800Y-124877400D01*
X172124800Y-123077400D01*
X173924800Y-123077400D01*
X173924800Y-124877400D01*
G37*
G36*
X185574800Y-124842400D02*
G01*
X177924800Y-124842400D01*
X177924800Y-123772400D01*
X185574800Y-123772400D01*
X185574800Y-124842400D01*
G37*
G36*
X115360000Y-124771000D02*
G01*
X114510000Y-124771000D01*
X114510000Y-123871000D01*
X115360000Y-123871000D01*
X115360000Y-124771000D01*
G37*
G36*
X107594824Y-122572575D02*
G01*
X107745631Y-122618321D01*
X107884603Y-122692604D01*
X108006422Y-122792578D01*
X108106396Y-122914397D01*
X108180679Y-123053369D01*
X108226425Y-123204176D01*
X108241871Y-123361000D01*
X108226425Y-123517824D01*
X108180679Y-123668631D01*
X108106396Y-123807603D01*
X108006422Y-123929422D01*
X107884603Y-124029396D01*
X107745631Y-124103679D01*
X107594824Y-124149425D01*
X107477303Y-124161000D01*
X106898697Y-124161000D01*
X106781176Y-124149425D01*
X106630369Y-124103679D01*
X106491397Y-124029396D01*
X106369578Y-123929422D01*
X106269604Y-123807603D01*
X106195321Y-123668631D01*
X106149575Y-123517824D01*
X106134129Y-123361000D01*
X106149575Y-123204176D01*
X106195321Y-123053369D01*
X106269604Y-122914397D01*
X106369578Y-122792578D01*
X106491397Y-122692604D01*
X106630369Y-122618321D01*
X106781176Y-122572575D01*
X106898697Y-122561000D01*
X107477303Y-122561000D01*
X107594824Y-122572575D01*
G37*
G36*
X137301048Y-122300424D02*
G01*
X137422520Y-122324586D01*
X137586310Y-122392430D01*
X137733717Y-122490924D01*
X137859076Y-122616283D01*
X137957570Y-122763690D01*
X138025414Y-122927480D01*
X138048471Y-123043399D01*
X138057372Y-123088142D01*
X138060000Y-123101358D01*
X138060000Y-123278642D01*
X138025414Y-123452520D01*
X137957570Y-123616310D01*
X137859076Y-123763717D01*
X137733717Y-123889076D01*
X137586310Y-123987570D01*
X137422520Y-124055414D01*
X137306601Y-124078471D01*
X137248644Y-124090000D01*
X137071356Y-124090000D01*
X137013399Y-124078471D01*
X136897480Y-124055414D01*
X136733690Y-123987570D01*
X136586283Y-123889076D01*
X136460924Y-123763717D01*
X136362430Y-123616310D01*
X136294586Y-123452520D01*
X136260000Y-123278642D01*
X136260000Y-123101358D01*
X136262629Y-123088142D01*
X136271529Y-123043399D01*
X136294586Y-122927480D01*
X136362430Y-122763690D01*
X136460924Y-122616283D01*
X136586283Y-122490924D01*
X136733690Y-122392430D01*
X136897480Y-122324586D01*
X137018952Y-122300424D01*
X137071356Y-122290000D01*
X137248644Y-122290000D01*
X137301048Y-122300424D01*
G37*
G36*
X132221048Y-122300424D02*
G01*
X132342520Y-122324586D01*
X132506310Y-122392430D01*
X132653717Y-122490924D01*
X132779076Y-122616283D01*
X132877570Y-122763690D01*
X132945414Y-122927480D01*
X132968471Y-123043399D01*
X132977372Y-123088142D01*
X132980000Y-123101358D01*
X132980000Y-123278642D01*
X132945414Y-123452520D01*
X132877570Y-123616310D01*
X132779076Y-123763717D01*
X132653717Y-123889076D01*
X132506310Y-123987570D01*
X132342520Y-124055414D01*
X132226601Y-124078471D01*
X132168644Y-124090000D01*
X131991356Y-124090000D01*
X131933399Y-124078471D01*
X131817480Y-124055414D01*
X131653690Y-123987570D01*
X131506283Y-123889076D01*
X131380924Y-123763717D01*
X131282430Y-123616310D01*
X131214586Y-123452520D01*
X131180000Y-123278642D01*
X131180000Y-123101358D01*
X131182629Y-123088142D01*
X131191529Y-123043399D01*
X131214586Y-122927480D01*
X131282430Y-122763690D01*
X131380924Y-122616283D01*
X131506283Y-122490924D01*
X131653690Y-122392430D01*
X131817480Y-122324586D01*
X131938952Y-122300424D01*
X131991356Y-122290000D01*
X132168644Y-122290000D01*
X132221048Y-122300424D01*
G37*
G36*
X134761048Y-122300424D02*
G01*
X134882520Y-122324586D01*
X135046310Y-122392430D01*
X135193717Y-122490924D01*
X135319076Y-122616283D01*
X135417570Y-122763690D01*
X135485414Y-122927480D01*
X135508471Y-123043399D01*
X135517372Y-123088142D01*
X135520000Y-123101358D01*
X135520000Y-123278642D01*
X135485414Y-123452520D01*
X135417570Y-123616310D01*
X135319076Y-123763717D01*
X135193717Y-123889076D01*
X135046310Y-123987570D01*
X134882520Y-124055414D01*
X134766601Y-124078471D01*
X134708644Y-124090000D01*
X134531356Y-124090000D01*
X134473399Y-124078471D01*
X134357480Y-124055414D01*
X134193690Y-123987570D01*
X134046283Y-123889076D01*
X133920924Y-123763717D01*
X133822430Y-123616310D01*
X133754586Y-123452520D01*
X133720000Y-123278642D01*
X133720000Y-123101358D01*
X133722629Y-123088142D01*
X133731529Y-123043399D01*
X133754586Y-122927480D01*
X133822430Y-122763690D01*
X133920924Y-122616283D01*
X134046283Y-122490924D01*
X134193690Y-122392430D01*
X134357480Y-122324586D01*
X134478952Y-122300424D01*
X134531356Y-122290000D01*
X134708644Y-122290000D01*
X134761048Y-122300424D01*
G37*
G36*
X130440000Y-124090000D02*
G01*
X128640000Y-124090000D01*
X128640000Y-122290000D01*
X130440000Y-122290000D01*
X130440000Y-124090000D01*
G37*
G36*
X139841048Y-122300424D02*
G01*
X139962520Y-122324586D01*
X140126310Y-122392430D01*
X140273717Y-122490924D01*
X140399076Y-122616283D01*
X140497570Y-122763690D01*
X140565414Y-122927480D01*
X140588471Y-123043399D01*
X140597372Y-123088142D01*
X140600000Y-123101358D01*
X140600000Y-123278642D01*
X140565414Y-123452520D01*
X140497570Y-123616310D01*
X140399076Y-123763717D01*
X140273717Y-123889076D01*
X140126310Y-123987570D01*
X139962520Y-124055414D01*
X139846601Y-124078471D01*
X139788644Y-124090000D01*
X139611356Y-124090000D01*
X139553399Y-124078471D01*
X139437480Y-124055414D01*
X139273690Y-123987570D01*
X139126283Y-123889076D01*
X139000924Y-123763717D01*
X138902430Y-123616310D01*
X138834586Y-123452520D01*
X138800000Y-123278642D01*
X138800000Y-123101358D01*
X138802629Y-123088142D01*
X138811529Y-123043399D01*
X138834586Y-122927480D01*
X138902430Y-122763690D01*
X139000924Y-122616283D01*
X139126283Y-122490924D01*
X139273690Y-122392430D01*
X139437480Y-122324586D01*
X139558952Y-122300424D01*
X139611356Y-122290000D01*
X139788644Y-122290000D01*
X139841048Y-122300424D01*
G37*
G36*
X142381048Y-122300424D02*
G01*
X142502520Y-122324586D01*
X142666310Y-122392430D01*
X142813717Y-122490924D01*
X142939076Y-122616283D01*
X143037570Y-122763690D01*
X143105414Y-122927480D01*
X143128471Y-123043399D01*
X143137372Y-123088142D01*
X143140000Y-123101358D01*
X143140000Y-123278642D01*
X143105414Y-123452520D01*
X143037570Y-123616310D01*
X142939076Y-123763717D01*
X142813717Y-123889076D01*
X142666310Y-123987570D01*
X142502520Y-124055414D01*
X142386601Y-124078471D01*
X142328644Y-124090000D01*
X142151356Y-124090000D01*
X142093399Y-124078471D01*
X141977480Y-124055414D01*
X141813690Y-123987570D01*
X141666283Y-123889076D01*
X141540924Y-123763717D01*
X141442430Y-123616310D01*
X141374586Y-123452520D01*
X141340000Y-123278642D01*
X141340000Y-123101358D01*
X141342629Y-123088142D01*
X141351529Y-123043399D01*
X141374586Y-122927480D01*
X141442430Y-122763690D01*
X141540924Y-122616283D01*
X141666283Y-122490924D01*
X141813690Y-122392430D01*
X141977480Y-122324586D01*
X142098952Y-122300424D01*
X142151356Y-122290000D01*
X142328644Y-122290000D01*
X142381048Y-122300424D01*
G37*
G36*
X150001048Y-122300424D02*
G01*
X150122520Y-122324586D01*
X150286310Y-122392430D01*
X150433717Y-122490924D01*
X150559076Y-122616283D01*
X150657570Y-122763690D01*
X150725414Y-122927480D01*
X150748471Y-123043399D01*
X150757372Y-123088142D01*
X150760000Y-123101358D01*
X150760000Y-123278642D01*
X150725414Y-123452520D01*
X150657570Y-123616310D01*
X150559076Y-123763717D01*
X150433717Y-123889076D01*
X150286310Y-123987570D01*
X150122520Y-124055414D01*
X150006601Y-124078471D01*
X149948644Y-124090000D01*
X149771356Y-124090000D01*
X149713399Y-124078471D01*
X149597480Y-124055414D01*
X149433690Y-123987570D01*
X149286283Y-123889076D01*
X149160924Y-123763717D01*
X149062430Y-123616310D01*
X148994586Y-123452520D01*
X148960000Y-123278642D01*
X148960000Y-123101358D01*
X148962629Y-123088142D01*
X148971529Y-123043399D01*
X148994586Y-122927480D01*
X149062430Y-122763690D01*
X149160924Y-122616283D01*
X149286283Y-122490924D01*
X149433690Y-122392430D01*
X149597480Y-122324586D01*
X149718952Y-122300424D01*
X149771356Y-122290000D01*
X149948644Y-122290000D01*
X150001048Y-122300424D01*
G37*
G36*
X152541048Y-122300424D02*
G01*
X152662520Y-122324586D01*
X152826310Y-122392430D01*
X152973717Y-122490924D01*
X153099076Y-122616283D01*
X153197570Y-122763690D01*
X153265414Y-122927480D01*
X153288471Y-123043399D01*
X153297372Y-123088142D01*
X153300000Y-123101358D01*
X153300000Y-123278642D01*
X153265414Y-123452520D01*
X153197570Y-123616310D01*
X153099076Y-123763717D01*
X152973717Y-123889076D01*
X152826310Y-123987570D01*
X152662520Y-124055414D01*
X152546601Y-124078471D01*
X152488644Y-124090000D01*
X152311356Y-124090000D01*
X152253399Y-124078471D01*
X152137480Y-124055414D01*
X151973690Y-123987570D01*
X151826283Y-123889076D01*
X151700924Y-123763717D01*
X151602430Y-123616310D01*
X151534586Y-123452520D01*
X151500000Y-123278642D01*
X151500000Y-123101358D01*
X151502629Y-123088142D01*
X151511529Y-123043399D01*
X151534586Y-122927480D01*
X151602430Y-122763690D01*
X151700924Y-122616283D01*
X151826283Y-122490924D01*
X151973690Y-122392430D01*
X152137480Y-122324586D01*
X152258952Y-122300424D01*
X152311356Y-122290000D01*
X152488644Y-122290000D01*
X152541048Y-122300424D01*
G37*
G36*
X144921048Y-122300424D02*
G01*
X145042520Y-122324586D01*
X145206310Y-122392430D01*
X145353717Y-122490924D01*
X145479076Y-122616283D01*
X145577570Y-122763690D01*
X145645414Y-122927480D01*
X145668471Y-123043399D01*
X145677372Y-123088142D01*
X145680000Y-123101358D01*
X145680000Y-123278642D01*
X145645414Y-123452520D01*
X145577570Y-123616310D01*
X145479076Y-123763717D01*
X145353717Y-123889076D01*
X145206310Y-123987570D01*
X145042520Y-124055414D01*
X144926601Y-124078471D01*
X144868644Y-124090000D01*
X144691356Y-124090000D01*
X144633399Y-124078471D01*
X144517480Y-124055414D01*
X144353690Y-123987570D01*
X144206283Y-123889076D01*
X144080924Y-123763717D01*
X143982430Y-123616310D01*
X143914586Y-123452520D01*
X143880000Y-123278642D01*
X143880000Y-123101358D01*
X143882629Y-123088142D01*
X143891529Y-123043399D01*
X143914586Y-122927480D01*
X143982430Y-122763690D01*
X144080924Y-122616283D01*
X144206283Y-122490924D01*
X144353690Y-122392430D01*
X144517480Y-122324586D01*
X144638952Y-122300424D01*
X144691356Y-122290000D01*
X144868644Y-122290000D01*
X144921048Y-122300424D01*
G37*
G36*
X147461048Y-122300424D02*
G01*
X147582520Y-122324586D01*
X147746310Y-122392430D01*
X147893717Y-122490924D01*
X148019076Y-122616283D01*
X148117570Y-122763690D01*
X148185414Y-122927480D01*
X148208471Y-123043399D01*
X148217372Y-123088142D01*
X148220000Y-123101358D01*
X148220000Y-123278642D01*
X148185414Y-123452520D01*
X148117570Y-123616310D01*
X148019076Y-123763717D01*
X147893717Y-123889076D01*
X147746310Y-123987570D01*
X147582520Y-124055414D01*
X147466601Y-124078471D01*
X147408644Y-124090000D01*
X147231356Y-124090000D01*
X147173399Y-124078471D01*
X147057480Y-124055414D01*
X146893690Y-123987570D01*
X146746283Y-123889076D01*
X146620924Y-123763717D01*
X146522430Y-123616310D01*
X146454586Y-123452520D01*
X146420000Y-123278642D01*
X146420000Y-123101358D01*
X146422629Y-123088142D01*
X146431529Y-123043399D01*
X146454586Y-122927480D01*
X146522430Y-122763690D01*
X146620924Y-122616283D01*
X146746283Y-122490924D01*
X146893690Y-122392430D01*
X147057480Y-122324586D01*
X147178952Y-122300424D01*
X147231356Y-122290000D01*
X147408644Y-122290000D01*
X147461048Y-122300424D01*
G37*
G36*
X157499601Y-122111029D02*
G01*
X157615520Y-122134086D01*
X157779310Y-122201930D01*
X157926717Y-122300424D01*
X158052076Y-122425783D01*
X158150570Y-122573190D01*
X158218414Y-122736980D01*
X158229473Y-122792578D01*
X158253000Y-122910856D01*
X158253000Y-123088144D01*
X158248257Y-123111986D01*
X158218414Y-123262020D01*
X158150570Y-123425810D01*
X158052076Y-123573217D01*
X157926717Y-123698576D01*
X157779310Y-123797070D01*
X157615520Y-123864914D01*
X157499601Y-123887971D01*
X157441644Y-123899500D01*
X157264356Y-123899500D01*
X157206399Y-123887971D01*
X157090480Y-123864914D01*
X156926690Y-123797070D01*
X156779283Y-123698576D01*
X156653924Y-123573217D01*
X156555430Y-123425810D01*
X156487586Y-123262020D01*
X156457743Y-123111986D01*
X156453000Y-123088144D01*
X156453000Y-122910856D01*
X156476527Y-122792578D01*
X156487586Y-122736980D01*
X156555430Y-122573190D01*
X156653924Y-122425783D01*
X156779283Y-122300424D01*
X156926690Y-122201930D01*
X157090480Y-122134086D01*
X157206399Y-122111029D01*
X157264356Y-122099500D01*
X157441644Y-122099500D01*
X157499601Y-122111029D01*
G37*
G36*
X115360000Y-123271000D02*
G01*
X114510000Y-123271000D01*
X114510000Y-122371000D01*
X115360000Y-122371000D01*
X115360000Y-123271000D01*
G37*
G36*
X181124800Y-122857400D02*
G01*
X177924800Y-122857400D01*
X177924800Y-121287400D01*
X181124800Y-121287400D01*
X181124800Y-122857400D01*
G37*
G36*
X110405617Y-121594681D02*
G01*
X110405620Y-121594682D01*
X110405621Y-121594682D01*
X110518721Y-121628990D01*
X110518724Y-121628991D01*
X110622955Y-121684704D01*
X110714317Y-121759683D01*
X110789296Y-121851045D01*
X110845009Y-121955276D01*
X110879319Y-122068383D01*
X110890903Y-122186000D01*
X110879319Y-122303617D01*
X110845009Y-122416724D01*
X110789296Y-122520955D01*
X110714317Y-122612317D01*
X110622955Y-122687296D01*
X110518724Y-122743009D01*
X110518721Y-122743010D01*
X110405621Y-122777318D01*
X110405620Y-122777318D01*
X110405617Y-122777319D01*
X110317477Y-122786000D01*
X110058523Y-122786000D01*
X109970383Y-122777319D01*
X109970380Y-122777318D01*
X109970379Y-122777318D01*
X109857279Y-122743010D01*
X109857276Y-122743009D01*
X109753045Y-122687296D01*
X109661683Y-122612317D01*
X109586704Y-122520955D01*
X109530991Y-122416724D01*
X109496681Y-122303617D01*
X109485097Y-122186000D01*
X109496681Y-122068383D01*
X109530991Y-121955276D01*
X109586704Y-121851045D01*
X109661683Y-121759683D01*
X109753045Y-121684704D01*
X109857276Y-121628991D01*
X109857279Y-121628990D01*
X109970379Y-121594682D01*
X109970380Y-121594682D01*
X109970383Y-121594681D01*
X110058523Y-121586000D01*
X110317477Y-121586000D01*
X110405617Y-121594681D01*
G37*
G36*
X138601000Y-121469000D02*
G01*
X137751000Y-121469000D01*
X137751000Y-120569000D01*
X138601000Y-120569000D01*
X138601000Y-121469000D01*
G37*
G36*
X157499601Y-119571029D02*
G01*
X157615520Y-119594086D01*
X157779310Y-119661930D01*
X157926717Y-119760424D01*
X158052076Y-119885783D01*
X158150570Y-120033190D01*
X158218414Y-120196980D01*
X158253000Y-120370858D01*
X158253000Y-120548142D01*
X158218414Y-120722020D01*
X158150570Y-120885810D01*
X158052076Y-121033217D01*
X157926717Y-121158576D01*
X157779310Y-121257070D01*
X157615520Y-121324914D01*
X157499601Y-121347971D01*
X157441644Y-121359500D01*
X157264356Y-121359500D01*
X157206399Y-121347971D01*
X157090480Y-121324914D01*
X156926690Y-121257070D01*
X156779283Y-121158576D01*
X156653924Y-121033217D01*
X156555430Y-120885810D01*
X156487586Y-120722020D01*
X156453000Y-120548142D01*
X156453000Y-120370858D01*
X156487586Y-120196980D01*
X156555430Y-120033190D01*
X156653924Y-119885783D01*
X156779283Y-119760424D01*
X156926690Y-119661930D01*
X157090480Y-119594086D01*
X157206399Y-119571029D01*
X157264356Y-119559500D01*
X157441644Y-119559500D01*
X157499601Y-119571029D01*
G37*
G36*
X144697000Y-121342000D02*
G01*
X143847000Y-121342000D01*
X143847000Y-120442000D01*
X144697000Y-120442000D01*
X144697000Y-121342000D01*
G37*
G36*
X110588000Y-121311000D02*
G01*
X109138000Y-121311000D01*
X109138000Y-120811000D01*
X110588000Y-120811000D01*
X110588000Y-121311000D01*
G37*
G36*
X131122000Y-120896000D02*
G01*
X130522000Y-120896000D01*
X130522000Y-119896000D01*
X131122000Y-119896000D01*
X131122000Y-120896000D01*
G37*
G36*
X132622000Y-120896000D02*
G01*
X132022000Y-120896000D01*
X132022000Y-119896000D01*
X132622000Y-119896000D01*
X132622000Y-120896000D01*
G37*
G36*
X128174000Y-120846000D02*
G01*
X127274000Y-120846000D01*
X127274000Y-119946000D01*
X128174000Y-119946000D01*
X128174000Y-120846000D01*
G37*
G36*
X129774000Y-120846000D02*
G01*
X128874000Y-120846000D01*
X128874000Y-119946000D01*
X129774000Y-119946000D01*
X129774000Y-120846000D01*
G37*
G36*
X110588000Y-120661000D02*
G01*
X109138000Y-120661000D01*
X109138000Y-120161000D01*
X110588000Y-120161000D01*
X110588000Y-120661000D01*
G37*
G36*
X185574800Y-120372400D02*
G01*
X177924800Y-120372400D01*
X177924800Y-119302400D01*
X185574800Y-119302400D01*
X185574800Y-120372400D01*
G37*
G36*
X110588000Y-120011000D02*
G01*
X109138000Y-120011000D01*
X109138000Y-119511000D01*
X110588000Y-119511000D01*
X110588000Y-120011000D01*
G37*
G36*
X138601000Y-119969000D02*
G01*
X137751000Y-119969000D01*
X137751000Y-119069000D01*
X138601000Y-119069000D01*
X138601000Y-119969000D01*
G37*
G36*
X144697000Y-119842000D02*
G01*
X143847000Y-119842000D01*
X143847000Y-118942000D01*
X144697000Y-118942000D01*
X144697000Y-119842000D01*
G37*
G36*
X132622000Y-119372000D02*
G01*
X132022000Y-119372000D01*
X132022000Y-118372000D01*
X132622000Y-118372000D01*
X132622000Y-119372000D01*
G37*
G36*
X131122000Y-119372000D02*
G01*
X130522000Y-119372000D01*
X130522000Y-118372000D01*
X131122000Y-118372000D01*
X131122000Y-119372000D01*
G37*
G36*
X110588000Y-119361000D02*
G01*
X109138000Y-119361000D01*
X109138000Y-118861000D01*
X110588000Y-118861000D01*
X110588000Y-119361000D01*
G37*
G36*
X129774000Y-119322000D02*
G01*
X128874000Y-119322000D01*
X128874000Y-118422000D01*
X129774000Y-118422000D01*
X129774000Y-119322000D01*
G37*
G36*
X128174000Y-119322000D02*
G01*
X127274000Y-119322000D01*
X127274000Y-118422000D01*
X128174000Y-118422000D01*
X128174000Y-119322000D01*
G37*
G36*
X157499601Y-117031029D02*
G01*
X157615520Y-117054086D01*
X157779310Y-117121930D01*
X157926717Y-117220424D01*
X158052076Y-117345783D01*
X158150570Y-117493190D01*
X158218414Y-117656980D01*
X158253000Y-117830858D01*
X158253000Y-118008142D01*
X158218414Y-118182020D01*
X158150570Y-118345810D01*
X158052076Y-118493217D01*
X157926717Y-118618576D01*
X157779310Y-118717070D01*
X157615520Y-118784914D01*
X157499601Y-118807971D01*
X157441644Y-118819500D01*
X157264356Y-118819500D01*
X157206399Y-118807971D01*
X157090480Y-118784914D01*
X156926690Y-118717070D01*
X156779283Y-118618576D01*
X156653924Y-118493217D01*
X156555430Y-118345810D01*
X156487586Y-118182020D01*
X156453000Y-118008142D01*
X156453000Y-117830858D01*
X156487586Y-117656980D01*
X156555430Y-117493190D01*
X156653924Y-117345783D01*
X156779283Y-117220424D01*
X156926690Y-117121930D01*
X157090480Y-117054086D01*
X157206399Y-117031029D01*
X157264356Y-117019500D01*
X157441644Y-117019500D01*
X157499601Y-117031029D01*
G37*
G36*
X110588000Y-118711000D02*
G01*
X109138000Y-118711000D01*
X109138000Y-118211000D01*
X110588000Y-118211000D01*
X110588000Y-118711000D01*
G37*
G36*
X114471000Y-118421000D02*
G01*
X113621000Y-118421000D01*
X113621000Y-117521000D01*
X114471000Y-117521000D01*
X114471000Y-118421000D01*
G37*
G36*
X110405617Y-116744681D02*
G01*
X110405620Y-116744682D01*
X110405621Y-116744682D01*
X110518721Y-116778990D01*
X110518724Y-116778991D01*
X110622955Y-116834704D01*
X110714317Y-116909683D01*
X110789296Y-117001045D01*
X110845009Y-117105276D01*
X110879319Y-117218383D01*
X110890903Y-117336000D01*
X110879319Y-117453617D01*
X110845009Y-117566724D01*
X110789296Y-117670955D01*
X110714317Y-117762317D01*
X110622955Y-117837296D01*
X110518724Y-117893009D01*
X110518721Y-117893010D01*
X110405621Y-117927318D01*
X110405620Y-117927318D01*
X110405617Y-117927319D01*
X110317477Y-117936000D01*
X110058523Y-117936000D01*
X109970383Y-117927319D01*
X109970380Y-117927318D01*
X109970379Y-117927318D01*
X109857279Y-117893010D01*
X109857276Y-117893009D01*
X109753045Y-117837296D01*
X109661683Y-117762317D01*
X109586704Y-117670955D01*
X109530991Y-117566724D01*
X109496681Y-117453617D01*
X109485097Y-117336000D01*
X109496681Y-117218383D01*
X109530991Y-117105276D01*
X109586704Y-117001045D01*
X109661683Y-116909683D01*
X109753045Y-116834704D01*
X109857276Y-116778991D01*
X109857279Y-116778990D01*
X109970379Y-116744682D01*
X109970380Y-116744682D01*
X109970383Y-116744681D01*
X110058523Y-116736000D01*
X110317477Y-116736000D01*
X110405617Y-116744681D01*
G37*
G36*
X125135000Y-117848000D02*
G01*
X124585000Y-117848000D01*
X124585000Y-115998000D01*
X125135000Y-115998000D01*
X125135000Y-117848000D01*
G37*
G36*
X125785000Y-117848000D02*
G01*
X125235000Y-117848000D01*
X125235000Y-115998000D01*
X125785000Y-115998000D01*
X125785000Y-117848000D01*
G37*
G36*
X119935000Y-117848000D02*
G01*
X119385000Y-117848000D01*
X119385000Y-115998000D01*
X119935000Y-115998000D01*
X119935000Y-117848000D01*
G37*
G36*
X120585000Y-117848000D02*
G01*
X120035000Y-117848000D01*
X120035000Y-115998000D01*
X120585000Y-115998000D01*
X120585000Y-117848000D01*
G37*
G36*
X121235000Y-117848000D02*
G01*
X120685000Y-117848000D01*
X120685000Y-115998000D01*
X121235000Y-115998000D01*
X121235000Y-117848000D01*
G37*
G36*
X119285000Y-117848000D02*
G01*
X118735000Y-117848000D01*
X118735000Y-115998000D01*
X119285000Y-115998000D01*
X119285000Y-117848000D01*
G37*
G36*
X118635000Y-117848000D02*
G01*
X118085000Y-117848000D01*
X118085000Y-115998000D01*
X118635000Y-115998000D01*
X118635000Y-117848000D01*
G37*
G36*
X122535000Y-117848000D02*
G01*
X121985000Y-117848000D01*
X121985000Y-115998000D01*
X122535000Y-115998000D01*
X122535000Y-117848000D01*
G37*
G36*
X117985000Y-117848000D02*
G01*
X117435000Y-117848000D01*
X117435000Y-115998000D01*
X117985000Y-115998000D01*
X117985000Y-117848000D01*
G37*
G36*
X117335000Y-117848000D02*
G01*
X116785000Y-117848000D01*
X116785000Y-115998000D01*
X117335000Y-115998000D01*
X117335000Y-117848000D01*
G37*
G36*
X124485000Y-117848000D02*
G01*
X123935000Y-117848000D01*
X123935000Y-115998000D01*
X124485000Y-115998000D01*
X124485000Y-117848000D01*
G37*
G36*
X123835000Y-117848000D02*
G01*
X123285000Y-117848000D01*
X123285000Y-115998000D01*
X123835000Y-115998000D01*
X123835000Y-117848000D01*
G37*
G36*
X123185000Y-117848000D02*
G01*
X122635000Y-117848000D01*
X122635000Y-115998000D01*
X123185000Y-115998000D01*
X123185000Y-117848000D01*
G37*
G36*
X121885000Y-117848000D02*
G01*
X121335000Y-117848000D01*
X121335000Y-115998000D01*
X121885000Y-115998000D01*
X121885000Y-117848000D01*
G37*
G36*
X134398000Y-117666000D02*
G01*
X134018000Y-117666000D01*
X134018000Y-116066000D01*
X134398000Y-116066000D01*
X134398000Y-117666000D01*
G37*
G36*
X134898000Y-117666000D02*
G01*
X134518000Y-117666000D01*
X134518000Y-116066000D01*
X134898000Y-116066000D01*
X134898000Y-117666000D01*
G37*
G36*
X135398000Y-117666000D02*
G01*
X135018000Y-117666000D01*
X135018000Y-116066000D01*
X135398000Y-116066000D01*
X135398000Y-117666000D01*
G37*
G36*
X135898000Y-117666000D02*
G01*
X135518000Y-117666000D01*
X135518000Y-116066000D01*
X135898000Y-116066000D01*
X135898000Y-117666000D01*
G37*
G36*
X136898000Y-117666000D02*
G01*
X136518000Y-117666000D01*
X136518000Y-116066000D01*
X136898000Y-116066000D01*
X136898000Y-117666000D01*
G37*
G36*
X137398000Y-117666000D02*
G01*
X137018000Y-117666000D01*
X137018000Y-116066000D01*
X137398000Y-116066000D01*
X137398000Y-117666000D01*
G37*
G36*
X137898000Y-117666000D02*
G01*
X137518000Y-117666000D01*
X137518000Y-116066000D01*
X137898000Y-116066000D01*
X137898000Y-117666000D01*
G37*
G36*
X138398000Y-117666000D02*
G01*
X138018000Y-117666000D01*
X138018000Y-116066000D01*
X138398000Y-116066000D01*
X138398000Y-117666000D01*
G37*
G36*
X138898000Y-117666000D02*
G01*
X138518000Y-117666000D01*
X138518000Y-116066000D01*
X138898000Y-116066000D01*
X138898000Y-117666000D01*
G37*
G36*
X139398000Y-117666000D02*
G01*
X139018000Y-117666000D01*
X139018000Y-116066000D01*
X139398000Y-116066000D01*
X139398000Y-117666000D01*
G37*
G36*
X140398000Y-117666000D02*
G01*
X140018000Y-117666000D01*
X140018000Y-116066000D01*
X140398000Y-116066000D01*
X140398000Y-117666000D01*
G37*
G36*
X136398000Y-117666000D02*
G01*
X136018000Y-117666000D01*
X136018000Y-116066000D01*
X136398000Y-116066000D01*
X136398000Y-117666000D01*
G37*
G36*
X141898000Y-117666000D02*
G01*
X141518000Y-117666000D01*
X141518000Y-116066000D01*
X141898000Y-116066000D01*
X141898000Y-117666000D01*
G37*
G36*
X139898000Y-117666000D02*
G01*
X139518000Y-117666000D01*
X139518000Y-116066000D01*
X139898000Y-116066000D01*
X139898000Y-117666000D01*
G37*
G36*
X146398000Y-117666000D02*
G01*
X146018000Y-117666000D01*
X146018000Y-116066000D01*
X146398000Y-116066000D01*
X146398000Y-117666000D01*
G37*
G36*
X140898000Y-117666000D02*
G01*
X140518000Y-117666000D01*
X140518000Y-116066000D01*
X140898000Y-116066000D01*
X140898000Y-117666000D01*
G37*
G36*
X145398000Y-117666000D02*
G01*
X145018000Y-117666000D01*
X145018000Y-116066000D01*
X145398000Y-116066000D01*
X145398000Y-117666000D01*
G37*
G36*
X144898000Y-117666000D02*
G01*
X144518000Y-117666000D01*
X144518000Y-116066000D01*
X144898000Y-116066000D01*
X144898000Y-117666000D01*
G37*
G36*
X144398000Y-117666000D02*
G01*
X144018000Y-117666000D01*
X144018000Y-116066000D01*
X144398000Y-116066000D01*
X144398000Y-117666000D01*
G37*
G36*
X143398000Y-117666000D02*
G01*
X143018000Y-117666000D01*
X143018000Y-116066000D01*
X143398000Y-116066000D01*
X143398000Y-117666000D01*
G37*
G36*
X143898000Y-117666000D02*
G01*
X143518000Y-117666000D01*
X143518000Y-116066000D01*
X143898000Y-116066000D01*
X143898000Y-117666000D01*
G37*
G36*
X141398000Y-117666000D02*
G01*
X141018000Y-117666000D01*
X141018000Y-116066000D01*
X141398000Y-116066000D01*
X141398000Y-117666000D01*
G37*
G36*
X142398000Y-117666000D02*
G01*
X142018000Y-117666000D01*
X142018000Y-116066000D01*
X142398000Y-116066000D01*
X142398000Y-117666000D01*
G37*
G36*
X145898000Y-117666000D02*
G01*
X145518000Y-117666000D01*
X145518000Y-116066000D01*
X145898000Y-116066000D01*
X145898000Y-117666000D01*
G37*
G36*
X142898000Y-117666000D02*
G01*
X142518000Y-117666000D01*
X142518000Y-116066000D01*
X142898000Y-116066000D01*
X142898000Y-117666000D01*
G37*
G36*
X175711401Y-115468929D02*
G01*
X175827320Y-115491986D01*
X175991110Y-115559830D01*
X176138517Y-115658324D01*
X176263876Y-115783683D01*
X176362370Y-115931090D01*
X176430214Y-116094880D01*
X176441655Y-116152400D01*
X176464800Y-116268756D01*
X176464800Y-116446044D01*
X176460307Y-116468631D01*
X176430214Y-116619920D01*
X176362370Y-116783710D01*
X176263876Y-116931117D01*
X176138517Y-117056476D01*
X175991110Y-117154970D01*
X175827320Y-117222814D01*
X175711401Y-117245871D01*
X175653444Y-117257400D01*
X175476156Y-117257400D01*
X175418199Y-117245871D01*
X175302280Y-117222814D01*
X175138490Y-117154970D01*
X174991083Y-117056476D01*
X174865724Y-116931117D01*
X174767230Y-116783710D01*
X174699386Y-116619920D01*
X174669293Y-116468631D01*
X174664800Y-116446044D01*
X174664800Y-116268756D01*
X174687945Y-116152400D01*
X174699386Y-116094880D01*
X174767230Y-115931090D01*
X174865724Y-115783683D01*
X174991083Y-115658324D01*
X175138490Y-115559830D01*
X175302280Y-115491986D01*
X175418199Y-115468929D01*
X175476156Y-115457400D01*
X175653444Y-115457400D01*
X175711401Y-115468929D01*
G37*
G36*
X173924800Y-117257400D02*
G01*
X172124800Y-117257400D01*
X172124800Y-115457400D01*
X173924800Y-115457400D01*
X173924800Y-117257400D01*
G37*
G36*
X185574800Y-117222400D02*
G01*
X177924800Y-117222400D01*
X177924800Y-116152400D01*
X185574800Y-116152400D01*
X185574800Y-117222400D01*
G37*
G36*
X153808000Y-116978000D02*
G01*
X152008000Y-116978000D01*
X152008000Y-115178000D01*
X153808000Y-115178000D01*
X153808000Y-116978000D01*
G37*
G36*
X107594824Y-115372575D02*
G01*
X107745631Y-115418321D01*
X107884603Y-115492604D01*
X108006422Y-115592578D01*
X108106396Y-115714397D01*
X108180679Y-115853369D01*
X108226425Y-116004176D01*
X108241871Y-116161000D01*
X108226425Y-116317824D01*
X108180679Y-116468631D01*
X108106396Y-116607603D01*
X108006422Y-116729422D01*
X107884603Y-116829396D01*
X107745631Y-116903679D01*
X107594824Y-116949425D01*
X107477303Y-116961000D01*
X106898697Y-116961000D01*
X106781176Y-116949425D01*
X106630369Y-116903679D01*
X106491397Y-116829396D01*
X106369578Y-116729422D01*
X106269604Y-116607603D01*
X106195321Y-116468631D01*
X106149575Y-116317824D01*
X106134129Y-116161000D01*
X106149575Y-116004176D01*
X106195321Y-115853369D01*
X106269604Y-115714397D01*
X106369578Y-115592578D01*
X106491397Y-115492604D01*
X106630369Y-115418321D01*
X106781176Y-115372575D01*
X106898697Y-115361000D01*
X107477303Y-115361000D01*
X107594824Y-115372575D01*
G37*
G36*
X114471000Y-116921000D02*
G01*
X113621000Y-116921000D01*
X113621000Y-116021000D01*
X114471000Y-116021000D01*
X114471000Y-116921000D01*
G37*
G36*
X181124800Y-115237400D02*
G01*
X177924800Y-115237400D01*
X177924800Y-113667400D01*
X181124800Y-113667400D01*
X181124800Y-115237400D01*
G37*
G36*
X133108000Y-115156000D02*
G01*
X131508000Y-115156000D01*
X131508000Y-114776000D01*
X133108000Y-114776000D01*
X133108000Y-115156000D01*
G37*
G36*
X148908000Y-115156000D02*
G01*
X147308000Y-115156000D01*
X147308000Y-114776000D01*
X148908000Y-114776000D01*
X148908000Y-115156000D01*
G37*
G36*
X148908000Y-114656000D02*
G01*
X147308000Y-114656000D01*
X147308000Y-114276000D01*
X148908000Y-114276000D01*
X148908000Y-114656000D01*
G37*
G36*
X133108000Y-114656000D02*
G01*
X131508000Y-114656000D01*
X131508000Y-114276000D01*
X133108000Y-114276000D01*
X133108000Y-114656000D01*
G37*
G36*
X153054601Y-112649529D02*
G01*
X153170520Y-112672586D01*
X153334310Y-112740430D01*
X153481717Y-112838924D01*
X153607076Y-112964283D01*
X153705570Y-113111690D01*
X153773414Y-113275480D01*
X153773517Y-113276000D01*
X153808000Y-113449356D01*
X153808000Y-113626644D01*
X153799893Y-113667400D01*
X153773414Y-113800520D01*
X153705570Y-113964310D01*
X153607076Y-114111717D01*
X153481717Y-114237076D01*
X153334310Y-114335570D01*
X153170520Y-114403414D01*
X153054601Y-114426471D01*
X152996644Y-114438000D01*
X152819356Y-114438000D01*
X152761399Y-114426471D01*
X152645480Y-114403414D01*
X152481690Y-114335570D01*
X152334283Y-114237076D01*
X152208924Y-114111717D01*
X152110430Y-113964310D01*
X152042586Y-113800520D01*
X152016107Y-113667400D01*
X152008000Y-113626644D01*
X152008000Y-113449356D01*
X152042483Y-113276000D01*
X152042586Y-113275480D01*
X152110430Y-113111690D01*
X152208924Y-112964283D01*
X152334283Y-112838924D01*
X152481690Y-112740430D01*
X152645480Y-112672586D01*
X152761399Y-112649529D01*
X152819356Y-112638000D01*
X152996644Y-112638000D01*
X153054601Y-112649529D01*
G37*
G36*
X148908000Y-114156000D02*
G01*
X147308000Y-114156000D01*
X147308000Y-113776000D01*
X148908000Y-113776000D01*
X148908000Y-114156000D01*
G37*
G36*
X133108000Y-114156000D02*
G01*
X131508000Y-114156000D01*
X131508000Y-113776000D01*
X133108000Y-113776000D01*
X133108000Y-114156000D01*
G37*
G36*
X128962000Y-113709000D02*
G01*
X128062000Y-113709000D01*
X128062000Y-112859000D01*
X128962000Y-112859000D01*
X128962000Y-113709000D01*
G37*
G36*
X127462000Y-113709000D02*
G01*
X126562000Y-113709000D01*
X126562000Y-112859000D01*
X127462000Y-112859000D01*
X127462000Y-113709000D01*
G37*
G36*
X148908000Y-113656000D02*
G01*
X147308000Y-113656000D01*
X147308000Y-113276000D01*
X148908000Y-113276000D01*
X148908000Y-113656000D01*
G37*
G36*
X133108000Y-113656000D02*
G01*
X131508000Y-113656000D01*
X131508000Y-113276000D01*
X133108000Y-113276000D01*
X133108000Y-113656000D01*
G37*
G36*
X148908000Y-113156000D02*
G01*
X147308000Y-113156000D01*
X147308000Y-112776000D01*
X148908000Y-112776000D01*
X148908000Y-113156000D01*
G37*
G36*
X133108000Y-113156000D02*
G01*
X131508000Y-113156000D01*
X131508000Y-112776000D01*
X133108000Y-112776000D01*
X133108000Y-113156000D01*
G37*
G36*
X110758000Y-112941000D02*
G01*
X106158000Y-112941000D01*
X106158000Y-111341000D01*
X110758000Y-111341000D01*
X110758000Y-112941000D01*
G37*
G36*
X185574800Y-112752400D02*
G01*
X177924800Y-112752400D01*
X177924800Y-111682400D01*
X185574800Y-111682400D01*
X185574800Y-112752400D01*
G37*
G36*
X148908000Y-112656000D02*
G01*
X147308000Y-112656000D01*
X147308000Y-112276000D01*
X148908000Y-112276000D01*
X148908000Y-112656000D01*
G37*
G36*
X133108000Y-112656000D02*
G01*
X131508000Y-112656000D01*
X131508000Y-112276000D01*
X133108000Y-112276000D01*
X133108000Y-112656000D01*
G37*
G36*
X148908000Y-112156000D02*
G01*
X147308000Y-112156000D01*
X147308000Y-111776000D01*
X148908000Y-111776000D01*
X148908000Y-112156000D01*
G37*
G36*
X133108000Y-112156000D02*
G01*
X131508000Y-112156000D01*
X131508000Y-111776000D01*
X133108000Y-111776000D01*
X133108000Y-112156000D01*
G37*
G36*
X156672000Y-111804000D02*
G01*
X155772000Y-111804000D01*
X155772000Y-110954000D01*
X156672000Y-110954000D01*
X156672000Y-111804000D01*
G37*
G36*
X158172000Y-111804000D02*
G01*
X157272000Y-111804000D01*
X157272000Y-110954000D01*
X158172000Y-110954000D01*
X158172000Y-111804000D01*
G37*
G36*
X133108000Y-111656000D02*
G01*
X131508000Y-111656000D01*
X131508000Y-111276000D01*
X133108000Y-111276000D01*
X133108000Y-111656000D01*
G37*
G36*
X148908000Y-111656000D02*
G01*
X147308000Y-111656000D01*
X147308000Y-111276000D01*
X148908000Y-111276000D01*
X148908000Y-111656000D01*
G37*
G36*
X152608000Y-111423000D02*
G01*
X151708000Y-111423000D01*
X151708000Y-110573000D01*
X152608000Y-110573000D01*
X152608000Y-111423000D01*
G37*
G36*
X154108000Y-111423000D02*
G01*
X153208000Y-111423000D01*
X153208000Y-110573000D01*
X154108000Y-110573000D01*
X154108000Y-111423000D01*
G37*
G36*
X133108000Y-111156000D02*
G01*
X131508000Y-111156000D01*
X131508000Y-110776000D01*
X133108000Y-110776000D01*
X133108000Y-111156000D01*
G37*
G36*
X148908000Y-111156000D02*
G01*
X147308000Y-111156000D01*
X147308000Y-110776000D01*
X148908000Y-110776000D01*
X148908000Y-111156000D01*
G37*
G36*
X133108000Y-110656000D02*
G01*
X131508000Y-110656000D01*
X131508000Y-110276000D01*
X133108000Y-110276000D01*
X133108000Y-110656000D01*
G37*
G36*
X148908000Y-110656000D02*
G01*
X147308000Y-110656000D01*
X147308000Y-110276000D01*
X148908000Y-110276000D01*
X148908000Y-110656000D01*
G37*
G36*
X110758000Y-110401000D02*
G01*
X106158000Y-110401000D01*
X106158000Y-108801000D01*
X110758000Y-108801000D01*
X110758000Y-110401000D01*
G37*
G36*
X157160000Y-110385000D02*
G01*
X155260000Y-110385000D01*
X155260000Y-109285000D01*
X157160000Y-109285000D01*
X157160000Y-110385000D01*
G37*
G36*
X148908000Y-110156000D02*
G01*
X147308000Y-110156000D01*
X147308000Y-109776000D01*
X148908000Y-109776000D01*
X148908000Y-110156000D01*
G37*
G36*
X133108000Y-110156000D02*
G01*
X131508000Y-110156000D01*
X131508000Y-109776000D01*
X133108000Y-109776000D01*
X133108000Y-110156000D01*
G37*
G36*
X154095000Y-109912000D02*
G01*
X153245000Y-109912000D01*
X153245000Y-109012000D01*
X154095000Y-109012000D01*
X154095000Y-109912000D01*
G37*
G36*
X133108000Y-109656000D02*
G01*
X131508000Y-109656000D01*
X131508000Y-109276000D01*
X133108000Y-109276000D01*
X133108000Y-109656000D01*
G37*
G36*
X148908000Y-109656000D02*
G01*
X147308000Y-109656000D01*
X147308000Y-109276000D01*
X148908000Y-109276000D01*
X148908000Y-109656000D01*
G37*
G36*
X175711401Y-107848929D02*
G01*
X175827320Y-107871986D01*
X175991110Y-107939830D01*
X176138517Y-108038324D01*
X176263876Y-108163683D01*
X176362370Y-108311090D01*
X176430214Y-108474880D01*
X176464800Y-108648758D01*
X176464800Y-108826042D01*
X176430214Y-108999920D01*
X176362370Y-109163710D01*
X176263876Y-109311117D01*
X176138517Y-109436476D01*
X175991110Y-109534970D01*
X175827320Y-109602814D01*
X175711401Y-109625871D01*
X175653444Y-109637400D01*
X175476156Y-109637400D01*
X175418199Y-109625871D01*
X175302280Y-109602814D01*
X175138490Y-109534970D01*
X174991083Y-109436476D01*
X174865724Y-109311117D01*
X174767230Y-109163710D01*
X174699386Y-108999920D01*
X174664800Y-108826042D01*
X174664800Y-108648758D01*
X174699386Y-108474880D01*
X174767230Y-108311090D01*
X174865724Y-108163683D01*
X174991083Y-108038324D01*
X175138490Y-107939830D01*
X175302280Y-107871986D01*
X175418199Y-107848929D01*
X175476156Y-107837400D01*
X175653444Y-107837400D01*
X175711401Y-107848929D01*
G37*
G36*
X173924800Y-109637400D02*
G01*
X172124800Y-109637400D01*
X172124800Y-107837400D01*
X173924800Y-107837400D01*
X173924800Y-109637400D01*
G37*
G36*
X185574800Y-109602400D02*
G01*
X177924800Y-109602400D01*
X177924800Y-108532400D01*
X185574800Y-108532400D01*
X185574800Y-109602400D01*
G37*
G36*
X158667000Y-109277000D02*
G01*
X157817000Y-109277000D01*
X157817000Y-108377000D01*
X158667000Y-108377000D01*
X158667000Y-109277000D01*
G37*
G36*
X148908000Y-109156000D02*
G01*
X147308000Y-109156000D01*
X147308000Y-108776000D01*
X148908000Y-108776000D01*
X148908000Y-109156000D01*
G37*
G36*
X133108000Y-109156000D02*
G01*
X131508000Y-109156000D01*
X131508000Y-108776000D01*
X133108000Y-108776000D01*
X133108000Y-109156000D01*
G37*
G36*
X148908000Y-108656000D02*
G01*
X147308000Y-108656000D01*
X147308000Y-108276000D01*
X148908000Y-108276000D01*
X148908000Y-108656000D01*
G37*
G36*
X133108000Y-108656000D02*
G01*
X131508000Y-108656000D01*
X131508000Y-108276000D01*
X133108000Y-108276000D01*
X133108000Y-108656000D01*
G37*
G36*
X154095000Y-108412000D02*
G01*
X153245000Y-108412000D01*
X153245000Y-107512000D01*
X154095000Y-107512000D01*
X154095000Y-108412000D01*
G37*
G36*
X133108000Y-108156000D02*
G01*
X131508000Y-108156000D01*
X131508000Y-107776000D01*
X133108000Y-107776000D01*
X133108000Y-108156000D01*
G37*
G36*
X148908000Y-108156000D02*
G01*
X147308000Y-108156000D01*
X147308000Y-107776000D01*
X148908000Y-107776000D01*
X148908000Y-108156000D01*
G37*
G36*
X157160000Y-107885000D02*
G01*
X155260000Y-107885000D01*
X155260000Y-106785000D01*
X157160000Y-106785000D01*
X157160000Y-107885000D01*
G37*
G36*
X110758000Y-107861000D02*
G01*
X106158000Y-107861000D01*
X106158000Y-106261000D01*
X110758000Y-106261000D01*
X110758000Y-107861000D01*
G37*
G36*
X158667000Y-107777000D02*
G01*
X157817000Y-107777000D01*
X157817000Y-106877000D01*
X158667000Y-106877000D01*
X158667000Y-107777000D01*
G37*
G36*
X148908000Y-107656000D02*
G01*
X147308000Y-107656000D01*
X147308000Y-107276000D01*
X148908000Y-107276000D01*
X148908000Y-107656000D01*
G37*
G36*
X133108000Y-107656000D02*
G01*
X131508000Y-107656000D01*
X131508000Y-107276000D01*
X133108000Y-107276000D01*
X133108000Y-107656000D01*
G37*
G36*
X181124800Y-107617400D02*
G01*
X177924800Y-107617400D01*
X177924800Y-106047400D01*
X181124800Y-106047400D01*
X181124800Y-107617400D01*
G37*
G36*
X133108000Y-107156000D02*
G01*
X131508000Y-107156000D01*
X131508000Y-106776000D01*
X133108000Y-106776000D01*
X133108000Y-107156000D01*
G37*
G36*
X148908000Y-107156000D02*
G01*
X147308000Y-107156000D01*
X147308000Y-106776000D01*
X148908000Y-106776000D01*
X148908000Y-107156000D01*
G37*
G36*
X133108000Y-106656000D02*
G01*
X131508000Y-106656000D01*
X131508000Y-106276000D01*
X133108000Y-106276000D01*
X133108000Y-106656000D01*
G37*
G36*
X148908000Y-106656000D02*
G01*
X147308000Y-106656000D01*
X147308000Y-106276000D01*
X148908000Y-106276000D01*
X148908000Y-106656000D01*
G37*
G36*
X158380000Y-106183000D02*
G01*
X156580000Y-106183000D01*
X156580000Y-104383000D01*
X158380000Y-104383000D01*
X158380000Y-106183000D01*
G37*
G36*
X155086601Y-104394529D02*
G01*
X155202520Y-104417586D01*
X155366310Y-104485430D01*
X155513717Y-104583924D01*
X155639076Y-104709283D01*
X155737570Y-104856690D01*
X155805414Y-105020480D01*
X155840000Y-105194358D01*
X155840000Y-105371642D01*
X155805414Y-105545520D01*
X155737570Y-105709310D01*
X155639076Y-105856717D01*
X155513717Y-105982076D01*
X155366310Y-106080570D01*
X155202520Y-106148414D01*
X155086601Y-106171471D01*
X155028644Y-106183000D01*
X154851356Y-106183000D01*
X154793399Y-106171471D01*
X154677480Y-106148414D01*
X154513690Y-106080570D01*
X154366283Y-105982076D01*
X154240924Y-105856717D01*
X154142430Y-105709310D01*
X154074586Y-105545520D01*
X154040000Y-105371642D01*
X154040000Y-105194358D01*
X154074586Y-105020480D01*
X154142430Y-104856690D01*
X154240924Y-104709283D01*
X154366283Y-104583924D01*
X154513690Y-104485430D01*
X154677480Y-104417586D01*
X154793399Y-104394529D01*
X154851356Y-104383000D01*
X155028644Y-104383000D01*
X155086601Y-104394529D01*
G37*
G36*
X148908000Y-106156000D02*
G01*
X147308000Y-106156000D01*
X147308000Y-105776000D01*
X148908000Y-105776000D01*
X148908000Y-106156000D01*
G37*
G36*
X133108000Y-106156000D02*
G01*
X131508000Y-106156000D01*
X131508000Y-105776000D01*
X133108000Y-105776000D01*
X133108000Y-106156000D01*
G37*
G36*
X127144500Y-106025500D02*
G01*
X126244500Y-106025500D01*
X126244500Y-105175500D01*
X127144500Y-105175500D01*
X127144500Y-106025500D01*
G37*
G36*
X128644500Y-106025500D02*
G01*
X127744500Y-106025500D01*
X127744500Y-105175500D01*
X128644500Y-105175500D01*
X128644500Y-106025500D01*
G37*
G36*
X133108000Y-105656000D02*
G01*
X131508000Y-105656000D01*
X131508000Y-105276000D01*
X133108000Y-105276000D01*
X133108000Y-105656000D01*
G37*
G36*
X148908000Y-105656000D02*
G01*
X147308000Y-105656000D01*
X147308000Y-105276000D01*
X148908000Y-105276000D01*
X148908000Y-105656000D01*
G37*
G36*
X110758000Y-105321000D02*
G01*
X106158000Y-105321000D01*
X106158000Y-103721000D01*
X110758000Y-103721000D01*
X110758000Y-105321000D01*
G37*
G36*
X133108000Y-105156000D02*
G01*
X131508000Y-105156000D01*
X131508000Y-104776000D01*
X133108000Y-104776000D01*
X133108000Y-105156000D01*
G37*
G36*
X148908000Y-105156000D02*
G01*
X147308000Y-105156000D01*
X147308000Y-104776000D01*
X148908000Y-104776000D01*
X148908000Y-105156000D01*
G37*
G36*
X185574800Y-105132400D02*
G01*
X177924800Y-105132400D01*
X177924800Y-104062400D01*
X185574800Y-104062400D01*
X185574800Y-105132400D01*
G37*
G36*
X152952000Y-104959000D02*
G01*
X152102000Y-104959000D01*
X152102000Y-104059000D01*
X152952000Y-104059000D01*
X152952000Y-104959000D01*
G37*
G36*
X126931000Y-104830500D02*
G01*
X126331000Y-104830500D01*
X126331000Y-103830500D01*
X126931000Y-103830500D01*
X126931000Y-104830500D01*
G37*
G36*
X128431000Y-104830500D02*
G01*
X127831000Y-104830500D01*
X127831000Y-103830500D01*
X128431000Y-103830500D01*
X128431000Y-104830500D01*
G37*
G36*
X133108000Y-104656000D02*
G01*
X131508000Y-104656000D01*
X131508000Y-104276000D01*
X133108000Y-104276000D01*
X133108000Y-104656000D01*
G37*
G36*
X148908000Y-104656000D02*
G01*
X147308000Y-104656000D01*
X147308000Y-104276000D01*
X148908000Y-104276000D01*
X148908000Y-104656000D01*
G37*
G36*
X133108000Y-104156000D02*
G01*
X131508000Y-104156000D01*
X131508000Y-103776000D01*
X133108000Y-103776000D01*
X133108000Y-104156000D01*
G37*
G36*
X148908000Y-104156000D02*
G01*
X147308000Y-104156000D01*
X147308000Y-103776000D01*
X148908000Y-103776000D01*
X148908000Y-104156000D01*
G37*
G36*
X133108000Y-103656000D02*
G01*
X131508000Y-103656000D01*
X131508000Y-103276000D01*
X133108000Y-103276000D01*
X133108000Y-103656000D01*
G37*
G36*
X148908000Y-103656000D02*
G01*
X147308000Y-103656000D01*
X147308000Y-103276000D01*
X148908000Y-103276000D01*
X148908000Y-103656000D01*
G37*
G36*
X155240000Y-103590000D02*
G01*
X153740000Y-103590000D01*
X153740000Y-102290000D01*
X155240000Y-102290000D01*
X155240000Y-103590000D01*
G37*
G36*
X157440000Y-103590000D02*
G01*
X155940000Y-103590000D01*
X155940000Y-102290000D01*
X157440000Y-102290000D01*
X157440000Y-103590000D01*
G37*
G36*
X152952000Y-103459000D02*
G01*
X152102000Y-103459000D01*
X152102000Y-102559000D01*
X152952000Y-102559000D01*
X152952000Y-103459000D01*
G37*
G36*
X159048000Y-103435000D02*
G01*
X158198000Y-103435000D01*
X158198000Y-102535000D01*
X159048000Y-102535000D01*
X159048000Y-103435000D01*
G37*
G36*
X133108000Y-103156000D02*
G01*
X131508000Y-103156000D01*
X131508000Y-102776000D01*
X133108000Y-102776000D01*
X133108000Y-103156000D01*
G37*
G36*
X148908000Y-103156000D02*
G01*
X147308000Y-103156000D01*
X147308000Y-102776000D01*
X148908000Y-102776000D01*
X148908000Y-103156000D01*
G37*
G36*
X110758000Y-102781000D02*
G01*
X106158000Y-102781000D01*
X106158000Y-101181000D01*
X110758000Y-101181000D01*
X110758000Y-102781000D01*
G37*
G36*
X175711401Y-100228929D02*
G01*
X175827320Y-100251986D01*
X175991110Y-100319830D01*
X176138517Y-100418324D01*
X176263876Y-100543683D01*
X176362370Y-100691090D01*
X176430214Y-100854880D01*
X176464800Y-101028758D01*
X176464800Y-101206042D01*
X176430214Y-101379920D01*
X176362370Y-101543710D01*
X176263876Y-101691117D01*
X176138517Y-101816476D01*
X175991110Y-101914970D01*
X175827320Y-101982814D01*
X175711401Y-102005871D01*
X175653444Y-102017400D01*
X175476156Y-102017400D01*
X175418199Y-102005871D01*
X175302280Y-101982814D01*
X175138490Y-101914970D01*
X174991083Y-101816476D01*
X174865724Y-101691117D01*
X174767230Y-101543710D01*
X174699386Y-101379920D01*
X174664800Y-101206042D01*
X174664800Y-101028758D01*
X174699386Y-100854880D01*
X174767230Y-100691090D01*
X174865724Y-100543683D01*
X174991083Y-100418324D01*
X175138490Y-100319830D01*
X175302280Y-100251986D01*
X175418199Y-100228929D01*
X175476156Y-100217400D01*
X175653444Y-100217400D01*
X175711401Y-100228929D01*
G37*
G36*
X173924800Y-102017400D02*
G01*
X172124800Y-102017400D01*
X172124800Y-100217400D01*
X173924800Y-100217400D01*
X173924800Y-102017400D01*
G37*
G36*
X185574800Y-101982400D02*
G01*
X177924800Y-101982400D01*
X177924800Y-100912400D01*
X185574800Y-100912400D01*
X185574800Y-101982400D01*
G37*
G36*
X159048000Y-101935000D02*
G01*
X158198000Y-101935000D01*
X158198000Y-101035000D01*
X159048000Y-101035000D01*
X159048000Y-101935000D01*
G37*
G36*
X155240000Y-101890000D02*
G01*
X153740000Y-101890000D01*
X153740000Y-100590000D01*
X155240000Y-100590000D01*
X155240000Y-101890000D01*
G37*
G36*
X157440000Y-101890000D02*
G01*
X155940000Y-101890000D01*
X155940000Y-100590000D01*
X157440000Y-100590000D01*
X157440000Y-101890000D01*
G37*
G36*
X143898000Y-101866000D02*
G01*
X143518000Y-101866000D01*
X143518000Y-100266000D01*
X143898000Y-100266000D01*
X143898000Y-101866000D01*
G37*
G36*
X143398000Y-101866000D02*
G01*
X143018000Y-101866000D01*
X143018000Y-100266000D01*
X143398000Y-100266000D01*
X143398000Y-101866000D01*
G37*
G36*
X142898000Y-101866000D02*
G01*
X142518000Y-101866000D01*
X142518000Y-100266000D01*
X142898000Y-100266000D01*
X142898000Y-101866000D01*
G37*
G36*
X142398000Y-101866000D02*
G01*
X142018000Y-101866000D01*
X142018000Y-100266000D01*
X142398000Y-100266000D01*
X142398000Y-101866000D01*
G37*
G36*
X141398000Y-101866000D02*
G01*
X141018000Y-101866000D01*
X141018000Y-100266000D01*
X141398000Y-100266000D01*
X141398000Y-101866000D01*
G37*
G36*
X140898000Y-101866000D02*
G01*
X140518000Y-101866000D01*
X140518000Y-100266000D01*
X140898000Y-100266000D01*
X140898000Y-101866000D01*
G37*
G36*
X140398000Y-101866000D02*
G01*
X140018000Y-101866000D01*
X140018000Y-100266000D01*
X140398000Y-100266000D01*
X140398000Y-101866000D01*
G37*
G36*
X139898000Y-101866000D02*
G01*
X139518000Y-101866000D01*
X139518000Y-100266000D01*
X139898000Y-100266000D01*
X139898000Y-101866000D01*
G37*
G36*
X139398000Y-101866000D02*
G01*
X139018000Y-101866000D01*
X139018000Y-100266000D01*
X139398000Y-100266000D01*
X139398000Y-101866000D01*
G37*
G36*
X135898000Y-101866000D02*
G01*
X135518000Y-101866000D01*
X135518000Y-100266000D01*
X135898000Y-100266000D01*
X135898000Y-101866000D01*
G37*
G36*
X138898000Y-101866000D02*
G01*
X138518000Y-101866000D01*
X138518000Y-100266000D01*
X138898000Y-100266000D01*
X138898000Y-101866000D01*
G37*
G36*
X138398000Y-101866000D02*
G01*
X138018000Y-101866000D01*
X138018000Y-100266000D01*
X138398000Y-100266000D01*
X138398000Y-101866000D01*
G37*
G36*
X144398000Y-101866000D02*
G01*
X144018000Y-101866000D01*
X144018000Y-100266000D01*
X144398000Y-100266000D01*
X144398000Y-101866000D01*
G37*
G36*
X136898000Y-101866000D02*
G01*
X136518000Y-101866000D01*
X136518000Y-100266000D01*
X136898000Y-100266000D01*
X136898000Y-101866000D01*
G37*
G36*
X137398000Y-101866000D02*
G01*
X137018000Y-101866000D01*
X137018000Y-100266000D01*
X137398000Y-100266000D01*
X137398000Y-101866000D01*
G37*
G36*
X137898000Y-101866000D02*
G01*
X137518000Y-101866000D01*
X137518000Y-100266000D01*
X137898000Y-100266000D01*
X137898000Y-101866000D01*
G37*
G36*
X146398000Y-101866000D02*
G01*
X146018000Y-101866000D01*
X146018000Y-100266000D01*
X146398000Y-100266000D01*
X146398000Y-101866000D01*
G37*
G36*
X141898000Y-101866000D02*
G01*
X141518000Y-101866000D01*
X141518000Y-100266000D01*
X141898000Y-100266000D01*
X141898000Y-101866000D01*
G37*
G36*
X145898000Y-101866000D02*
G01*
X145518000Y-101866000D01*
X145518000Y-100266000D01*
X145898000Y-100266000D01*
X145898000Y-101866000D01*
G37*
G36*
X145398000Y-101866000D02*
G01*
X145018000Y-101866000D01*
X145018000Y-100266000D01*
X145398000Y-100266000D01*
X145398000Y-101866000D01*
G37*
G36*
X134398000Y-101866000D02*
G01*
X134018000Y-101866000D01*
X134018000Y-100266000D01*
X134398000Y-100266000D01*
X134398000Y-101866000D01*
G37*
G36*
X144898000Y-101866000D02*
G01*
X144518000Y-101866000D01*
X144518000Y-100266000D01*
X144898000Y-100266000D01*
X144898000Y-101866000D01*
G37*
G36*
X136398000Y-101866000D02*
G01*
X136018000Y-101866000D01*
X136018000Y-100266000D01*
X136398000Y-100266000D01*
X136398000Y-101866000D01*
G37*
G36*
X134898000Y-101866000D02*
G01*
X134518000Y-101866000D01*
X134518000Y-100266000D01*
X134898000Y-100266000D01*
X134898000Y-101866000D01*
G37*
G36*
X135398000Y-101866000D02*
G01*
X135018000Y-101866000D01*
X135018000Y-100266000D01*
X135398000Y-100266000D01*
X135398000Y-101866000D01*
G37*
G36*
X148761000Y-100514000D02*
G01*
X147911000Y-100514000D01*
X147911000Y-99614000D01*
X148761000Y-99614000D01*
X148761000Y-100514000D01*
G37*
G36*
X151809000Y-100514000D02*
G01*
X150959000Y-100514000D01*
X150959000Y-99614000D01*
X151809000Y-99614000D01*
X151809000Y-100514000D01*
G37*
G36*
X150285000Y-100514000D02*
G01*
X149435000Y-100514000D01*
X149435000Y-99614000D01*
X150285000Y-99614000D01*
X150285000Y-100514000D01*
G37*
G36*
X110758000Y-100241000D02*
G01*
X106158000Y-100241000D01*
X106158000Y-98641000D01*
X110758000Y-98641000D01*
X110758000Y-100241000D01*
G37*
G36*
X181124800Y-99997400D02*
G01*
X177924800Y-99997400D01*
X177924800Y-98427400D01*
X181124800Y-98427400D01*
X181124800Y-99997400D01*
G37*
G36*
X148761000Y-99014000D02*
G01*
X147911000Y-99014000D01*
X147911000Y-98114000D01*
X148761000Y-98114000D01*
X148761000Y-99014000D01*
G37*
G36*
X150285000Y-99014000D02*
G01*
X149435000Y-99014000D01*
X149435000Y-98114000D01*
X150285000Y-98114000D01*
X150285000Y-99014000D01*
G37*
G36*
X151809000Y-99014000D02*
G01*
X150959000Y-99014000D01*
X150959000Y-98114000D01*
X151809000Y-98114000D01*
X151809000Y-99014000D01*
G37*
G36*
X137114000Y-98469000D02*
G01*
X136214000Y-98469000D01*
X136214000Y-97619000D01*
X137114000Y-97619000D01*
X137114000Y-98469000D01*
G37*
G36*
X144099000Y-98469000D02*
G01*
X143199000Y-98469000D01*
X143199000Y-97619000D01*
X144099000Y-97619000D01*
X144099000Y-98469000D01*
G37*
G36*
X145599000Y-98469000D02*
G01*
X144699000Y-98469000D01*
X144699000Y-97619000D01*
X145599000Y-97619000D01*
X145599000Y-98469000D01*
G37*
G36*
X138614000Y-98469000D02*
G01*
X137714000Y-98469000D01*
X137714000Y-97619000D01*
X138614000Y-97619000D01*
X138614000Y-98469000D01*
G37*
G36*
X110758000Y-97701000D02*
G01*
X106158000Y-97701000D01*
X106158000Y-96101000D01*
X110758000Y-96101000D01*
X110758000Y-97701000D01*
G37*
G36*
X185574800Y-97512400D02*
G01*
X177924800Y-97512400D01*
X177924800Y-96442400D01*
X185574800Y-96442400D01*
X185574800Y-97512400D01*
G37*
G36*
X147895800Y-96790400D02*
G01*
X147345800Y-96790400D01*
X147345800Y-95190400D01*
X147895800Y-95190400D01*
X147895800Y-96790400D01*
G37*
G36*
X147245800Y-96790400D02*
G01*
X146695800Y-96790400D01*
X146695800Y-95190400D01*
X147245800Y-95190400D01*
X147245800Y-96790400D01*
G37*
G36*
X145295800Y-96790400D02*
G01*
X144745800Y-96790400D01*
X144745800Y-95190400D01*
X145295800Y-95190400D01*
X145295800Y-96790400D01*
G37*
G36*
X146595800Y-96790400D02*
G01*
X146045800Y-96790400D01*
X146045800Y-95190400D01*
X146595800Y-95190400D01*
X146595800Y-96790400D01*
G37*
G36*
X156345800Y-96790400D02*
G01*
X155795800Y-96790400D01*
X155795800Y-95190400D01*
X156345800Y-95190400D01*
X156345800Y-96790400D01*
G37*
G36*
X144645800Y-96790400D02*
G01*
X144095800Y-96790400D01*
X144095800Y-95190400D01*
X144645800Y-95190400D01*
X144645800Y-96790400D01*
G37*
G36*
X155695800Y-96790400D02*
G01*
X155145800Y-96790400D01*
X155145800Y-95190400D01*
X155695800Y-95190400D01*
X155695800Y-96790400D01*
G37*
G36*
X155045800Y-96790400D02*
G01*
X154495800Y-96790400D01*
X154495800Y-95190400D01*
X155045800Y-95190400D01*
X155045800Y-96790400D01*
G37*
G36*
X154395800Y-96790400D02*
G01*
X153845800Y-96790400D01*
X153845800Y-95190400D01*
X154395800Y-95190400D01*
X154395800Y-96790400D01*
G37*
G36*
X145945800Y-96790400D02*
G01*
X145395800Y-96790400D01*
X145395800Y-95190400D01*
X145945800Y-95190400D01*
X145945800Y-96790400D01*
G37*
G36*
X153095800Y-96790400D02*
G01*
X152545800Y-96790400D01*
X152545800Y-95190400D01*
X153095800Y-95190400D01*
X153095800Y-96790400D01*
G37*
G36*
X152445800Y-96790400D02*
G01*
X151895800Y-96790400D01*
X151895800Y-95190400D01*
X152445800Y-95190400D01*
X152445800Y-96790400D01*
G37*
G36*
X151795800Y-96790400D02*
G01*
X151245800Y-96790400D01*
X151245800Y-95190400D01*
X151795800Y-95190400D01*
X151795800Y-96790400D01*
G37*
G36*
X151145800Y-96790400D02*
G01*
X150595800Y-96790400D01*
X150595800Y-95190400D01*
X151145800Y-95190400D01*
X151145800Y-96790400D01*
G37*
G36*
X150495800Y-96790400D02*
G01*
X149945800Y-96790400D01*
X149945800Y-95190400D01*
X150495800Y-95190400D01*
X150495800Y-96790400D01*
G37*
G36*
X149845800Y-96790400D02*
G01*
X149295800Y-96790400D01*
X149295800Y-95190400D01*
X149845800Y-95190400D01*
X149845800Y-96790400D01*
G37*
G36*
X149195800Y-96790400D02*
G01*
X148645800Y-96790400D01*
X148645800Y-95190400D01*
X149195800Y-95190400D01*
X149195800Y-96790400D01*
G37*
G36*
X148545800Y-96790400D02*
G01*
X147995800Y-96790400D01*
X147995800Y-95190400D01*
X148545800Y-95190400D01*
X148545800Y-96790400D01*
G37*
G36*
X156995800Y-96790400D02*
G01*
X156445800Y-96790400D01*
X156445800Y-95190400D01*
X156995800Y-95190400D01*
X156995800Y-96790400D01*
G37*
G36*
X153745800Y-96790400D02*
G01*
X153195800Y-96790400D01*
X153195800Y-95190400D01*
X153745800Y-95190400D01*
X153745800Y-96790400D01*
G37*
G36*
X110758000Y-95161000D02*
G01*
X106158000Y-95161000D01*
X106158000Y-93561000D01*
X110758000Y-93561000D01*
X110758000Y-95161000D01*
G37*
G36*
X143645800Y-94740400D02*
G01*
X142045800Y-94740400D01*
X142045800Y-94190400D01*
X143645800Y-94190400D01*
X143645800Y-94740400D01*
G37*
G36*
X159045800Y-94740400D02*
G01*
X157445800Y-94740400D01*
X157445800Y-94190400D01*
X159045800Y-94190400D01*
X159045800Y-94740400D01*
G37*
G36*
X175711401Y-92608929D02*
G01*
X175827320Y-92631986D01*
X175991110Y-92699830D01*
X176138517Y-92798324D01*
X176263876Y-92923683D01*
X176362370Y-93071090D01*
X176430214Y-93234880D01*
X176464800Y-93408758D01*
X176464800Y-93586042D01*
X176430214Y-93759920D01*
X176362370Y-93923710D01*
X176263876Y-94071117D01*
X176138517Y-94196476D01*
X175991110Y-94294970D01*
X175827320Y-94362814D01*
X175711401Y-94385871D01*
X175653444Y-94397400D01*
X175476156Y-94397400D01*
X175418199Y-94385871D01*
X175302280Y-94362814D01*
X175138490Y-94294970D01*
X174991083Y-94196476D01*
X174865724Y-94071117D01*
X174767230Y-93923710D01*
X174699386Y-93759920D01*
X174664800Y-93586042D01*
X174664800Y-93408758D01*
X174699386Y-93234880D01*
X174767230Y-93071090D01*
X174865724Y-92923683D01*
X174991083Y-92798324D01*
X175138490Y-92699830D01*
X175302280Y-92631986D01*
X175418199Y-92608929D01*
X175476156Y-92597400D01*
X175653444Y-92597400D01*
X175711401Y-92608929D01*
G37*
G36*
X173924800Y-94397400D02*
G01*
X172124800Y-94397400D01*
X172124800Y-92597400D01*
X173924800Y-92597400D01*
X173924800Y-94397400D01*
G37*
G36*
X185574800Y-94362400D02*
G01*
X177924800Y-94362400D01*
X177924800Y-93292400D01*
X185574800Y-93292400D01*
X185574800Y-94362400D01*
G37*
G36*
X143645800Y-94090400D02*
G01*
X142045800Y-94090400D01*
X142045800Y-93540400D01*
X143645800Y-93540400D01*
X143645800Y-94090400D01*
G37*
G36*
X159045800Y-94090400D02*
G01*
X157445800Y-94090400D01*
X157445800Y-93540400D01*
X159045800Y-93540400D01*
X159045800Y-94090400D01*
G37*
G36*
X138868000Y-93643000D02*
G01*
X137968000Y-93643000D01*
X137968000Y-92793000D01*
X138868000Y-92793000D01*
X138868000Y-93643000D01*
G37*
G36*
X137368000Y-93643000D02*
G01*
X136468000Y-93643000D01*
X136468000Y-92793000D01*
X137368000Y-92793000D01*
X137368000Y-93643000D01*
G37*
G36*
X159045800Y-93440400D02*
G01*
X157445800Y-93440400D01*
X157445800Y-92890400D01*
X159045800Y-92890400D01*
X159045800Y-93440400D01*
G37*
G36*
X143645800Y-93440400D02*
G01*
X142045800Y-93440400D01*
X142045800Y-92890400D01*
X143645800Y-92890400D01*
X143645800Y-93440400D01*
G37*
G36*
X159045800Y-92790400D02*
G01*
X157445800Y-92790400D01*
X157445800Y-92240400D01*
X159045800Y-92240400D01*
X159045800Y-92790400D01*
G37*
G36*
X143645800Y-92790400D02*
G01*
X142045800Y-92790400D01*
X142045800Y-92240400D01*
X143645800Y-92240400D01*
X143645800Y-92790400D01*
G37*
G36*
X110758000Y-92621000D02*
G01*
X106158000Y-92621000D01*
X106158000Y-91021000D01*
X110758000Y-91021000D01*
X110758000Y-92621000D01*
G37*
G36*
X181124800Y-92377400D02*
G01*
X177924800Y-92377400D01*
X177924800Y-90807400D01*
X181124800Y-90807400D01*
X181124800Y-92377400D01*
G37*
G36*
X143645800Y-92140400D02*
G01*
X142045800Y-92140400D01*
X142045800Y-91590400D01*
X143645800Y-91590400D01*
X143645800Y-92140400D01*
G37*
G36*
X159045800Y-92140400D02*
G01*
X157445800Y-92140400D01*
X157445800Y-91590400D01*
X159045800Y-91590400D01*
X159045800Y-92140400D01*
G37*
G36*
X137368000Y-91865000D02*
G01*
X136468000Y-91865000D01*
X136468000Y-91015000D01*
X137368000Y-91015000D01*
X137368000Y-91865000D01*
G37*
G36*
X138868000Y-91865000D02*
G01*
X137968000Y-91865000D01*
X137968000Y-91015000D01*
X138868000Y-91015000D01*
X138868000Y-91865000D01*
G37*
G36*
X159045800Y-91490400D02*
G01*
X157445800Y-91490400D01*
X157445800Y-90940400D01*
X159045800Y-90940400D01*
X159045800Y-91490400D01*
G37*
G36*
X143645800Y-91490400D02*
G01*
X142045800Y-91490400D01*
X142045800Y-90940400D01*
X143645800Y-90940400D01*
X143645800Y-91490400D01*
G37*
G36*
X159045800Y-90840400D02*
G01*
X157445800Y-90840400D01*
X157445800Y-90290400D01*
X159045800Y-90290400D01*
X159045800Y-90840400D01*
G37*
G36*
X143645800Y-90840400D02*
G01*
X142045800Y-90840400D01*
X142045800Y-90290400D01*
X143645800Y-90290400D01*
X143645800Y-90840400D01*
G37*
G36*
X159045800Y-90190400D02*
G01*
X157445800Y-90190400D01*
X157445800Y-89640400D01*
X159045800Y-89640400D01*
X159045800Y-90190400D01*
G37*
G36*
X143645800Y-90190400D02*
G01*
X142045800Y-90190400D01*
X142045800Y-89640400D01*
X143645800Y-89640400D01*
X143645800Y-90190400D01*
G37*
G36*
X129888800Y-90125400D02*
G01*
X129038800Y-90125400D01*
X129038800Y-89225400D01*
X129888800Y-89225400D01*
X129888800Y-90125400D01*
G37*
G36*
X138868000Y-90087000D02*
G01*
X137968000Y-90087000D01*
X137968000Y-89237000D01*
X138868000Y-89237000D01*
X138868000Y-90087000D01*
G37*
G36*
X137368000Y-90087000D02*
G01*
X136468000Y-90087000D01*
X136468000Y-89237000D01*
X137368000Y-89237000D01*
X137368000Y-90087000D01*
G37*
G36*
X110758000Y-90081000D02*
G01*
X106158000Y-90081000D01*
X106158000Y-88481000D01*
X110758000Y-88481000D01*
X110758000Y-90081000D01*
G37*
G36*
X185574800Y-89892400D02*
G01*
X177924800Y-89892400D01*
X177924800Y-88822400D01*
X185574800Y-88822400D01*
X185574800Y-89892400D01*
G37*
G36*
X159045800Y-89540400D02*
G01*
X157445800Y-89540400D01*
X157445800Y-88990400D01*
X159045800Y-88990400D01*
X159045800Y-89540400D01*
G37*
G36*
X143645800Y-89540400D02*
G01*
X142045800Y-89540400D01*
X142045800Y-88990400D01*
X143645800Y-88990400D01*
X143645800Y-89540400D01*
G37*
G36*
X122538800Y-89185400D02*
G01*
X122188800Y-89185400D01*
X122188800Y-88385400D01*
X122538800Y-88385400D01*
X122538800Y-89185400D01*
G37*
G36*
X123038800Y-89185400D02*
G01*
X122688800Y-89185400D01*
X122688800Y-88385400D01*
X123038800Y-88385400D01*
X123038800Y-89185400D01*
G37*
G36*
X123538800Y-89185400D02*
G01*
X123188800Y-89185400D01*
X123188800Y-88385400D01*
X123538800Y-88385400D01*
X123538800Y-89185400D01*
G37*
G36*
X124038800Y-89185400D02*
G01*
X123688800Y-89185400D01*
X123688800Y-88385400D01*
X124038800Y-88385400D01*
X124038800Y-89185400D01*
G37*
G36*
X124538800Y-89185400D02*
G01*
X124188800Y-89185400D01*
X124188800Y-88385400D01*
X124538800Y-88385400D01*
X124538800Y-89185400D01*
G37*
G36*
X125038800Y-89185400D02*
G01*
X124688800Y-89185400D01*
X124688800Y-88385400D01*
X125038800Y-88385400D01*
X125038800Y-89185400D01*
G37*
G36*
X121538800Y-89185400D02*
G01*
X121188800Y-89185400D01*
X121188800Y-88385400D01*
X121538800Y-88385400D01*
X121538800Y-89185400D01*
G37*
G36*
X122038800Y-89185400D02*
G01*
X121688800Y-89185400D01*
X121688800Y-88385400D01*
X122038800Y-88385400D01*
X122038800Y-89185400D01*
G37*
G36*
X143645800Y-88890400D02*
G01*
X142045800Y-88890400D01*
X142045800Y-88340400D01*
X143645800Y-88340400D01*
X143645800Y-88890400D01*
G37*
G36*
X159045800Y-88890400D02*
G01*
X157445800Y-88890400D01*
X157445800Y-88340400D01*
X159045800Y-88340400D01*
X159045800Y-88890400D01*
G37*
G36*
X129888800Y-88625400D02*
G01*
X129038800Y-88625400D01*
X129038800Y-87725400D01*
X129888800Y-87725400D01*
X129888800Y-88625400D01*
G37*
G36*
X125913800Y-88310400D02*
G01*
X125113800Y-88310400D01*
X125113800Y-87960400D01*
X125913800Y-87960400D01*
X125913800Y-88310400D01*
G37*
G36*
X121113800Y-88310400D02*
G01*
X120313800Y-88310400D01*
X120313800Y-87960400D01*
X121113800Y-87960400D01*
X121113800Y-88310400D01*
G37*
G36*
X137368000Y-88309000D02*
G01*
X136468000Y-88309000D01*
X136468000Y-87459000D01*
X137368000Y-87459000D01*
X137368000Y-88309000D01*
G37*
G36*
X138868000Y-88309000D02*
G01*
X137968000Y-88309000D01*
X137968000Y-87459000D01*
X138868000Y-87459000D01*
X138868000Y-88309000D01*
G37*
G36*
X159045800Y-88240400D02*
G01*
X157445800Y-88240400D01*
X157445800Y-87690400D01*
X159045800Y-87690400D01*
X159045800Y-88240400D01*
G37*
G36*
X143645800Y-88240400D02*
G01*
X142045800Y-88240400D01*
X142045800Y-87690400D01*
X143645800Y-87690400D01*
X143645800Y-88240400D01*
G37*
G36*
X124888800Y-88160400D02*
G01*
X121338800Y-88160400D01*
X121338800Y-84610400D01*
X124888800Y-84610400D01*
X124888800Y-88160400D01*
G37*
G36*
X121113800Y-87810400D02*
G01*
X120313800Y-87810400D01*
X120313800Y-87460400D01*
X121113800Y-87460400D01*
X121113800Y-87810400D01*
G37*
G36*
X125913800Y-87810400D02*
G01*
X125113800Y-87810400D01*
X125113800Y-87460400D01*
X125913800Y-87460400D01*
X125913800Y-87810400D01*
G37*
G36*
X111794000Y-87622000D02*
G01*
X111194000Y-87622000D01*
X111194000Y-86622000D01*
X111794000Y-86622000D01*
X111794000Y-87622000D01*
G37*
G36*
X110294000Y-87622000D02*
G01*
X109694000Y-87622000D01*
X109694000Y-86622000D01*
X110294000Y-86622000D01*
X110294000Y-87622000D01*
G37*
G36*
X143645800Y-87590400D02*
G01*
X142045800Y-87590400D01*
X142045800Y-87040400D01*
X143645800Y-87040400D01*
X143645800Y-87590400D01*
G37*
G36*
X159045800Y-87590400D02*
G01*
X157445800Y-87590400D01*
X157445800Y-87040400D01*
X159045800Y-87040400D01*
X159045800Y-87590400D01*
G37*
G36*
X107346000Y-87572000D02*
G01*
X106446000Y-87572000D01*
X106446000Y-86672000D01*
X107346000Y-86672000D01*
X107346000Y-87572000D01*
G37*
G36*
X108946000Y-87572000D02*
G01*
X108046000Y-87572000D01*
X108046000Y-86672000D01*
X108946000Y-86672000D01*
X108946000Y-87572000D01*
G37*
G36*
X121113800Y-87310400D02*
G01*
X120313800Y-87310400D01*
X120313800Y-86960400D01*
X121113800Y-86960400D01*
X121113800Y-87310400D01*
G37*
G36*
X125913800Y-87310400D02*
G01*
X125113800Y-87310400D01*
X125113800Y-86960400D01*
X125913800Y-86960400D01*
X125913800Y-87310400D01*
G37*
G36*
X159045800Y-86940400D02*
G01*
X157445800Y-86940400D01*
X157445800Y-86390400D01*
X159045800Y-86390400D01*
X159045800Y-86940400D01*
G37*
G36*
X143645800Y-86940400D02*
G01*
X142045800Y-86940400D01*
X142045800Y-86390400D01*
X143645800Y-86390400D01*
X143645800Y-86940400D01*
G37*
G36*
X121113800Y-86810400D02*
G01*
X120313800Y-86810400D01*
X120313800Y-86460400D01*
X121113800Y-86460400D01*
X121113800Y-86810400D01*
G37*
G36*
X125913800Y-86810400D02*
G01*
X125113800Y-86810400D01*
X125113800Y-86460400D01*
X125913800Y-86460400D01*
X125913800Y-86810400D01*
G37*
G36*
X173924800Y-86777400D02*
G01*
X172124800Y-86777400D01*
X172124800Y-84977400D01*
X173924800Y-84977400D01*
X173924800Y-86777400D01*
G37*
G36*
X175711401Y-84988929D02*
G01*
X175827320Y-85011986D01*
X175991110Y-85079830D01*
X176138517Y-85178324D01*
X176263876Y-85303683D01*
X176362370Y-85451090D01*
X176430214Y-85614880D01*
X176464800Y-85788758D01*
X176464800Y-85966042D01*
X176430214Y-86139920D01*
X176362370Y-86303710D01*
X176263876Y-86451117D01*
X176138517Y-86576476D01*
X175991110Y-86674970D01*
X175827320Y-86742814D01*
X175711401Y-86765871D01*
X175653444Y-86777400D01*
X175476156Y-86777400D01*
X175418199Y-86765871D01*
X175302280Y-86742814D01*
X175138490Y-86674970D01*
X174991083Y-86576476D01*
X174865724Y-86451117D01*
X174767230Y-86303710D01*
X174699386Y-86139920D01*
X174664800Y-85966042D01*
X174664800Y-85788758D01*
X174699386Y-85614880D01*
X174767230Y-85451090D01*
X174865724Y-85303683D01*
X174991083Y-85178324D01*
X175138490Y-85079830D01*
X175302280Y-85011986D01*
X175418199Y-84988929D01*
X175476156Y-84977400D01*
X175653444Y-84977400D01*
X175711401Y-84988929D01*
G37*
G36*
X185574800Y-86742400D02*
G01*
X177924800Y-86742400D01*
X177924800Y-85672400D01*
X185574800Y-85672400D01*
X185574800Y-86742400D01*
G37*
G36*
X138868000Y-86531000D02*
G01*
X137968000Y-86531000D01*
X137968000Y-85681000D01*
X138868000Y-85681000D01*
X138868000Y-86531000D01*
G37*
G36*
X137368000Y-86531000D02*
G01*
X136468000Y-86531000D01*
X136468000Y-85681000D01*
X137368000Y-85681000D01*
X137368000Y-86531000D01*
G37*
G36*
X125913800Y-86310400D02*
G01*
X125113800Y-86310400D01*
X125113800Y-85960400D01*
X125913800Y-85960400D01*
X125913800Y-86310400D01*
G37*
G36*
X121113800Y-86310400D02*
G01*
X120313800Y-86310400D01*
X120313800Y-85960400D01*
X121113800Y-85960400D01*
X121113800Y-86310400D01*
G37*
G36*
X143645800Y-86290400D02*
G01*
X142045800Y-86290400D01*
X142045800Y-85740400D01*
X143645800Y-85740400D01*
X143645800Y-86290400D01*
G37*
G36*
X159045800Y-86290400D02*
G01*
X157445800Y-86290400D01*
X157445800Y-85740400D01*
X159045800Y-85740400D01*
X159045800Y-86290400D01*
G37*
G36*
X125913800Y-85810400D02*
G01*
X125113800Y-85810400D01*
X125113800Y-85460400D01*
X125913800Y-85460400D01*
X125913800Y-85810400D01*
G37*
G36*
X121113800Y-85810400D02*
G01*
X120313800Y-85810400D01*
X120313800Y-85460400D01*
X121113800Y-85460400D01*
X121113800Y-85810400D01*
G37*
G36*
X159045800Y-85640400D02*
G01*
X157445800Y-85640400D01*
X157445800Y-85090400D01*
X159045800Y-85090400D01*
X159045800Y-85640400D01*
G37*
G36*
X143645800Y-85640400D02*
G01*
X142045800Y-85640400D01*
X142045800Y-85090400D01*
X143645800Y-85090400D01*
X143645800Y-85640400D01*
G37*
G36*
X121113800Y-85310400D02*
G01*
X120313800Y-85310400D01*
X120313800Y-84960400D01*
X121113800Y-84960400D01*
X121113800Y-85310400D01*
G37*
G36*
X125913800Y-85310400D02*
G01*
X125113800Y-85310400D01*
X125113800Y-84960400D01*
X125913800Y-84960400D01*
X125913800Y-85310400D01*
G37*
G36*
X143645800Y-84990400D02*
G01*
X142045800Y-84990400D01*
X142045800Y-84440400D01*
X143645800Y-84440400D01*
X143645800Y-84990400D01*
G37*
G36*
X159045800Y-84990400D02*
G01*
X157445800Y-84990400D01*
X157445800Y-84440400D01*
X159045800Y-84440400D01*
X159045800Y-84990400D01*
G37*
G36*
X125913800Y-84810400D02*
G01*
X125113800Y-84810400D01*
X125113800Y-84460400D01*
X125913800Y-84460400D01*
X125913800Y-84810400D01*
G37*
G36*
X121113800Y-84810400D02*
G01*
X120313800Y-84810400D01*
X120313800Y-84460400D01*
X121113800Y-84460400D01*
X121113800Y-84810400D01*
G37*
G36*
X181124800Y-84757400D02*
G01*
X177924800Y-84757400D01*
X177924800Y-83187400D01*
X181124800Y-83187400D01*
X181124800Y-84757400D01*
G37*
G36*
X121538800Y-84385400D02*
G01*
X121188800Y-84385400D01*
X121188800Y-83585400D01*
X121538800Y-83585400D01*
X121538800Y-84385400D01*
G37*
G36*
X125038800Y-84385400D02*
G01*
X124688800Y-84385400D01*
X124688800Y-83585400D01*
X125038800Y-83585400D01*
X125038800Y-84385400D01*
G37*
G36*
X124538800Y-84385400D02*
G01*
X124188800Y-84385400D01*
X124188800Y-83585400D01*
X124538800Y-83585400D01*
X124538800Y-84385400D01*
G37*
G36*
X124038800Y-84385400D02*
G01*
X123688800Y-84385400D01*
X123688800Y-83585400D01*
X124038800Y-83585400D01*
X124038800Y-84385400D01*
G37*
G36*
X123538800Y-84385400D02*
G01*
X123188800Y-84385400D01*
X123188800Y-83585400D01*
X123538800Y-83585400D01*
X123538800Y-84385400D01*
G37*
G36*
X123038800Y-84385400D02*
G01*
X122688800Y-84385400D01*
X122688800Y-83585400D01*
X123038800Y-83585400D01*
X123038800Y-84385400D01*
G37*
G36*
X122538800Y-84385400D02*
G01*
X122188800Y-84385400D01*
X122188800Y-83585400D01*
X122538800Y-83585400D01*
X122538800Y-84385400D01*
G37*
G36*
X122038800Y-84385400D02*
G01*
X121688800Y-84385400D01*
X121688800Y-83585400D01*
X122038800Y-83585400D01*
X122038800Y-84385400D01*
G37*
G36*
X159045800Y-84340400D02*
G01*
X157445800Y-84340400D01*
X157445800Y-83790400D01*
X159045800Y-83790400D01*
X159045800Y-84340400D01*
G37*
G36*
X143645800Y-84340400D02*
G01*
X142045800Y-84340400D01*
X142045800Y-83790400D01*
X143645800Y-83790400D01*
X143645800Y-84340400D01*
G37*
G36*
X159045800Y-83690400D02*
G01*
X157445800Y-83690400D01*
X157445800Y-83140400D01*
X159045800Y-83140400D01*
X159045800Y-83690400D01*
G37*
G36*
X143645800Y-83690400D02*
G01*
X142045800Y-83690400D01*
X142045800Y-83140400D01*
X143645800Y-83140400D01*
X143645800Y-83690400D01*
G37*
G36*
X143645800Y-83040400D02*
G01*
X142045800Y-83040400D01*
X142045800Y-82490400D01*
X143645800Y-82490400D01*
X143645800Y-83040400D01*
G37*
G36*
X159045800Y-83040400D02*
G01*
X157445800Y-83040400D01*
X157445800Y-82490400D01*
X159045800Y-82490400D01*
X159045800Y-83040400D01*
G37*
G36*
X113514800Y-82932400D02*
G01*
X105864800Y-82932400D01*
X105864800Y-81862400D01*
X113514800Y-81862400D01*
X113514800Y-82932400D01*
G37*
G36*
X159045800Y-82390400D02*
G01*
X157445800Y-82390400D01*
X157445800Y-81840400D01*
X159045800Y-81840400D01*
X159045800Y-82390400D01*
G37*
G36*
X143645800Y-82390400D02*
G01*
X142045800Y-82390400D01*
X142045800Y-81840400D01*
X143645800Y-81840400D01*
X143645800Y-82390400D01*
G37*
G36*
X185574800Y-82272400D02*
G01*
X177924800Y-82272400D01*
X177924800Y-81202400D01*
X185574800Y-81202400D01*
X185574800Y-82272400D01*
G37*
G36*
X126536000Y-81845000D02*
G01*
X125686000Y-81845000D01*
X125686000Y-80945000D01*
X126536000Y-80945000D01*
X126536000Y-81845000D01*
G37*
G36*
X122980000Y-81845000D02*
G01*
X122130000Y-81845000D01*
X122130000Y-80945000D01*
X122980000Y-80945000D01*
X122980000Y-81845000D01*
G37*
G36*
X124758000Y-81845000D02*
G01*
X123908000Y-81845000D01*
X123908000Y-80945000D01*
X124758000Y-80945000D01*
X124758000Y-81845000D01*
G37*
G36*
X151145800Y-81390400D02*
G01*
X150595800Y-81390400D01*
X150595800Y-79790400D01*
X151145800Y-79790400D01*
X151145800Y-81390400D01*
G37*
G36*
X156995800Y-81390400D02*
G01*
X156445800Y-81390400D01*
X156445800Y-79790400D01*
X156995800Y-79790400D01*
X156995800Y-81390400D01*
G37*
G36*
X144645800Y-81390400D02*
G01*
X144095800Y-81390400D01*
X144095800Y-79790400D01*
X144645800Y-79790400D01*
X144645800Y-81390400D01*
G37*
G36*
X145295800Y-81390400D02*
G01*
X144745800Y-81390400D01*
X144745800Y-79790400D01*
X145295800Y-79790400D01*
X145295800Y-81390400D01*
G37*
G36*
X145945800Y-81390400D02*
G01*
X145395800Y-81390400D01*
X145395800Y-79790400D01*
X145945800Y-79790400D01*
X145945800Y-81390400D01*
G37*
G36*
X146595800Y-81390400D02*
G01*
X146045800Y-81390400D01*
X146045800Y-79790400D01*
X146595800Y-79790400D01*
X146595800Y-81390400D01*
G37*
G36*
X147245800Y-81390400D02*
G01*
X146695800Y-81390400D01*
X146695800Y-79790400D01*
X147245800Y-79790400D01*
X147245800Y-81390400D01*
G37*
G36*
X147895800Y-81390400D02*
G01*
X147345800Y-81390400D01*
X147345800Y-79790400D01*
X147895800Y-79790400D01*
X147895800Y-81390400D01*
G37*
G36*
X148545800Y-81390400D02*
G01*
X147995800Y-81390400D01*
X147995800Y-79790400D01*
X148545800Y-79790400D01*
X148545800Y-81390400D01*
G37*
G36*
X149195800Y-81390400D02*
G01*
X148645800Y-81390400D01*
X148645800Y-79790400D01*
X149195800Y-79790400D01*
X149195800Y-81390400D01*
G37*
G36*
X149845800Y-81390400D02*
G01*
X149295800Y-81390400D01*
X149295800Y-79790400D01*
X149845800Y-79790400D01*
X149845800Y-81390400D01*
G37*
G36*
X150495800Y-81390400D02*
G01*
X149945800Y-81390400D01*
X149945800Y-79790400D01*
X150495800Y-79790400D01*
X150495800Y-81390400D01*
G37*
G36*
X151795800Y-81390400D02*
G01*
X151245800Y-81390400D01*
X151245800Y-79790400D01*
X151795800Y-79790400D01*
X151795800Y-81390400D01*
G37*
G36*
X152445800Y-81390400D02*
G01*
X151895800Y-81390400D01*
X151895800Y-79790400D01*
X152445800Y-79790400D01*
X152445800Y-81390400D01*
G37*
G36*
X153095800Y-81390400D02*
G01*
X152545800Y-81390400D01*
X152545800Y-79790400D01*
X153095800Y-79790400D01*
X153095800Y-81390400D01*
G37*
G36*
X153745800Y-81390400D02*
G01*
X153195800Y-81390400D01*
X153195800Y-79790400D01*
X153745800Y-79790400D01*
X153745800Y-81390400D01*
G37*
G36*
X154395800Y-81390400D02*
G01*
X153845800Y-81390400D01*
X153845800Y-79790400D01*
X154395800Y-79790400D01*
X154395800Y-81390400D01*
G37*
G36*
X155045800Y-81390400D02*
G01*
X154495800Y-81390400D01*
X154495800Y-79790400D01*
X155045800Y-79790400D01*
X155045800Y-81390400D01*
G37*
G36*
X155695800Y-81390400D02*
G01*
X155145800Y-81390400D01*
X155145800Y-79790400D01*
X155695800Y-79790400D01*
X155695800Y-81390400D01*
G37*
G36*
X156345800Y-81390400D02*
G01*
X155795800Y-81390400D01*
X155795800Y-79790400D01*
X156345800Y-79790400D01*
X156345800Y-81390400D01*
G37*
G36*
X113514800Y-80947400D02*
G01*
X110314800Y-80947400D01*
X110314800Y-79377400D01*
X113514800Y-79377400D01*
X113514800Y-80947400D01*
G37*
G36*
X126536000Y-80345000D02*
G01*
X125686000Y-80345000D01*
X125686000Y-79445000D01*
X126536000Y-79445000D01*
X126536000Y-80345000D01*
G37*
G36*
X124758000Y-80345000D02*
G01*
X123908000Y-80345000D01*
X123908000Y-79445000D01*
X124758000Y-79445000D01*
X124758000Y-80345000D01*
G37*
G36*
X122980000Y-80345000D02*
G01*
X122130000Y-80345000D01*
X122130000Y-79445000D01*
X122980000Y-79445000D01*
X122980000Y-80345000D01*
G37*
G36*
X173924800Y-79157400D02*
G01*
X172124800Y-79157400D01*
X172124800Y-77357400D01*
X173924800Y-77357400D01*
X173924800Y-79157400D01*
G37*
G36*
X175711401Y-77368929D02*
G01*
X175827320Y-77391986D01*
X175991110Y-77459830D01*
X176138517Y-77558324D01*
X176263876Y-77683683D01*
X176362370Y-77831090D01*
X176430214Y-77994880D01*
X176464800Y-78168758D01*
X176464800Y-78346042D01*
X176430214Y-78519920D01*
X176362370Y-78683710D01*
X176263876Y-78831117D01*
X176138517Y-78956476D01*
X175991110Y-79054970D01*
X175827320Y-79122814D01*
X175711401Y-79145871D01*
X175653444Y-79157400D01*
X175476156Y-79157400D01*
X175418199Y-79145871D01*
X175302280Y-79122814D01*
X175138490Y-79054970D01*
X174991083Y-78956476D01*
X174865724Y-78831117D01*
X174767230Y-78683710D01*
X174699386Y-78519920D01*
X174664800Y-78346042D01*
X174664800Y-78168758D01*
X174699386Y-77994880D01*
X174767230Y-77831090D01*
X174865724Y-77683683D01*
X174991083Y-77558324D01*
X175138490Y-77459830D01*
X175302280Y-77391986D01*
X175418199Y-77368929D01*
X175476156Y-77357400D01*
X175653444Y-77357400D01*
X175711401Y-77368929D01*
G37*
G36*
X185574800Y-79122400D02*
G01*
X177924800Y-79122400D01*
X177924800Y-78052400D01*
X185574800Y-78052400D01*
X185574800Y-79122400D01*
G37*
G36*
X113514800Y-78462400D02*
G01*
X105864800Y-78462400D01*
X105864800Y-77392400D01*
X113514800Y-77392400D01*
X113514800Y-78462400D01*
G37*
G36*
X181124800Y-77137400D02*
G01*
X177924800Y-77137400D01*
X177924800Y-75567400D01*
X181124800Y-75567400D01*
X181124800Y-77137400D01*
G37*
G36*
X113514800Y-75312400D02*
G01*
X105864800Y-75312400D01*
X105864800Y-74242400D01*
X113514800Y-74242400D01*
X113514800Y-75312400D01*
G37*
G36*
X185574800Y-74652400D02*
G01*
X177924800Y-74652400D01*
X177924800Y-73582400D01*
X185574800Y-73582400D01*
X185574800Y-74652400D01*
G37*
G36*
X113514800Y-73327400D02*
G01*
X110314800Y-73327400D01*
X110314800Y-71757400D01*
X113514800Y-71757400D01*
X113514800Y-73327400D01*
G37*
G36*
X175711401Y-69748929D02*
G01*
X175827320Y-69771986D01*
X175991110Y-69839830D01*
X176138517Y-69938324D01*
X176263876Y-70063683D01*
X176362370Y-70211090D01*
X176430214Y-70374880D01*
X176464800Y-70548758D01*
X176464800Y-70726042D01*
X176430214Y-70899920D01*
X176362370Y-71063710D01*
X176263876Y-71211117D01*
X176138517Y-71336476D01*
X175991110Y-71434970D01*
X175827320Y-71502814D01*
X175711401Y-71525871D01*
X175653444Y-71537400D01*
X175476156Y-71537400D01*
X175418199Y-71525871D01*
X175302280Y-71502814D01*
X175138490Y-71434970D01*
X174991083Y-71336476D01*
X174865724Y-71211117D01*
X174767230Y-71063710D01*
X174699386Y-70899920D01*
X174664800Y-70726042D01*
X174664800Y-70548758D01*
X174699386Y-70374880D01*
X174767230Y-70211090D01*
X174865724Y-70063683D01*
X174991083Y-69938324D01*
X175138490Y-69839830D01*
X175302280Y-69771986D01*
X175418199Y-69748929D01*
X175476156Y-69737400D01*
X175653444Y-69737400D01*
X175711401Y-69748929D01*
G37*
G36*
X173924800Y-71537400D02*
G01*
X172124800Y-71537400D01*
X172124800Y-69737400D01*
X173924800Y-69737400D01*
X173924800Y-71537400D01*
G37*
G36*
X185574800Y-71502400D02*
G01*
X177924800Y-71502400D01*
X177924800Y-70432400D01*
X185574800Y-70432400D01*
X185574800Y-71502400D01*
G37*
G36*
X113514800Y-70842400D02*
G01*
X105864800Y-70842400D01*
X105864800Y-69772400D01*
X113514800Y-69772400D01*
X113514800Y-70842400D01*
G37*
G36*
X181124800Y-69517400D02*
G01*
X177924800Y-69517400D01*
X177924800Y-67947400D01*
X181124800Y-67947400D01*
X181124800Y-69517400D01*
G37*
G36*
X113514800Y-67692400D02*
G01*
X105864800Y-67692400D01*
X105864800Y-66622400D01*
X113514800Y-66622400D01*
X113514800Y-67692400D01*
G37*
G36*
X185574800Y-67032400D02*
G01*
X177924800Y-67032400D01*
X177924800Y-65962400D01*
X185574800Y-65962400D01*
X185574800Y-67032400D01*
G37*
G36*
X113514800Y-65707400D02*
G01*
X110314800Y-65707400D01*
X110314800Y-64137400D01*
X113514800Y-64137400D01*
X113514800Y-65707400D01*
G37*
G36*
X175194800Y-65187400D02*
G01*
X173394800Y-65187400D01*
X173394800Y-63387400D01*
X175194800Y-63387400D01*
X175194800Y-65187400D01*
G37*
G36*
X182814800Y-65187400D02*
G01*
X181014800Y-65187400D01*
X181014800Y-63387400D01*
X182814800Y-63387400D01*
X182814800Y-65187400D01*
G37*
G36*
X167574800Y-65187400D02*
G01*
X165774800Y-65187400D01*
X165774800Y-63387400D01*
X167574800Y-63387400D01*
X167574800Y-65187400D01*
G37*
G36*
X159954800Y-65187400D02*
G01*
X158154800Y-65187400D01*
X158154800Y-63387400D01*
X159954800Y-63387400D01*
X159954800Y-65187400D01*
G37*
G36*
X113514800Y-63222400D02*
G01*
X105864800Y-63222400D01*
X105864800Y-62152400D01*
X113514800Y-62152400D01*
X113514800Y-63222400D01*
G37*
G36*
X159201401Y-60858929D02*
G01*
X159317320Y-60881986D01*
X159481110Y-60949830D01*
X159628517Y-61048324D01*
X159753876Y-61173683D01*
X159852370Y-61321090D01*
X159920214Y-61484880D01*
X159954800Y-61658758D01*
X159954800Y-61836042D01*
X159920214Y-62009920D01*
X159852370Y-62173710D01*
X159753876Y-62321117D01*
X159628517Y-62446476D01*
X159481110Y-62544970D01*
X159317320Y-62612814D01*
X159201401Y-62635871D01*
X159143444Y-62647400D01*
X158966156Y-62647400D01*
X158908199Y-62635871D01*
X158792280Y-62612814D01*
X158628490Y-62544970D01*
X158481083Y-62446476D01*
X158355724Y-62321117D01*
X158257230Y-62173710D01*
X158189386Y-62009920D01*
X158154800Y-61836042D01*
X158154800Y-61658758D01*
X158189386Y-61484880D01*
X158257230Y-61321090D01*
X158355724Y-61173683D01*
X158481083Y-61048324D01*
X158628490Y-60949830D01*
X158792280Y-60881986D01*
X158908199Y-60858929D01*
X158966156Y-60847400D01*
X159143444Y-60847400D01*
X159201401Y-60858929D01*
G37*
G36*
X166821401Y-60858929D02*
G01*
X166937320Y-60881986D01*
X167101110Y-60949830D01*
X167248517Y-61048324D01*
X167373876Y-61173683D01*
X167472370Y-61321090D01*
X167540214Y-61484880D01*
X167574800Y-61658758D01*
X167574800Y-61836042D01*
X167540214Y-62009920D01*
X167472370Y-62173710D01*
X167373876Y-62321117D01*
X167248517Y-62446476D01*
X167101110Y-62544970D01*
X166937320Y-62612814D01*
X166821401Y-62635871D01*
X166763444Y-62647400D01*
X166586156Y-62647400D01*
X166528199Y-62635871D01*
X166412280Y-62612814D01*
X166248490Y-62544970D01*
X166101083Y-62446476D01*
X165975724Y-62321117D01*
X165877230Y-62173710D01*
X165809386Y-62009920D01*
X165774800Y-61836042D01*
X165774800Y-61658758D01*
X165809386Y-61484880D01*
X165877230Y-61321090D01*
X165975724Y-61173683D01*
X166101083Y-61048324D01*
X166248490Y-60949830D01*
X166412280Y-60881986D01*
X166528199Y-60858929D01*
X166586156Y-60847400D01*
X166763444Y-60847400D01*
X166821401Y-60858929D01*
G37*
G36*
X182061401Y-60858929D02*
G01*
X182177320Y-60881986D01*
X182341110Y-60949830D01*
X182488517Y-61048324D01*
X182613876Y-61173683D01*
X182712370Y-61321090D01*
X182780214Y-61484880D01*
X182814800Y-61658758D01*
X182814800Y-61836042D01*
X182780214Y-62009920D01*
X182712370Y-62173710D01*
X182613876Y-62321117D01*
X182488517Y-62446476D01*
X182341110Y-62544970D01*
X182177320Y-62612814D01*
X182061401Y-62635871D01*
X182003444Y-62647400D01*
X181826156Y-62647400D01*
X181768199Y-62635871D01*
X181652280Y-62612814D01*
X181488490Y-62544970D01*
X181341083Y-62446476D01*
X181215724Y-62321117D01*
X181117230Y-62173710D01*
X181049386Y-62009920D01*
X181014800Y-61836042D01*
X181014800Y-61658758D01*
X181049386Y-61484880D01*
X181117230Y-61321090D01*
X181215724Y-61173683D01*
X181341083Y-61048324D01*
X181488490Y-60949830D01*
X181652280Y-60881986D01*
X181768199Y-60858929D01*
X181826156Y-60847400D01*
X182003444Y-60847400D01*
X182061401Y-60858929D01*
G37*
G36*
X174441401Y-60858929D02*
G01*
X174557320Y-60881986D01*
X174721110Y-60949830D01*
X174868517Y-61048324D01*
X174993876Y-61173683D01*
X175092370Y-61321090D01*
X175160214Y-61484880D01*
X175194800Y-61658758D01*
X175194800Y-61836042D01*
X175160214Y-62009920D01*
X175092370Y-62173710D01*
X174993876Y-62321117D01*
X174868517Y-62446476D01*
X174721110Y-62544970D01*
X174557320Y-62612814D01*
X174441401Y-62635871D01*
X174383444Y-62647400D01*
X174206156Y-62647400D01*
X174148199Y-62635871D01*
X174032280Y-62612814D01*
X173868490Y-62544970D01*
X173721083Y-62446476D01*
X173595724Y-62321117D01*
X173497230Y-62173710D01*
X173429386Y-62009920D01*
X173394800Y-61836042D01*
X173394800Y-61658758D01*
X173429386Y-61484880D01*
X173497230Y-61321090D01*
X173595724Y-61173683D01*
X173721083Y-61048324D01*
X173868490Y-60949830D01*
X174032280Y-60881986D01*
X174148199Y-60858929D01*
X174206156Y-60847400D01*
X174383444Y-60847400D01*
X174441401Y-60858929D01*
G37*
G36*
X113514800Y-60072400D02*
G01*
X105864800Y-60072400D01*
X105864800Y-59002400D01*
X113514800Y-59002400D01*
X113514800Y-60072400D01*
G37*
G36*
X183414800Y-60022400D02*
G01*
X182344800Y-60022400D01*
X182344800Y-52372400D01*
X183414800Y-52372400D01*
X183414800Y-60022400D01*
G37*
G36*
X144044800Y-60022400D02*
G01*
X142974800Y-60022400D01*
X142974800Y-52372400D01*
X144044800Y-52372400D01*
X144044800Y-60022400D01*
G37*
G36*
X121184800Y-60022400D02*
G01*
X120114800Y-60022400D01*
X120114800Y-52372400D01*
X121184800Y-52372400D01*
X121184800Y-60022400D01*
G37*
G36*
X139574800Y-60022400D02*
G01*
X138504800Y-60022400D01*
X138504800Y-52372400D01*
X139574800Y-52372400D01*
X139574800Y-60022400D01*
G37*
G36*
X134439800Y-60022400D02*
G01*
X132869800Y-60022400D01*
X132869800Y-56822400D01*
X134439800Y-56822400D01*
X134439800Y-60022400D01*
G37*
G36*
X131954800Y-60022400D02*
G01*
X130884800Y-60022400D01*
X130884800Y-52372400D01*
X131954800Y-52372400D01*
X131954800Y-60022400D01*
G37*
G36*
X136424800Y-60022400D02*
G01*
X135354800Y-60022400D01*
X135354800Y-52372400D01*
X136424800Y-52372400D01*
X136424800Y-60022400D01*
G37*
G36*
X126819800Y-60022400D02*
G01*
X125249800Y-60022400D01*
X125249800Y-56822400D01*
X126819800Y-56822400D01*
X126819800Y-60022400D01*
G37*
G36*
X124334800Y-60022400D02*
G01*
X123264800Y-60022400D01*
X123264800Y-52372400D01*
X124334800Y-52372400D01*
X124334800Y-60022400D01*
G37*
G36*
X128804800Y-60022400D02*
G01*
X127734800Y-60022400D01*
X127734800Y-52372400D01*
X128804800Y-52372400D01*
X128804800Y-60022400D01*
G37*
G36*
X119199800Y-60022400D02*
G01*
X117629800Y-60022400D01*
X117629800Y-56822400D01*
X119199800Y-56822400D01*
X119199800Y-60022400D01*
G37*
G36*
X116714800Y-60022400D02*
G01*
X115644800Y-60022400D01*
X115644800Y-52372400D01*
X116714800Y-52372400D01*
X116714800Y-60022400D01*
G37*
G36*
X178944800Y-60022400D02*
G01*
X177874800Y-60022400D01*
X177874800Y-52372400D01*
X178944800Y-52372400D01*
X178944800Y-60022400D01*
G37*
G36*
X142059800Y-60022400D02*
G01*
X140489800Y-60022400D01*
X140489800Y-56822400D01*
X142059800Y-56822400D01*
X142059800Y-60022400D01*
G37*
G36*
X156084800Y-60022400D02*
G01*
X155014800Y-60022400D01*
X155014800Y-52372400D01*
X156084800Y-52372400D01*
X156084800Y-60022400D01*
G37*
G36*
X158569800Y-60022400D02*
G01*
X156999800Y-60022400D01*
X156999800Y-56822400D01*
X158569800Y-56822400D01*
X158569800Y-60022400D01*
G37*
G36*
X160554800Y-60022400D02*
G01*
X159484800Y-60022400D01*
X159484800Y-52372400D01*
X160554800Y-52372400D01*
X160554800Y-60022400D01*
G37*
G36*
X163704800Y-60022400D02*
G01*
X162634800Y-60022400D01*
X162634800Y-52372400D01*
X163704800Y-52372400D01*
X163704800Y-60022400D01*
G37*
G36*
X166189800Y-60022400D02*
G01*
X164619800Y-60022400D01*
X164619800Y-56822400D01*
X166189800Y-56822400D01*
X166189800Y-60022400D01*
G37*
G36*
X168174800Y-60022400D02*
G01*
X167104800Y-60022400D01*
X167104800Y-52372400D01*
X168174800Y-52372400D01*
X168174800Y-60022400D01*
G37*
G36*
X171324800Y-60022400D02*
G01*
X170254800Y-60022400D01*
X170254800Y-52372400D01*
X171324800Y-52372400D01*
X171324800Y-60022400D01*
G37*
G36*
X173809800Y-60022400D02*
G01*
X172239800Y-60022400D01*
X172239800Y-56822400D01*
X173809800Y-56822400D01*
X173809800Y-60022400D01*
G37*
G36*
X175794800Y-60022400D02*
G01*
X174724800Y-60022400D01*
X174724800Y-52372400D01*
X175794800Y-52372400D01*
X175794800Y-60022400D01*
G37*
G36*
X181429800Y-60022400D02*
G01*
X179859800Y-60022400D01*
X179859800Y-56822400D01*
X181429800Y-56822400D01*
X181429800Y-60022400D01*
G37*
G36*
X113514800Y-58087400D02*
G01*
X110314800Y-58087400D01*
X110314800Y-56517400D01*
X113514800Y-56517400D01*
X113514800Y-58087400D01*
G37*
G36*
X152869800Y-56808400D02*
G01*
X151269800Y-56808400D01*
X151269800Y-52208400D01*
X152869800Y-52208400D01*
X152869800Y-56808400D01*
G37*
G36*
X150329800Y-56808400D02*
G01*
X148729800Y-56808400D01*
X148729800Y-52208400D01*
X150329800Y-52208400D01*
X150329800Y-56808400D01*
G37*
G36*
X147789800Y-56808400D02*
G01*
X146189800Y-56808400D01*
X146189800Y-52208400D01*
X147789800Y-52208400D01*
X147789800Y-56808400D01*
G37*
G36*
X113514800Y-55602400D02*
G01*
X105864800Y-55602400D01*
X105864800Y-54532400D01*
X113514800Y-54532400D01*
X113514800Y-55602400D01*
G37*
M02*
