G04 #@! TF.GenerationSoftware,KiCad,Pcbnew,(5.1.6)-1*
G04 #@! TF.CreationDate,2020-07-24T04:57:18+02:00*
G04 #@! TF.ProjectId,AnalogControlBoard_Rev1.1,416e616c-6f67-4436-9f6e-74726f6c426f,rev?*
G04 #@! TF.SameCoordinates,Original*
G04 #@! TF.FileFunction,Soldermask,Bot*
G04 #@! TF.FilePolarity,Negative*
%FSLAX46Y46*%
G04 Gerber Fmt 4.6, Leading zero omitted, Abs format (unit mm)*
G04 Created by KiCad (PCBNEW (5.1.6)-1) date 2020-07-24 04:57:18*
%MOMM*%
%LPD*%
G01*
G04 APERTURE LIST*
%ADD10C,0.050000*%
G04 APERTURE END LIST*
D10*
G36*
X149167000Y-137753500D02*
G01*
X148367000Y-137753500D01*
X148367000Y-133453500D01*
X149167000Y-133453500D01*
X149167000Y-137753500D01*
G37*
G36*
X140167000Y-137753500D02*
G01*
X139367000Y-137753500D01*
X139367000Y-133453500D01*
X140167000Y-133453500D01*
X140167000Y-137753500D01*
G37*
G36*
X131167000Y-137753500D02*
G01*
X130367000Y-137753500D01*
X130367000Y-133453500D01*
X131167000Y-133453500D01*
X131167000Y-137753500D01*
G37*
G36*
X133167000Y-137753500D02*
G01*
X132367000Y-137753500D01*
X132367000Y-133453500D01*
X133167000Y-133453500D01*
X133167000Y-137753500D01*
G37*
G36*
X134167000Y-137753500D02*
G01*
X133367000Y-137753500D01*
X133367000Y-133453500D01*
X134167000Y-133453500D01*
X134167000Y-137753500D01*
G37*
G36*
X135167000Y-137753500D02*
G01*
X134367000Y-137753500D01*
X134367000Y-133453500D01*
X135167000Y-133453500D01*
X135167000Y-137753500D01*
G37*
G36*
X136167000Y-137753500D02*
G01*
X135367000Y-137753500D01*
X135367000Y-133453500D01*
X136167000Y-133453500D01*
X136167000Y-137753500D01*
G37*
G36*
X137167000Y-137753500D02*
G01*
X136367000Y-137753500D01*
X136367000Y-133453500D01*
X137167000Y-133453500D01*
X137167000Y-137753500D01*
G37*
G36*
X150167000Y-137753500D02*
G01*
X149367000Y-137753500D01*
X149367000Y-133453500D01*
X150167000Y-133453500D01*
X150167000Y-137753500D01*
G37*
G36*
X142167000Y-137753500D02*
G01*
X141367000Y-137753500D01*
X141367000Y-133453500D01*
X142167000Y-133453500D01*
X142167000Y-137753500D01*
G37*
G36*
X141167000Y-137753500D02*
G01*
X140367000Y-137753500D01*
X140367000Y-133453500D01*
X141167000Y-133453500D01*
X141167000Y-137753500D01*
G37*
G36*
X148167000Y-137753500D02*
G01*
X147367000Y-137753500D01*
X147367000Y-133453500D01*
X148167000Y-133453500D01*
X148167000Y-137753500D01*
G37*
G36*
X147167000Y-137753500D02*
G01*
X146367000Y-137753500D01*
X146367000Y-133453500D01*
X147167000Y-133453500D01*
X147167000Y-137753500D01*
G37*
G36*
X146167000Y-137753500D02*
G01*
X145367000Y-137753500D01*
X145367000Y-133453500D01*
X146167000Y-133453500D01*
X146167000Y-137753500D01*
G37*
G36*
X144167000Y-137753500D02*
G01*
X143367000Y-137753500D01*
X143367000Y-133453500D01*
X144167000Y-133453500D01*
X144167000Y-137753500D01*
G37*
G36*
X145167000Y-137753500D02*
G01*
X144367000Y-137753500D01*
X144367000Y-133453500D01*
X145167000Y-133453500D01*
X145167000Y-137753500D01*
G37*
G36*
X143167000Y-137753500D02*
G01*
X142367000Y-137753500D01*
X142367000Y-133453500D01*
X143167000Y-133453500D01*
X143167000Y-137753500D01*
G37*
G36*
X132167000Y-136753500D02*
G01*
X131367000Y-136753500D01*
X131367000Y-133453500D01*
X132167000Y-133453500D01*
X132167000Y-136753500D01*
G37*
G36*
X132226601Y-127381529D02*
G01*
X132342520Y-127404586D01*
X132506310Y-127472430D01*
X132653717Y-127570924D01*
X132779076Y-127696283D01*
X132877570Y-127843690D01*
X132945414Y-128007480D01*
X132980000Y-128181358D01*
X132980000Y-128358642D01*
X132945414Y-128532520D01*
X132877570Y-128696310D01*
X132779076Y-128843717D01*
X132653717Y-128969076D01*
X132506310Y-129067570D01*
X132342520Y-129135414D01*
X132226601Y-129158471D01*
X132168644Y-129170000D01*
X131991356Y-129170000D01*
X131933399Y-129158471D01*
X131817480Y-129135414D01*
X131653690Y-129067570D01*
X131506283Y-128969076D01*
X131380924Y-128843717D01*
X131282430Y-128696310D01*
X131214586Y-128532520D01*
X131180000Y-128358642D01*
X131180000Y-128181358D01*
X131214586Y-128007480D01*
X131282430Y-127843690D01*
X131380924Y-127696283D01*
X131506283Y-127570924D01*
X131653690Y-127472430D01*
X131817480Y-127404586D01*
X131933399Y-127381529D01*
X131991356Y-127370000D01*
X132168644Y-127370000D01*
X132226601Y-127381529D01*
G37*
G36*
X137306601Y-127381529D02*
G01*
X137422520Y-127404586D01*
X137586310Y-127472430D01*
X137733717Y-127570924D01*
X137859076Y-127696283D01*
X137957570Y-127843690D01*
X138025414Y-128007480D01*
X138060000Y-128181358D01*
X138060000Y-128358642D01*
X138025414Y-128532520D01*
X137957570Y-128696310D01*
X137859076Y-128843717D01*
X137733717Y-128969076D01*
X137586310Y-129067570D01*
X137422520Y-129135414D01*
X137306601Y-129158471D01*
X137248644Y-129170000D01*
X137071356Y-129170000D01*
X137013399Y-129158471D01*
X136897480Y-129135414D01*
X136733690Y-129067570D01*
X136586283Y-128969076D01*
X136460924Y-128843717D01*
X136362430Y-128696310D01*
X136294586Y-128532520D01*
X136260000Y-128358642D01*
X136260000Y-128181358D01*
X136294586Y-128007480D01*
X136362430Y-127843690D01*
X136460924Y-127696283D01*
X136586283Y-127570924D01*
X136733690Y-127472430D01*
X136897480Y-127404586D01*
X137013399Y-127381529D01*
X137071356Y-127370000D01*
X137248644Y-127370000D01*
X137306601Y-127381529D01*
G37*
G36*
X130440000Y-129170000D02*
G01*
X128640000Y-129170000D01*
X128640000Y-127370000D01*
X130440000Y-127370000D01*
X130440000Y-129170000D01*
G37*
G36*
X134766601Y-127381529D02*
G01*
X134882520Y-127404586D01*
X135046310Y-127472430D01*
X135193717Y-127570924D01*
X135319076Y-127696283D01*
X135417570Y-127843690D01*
X135485414Y-128007480D01*
X135520000Y-128181358D01*
X135520000Y-128358642D01*
X135485414Y-128532520D01*
X135417570Y-128696310D01*
X135319076Y-128843717D01*
X135193717Y-128969076D01*
X135046310Y-129067570D01*
X134882520Y-129135414D01*
X134766601Y-129158471D01*
X134708644Y-129170000D01*
X134531356Y-129170000D01*
X134473399Y-129158471D01*
X134357480Y-129135414D01*
X134193690Y-129067570D01*
X134046283Y-128969076D01*
X133920924Y-128843717D01*
X133822430Y-128696310D01*
X133754586Y-128532520D01*
X133720000Y-128358642D01*
X133720000Y-128181358D01*
X133754586Y-128007480D01*
X133822430Y-127843690D01*
X133920924Y-127696283D01*
X134046283Y-127570924D01*
X134193690Y-127472430D01*
X134357480Y-127404586D01*
X134473399Y-127381529D01*
X134531356Y-127370000D01*
X134708644Y-127370000D01*
X134766601Y-127381529D01*
G37*
G36*
X142381048Y-124840424D02*
G01*
X142502520Y-124864586D01*
X142666310Y-124932430D01*
X142813717Y-125030924D01*
X142939076Y-125156283D01*
X143037570Y-125303690D01*
X143105414Y-125467480D01*
X143128471Y-125583399D01*
X143137372Y-125628142D01*
X143140000Y-125641358D01*
X143140000Y-125818642D01*
X143105414Y-125992520D01*
X143037570Y-126156310D01*
X142939076Y-126303717D01*
X142813717Y-126429076D01*
X142666310Y-126527570D01*
X142502520Y-126595414D01*
X142386601Y-126618471D01*
X142328644Y-126630000D01*
X142151356Y-126630000D01*
X142093399Y-126618471D01*
X141977480Y-126595414D01*
X141813690Y-126527570D01*
X141666283Y-126429076D01*
X141540924Y-126303717D01*
X141442430Y-126156310D01*
X141374586Y-125992520D01*
X141340000Y-125818642D01*
X141340000Y-125641358D01*
X141342629Y-125628142D01*
X141351529Y-125583399D01*
X141374586Y-125467480D01*
X141442430Y-125303690D01*
X141540924Y-125156283D01*
X141666283Y-125030924D01*
X141813690Y-124932430D01*
X141977480Y-124864586D01*
X142098952Y-124840424D01*
X142151356Y-124830000D01*
X142328644Y-124830000D01*
X142381048Y-124840424D01*
G37*
G36*
X150001048Y-124840424D02*
G01*
X150122520Y-124864586D01*
X150286310Y-124932430D01*
X150433717Y-125030924D01*
X150559076Y-125156283D01*
X150657570Y-125303690D01*
X150725414Y-125467480D01*
X150748471Y-125583399D01*
X150757372Y-125628142D01*
X150760000Y-125641358D01*
X150760000Y-125818642D01*
X150725414Y-125992520D01*
X150657570Y-126156310D01*
X150559076Y-126303717D01*
X150433717Y-126429076D01*
X150286310Y-126527570D01*
X150122520Y-126595414D01*
X150006601Y-126618471D01*
X149948644Y-126630000D01*
X149771356Y-126630000D01*
X149713399Y-126618471D01*
X149597480Y-126595414D01*
X149433690Y-126527570D01*
X149286283Y-126429076D01*
X149160924Y-126303717D01*
X149062430Y-126156310D01*
X148994586Y-125992520D01*
X148960000Y-125818642D01*
X148960000Y-125641358D01*
X148962629Y-125628142D01*
X148971529Y-125583399D01*
X148994586Y-125467480D01*
X149062430Y-125303690D01*
X149160924Y-125156283D01*
X149286283Y-125030924D01*
X149433690Y-124932430D01*
X149597480Y-124864586D01*
X149718952Y-124840424D01*
X149771356Y-124830000D01*
X149948644Y-124830000D01*
X150001048Y-124840424D01*
G37*
G36*
X147461048Y-124840424D02*
G01*
X147582520Y-124864586D01*
X147746310Y-124932430D01*
X147893717Y-125030924D01*
X148019076Y-125156283D01*
X148117570Y-125303690D01*
X148185414Y-125467480D01*
X148208471Y-125583399D01*
X148217372Y-125628142D01*
X148220000Y-125641358D01*
X148220000Y-125818642D01*
X148185414Y-125992520D01*
X148117570Y-126156310D01*
X148019076Y-126303717D01*
X147893717Y-126429076D01*
X147746310Y-126527570D01*
X147582520Y-126595414D01*
X147466601Y-126618471D01*
X147408644Y-126630000D01*
X147231356Y-126630000D01*
X147173399Y-126618471D01*
X147057480Y-126595414D01*
X146893690Y-126527570D01*
X146746283Y-126429076D01*
X146620924Y-126303717D01*
X146522430Y-126156310D01*
X146454586Y-125992520D01*
X146420000Y-125818642D01*
X146420000Y-125641358D01*
X146422629Y-125628142D01*
X146431529Y-125583399D01*
X146454586Y-125467480D01*
X146522430Y-125303690D01*
X146620924Y-125156283D01*
X146746283Y-125030924D01*
X146893690Y-124932430D01*
X147057480Y-124864586D01*
X147178952Y-124840424D01*
X147231356Y-124830000D01*
X147408644Y-124830000D01*
X147461048Y-124840424D01*
G37*
G36*
X134761048Y-124840424D02*
G01*
X134882520Y-124864586D01*
X135046310Y-124932430D01*
X135193717Y-125030924D01*
X135319076Y-125156283D01*
X135417570Y-125303690D01*
X135485414Y-125467480D01*
X135508471Y-125583399D01*
X135517372Y-125628142D01*
X135520000Y-125641358D01*
X135520000Y-125818642D01*
X135485414Y-125992520D01*
X135417570Y-126156310D01*
X135319076Y-126303717D01*
X135193717Y-126429076D01*
X135046310Y-126527570D01*
X134882520Y-126595414D01*
X134766601Y-126618471D01*
X134708644Y-126630000D01*
X134531356Y-126630000D01*
X134473399Y-126618471D01*
X134357480Y-126595414D01*
X134193690Y-126527570D01*
X134046283Y-126429076D01*
X133920924Y-126303717D01*
X133822430Y-126156310D01*
X133754586Y-125992520D01*
X133720000Y-125818642D01*
X133720000Y-125641358D01*
X133722629Y-125628142D01*
X133731529Y-125583399D01*
X133754586Y-125467480D01*
X133822430Y-125303690D01*
X133920924Y-125156283D01*
X134046283Y-125030924D01*
X134193690Y-124932430D01*
X134357480Y-124864586D01*
X134478952Y-124840424D01*
X134531356Y-124830000D01*
X134708644Y-124830000D01*
X134761048Y-124840424D01*
G37*
G36*
X132221048Y-124840424D02*
G01*
X132342520Y-124864586D01*
X132506310Y-124932430D01*
X132653717Y-125030924D01*
X132779076Y-125156283D01*
X132877570Y-125303690D01*
X132945414Y-125467480D01*
X132968471Y-125583399D01*
X132977372Y-125628142D01*
X132980000Y-125641358D01*
X132980000Y-125818642D01*
X132945414Y-125992520D01*
X132877570Y-126156310D01*
X132779076Y-126303717D01*
X132653717Y-126429076D01*
X132506310Y-126527570D01*
X132342520Y-126595414D01*
X132226601Y-126618471D01*
X132168644Y-126630000D01*
X131991356Y-126630000D01*
X131933399Y-126618471D01*
X131817480Y-126595414D01*
X131653690Y-126527570D01*
X131506283Y-126429076D01*
X131380924Y-126303717D01*
X131282430Y-126156310D01*
X131214586Y-125992520D01*
X131180000Y-125818642D01*
X131180000Y-125641358D01*
X131182629Y-125628142D01*
X131191529Y-125583399D01*
X131214586Y-125467480D01*
X131282430Y-125303690D01*
X131380924Y-125156283D01*
X131506283Y-125030924D01*
X131653690Y-124932430D01*
X131817480Y-124864586D01*
X131938952Y-124840424D01*
X131991356Y-124830000D01*
X132168644Y-124830000D01*
X132221048Y-124840424D01*
G37*
G36*
X137301048Y-124840424D02*
G01*
X137422520Y-124864586D01*
X137586310Y-124932430D01*
X137733717Y-125030924D01*
X137859076Y-125156283D01*
X137957570Y-125303690D01*
X138025414Y-125467480D01*
X138048471Y-125583399D01*
X138057372Y-125628142D01*
X138060000Y-125641358D01*
X138060000Y-125818642D01*
X138025414Y-125992520D01*
X137957570Y-126156310D01*
X137859076Y-126303717D01*
X137733717Y-126429076D01*
X137586310Y-126527570D01*
X137422520Y-126595414D01*
X137306601Y-126618471D01*
X137248644Y-126630000D01*
X137071356Y-126630000D01*
X137013399Y-126618471D01*
X136897480Y-126595414D01*
X136733690Y-126527570D01*
X136586283Y-126429076D01*
X136460924Y-126303717D01*
X136362430Y-126156310D01*
X136294586Y-125992520D01*
X136260000Y-125818642D01*
X136260000Y-125641358D01*
X136262629Y-125628142D01*
X136271529Y-125583399D01*
X136294586Y-125467480D01*
X136362430Y-125303690D01*
X136460924Y-125156283D01*
X136586283Y-125030924D01*
X136733690Y-124932430D01*
X136897480Y-124864586D01*
X137018952Y-124840424D01*
X137071356Y-124830000D01*
X137248644Y-124830000D01*
X137301048Y-124840424D01*
G37*
G36*
X130440000Y-126630000D02*
G01*
X128640000Y-126630000D01*
X128640000Y-124830000D01*
X130440000Y-124830000D01*
X130440000Y-126630000D01*
G37*
G36*
X139841048Y-124840424D02*
G01*
X139962520Y-124864586D01*
X140126310Y-124932430D01*
X140273717Y-125030924D01*
X140399076Y-125156283D01*
X140497570Y-125303690D01*
X140565414Y-125467480D01*
X140588471Y-125583399D01*
X140597372Y-125628142D01*
X140600000Y-125641358D01*
X140600000Y-125818642D01*
X140565414Y-125992520D01*
X140497570Y-126156310D01*
X140399076Y-126303717D01*
X140273717Y-126429076D01*
X140126310Y-126527570D01*
X139962520Y-126595414D01*
X139846601Y-126618471D01*
X139788644Y-126630000D01*
X139611356Y-126630000D01*
X139553399Y-126618471D01*
X139437480Y-126595414D01*
X139273690Y-126527570D01*
X139126283Y-126429076D01*
X139000924Y-126303717D01*
X138902430Y-126156310D01*
X138834586Y-125992520D01*
X138800000Y-125818642D01*
X138800000Y-125641358D01*
X138802629Y-125628142D01*
X138811529Y-125583399D01*
X138834586Y-125467480D01*
X138902430Y-125303690D01*
X139000924Y-125156283D01*
X139126283Y-125030924D01*
X139273690Y-124932430D01*
X139437480Y-124864586D01*
X139558952Y-124840424D01*
X139611356Y-124830000D01*
X139788644Y-124830000D01*
X139841048Y-124840424D01*
G37*
G36*
X144921048Y-124840424D02*
G01*
X145042520Y-124864586D01*
X145206310Y-124932430D01*
X145353717Y-125030924D01*
X145479076Y-125156283D01*
X145577570Y-125303690D01*
X145645414Y-125467480D01*
X145668471Y-125583399D01*
X145677372Y-125628142D01*
X145680000Y-125641358D01*
X145680000Y-125818642D01*
X145645414Y-125992520D01*
X145577570Y-126156310D01*
X145479076Y-126303717D01*
X145353717Y-126429076D01*
X145206310Y-126527570D01*
X145042520Y-126595414D01*
X144926601Y-126618471D01*
X144868644Y-126630000D01*
X144691356Y-126630000D01*
X144633399Y-126618471D01*
X144517480Y-126595414D01*
X144353690Y-126527570D01*
X144206283Y-126429076D01*
X144080924Y-126303717D01*
X143982430Y-126156310D01*
X143914586Y-125992520D01*
X143880000Y-125818642D01*
X143880000Y-125641358D01*
X143882629Y-125628142D01*
X143891529Y-125583399D01*
X143914586Y-125467480D01*
X143982430Y-125303690D01*
X144080924Y-125156283D01*
X144206283Y-125030924D01*
X144353690Y-124932430D01*
X144517480Y-124864586D01*
X144638952Y-124840424D01*
X144691356Y-124830000D01*
X144868644Y-124830000D01*
X144921048Y-124840424D01*
G37*
G36*
X152541048Y-124840424D02*
G01*
X152662520Y-124864586D01*
X152826310Y-124932430D01*
X152973717Y-125030924D01*
X153099076Y-125156283D01*
X153197570Y-125303690D01*
X153265414Y-125467480D01*
X153288471Y-125583399D01*
X153297372Y-125628142D01*
X153300000Y-125641358D01*
X153300000Y-125818642D01*
X153265414Y-125992520D01*
X153197570Y-126156310D01*
X153099076Y-126303717D01*
X152973717Y-126429076D01*
X152826310Y-126527570D01*
X152662520Y-126595414D01*
X152546601Y-126618471D01*
X152488644Y-126630000D01*
X152311356Y-126630000D01*
X152253399Y-126618471D01*
X152137480Y-126595414D01*
X151973690Y-126527570D01*
X151826283Y-126429076D01*
X151700924Y-126303717D01*
X151602430Y-126156310D01*
X151534586Y-125992520D01*
X151500000Y-125818642D01*
X151500000Y-125641358D01*
X151502629Y-125628142D01*
X151511529Y-125583399D01*
X151534586Y-125467480D01*
X151602430Y-125303690D01*
X151700924Y-125156283D01*
X151826283Y-125030924D01*
X151973690Y-124932430D01*
X152137480Y-124864586D01*
X152258952Y-124840424D01*
X152311356Y-124830000D01*
X152488644Y-124830000D01*
X152541048Y-124840424D01*
G37*
G36*
X157499601Y-124651029D02*
G01*
X157615520Y-124674086D01*
X157779310Y-124741930D01*
X157926717Y-124840424D01*
X158052076Y-124965783D01*
X158150570Y-125113190D01*
X158218414Y-125276980D01*
X158241471Y-125392899D01*
X158253000Y-125450856D01*
X158253000Y-125628144D01*
X158241471Y-125686101D01*
X158218414Y-125802020D01*
X158150570Y-125965810D01*
X158052076Y-126113217D01*
X157926717Y-126238576D01*
X157779310Y-126337070D01*
X157615520Y-126404914D01*
X157499601Y-126427971D01*
X157441644Y-126439500D01*
X157264356Y-126439500D01*
X157206399Y-126427971D01*
X157090480Y-126404914D01*
X156926690Y-126337070D01*
X156779283Y-126238576D01*
X156653924Y-126113217D01*
X156555430Y-125965810D01*
X156487586Y-125802020D01*
X156464529Y-125686101D01*
X156453000Y-125628144D01*
X156453000Y-125450856D01*
X156464529Y-125392899D01*
X156487586Y-125276980D01*
X156555430Y-125113190D01*
X156653924Y-124965783D01*
X156779283Y-124840424D01*
X156926690Y-124741930D01*
X157090480Y-124674086D01*
X157206399Y-124651029D01*
X157264356Y-124639500D01*
X157441644Y-124639500D01*
X157499601Y-124651029D01*
G37*
G36*
X175711401Y-123088929D02*
G01*
X175827320Y-123111986D01*
X175991110Y-123179830D01*
X176138517Y-123278324D01*
X176263876Y-123403683D01*
X176362370Y-123551090D01*
X176430214Y-123714880D01*
X176464800Y-123888758D01*
X176464800Y-124066042D01*
X176430214Y-124239920D01*
X176362370Y-124403710D01*
X176263876Y-124551117D01*
X176138517Y-124676476D01*
X175991110Y-124774970D01*
X175827320Y-124842814D01*
X175717863Y-124864586D01*
X175653444Y-124877400D01*
X175476156Y-124877400D01*
X175411737Y-124864586D01*
X175302280Y-124842814D01*
X175138490Y-124774970D01*
X174991083Y-124676476D01*
X174865724Y-124551117D01*
X174767230Y-124403710D01*
X174699386Y-124239920D01*
X174664800Y-124066042D01*
X174664800Y-123888758D01*
X174699386Y-123714880D01*
X174767230Y-123551090D01*
X174865724Y-123403683D01*
X174991083Y-123278324D01*
X175138490Y-123179830D01*
X175302280Y-123111986D01*
X175418199Y-123088929D01*
X175476156Y-123077400D01*
X175653444Y-123077400D01*
X175711401Y-123088929D01*
G37*
G36*
X173924800Y-124877400D02*
G01*
X172124800Y-124877400D01*
X172124800Y-123077400D01*
X173924800Y-123077400D01*
X173924800Y-124877400D01*
G37*
G36*
X107594824Y-122572575D02*
G01*
X107745631Y-122618321D01*
X107884603Y-122692604D01*
X108006422Y-122792578D01*
X108106396Y-122914397D01*
X108180679Y-123053369D01*
X108226425Y-123204176D01*
X108241871Y-123361000D01*
X108226425Y-123517824D01*
X108180679Y-123668631D01*
X108106396Y-123807603D01*
X108006422Y-123929422D01*
X107884603Y-124029396D01*
X107745631Y-124103679D01*
X107594824Y-124149425D01*
X107477303Y-124161000D01*
X106898697Y-124161000D01*
X106781176Y-124149425D01*
X106630369Y-124103679D01*
X106491397Y-124029396D01*
X106369578Y-123929422D01*
X106269604Y-123807603D01*
X106195321Y-123668631D01*
X106149575Y-123517824D01*
X106134129Y-123361000D01*
X106149575Y-123204176D01*
X106195321Y-123053369D01*
X106269604Y-122914397D01*
X106369578Y-122792578D01*
X106491397Y-122692604D01*
X106630369Y-122618321D01*
X106781176Y-122572575D01*
X106898697Y-122561000D01*
X107477303Y-122561000D01*
X107594824Y-122572575D01*
G37*
G36*
X142381048Y-122300424D02*
G01*
X142502520Y-122324586D01*
X142666310Y-122392430D01*
X142813717Y-122490924D01*
X142939076Y-122616283D01*
X143037570Y-122763690D01*
X143105414Y-122927480D01*
X143128471Y-123043399D01*
X143137372Y-123088142D01*
X143140000Y-123101358D01*
X143140000Y-123278642D01*
X143105414Y-123452520D01*
X143037570Y-123616310D01*
X142939076Y-123763717D01*
X142813717Y-123889076D01*
X142666310Y-123987570D01*
X142502520Y-124055414D01*
X142386601Y-124078471D01*
X142328644Y-124090000D01*
X142151356Y-124090000D01*
X142093399Y-124078471D01*
X141977480Y-124055414D01*
X141813690Y-123987570D01*
X141666283Y-123889076D01*
X141540924Y-123763717D01*
X141442430Y-123616310D01*
X141374586Y-123452520D01*
X141340000Y-123278642D01*
X141340000Y-123101358D01*
X141342629Y-123088142D01*
X141351529Y-123043399D01*
X141374586Y-122927480D01*
X141442430Y-122763690D01*
X141540924Y-122616283D01*
X141666283Y-122490924D01*
X141813690Y-122392430D01*
X141977480Y-122324586D01*
X142098952Y-122300424D01*
X142151356Y-122290000D01*
X142328644Y-122290000D01*
X142381048Y-122300424D01*
G37*
G36*
X150001048Y-122300424D02*
G01*
X150122520Y-122324586D01*
X150286310Y-122392430D01*
X150433717Y-122490924D01*
X150559076Y-122616283D01*
X150657570Y-122763690D01*
X150725414Y-122927480D01*
X150748471Y-123043399D01*
X150757372Y-123088142D01*
X150760000Y-123101358D01*
X150760000Y-123278642D01*
X150725414Y-123452520D01*
X150657570Y-123616310D01*
X150559076Y-123763717D01*
X150433717Y-123889076D01*
X150286310Y-123987570D01*
X150122520Y-124055414D01*
X150006601Y-124078471D01*
X149948644Y-124090000D01*
X149771356Y-124090000D01*
X149713399Y-124078471D01*
X149597480Y-124055414D01*
X149433690Y-123987570D01*
X149286283Y-123889076D01*
X149160924Y-123763717D01*
X149062430Y-123616310D01*
X148994586Y-123452520D01*
X148960000Y-123278642D01*
X148960000Y-123101358D01*
X148962629Y-123088142D01*
X148971529Y-123043399D01*
X148994586Y-122927480D01*
X149062430Y-122763690D01*
X149160924Y-122616283D01*
X149286283Y-122490924D01*
X149433690Y-122392430D01*
X149597480Y-122324586D01*
X149718952Y-122300424D01*
X149771356Y-122290000D01*
X149948644Y-122290000D01*
X150001048Y-122300424D01*
G37*
G36*
X147461048Y-122300424D02*
G01*
X147582520Y-122324586D01*
X147746310Y-122392430D01*
X147893717Y-122490924D01*
X148019076Y-122616283D01*
X148117570Y-122763690D01*
X148185414Y-122927480D01*
X148208471Y-123043399D01*
X148217372Y-123088142D01*
X148220000Y-123101358D01*
X148220000Y-123278642D01*
X148185414Y-123452520D01*
X148117570Y-123616310D01*
X148019076Y-123763717D01*
X147893717Y-123889076D01*
X147746310Y-123987570D01*
X147582520Y-124055414D01*
X147466601Y-124078471D01*
X147408644Y-124090000D01*
X147231356Y-124090000D01*
X147173399Y-124078471D01*
X147057480Y-124055414D01*
X146893690Y-123987570D01*
X146746283Y-123889076D01*
X146620924Y-123763717D01*
X146522430Y-123616310D01*
X146454586Y-123452520D01*
X146420000Y-123278642D01*
X146420000Y-123101358D01*
X146422629Y-123088142D01*
X146431529Y-123043399D01*
X146454586Y-122927480D01*
X146522430Y-122763690D01*
X146620924Y-122616283D01*
X146746283Y-122490924D01*
X146893690Y-122392430D01*
X147057480Y-122324586D01*
X147178952Y-122300424D01*
X147231356Y-122290000D01*
X147408644Y-122290000D01*
X147461048Y-122300424D01*
G37*
G36*
X144921048Y-122300424D02*
G01*
X145042520Y-122324586D01*
X145206310Y-122392430D01*
X145353717Y-122490924D01*
X145479076Y-122616283D01*
X145577570Y-122763690D01*
X145645414Y-122927480D01*
X145668471Y-123043399D01*
X145677372Y-123088142D01*
X145680000Y-123101358D01*
X145680000Y-123278642D01*
X145645414Y-123452520D01*
X145577570Y-123616310D01*
X145479076Y-123763717D01*
X145353717Y-123889076D01*
X145206310Y-123987570D01*
X145042520Y-124055414D01*
X144926601Y-124078471D01*
X144868644Y-124090000D01*
X144691356Y-124090000D01*
X144633399Y-124078471D01*
X144517480Y-124055414D01*
X144353690Y-123987570D01*
X144206283Y-123889076D01*
X144080924Y-123763717D01*
X143982430Y-123616310D01*
X143914586Y-123452520D01*
X143880000Y-123278642D01*
X143880000Y-123101358D01*
X143882629Y-123088142D01*
X143891529Y-123043399D01*
X143914586Y-122927480D01*
X143982430Y-122763690D01*
X144080924Y-122616283D01*
X144206283Y-122490924D01*
X144353690Y-122392430D01*
X144517480Y-122324586D01*
X144638952Y-122300424D01*
X144691356Y-122290000D01*
X144868644Y-122290000D01*
X144921048Y-122300424D01*
G37*
G36*
X139841048Y-122300424D02*
G01*
X139962520Y-122324586D01*
X140126310Y-122392430D01*
X140273717Y-122490924D01*
X140399076Y-122616283D01*
X140497570Y-122763690D01*
X140565414Y-122927480D01*
X140588471Y-123043399D01*
X140597372Y-123088142D01*
X140600000Y-123101358D01*
X140600000Y-123278642D01*
X140565414Y-123452520D01*
X140497570Y-123616310D01*
X140399076Y-123763717D01*
X140273717Y-123889076D01*
X140126310Y-123987570D01*
X139962520Y-124055414D01*
X139846601Y-124078471D01*
X139788644Y-124090000D01*
X139611356Y-124090000D01*
X139553399Y-124078471D01*
X139437480Y-124055414D01*
X139273690Y-123987570D01*
X139126283Y-123889076D01*
X139000924Y-123763717D01*
X138902430Y-123616310D01*
X138834586Y-123452520D01*
X138800000Y-123278642D01*
X138800000Y-123101358D01*
X138802629Y-123088142D01*
X138811529Y-123043399D01*
X138834586Y-122927480D01*
X138902430Y-122763690D01*
X139000924Y-122616283D01*
X139126283Y-122490924D01*
X139273690Y-122392430D01*
X139437480Y-122324586D01*
X139558952Y-122300424D01*
X139611356Y-122290000D01*
X139788644Y-122290000D01*
X139841048Y-122300424D01*
G37*
G36*
X137301048Y-122300424D02*
G01*
X137422520Y-122324586D01*
X137586310Y-122392430D01*
X137733717Y-122490924D01*
X137859076Y-122616283D01*
X137957570Y-122763690D01*
X138025414Y-122927480D01*
X138048471Y-123043399D01*
X138057372Y-123088142D01*
X138060000Y-123101358D01*
X138060000Y-123278642D01*
X138025414Y-123452520D01*
X137957570Y-123616310D01*
X137859076Y-123763717D01*
X137733717Y-123889076D01*
X137586310Y-123987570D01*
X137422520Y-124055414D01*
X137306601Y-124078471D01*
X137248644Y-124090000D01*
X137071356Y-124090000D01*
X137013399Y-124078471D01*
X136897480Y-124055414D01*
X136733690Y-123987570D01*
X136586283Y-123889076D01*
X136460924Y-123763717D01*
X136362430Y-123616310D01*
X136294586Y-123452520D01*
X136260000Y-123278642D01*
X136260000Y-123101358D01*
X136262629Y-123088142D01*
X136271529Y-123043399D01*
X136294586Y-122927480D01*
X136362430Y-122763690D01*
X136460924Y-122616283D01*
X136586283Y-122490924D01*
X136733690Y-122392430D01*
X136897480Y-122324586D01*
X137018952Y-122300424D01*
X137071356Y-122290000D01*
X137248644Y-122290000D01*
X137301048Y-122300424D01*
G37*
G36*
X152541048Y-122300424D02*
G01*
X152662520Y-122324586D01*
X152826310Y-122392430D01*
X152973717Y-122490924D01*
X153099076Y-122616283D01*
X153197570Y-122763690D01*
X153265414Y-122927480D01*
X153288471Y-123043399D01*
X153297372Y-123088142D01*
X153300000Y-123101358D01*
X153300000Y-123278642D01*
X153265414Y-123452520D01*
X153197570Y-123616310D01*
X153099076Y-123763717D01*
X152973717Y-123889076D01*
X152826310Y-123987570D01*
X152662520Y-124055414D01*
X152546601Y-124078471D01*
X152488644Y-124090000D01*
X152311356Y-124090000D01*
X152253399Y-124078471D01*
X152137480Y-124055414D01*
X151973690Y-123987570D01*
X151826283Y-123889076D01*
X151700924Y-123763717D01*
X151602430Y-123616310D01*
X151534586Y-123452520D01*
X151500000Y-123278642D01*
X151500000Y-123101358D01*
X151502629Y-123088142D01*
X151511529Y-123043399D01*
X151534586Y-122927480D01*
X151602430Y-122763690D01*
X151700924Y-122616283D01*
X151826283Y-122490924D01*
X151973690Y-122392430D01*
X152137480Y-122324586D01*
X152258952Y-122300424D01*
X152311356Y-122290000D01*
X152488644Y-122290000D01*
X152541048Y-122300424D01*
G37*
G36*
X130440000Y-124090000D02*
G01*
X128640000Y-124090000D01*
X128640000Y-122290000D01*
X130440000Y-122290000D01*
X130440000Y-124090000D01*
G37*
G36*
X132221048Y-122300424D02*
G01*
X132342520Y-122324586D01*
X132506310Y-122392430D01*
X132653717Y-122490924D01*
X132779076Y-122616283D01*
X132877570Y-122763690D01*
X132945414Y-122927480D01*
X132968471Y-123043399D01*
X132977372Y-123088142D01*
X132980000Y-123101358D01*
X132980000Y-123278642D01*
X132945414Y-123452520D01*
X132877570Y-123616310D01*
X132779076Y-123763717D01*
X132653717Y-123889076D01*
X132506310Y-123987570D01*
X132342520Y-124055414D01*
X132226601Y-124078471D01*
X132168644Y-124090000D01*
X131991356Y-124090000D01*
X131933399Y-124078471D01*
X131817480Y-124055414D01*
X131653690Y-123987570D01*
X131506283Y-123889076D01*
X131380924Y-123763717D01*
X131282430Y-123616310D01*
X131214586Y-123452520D01*
X131180000Y-123278642D01*
X131180000Y-123101358D01*
X131182629Y-123088142D01*
X131191529Y-123043399D01*
X131214586Y-122927480D01*
X131282430Y-122763690D01*
X131380924Y-122616283D01*
X131506283Y-122490924D01*
X131653690Y-122392430D01*
X131817480Y-122324586D01*
X131938952Y-122300424D01*
X131991356Y-122290000D01*
X132168644Y-122290000D01*
X132221048Y-122300424D01*
G37*
G36*
X134761048Y-122300424D02*
G01*
X134882520Y-122324586D01*
X135046310Y-122392430D01*
X135193717Y-122490924D01*
X135319076Y-122616283D01*
X135417570Y-122763690D01*
X135485414Y-122927480D01*
X135508471Y-123043399D01*
X135517372Y-123088142D01*
X135520000Y-123101358D01*
X135520000Y-123278642D01*
X135485414Y-123452520D01*
X135417570Y-123616310D01*
X135319076Y-123763717D01*
X135193717Y-123889076D01*
X135046310Y-123987570D01*
X134882520Y-124055414D01*
X134766601Y-124078471D01*
X134708644Y-124090000D01*
X134531356Y-124090000D01*
X134473399Y-124078471D01*
X134357480Y-124055414D01*
X134193690Y-123987570D01*
X134046283Y-123889076D01*
X133920924Y-123763717D01*
X133822430Y-123616310D01*
X133754586Y-123452520D01*
X133720000Y-123278642D01*
X133720000Y-123101358D01*
X133722629Y-123088142D01*
X133731529Y-123043399D01*
X133754586Y-122927480D01*
X133822430Y-122763690D01*
X133920924Y-122616283D01*
X134046283Y-122490924D01*
X134193690Y-122392430D01*
X134357480Y-122324586D01*
X134478952Y-122300424D01*
X134531356Y-122290000D01*
X134708644Y-122290000D01*
X134761048Y-122300424D01*
G37*
G36*
X157499601Y-122111029D02*
G01*
X157615520Y-122134086D01*
X157779310Y-122201930D01*
X157926717Y-122300424D01*
X158052076Y-122425783D01*
X158150570Y-122573190D01*
X158218414Y-122736980D01*
X158229473Y-122792578D01*
X158253000Y-122910856D01*
X158253000Y-123088144D01*
X158248257Y-123111986D01*
X158218414Y-123262020D01*
X158150570Y-123425810D01*
X158052076Y-123573217D01*
X157926717Y-123698576D01*
X157779310Y-123797070D01*
X157615520Y-123864914D01*
X157499601Y-123887971D01*
X157441644Y-123899500D01*
X157264356Y-123899500D01*
X157206399Y-123887971D01*
X157090480Y-123864914D01*
X156926690Y-123797070D01*
X156779283Y-123698576D01*
X156653924Y-123573217D01*
X156555430Y-123425810D01*
X156487586Y-123262020D01*
X156457743Y-123111986D01*
X156453000Y-123088144D01*
X156453000Y-122910856D01*
X156476527Y-122792578D01*
X156487586Y-122736980D01*
X156555430Y-122573190D01*
X156653924Y-122425783D01*
X156779283Y-122300424D01*
X156926690Y-122201930D01*
X157090480Y-122134086D01*
X157206399Y-122111029D01*
X157264356Y-122099500D01*
X157441644Y-122099500D01*
X157499601Y-122111029D01*
G37*
G36*
X110405617Y-121594681D02*
G01*
X110405620Y-121594682D01*
X110405621Y-121594682D01*
X110518721Y-121628990D01*
X110518724Y-121628991D01*
X110622955Y-121684704D01*
X110714317Y-121759683D01*
X110789296Y-121851045D01*
X110845009Y-121955276D01*
X110879319Y-122068383D01*
X110890903Y-122186000D01*
X110879319Y-122303617D01*
X110845009Y-122416724D01*
X110789296Y-122520955D01*
X110714317Y-122612317D01*
X110622955Y-122687296D01*
X110518724Y-122743009D01*
X110518721Y-122743010D01*
X110405621Y-122777318D01*
X110405620Y-122777318D01*
X110405617Y-122777319D01*
X110317477Y-122786000D01*
X110058523Y-122786000D01*
X109970383Y-122777319D01*
X109970380Y-122777318D01*
X109970379Y-122777318D01*
X109857279Y-122743010D01*
X109857276Y-122743009D01*
X109753045Y-122687296D01*
X109661683Y-122612317D01*
X109586704Y-122520955D01*
X109530991Y-122416724D01*
X109496681Y-122303617D01*
X109485097Y-122186000D01*
X109496681Y-122068383D01*
X109530991Y-121955276D01*
X109586704Y-121851045D01*
X109661683Y-121759683D01*
X109753045Y-121684704D01*
X109857276Y-121628991D01*
X109857279Y-121628990D01*
X109970379Y-121594682D01*
X109970380Y-121594682D01*
X109970383Y-121594681D01*
X110058523Y-121586000D01*
X110317477Y-121586000D01*
X110405617Y-121594681D01*
G37*
G36*
X109173000Y-122374500D02*
G01*
X108073000Y-122374500D01*
X108073000Y-121274500D01*
X109173000Y-121274500D01*
X109173000Y-122374500D01*
G37*
G36*
X107573000Y-122374500D02*
G01*
X106473000Y-122374500D01*
X106473000Y-121274500D01*
X107573000Y-121274500D01*
X107573000Y-122374500D01*
G37*
G36*
X157499601Y-119571029D02*
G01*
X157615520Y-119594086D01*
X157779310Y-119661930D01*
X157926717Y-119760424D01*
X158052076Y-119885783D01*
X158150570Y-120033190D01*
X158218414Y-120196980D01*
X158253000Y-120370858D01*
X158253000Y-120548142D01*
X158218414Y-120722020D01*
X158150570Y-120885810D01*
X158052076Y-121033217D01*
X157926717Y-121158576D01*
X157779310Y-121257070D01*
X157615520Y-121324914D01*
X157499601Y-121347971D01*
X157441644Y-121359500D01*
X157264356Y-121359500D01*
X157206399Y-121347971D01*
X157090480Y-121324914D01*
X156926690Y-121257070D01*
X156779283Y-121158576D01*
X156653924Y-121033217D01*
X156555430Y-120885810D01*
X156487586Y-120722020D01*
X156453000Y-120548142D01*
X156453000Y-120370858D01*
X156487586Y-120196980D01*
X156555430Y-120033190D01*
X156653924Y-119885783D01*
X156779283Y-119760424D01*
X156926690Y-119661930D01*
X157090480Y-119594086D01*
X157206399Y-119571029D01*
X157264356Y-119559500D01*
X157441644Y-119559500D01*
X157499601Y-119571029D01*
G37*
G36*
X157499601Y-117031029D02*
G01*
X157615520Y-117054086D01*
X157779310Y-117121930D01*
X157926717Y-117220424D01*
X158052076Y-117345783D01*
X158150570Y-117493190D01*
X158218414Y-117656980D01*
X158253000Y-117830858D01*
X158253000Y-118008142D01*
X158218414Y-118182020D01*
X158150570Y-118345810D01*
X158052076Y-118493217D01*
X157926717Y-118618576D01*
X157779310Y-118717070D01*
X157615520Y-118784914D01*
X157499601Y-118807971D01*
X157441644Y-118819500D01*
X157264356Y-118819500D01*
X157206399Y-118807971D01*
X157090480Y-118784914D01*
X156926690Y-118717070D01*
X156779283Y-118618576D01*
X156653924Y-118493217D01*
X156555430Y-118345810D01*
X156487586Y-118182020D01*
X156453000Y-118008142D01*
X156453000Y-117830858D01*
X156487586Y-117656980D01*
X156555430Y-117493190D01*
X156653924Y-117345783D01*
X156779283Y-117220424D01*
X156926690Y-117121930D01*
X157090480Y-117054086D01*
X157206399Y-117031029D01*
X157264356Y-117019500D01*
X157441644Y-117019500D01*
X157499601Y-117031029D01*
G37*
G36*
X107573000Y-118374500D02*
G01*
X106473000Y-118374500D01*
X106473000Y-117274500D01*
X107573000Y-117274500D01*
X107573000Y-118374500D01*
G37*
G36*
X109173000Y-118374500D02*
G01*
X108073000Y-118374500D01*
X108073000Y-117274500D01*
X109173000Y-117274500D01*
X109173000Y-118374500D01*
G37*
G36*
X110405617Y-116744681D02*
G01*
X110405620Y-116744682D01*
X110405621Y-116744682D01*
X110518721Y-116778990D01*
X110518724Y-116778991D01*
X110622955Y-116834704D01*
X110714317Y-116909683D01*
X110789296Y-117001045D01*
X110845009Y-117105276D01*
X110879319Y-117218383D01*
X110890903Y-117336000D01*
X110879319Y-117453617D01*
X110845009Y-117566724D01*
X110789296Y-117670955D01*
X110714317Y-117762317D01*
X110622955Y-117837296D01*
X110518724Y-117893009D01*
X110518721Y-117893010D01*
X110405621Y-117927318D01*
X110405620Y-117927318D01*
X110405617Y-117927319D01*
X110317477Y-117936000D01*
X110058523Y-117936000D01*
X109970383Y-117927319D01*
X109970380Y-117927318D01*
X109970379Y-117927318D01*
X109857279Y-117893010D01*
X109857276Y-117893009D01*
X109753045Y-117837296D01*
X109661683Y-117762317D01*
X109586704Y-117670955D01*
X109530991Y-117566724D01*
X109496681Y-117453617D01*
X109485097Y-117336000D01*
X109496681Y-117218383D01*
X109530991Y-117105276D01*
X109586704Y-117001045D01*
X109661683Y-116909683D01*
X109753045Y-116834704D01*
X109857276Y-116778991D01*
X109857279Y-116778990D01*
X109970379Y-116744682D01*
X109970380Y-116744682D01*
X109970383Y-116744681D01*
X110058523Y-116736000D01*
X110317477Y-116736000D01*
X110405617Y-116744681D01*
G37*
G36*
X113530000Y-117445500D02*
G01*
X112530000Y-117445500D01*
X112530000Y-116845500D01*
X113530000Y-116845500D01*
X113530000Y-117445500D01*
G37*
G36*
X173924800Y-117257400D02*
G01*
X172124800Y-117257400D01*
X172124800Y-115457400D01*
X173924800Y-115457400D01*
X173924800Y-117257400D01*
G37*
G36*
X175711401Y-115468929D02*
G01*
X175827320Y-115491986D01*
X175991110Y-115559830D01*
X176138517Y-115658324D01*
X176263876Y-115783683D01*
X176362370Y-115931090D01*
X176430214Y-116094880D01*
X176443366Y-116161000D01*
X176464800Y-116268756D01*
X176464800Y-116446044D01*
X176460307Y-116468631D01*
X176430214Y-116619920D01*
X176362370Y-116783710D01*
X176263876Y-116931117D01*
X176138517Y-117056476D01*
X175991110Y-117154970D01*
X175827320Y-117222814D01*
X175711401Y-117245871D01*
X175653444Y-117257400D01*
X175476156Y-117257400D01*
X175418199Y-117245871D01*
X175302280Y-117222814D01*
X175138490Y-117154970D01*
X174991083Y-117056476D01*
X174865724Y-116931117D01*
X174767230Y-116783710D01*
X174699386Y-116619920D01*
X174669293Y-116468631D01*
X174664800Y-116446044D01*
X174664800Y-116268756D01*
X174686234Y-116161000D01*
X174699386Y-116094880D01*
X174767230Y-115931090D01*
X174865724Y-115783683D01*
X174991083Y-115658324D01*
X175138490Y-115559830D01*
X175302280Y-115491986D01*
X175418199Y-115468929D01*
X175476156Y-115457400D01*
X175653444Y-115457400D01*
X175711401Y-115468929D01*
G37*
G36*
X153808000Y-116978000D02*
G01*
X152008000Y-116978000D01*
X152008000Y-115178000D01*
X153808000Y-115178000D01*
X153808000Y-116978000D01*
G37*
G36*
X107594824Y-115372575D02*
G01*
X107745631Y-115418321D01*
X107884603Y-115492604D01*
X108006422Y-115592578D01*
X108106396Y-115714397D01*
X108180679Y-115853369D01*
X108226425Y-116004176D01*
X108241871Y-116161000D01*
X108226425Y-116317824D01*
X108180679Y-116468631D01*
X108106396Y-116607603D01*
X108006422Y-116729422D01*
X107884603Y-116829396D01*
X107745631Y-116903679D01*
X107594824Y-116949425D01*
X107477303Y-116961000D01*
X106898697Y-116961000D01*
X106781176Y-116949425D01*
X106630369Y-116903679D01*
X106491397Y-116829396D01*
X106369578Y-116729422D01*
X106269604Y-116607603D01*
X106195321Y-116468631D01*
X106149575Y-116317824D01*
X106134129Y-116161000D01*
X106149575Y-116004176D01*
X106195321Y-115853369D01*
X106269604Y-115714397D01*
X106369578Y-115592578D01*
X106491397Y-115492604D01*
X106630369Y-115418321D01*
X106781176Y-115372575D01*
X106898697Y-115361000D01*
X107477303Y-115361000D01*
X107594824Y-115372575D01*
G37*
G36*
X113530000Y-115945500D02*
G01*
X112530000Y-115945500D01*
X112530000Y-115345500D01*
X113530000Y-115345500D01*
X113530000Y-115945500D01*
G37*
G36*
X121351000Y-115213500D02*
G01*
X120251000Y-115213500D01*
X120251000Y-113513500D01*
X121351000Y-113513500D01*
X121351000Y-115213500D01*
G37*
G36*
X124351000Y-115213500D02*
G01*
X123251000Y-115213500D01*
X123251000Y-113513500D01*
X124351000Y-113513500D01*
X124351000Y-115213500D01*
G37*
G36*
X153054601Y-112649529D02*
G01*
X153170520Y-112672586D01*
X153334310Y-112740430D01*
X153481717Y-112838924D01*
X153607076Y-112964283D01*
X153705570Y-113111690D01*
X153773414Y-113275480D01*
X153808000Y-113449358D01*
X153808000Y-113626642D01*
X153773414Y-113800520D01*
X153705570Y-113964310D01*
X153607076Y-114111717D01*
X153481717Y-114237076D01*
X153334310Y-114335570D01*
X153170520Y-114403414D01*
X153054601Y-114426471D01*
X152996644Y-114438000D01*
X152819356Y-114438000D01*
X152761399Y-114426471D01*
X152645480Y-114403414D01*
X152481690Y-114335570D01*
X152334283Y-114237076D01*
X152208924Y-114111717D01*
X152110430Y-113964310D01*
X152042586Y-113800520D01*
X152008000Y-113626642D01*
X152008000Y-113449358D01*
X152042586Y-113275480D01*
X152110430Y-113111690D01*
X152208924Y-112964283D01*
X152334283Y-112838924D01*
X152481690Y-112740430D01*
X152645480Y-112672586D01*
X152761399Y-112649529D01*
X152819356Y-112638000D01*
X152996644Y-112638000D01*
X153054601Y-112649529D01*
G37*
G36*
X110758000Y-112941000D02*
G01*
X106158000Y-112941000D01*
X106158000Y-111341000D01*
X110758000Y-111341000D01*
X110758000Y-112941000D01*
G37*
G36*
X126163000Y-111896000D02*
G01*
X124563000Y-111896000D01*
X124563000Y-109796000D01*
X126163000Y-109796000D01*
X126163000Y-111896000D01*
G37*
G36*
X123863000Y-111896000D02*
G01*
X122263000Y-111896000D01*
X122263000Y-109796000D01*
X123863000Y-109796000D01*
X123863000Y-111896000D01*
G37*
G36*
X121563000Y-111896000D02*
G01*
X119963000Y-111896000D01*
X119963000Y-109796000D01*
X121563000Y-109796000D01*
X121563000Y-111896000D01*
G37*
G36*
X110758000Y-110401000D02*
G01*
X106158000Y-110401000D01*
X106158000Y-108801000D01*
X110758000Y-108801000D01*
X110758000Y-110401000D01*
G37*
G36*
X128866000Y-109682500D02*
G01*
X127166000Y-109682500D01*
X127166000Y-108582500D01*
X128866000Y-108582500D01*
X128866000Y-109682500D01*
G37*
G36*
X175711401Y-107848929D02*
G01*
X175827320Y-107871986D01*
X175991110Y-107939830D01*
X176138517Y-108038324D01*
X176263876Y-108163683D01*
X176362370Y-108311090D01*
X176430214Y-108474880D01*
X176464800Y-108648758D01*
X176464800Y-108826042D01*
X176430214Y-108999920D01*
X176362370Y-109163710D01*
X176263876Y-109311117D01*
X176138517Y-109436476D01*
X175991110Y-109534970D01*
X175827320Y-109602814D01*
X175711401Y-109625871D01*
X175653444Y-109637400D01*
X175476156Y-109637400D01*
X175418199Y-109625871D01*
X175302280Y-109602814D01*
X175138490Y-109534970D01*
X174991083Y-109436476D01*
X174865724Y-109311117D01*
X174767230Y-109163710D01*
X174699386Y-108999920D01*
X174664800Y-108826042D01*
X174664800Y-108648758D01*
X174699386Y-108474880D01*
X174767230Y-108311090D01*
X174865724Y-108163683D01*
X174991083Y-108038324D01*
X175138490Y-107939830D01*
X175302280Y-107871986D01*
X175418199Y-107848929D01*
X175476156Y-107837400D01*
X175653444Y-107837400D01*
X175711401Y-107848929D01*
G37*
G36*
X173924800Y-109637400D02*
G01*
X172124800Y-109637400D01*
X172124800Y-107837400D01*
X173924800Y-107837400D01*
X173924800Y-109637400D01*
G37*
G36*
X133692000Y-108767000D02*
G01*
X131992000Y-108767000D01*
X131992000Y-105167000D01*
X133692000Y-105167000D01*
X133692000Y-108767000D01*
G37*
G36*
X110758000Y-107861000D02*
G01*
X106158000Y-107861000D01*
X106158000Y-106261000D01*
X110758000Y-106261000D01*
X110758000Y-107861000D01*
G37*
G36*
X128866000Y-106682500D02*
G01*
X127166000Y-106682500D01*
X127166000Y-105582500D01*
X128866000Y-105582500D01*
X128866000Y-106682500D01*
G37*
G36*
X158380000Y-106183000D02*
G01*
X156580000Y-106183000D01*
X156580000Y-104383000D01*
X158380000Y-104383000D01*
X158380000Y-106183000D01*
G37*
G36*
X155086601Y-104394529D02*
G01*
X155202520Y-104417586D01*
X155366310Y-104485430D01*
X155513717Y-104583924D01*
X155639076Y-104709283D01*
X155737570Y-104856690D01*
X155805414Y-105020480D01*
X155840000Y-105194358D01*
X155840000Y-105371642D01*
X155805414Y-105545520D01*
X155737570Y-105709310D01*
X155639076Y-105856717D01*
X155513717Y-105982076D01*
X155366310Y-106080570D01*
X155202520Y-106148414D01*
X155086601Y-106171471D01*
X155028644Y-106183000D01*
X154851356Y-106183000D01*
X154793399Y-106171471D01*
X154677480Y-106148414D01*
X154513690Y-106080570D01*
X154366283Y-105982076D01*
X154240924Y-105856717D01*
X154142430Y-105709310D01*
X154074586Y-105545520D01*
X154040000Y-105371642D01*
X154040000Y-105194358D01*
X154074586Y-105020480D01*
X154142430Y-104856690D01*
X154240924Y-104709283D01*
X154366283Y-104583924D01*
X154513690Y-104485430D01*
X154677480Y-104417586D01*
X154793399Y-104394529D01*
X154851356Y-104383000D01*
X155028644Y-104383000D01*
X155086601Y-104394529D01*
G37*
G36*
X125013000Y-105596000D02*
G01*
X121113000Y-105596000D01*
X121113000Y-103496000D01*
X125013000Y-103496000D01*
X125013000Y-105596000D01*
G37*
G36*
X110758000Y-105321000D02*
G01*
X106158000Y-105321000D01*
X106158000Y-103721000D01*
X110758000Y-103721000D01*
X110758000Y-105321000D01*
G37*
G36*
X133692000Y-103367000D02*
G01*
X131992000Y-103367000D01*
X131992000Y-99767000D01*
X133692000Y-99767000D01*
X133692000Y-103367000D01*
G37*
G36*
X110758000Y-102781000D02*
G01*
X106158000Y-102781000D01*
X106158000Y-101181000D01*
X110758000Y-101181000D01*
X110758000Y-102781000D01*
G37*
G36*
X175711401Y-100228929D02*
G01*
X175827320Y-100251986D01*
X175991110Y-100319830D01*
X176138517Y-100418324D01*
X176263876Y-100543683D01*
X176362370Y-100691090D01*
X176430214Y-100854880D01*
X176464800Y-101028758D01*
X176464800Y-101206042D01*
X176430214Y-101379920D01*
X176362370Y-101543710D01*
X176263876Y-101691117D01*
X176138517Y-101816476D01*
X175991110Y-101914970D01*
X175827320Y-101982814D01*
X175711401Y-102005871D01*
X175653444Y-102017400D01*
X175476156Y-102017400D01*
X175418199Y-102005871D01*
X175302280Y-101982814D01*
X175138490Y-101914970D01*
X174991083Y-101816476D01*
X174865724Y-101691117D01*
X174767230Y-101543710D01*
X174699386Y-101379920D01*
X174664800Y-101206042D01*
X174664800Y-101028758D01*
X174699386Y-100854880D01*
X174767230Y-100691090D01*
X174865724Y-100543683D01*
X174991083Y-100418324D01*
X175138490Y-100319830D01*
X175302280Y-100251986D01*
X175418199Y-100228929D01*
X175476156Y-100217400D01*
X175653444Y-100217400D01*
X175711401Y-100228929D01*
G37*
G36*
X173924800Y-102017400D02*
G01*
X172124800Y-102017400D01*
X172124800Y-100217400D01*
X173924800Y-100217400D01*
X173924800Y-102017400D01*
G37*
G36*
X123989950Y-101637650D02*
G01*
X123089950Y-101637650D01*
X123089950Y-100787650D01*
X123989950Y-100787650D01*
X123989950Y-101637650D01*
G37*
G36*
X122489950Y-101637650D02*
G01*
X121589950Y-101637650D01*
X121589950Y-100787650D01*
X122489950Y-100787650D01*
X122489950Y-101637650D01*
G37*
G36*
X152303000Y-101315000D02*
G01*
X150653000Y-101315000D01*
X150653000Y-100615000D01*
X152303000Y-100615000D01*
X152303000Y-101315000D01*
G37*
G36*
X157703000Y-101315000D02*
G01*
X156053000Y-101315000D01*
X156053000Y-100615000D01*
X157703000Y-100615000D01*
X157703000Y-101315000D01*
G37*
G36*
X127024950Y-100634650D02*
G01*
X126174950Y-100634650D01*
X126174950Y-99734650D01*
X127024950Y-99734650D01*
X127024950Y-100634650D01*
G37*
G36*
X119785950Y-100634650D02*
G01*
X118935950Y-100634650D01*
X118935950Y-99734650D01*
X119785950Y-99734650D01*
X119785950Y-100634650D01*
G37*
G36*
X110758000Y-100241000D02*
G01*
X106158000Y-100241000D01*
X106158000Y-98641000D01*
X110758000Y-98641000D01*
X110758000Y-100241000D01*
G37*
G36*
X157703000Y-100045000D02*
G01*
X156053000Y-100045000D01*
X156053000Y-99345000D01*
X157703000Y-99345000D01*
X157703000Y-100045000D01*
G37*
G36*
X152303000Y-100045000D02*
G01*
X150653000Y-100045000D01*
X150653000Y-99345000D01*
X152303000Y-99345000D01*
X152303000Y-100045000D01*
G37*
G36*
X124111000Y-99740000D02*
G01*
X123761000Y-99740000D01*
X123761000Y-98840000D01*
X124111000Y-98840000D01*
X124111000Y-99740000D01*
G37*
G36*
X123611000Y-99740000D02*
G01*
X123261000Y-99740000D01*
X123261000Y-98840000D01*
X123611000Y-98840000D01*
X123611000Y-99740000D01*
G37*
G36*
X123111000Y-99740000D02*
G01*
X122761000Y-99740000D01*
X122761000Y-98840000D01*
X123111000Y-98840000D01*
X123111000Y-99740000D01*
G37*
G36*
X122111000Y-99740000D02*
G01*
X121761000Y-99740000D01*
X121761000Y-98840000D01*
X122111000Y-98840000D01*
X122111000Y-99740000D01*
G37*
G36*
X122611000Y-99740000D02*
G01*
X122261000Y-99740000D01*
X122261000Y-98840000D01*
X122611000Y-98840000D01*
X122611000Y-99740000D01*
G37*
G36*
X127024950Y-99134650D02*
G01*
X126174950Y-99134650D01*
X126174950Y-98234650D01*
X127024950Y-98234650D01*
X127024950Y-99134650D01*
G37*
G36*
X119785950Y-99134650D02*
G01*
X118935950Y-99134650D01*
X118935950Y-98234650D01*
X119785950Y-98234650D01*
X119785950Y-99134650D01*
G37*
G36*
X152303000Y-98775000D02*
G01*
X150653000Y-98775000D01*
X150653000Y-98075000D01*
X152303000Y-98075000D01*
X152303000Y-98775000D01*
G37*
G36*
X157703000Y-98775000D02*
G01*
X156053000Y-98775000D01*
X156053000Y-98075000D01*
X157703000Y-98075000D01*
X157703000Y-98775000D01*
G37*
G36*
X124186000Y-97330001D02*
G01*
X124186672Y-97336829D01*
X124188664Y-97343395D01*
X124191898Y-97349445D01*
X124196251Y-97354749D01*
X124201555Y-97359102D01*
X124207605Y-97362336D01*
X124214171Y-97364328D01*
X124220999Y-97365000D01*
X124886000Y-97365000D01*
X124886000Y-97715000D01*
X124220999Y-97715000D01*
X124214171Y-97715672D01*
X124207605Y-97717664D01*
X124201555Y-97720898D01*
X124196251Y-97725251D01*
X124191898Y-97730555D01*
X124188664Y-97736605D01*
X124186672Y-97743171D01*
X124186000Y-97749999D01*
X124186000Y-97830001D01*
X124186672Y-97836829D01*
X124188664Y-97843395D01*
X124191898Y-97849445D01*
X124196251Y-97854749D01*
X124201555Y-97859102D01*
X124207605Y-97862336D01*
X124214171Y-97864328D01*
X124220999Y-97865000D01*
X124886000Y-97865000D01*
X124886000Y-98215000D01*
X124220999Y-98215000D01*
X124214171Y-98215672D01*
X124207605Y-98217664D01*
X124201555Y-98220898D01*
X124196251Y-98225251D01*
X124191898Y-98230555D01*
X124188664Y-98236605D01*
X124186672Y-98243171D01*
X124186000Y-98249999D01*
X124186000Y-98665000D01*
X121686000Y-98665000D01*
X121686000Y-98249999D01*
X121685328Y-98243171D01*
X121683336Y-98236605D01*
X121680102Y-98230555D01*
X121675749Y-98225251D01*
X121670445Y-98220898D01*
X121664395Y-98217664D01*
X121657829Y-98215672D01*
X121651001Y-98215000D01*
X120986000Y-98215000D01*
X120986000Y-97865000D01*
X121651001Y-97865000D01*
X121657829Y-97864328D01*
X121664395Y-97862336D01*
X121670445Y-97859102D01*
X121675749Y-97854749D01*
X121680102Y-97849445D01*
X121683336Y-97843395D01*
X121685328Y-97836829D01*
X121686000Y-97830001D01*
X121686000Y-97749999D01*
X121685328Y-97743171D01*
X121683336Y-97736605D01*
X121680102Y-97730555D01*
X121675749Y-97725251D01*
X121670445Y-97720898D01*
X121664395Y-97717664D01*
X121657829Y-97715672D01*
X121651001Y-97715000D01*
X120986000Y-97715000D01*
X120986000Y-97365000D01*
X121651001Y-97365000D01*
X121657829Y-97364328D01*
X121664395Y-97362336D01*
X121670445Y-97359102D01*
X121675749Y-97354749D01*
X121680102Y-97349445D01*
X121683336Y-97343395D01*
X121685328Y-97336829D01*
X121686000Y-97330001D01*
X121686000Y-96915000D01*
X124186000Y-96915000D01*
X124186000Y-97330001D01*
G37*
G36*
X110758000Y-97701000D02*
G01*
X106158000Y-97701000D01*
X106158000Y-96101000D01*
X110758000Y-96101000D01*
X110758000Y-97701000D01*
G37*
G36*
X148761000Y-97593000D02*
G01*
X147911000Y-97593000D01*
X147911000Y-96693000D01*
X148761000Y-96693000D01*
X148761000Y-97593000D01*
G37*
G36*
X127024950Y-97586650D02*
G01*
X126174950Y-97586650D01*
X126174950Y-96686650D01*
X127024950Y-96686650D01*
X127024950Y-97586650D01*
G37*
G36*
X119785950Y-97586650D02*
G01*
X118935950Y-97586650D01*
X118935950Y-96686650D01*
X119785950Y-96686650D01*
X119785950Y-97586650D01*
G37*
G36*
X152303000Y-97505000D02*
G01*
X150653000Y-97505000D01*
X150653000Y-96805000D01*
X152303000Y-96805000D01*
X152303000Y-97505000D01*
G37*
G36*
X157703000Y-97505000D02*
G01*
X156053000Y-97505000D01*
X156053000Y-96805000D01*
X157703000Y-96805000D01*
X157703000Y-97505000D01*
G37*
G36*
X122111000Y-96740000D02*
G01*
X121761000Y-96740000D01*
X121761000Y-95840000D01*
X122111000Y-95840000D01*
X122111000Y-96740000D01*
G37*
G36*
X122611000Y-96740000D02*
G01*
X122261000Y-96740000D01*
X122261000Y-95840000D01*
X122611000Y-95840000D01*
X122611000Y-96740000D01*
G37*
G36*
X123111000Y-96740000D02*
G01*
X122761000Y-96740000D01*
X122761000Y-95840000D01*
X123111000Y-95840000D01*
X123111000Y-96740000D01*
G37*
G36*
X123611000Y-96740000D02*
G01*
X123261000Y-96740000D01*
X123261000Y-95840000D01*
X123611000Y-95840000D01*
X123611000Y-96740000D01*
G37*
G36*
X124111000Y-96740000D02*
G01*
X123761000Y-96740000D01*
X123761000Y-95840000D01*
X124111000Y-95840000D01*
X124111000Y-96740000D01*
G37*
G36*
X148761000Y-96093000D02*
G01*
X147911000Y-96093000D01*
X147911000Y-95193000D01*
X148761000Y-95193000D01*
X148761000Y-96093000D01*
G37*
G36*
X127024950Y-96086650D02*
G01*
X126174950Y-96086650D01*
X126174950Y-95186650D01*
X127024950Y-95186650D01*
X127024950Y-96086650D01*
G37*
G36*
X119785950Y-96086650D02*
G01*
X118935950Y-96086650D01*
X118935950Y-95186650D01*
X119785950Y-95186650D01*
X119785950Y-96086650D01*
G37*
G36*
X110758000Y-95161000D02*
G01*
X106158000Y-95161000D01*
X106158000Y-93561000D01*
X110758000Y-93561000D01*
X110758000Y-95161000D01*
G37*
G36*
X136733000Y-95040000D02*
G01*
X135833000Y-95040000D01*
X135833000Y-94190000D01*
X136733000Y-94190000D01*
X136733000Y-95040000D01*
G37*
G36*
X138233000Y-95040000D02*
G01*
X137333000Y-95040000D01*
X137333000Y-94190000D01*
X138233000Y-94190000D01*
X138233000Y-95040000D01*
G37*
G36*
X124123000Y-94545000D02*
G01*
X123273000Y-94545000D01*
X123273000Y-93645000D01*
X124123000Y-93645000D01*
X124123000Y-94545000D01*
G37*
G36*
X122599000Y-94545000D02*
G01*
X121749000Y-94545000D01*
X121749000Y-93645000D01*
X122599000Y-93645000D01*
X122599000Y-94545000D01*
G37*
G36*
X127184000Y-94532000D02*
G01*
X126284000Y-94532000D01*
X126284000Y-93682000D01*
X127184000Y-93682000D01*
X127184000Y-94532000D01*
G37*
G36*
X125684000Y-94532000D02*
G01*
X124784000Y-94532000D01*
X124784000Y-93682000D01*
X125684000Y-93682000D01*
X125684000Y-94532000D01*
G37*
G36*
X121088000Y-94532000D02*
G01*
X120188000Y-94532000D01*
X120188000Y-93682000D01*
X121088000Y-93682000D01*
X121088000Y-94532000D01*
G37*
G36*
X119588000Y-94532000D02*
G01*
X118688000Y-94532000D01*
X118688000Y-93682000D01*
X119588000Y-93682000D01*
X119588000Y-94532000D01*
G37*
G36*
X175711401Y-92608929D02*
G01*
X175827320Y-92631986D01*
X175991110Y-92699830D01*
X176138517Y-92798324D01*
X176263876Y-92923683D01*
X176362370Y-93071090D01*
X176430214Y-93234880D01*
X176464800Y-93408758D01*
X176464800Y-93586042D01*
X176430214Y-93759920D01*
X176362370Y-93923710D01*
X176263876Y-94071117D01*
X176138517Y-94196476D01*
X175991110Y-94294970D01*
X175827320Y-94362814D01*
X175711401Y-94385871D01*
X175653444Y-94397400D01*
X175476156Y-94397400D01*
X175418199Y-94385871D01*
X175302280Y-94362814D01*
X175138490Y-94294970D01*
X174991083Y-94196476D01*
X174865724Y-94071117D01*
X174767230Y-93923710D01*
X174699386Y-93759920D01*
X174664800Y-93586042D01*
X174664800Y-93408758D01*
X174699386Y-93234880D01*
X174767230Y-93071090D01*
X174865724Y-92923683D01*
X174991083Y-92798324D01*
X175138490Y-92699830D01*
X175302280Y-92631986D01*
X175418199Y-92608929D01*
X175476156Y-92597400D01*
X175653444Y-92597400D01*
X175711401Y-92608929D01*
G37*
G36*
X173924800Y-94397400D02*
G01*
X172124800Y-94397400D01*
X172124800Y-92597400D01*
X173924800Y-92597400D01*
X173924800Y-94397400D01*
G37*
G36*
X124123000Y-93045000D02*
G01*
X123273000Y-93045000D01*
X123273000Y-92145000D01*
X124123000Y-92145000D01*
X124123000Y-93045000D01*
G37*
G36*
X122599000Y-93045000D02*
G01*
X121749000Y-93045000D01*
X121749000Y-92145000D01*
X122599000Y-92145000D01*
X122599000Y-93045000D01*
G37*
G36*
X121088000Y-93008000D02*
G01*
X120188000Y-93008000D01*
X120188000Y-92158000D01*
X121088000Y-92158000D01*
X121088000Y-93008000D01*
G37*
G36*
X125684000Y-93008000D02*
G01*
X124784000Y-93008000D01*
X124784000Y-92158000D01*
X125684000Y-92158000D01*
X125684000Y-93008000D01*
G37*
G36*
X127184000Y-93008000D02*
G01*
X126284000Y-93008000D01*
X126284000Y-92158000D01*
X127184000Y-92158000D01*
X127184000Y-93008000D01*
G37*
G36*
X119588000Y-93008000D02*
G01*
X118688000Y-93008000D01*
X118688000Y-92158000D01*
X119588000Y-92158000D01*
X119588000Y-93008000D01*
G37*
G36*
X110758000Y-92621000D02*
G01*
X106158000Y-92621000D01*
X106158000Y-91021000D01*
X110758000Y-91021000D01*
X110758000Y-92621000D01*
G37*
G36*
X134807000Y-92358000D02*
G01*
X134057000Y-92358000D01*
X134057000Y-91198000D01*
X134807000Y-91198000D01*
X134807000Y-92358000D01*
G37*
G36*
X135757000Y-92358000D02*
G01*
X135007000Y-92358000D01*
X135007000Y-91198000D01*
X135757000Y-91198000D01*
X135757000Y-92358000D01*
G37*
G36*
X136707000Y-92358000D02*
G01*
X135957000Y-92358000D01*
X135957000Y-91198000D01*
X136707000Y-91198000D01*
X136707000Y-92358000D01*
G37*
G36*
X127184000Y-91484000D02*
G01*
X126284000Y-91484000D01*
X126284000Y-90634000D01*
X127184000Y-90634000D01*
X127184000Y-91484000D01*
G37*
G36*
X119588000Y-91484000D02*
G01*
X118688000Y-91484000D01*
X118688000Y-90634000D01*
X119588000Y-90634000D01*
X119588000Y-91484000D01*
G37*
G36*
X125684000Y-91484000D02*
G01*
X124784000Y-91484000D01*
X124784000Y-90634000D01*
X125684000Y-90634000D01*
X125684000Y-91484000D01*
G37*
G36*
X121088000Y-91484000D02*
G01*
X120188000Y-91484000D01*
X120188000Y-90634000D01*
X121088000Y-90634000D01*
X121088000Y-91484000D01*
G37*
G36*
X154132000Y-90341000D02*
G01*
X153232000Y-90341000D01*
X153232000Y-89491000D01*
X154132000Y-89491000D01*
X154132000Y-90341000D01*
G37*
G36*
X155632000Y-90341000D02*
G01*
X154732000Y-90341000D01*
X154732000Y-89491000D01*
X155632000Y-89491000D01*
X155632000Y-90341000D01*
G37*
G36*
X136707000Y-90158000D02*
G01*
X135957000Y-90158000D01*
X135957000Y-88998000D01*
X136707000Y-88998000D01*
X136707000Y-90158000D01*
G37*
G36*
X134807000Y-90158000D02*
G01*
X134057000Y-90158000D01*
X134057000Y-88998000D01*
X134807000Y-88998000D01*
X134807000Y-90158000D01*
G37*
G36*
X110758000Y-90081000D02*
G01*
X106158000Y-90081000D01*
X106158000Y-88481000D01*
X110758000Y-88481000D01*
X110758000Y-90081000D01*
G37*
G36*
X154132000Y-88563000D02*
G01*
X153232000Y-88563000D01*
X153232000Y-87713000D01*
X154132000Y-87713000D01*
X154132000Y-88563000D01*
G37*
G36*
X155632000Y-88563000D02*
G01*
X154732000Y-88563000D01*
X154732000Y-87713000D01*
X155632000Y-87713000D01*
X155632000Y-88563000D01*
G37*
G36*
X135082000Y-87547000D02*
G01*
X134182000Y-87547000D01*
X134182000Y-86697000D01*
X135082000Y-86697000D01*
X135082000Y-87547000D01*
G37*
G36*
X136582000Y-87547000D02*
G01*
X135682000Y-87547000D01*
X135682000Y-86697000D01*
X136582000Y-86697000D01*
X136582000Y-87547000D01*
G37*
G36*
X132886000Y-87306000D02*
G01*
X132036000Y-87306000D01*
X132036000Y-86406000D01*
X132886000Y-86406000D01*
X132886000Y-87306000D01*
G37*
G36*
X154132000Y-86785000D02*
G01*
X153232000Y-86785000D01*
X153232000Y-85935000D01*
X154132000Y-85935000D01*
X154132000Y-86785000D01*
G37*
G36*
X155632000Y-86785000D02*
G01*
X154732000Y-86785000D01*
X154732000Y-85935000D01*
X155632000Y-85935000D01*
X155632000Y-86785000D01*
G37*
G36*
X175711401Y-84988929D02*
G01*
X175827320Y-85011986D01*
X175991110Y-85079830D01*
X176138517Y-85178324D01*
X176263876Y-85303683D01*
X176362370Y-85451090D01*
X176430214Y-85614880D01*
X176464800Y-85788758D01*
X176464800Y-85966042D01*
X176430214Y-86139920D01*
X176362370Y-86303710D01*
X176263876Y-86451117D01*
X176138517Y-86576476D01*
X175991110Y-86674970D01*
X175827320Y-86742814D01*
X175711401Y-86765871D01*
X175653444Y-86777400D01*
X175476156Y-86777400D01*
X175418199Y-86765871D01*
X175302280Y-86742814D01*
X175138490Y-86674970D01*
X174991083Y-86576476D01*
X174865724Y-86451117D01*
X174767230Y-86303710D01*
X174699386Y-86139920D01*
X174664800Y-85966042D01*
X174664800Y-85788758D01*
X174699386Y-85614880D01*
X174767230Y-85451090D01*
X174865724Y-85303683D01*
X174991083Y-85178324D01*
X175138490Y-85079830D01*
X175302280Y-85011986D01*
X175418199Y-84988929D01*
X175476156Y-84977400D01*
X175653444Y-84977400D01*
X175711401Y-84988929D01*
G37*
G36*
X173924800Y-86777400D02*
G01*
X172124800Y-86777400D01*
X172124800Y-84977400D01*
X173924800Y-84977400D01*
X173924800Y-86777400D01*
G37*
G36*
X132886000Y-85806000D02*
G01*
X132036000Y-85806000D01*
X132036000Y-84906000D01*
X132886000Y-84906000D01*
X132886000Y-85806000D01*
G37*
G36*
X135082000Y-85642000D02*
G01*
X134182000Y-85642000D01*
X134182000Y-84792000D01*
X135082000Y-84792000D01*
X135082000Y-85642000D01*
G37*
G36*
X136582000Y-85642000D02*
G01*
X135682000Y-85642000D01*
X135682000Y-84792000D01*
X136582000Y-84792000D01*
X136582000Y-85642000D01*
G37*
G36*
X122166000Y-85632000D02*
G01*
X121166000Y-85632000D01*
X121166000Y-85032000D01*
X122166000Y-85032000D01*
X122166000Y-85632000D01*
G37*
G36*
X152063000Y-85274000D02*
G01*
X151213000Y-85274000D01*
X151213000Y-84374000D01*
X152063000Y-84374000D01*
X152063000Y-85274000D01*
G37*
G36*
X150031000Y-85274000D02*
G01*
X149181000Y-85274000D01*
X149181000Y-84374000D01*
X150031000Y-84374000D01*
X150031000Y-85274000D01*
G37*
G36*
X153841000Y-85274000D02*
G01*
X152991000Y-85274000D01*
X152991000Y-84374000D01*
X153841000Y-84374000D01*
X153841000Y-85274000D01*
G37*
G36*
X148253000Y-85274000D02*
G01*
X147403000Y-85274000D01*
X147403000Y-84374000D01*
X148253000Y-84374000D01*
X148253000Y-85274000D01*
G37*
G36*
X122166000Y-84132000D02*
G01*
X121166000Y-84132000D01*
X121166000Y-83532000D01*
X122166000Y-83532000D01*
X122166000Y-84132000D01*
G37*
G36*
X153841000Y-83774000D02*
G01*
X152991000Y-83774000D01*
X152991000Y-82874000D01*
X153841000Y-82874000D01*
X153841000Y-83774000D01*
G37*
G36*
X152063000Y-83774000D02*
G01*
X151213000Y-83774000D01*
X151213000Y-82874000D01*
X152063000Y-82874000D01*
X152063000Y-83774000D01*
G37*
G36*
X150031000Y-83774000D02*
G01*
X149181000Y-83774000D01*
X149181000Y-82874000D01*
X150031000Y-82874000D01*
X150031000Y-83774000D01*
G37*
G36*
X148253000Y-83774000D02*
G01*
X147403000Y-83774000D01*
X147403000Y-82874000D01*
X148253000Y-82874000D01*
X148253000Y-83774000D01*
G37*
G36*
X173924800Y-79157400D02*
G01*
X172124800Y-79157400D01*
X172124800Y-77357400D01*
X173924800Y-77357400D01*
X173924800Y-79157400D01*
G37*
G36*
X175711401Y-77368929D02*
G01*
X175827320Y-77391986D01*
X175991110Y-77459830D01*
X176138517Y-77558324D01*
X176263876Y-77683683D01*
X176362370Y-77831090D01*
X176430214Y-77994880D01*
X176464800Y-78168758D01*
X176464800Y-78346042D01*
X176430214Y-78519920D01*
X176362370Y-78683710D01*
X176263876Y-78831117D01*
X176138517Y-78956476D01*
X175991110Y-79054970D01*
X175827320Y-79122814D01*
X175711401Y-79145871D01*
X175653444Y-79157400D01*
X175476156Y-79157400D01*
X175418199Y-79145871D01*
X175302280Y-79122814D01*
X175138490Y-79054970D01*
X174991083Y-78956476D01*
X174865724Y-78831117D01*
X174767230Y-78683710D01*
X174699386Y-78519920D01*
X174664800Y-78346042D01*
X174664800Y-78168758D01*
X174699386Y-77994880D01*
X174767230Y-77831090D01*
X174865724Y-77683683D01*
X174991083Y-77558324D01*
X175138490Y-77459830D01*
X175302280Y-77391986D01*
X175418199Y-77368929D01*
X175476156Y-77357400D01*
X175653444Y-77357400D01*
X175711401Y-77368929D01*
G37*
G36*
X173924800Y-71537400D02*
G01*
X172124800Y-71537400D01*
X172124800Y-69737400D01*
X173924800Y-69737400D01*
X173924800Y-71537400D01*
G37*
G36*
X175711401Y-69748929D02*
G01*
X175827320Y-69771986D01*
X175991110Y-69839830D01*
X176138517Y-69938324D01*
X176263876Y-70063683D01*
X176362370Y-70211090D01*
X176430214Y-70374880D01*
X176464800Y-70548758D01*
X176464800Y-70726042D01*
X176430214Y-70899920D01*
X176362370Y-71063710D01*
X176263876Y-71211117D01*
X176138517Y-71336476D01*
X175991110Y-71434970D01*
X175827320Y-71502814D01*
X175711401Y-71525871D01*
X175653444Y-71537400D01*
X175476156Y-71537400D01*
X175418199Y-71525871D01*
X175302280Y-71502814D01*
X175138490Y-71434970D01*
X174991083Y-71336476D01*
X174865724Y-71211117D01*
X174767230Y-71063710D01*
X174699386Y-70899920D01*
X174664800Y-70726042D01*
X174664800Y-70548758D01*
X174699386Y-70374880D01*
X174767230Y-70211090D01*
X174865724Y-70063683D01*
X174991083Y-69938324D01*
X175138490Y-69839830D01*
X175302280Y-69771986D01*
X175418199Y-69748929D01*
X175476156Y-69737400D01*
X175653444Y-69737400D01*
X175711401Y-69748929D01*
G37*
G36*
X175194800Y-65187400D02*
G01*
X173394800Y-65187400D01*
X173394800Y-63387400D01*
X175194800Y-63387400D01*
X175194800Y-65187400D01*
G37*
G36*
X182814800Y-65187400D02*
G01*
X181014800Y-65187400D01*
X181014800Y-63387400D01*
X182814800Y-63387400D01*
X182814800Y-65187400D01*
G37*
G36*
X167574800Y-65187400D02*
G01*
X165774800Y-65187400D01*
X165774800Y-63387400D01*
X167574800Y-63387400D01*
X167574800Y-65187400D01*
G37*
G36*
X159954800Y-65187400D02*
G01*
X158154800Y-65187400D01*
X158154800Y-63387400D01*
X159954800Y-63387400D01*
X159954800Y-65187400D01*
G37*
G36*
X182061401Y-60858929D02*
G01*
X182177320Y-60881986D01*
X182341110Y-60949830D01*
X182488517Y-61048324D01*
X182613876Y-61173683D01*
X182712370Y-61321090D01*
X182780214Y-61484880D01*
X182814800Y-61658758D01*
X182814800Y-61836042D01*
X182780214Y-62009920D01*
X182712370Y-62173710D01*
X182613876Y-62321117D01*
X182488517Y-62446476D01*
X182341110Y-62544970D01*
X182177320Y-62612814D01*
X182061401Y-62635871D01*
X182003444Y-62647400D01*
X181826156Y-62647400D01*
X181768199Y-62635871D01*
X181652280Y-62612814D01*
X181488490Y-62544970D01*
X181341083Y-62446476D01*
X181215724Y-62321117D01*
X181117230Y-62173710D01*
X181049386Y-62009920D01*
X181014800Y-61836042D01*
X181014800Y-61658758D01*
X181049386Y-61484880D01*
X181117230Y-61321090D01*
X181215724Y-61173683D01*
X181341083Y-61048324D01*
X181488490Y-60949830D01*
X181652280Y-60881986D01*
X181768199Y-60858929D01*
X181826156Y-60847400D01*
X182003444Y-60847400D01*
X182061401Y-60858929D01*
G37*
G36*
X174441401Y-60858929D02*
G01*
X174557320Y-60881986D01*
X174721110Y-60949830D01*
X174868517Y-61048324D01*
X174993876Y-61173683D01*
X175092370Y-61321090D01*
X175160214Y-61484880D01*
X175194800Y-61658758D01*
X175194800Y-61836042D01*
X175160214Y-62009920D01*
X175092370Y-62173710D01*
X174993876Y-62321117D01*
X174868517Y-62446476D01*
X174721110Y-62544970D01*
X174557320Y-62612814D01*
X174441401Y-62635871D01*
X174383444Y-62647400D01*
X174206156Y-62647400D01*
X174148199Y-62635871D01*
X174032280Y-62612814D01*
X173868490Y-62544970D01*
X173721083Y-62446476D01*
X173595724Y-62321117D01*
X173497230Y-62173710D01*
X173429386Y-62009920D01*
X173394800Y-61836042D01*
X173394800Y-61658758D01*
X173429386Y-61484880D01*
X173497230Y-61321090D01*
X173595724Y-61173683D01*
X173721083Y-61048324D01*
X173868490Y-60949830D01*
X174032280Y-60881986D01*
X174148199Y-60858929D01*
X174206156Y-60847400D01*
X174383444Y-60847400D01*
X174441401Y-60858929D01*
G37*
G36*
X166821401Y-60858929D02*
G01*
X166937320Y-60881986D01*
X167101110Y-60949830D01*
X167248517Y-61048324D01*
X167373876Y-61173683D01*
X167472370Y-61321090D01*
X167540214Y-61484880D01*
X167574800Y-61658758D01*
X167574800Y-61836042D01*
X167540214Y-62009920D01*
X167472370Y-62173710D01*
X167373876Y-62321117D01*
X167248517Y-62446476D01*
X167101110Y-62544970D01*
X166937320Y-62612814D01*
X166821401Y-62635871D01*
X166763444Y-62647400D01*
X166586156Y-62647400D01*
X166528199Y-62635871D01*
X166412280Y-62612814D01*
X166248490Y-62544970D01*
X166101083Y-62446476D01*
X165975724Y-62321117D01*
X165877230Y-62173710D01*
X165809386Y-62009920D01*
X165774800Y-61836042D01*
X165774800Y-61658758D01*
X165809386Y-61484880D01*
X165877230Y-61321090D01*
X165975724Y-61173683D01*
X166101083Y-61048324D01*
X166248490Y-60949830D01*
X166412280Y-60881986D01*
X166528199Y-60858929D01*
X166586156Y-60847400D01*
X166763444Y-60847400D01*
X166821401Y-60858929D01*
G37*
G36*
X159201401Y-60858929D02*
G01*
X159317320Y-60881986D01*
X159481110Y-60949830D01*
X159628517Y-61048324D01*
X159753876Y-61173683D01*
X159852370Y-61321090D01*
X159920214Y-61484880D01*
X159954800Y-61658758D01*
X159954800Y-61836042D01*
X159920214Y-62009920D01*
X159852370Y-62173710D01*
X159753876Y-62321117D01*
X159628517Y-62446476D01*
X159481110Y-62544970D01*
X159317320Y-62612814D01*
X159201401Y-62635871D01*
X159143444Y-62647400D01*
X158966156Y-62647400D01*
X158908199Y-62635871D01*
X158792280Y-62612814D01*
X158628490Y-62544970D01*
X158481083Y-62446476D01*
X158355724Y-62321117D01*
X158257230Y-62173710D01*
X158189386Y-62009920D01*
X158154800Y-61836042D01*
X158154800Y-61658758D01*
X158189386Y-61484880D01*
X158257230Y-61321090D01*
X158355724Y-61173683D01*
X158481083Y-61048324D01*
X158628490Y-60949830D01*
X158792280Y-60881986D01*
X158908199Y-60858929D01*
X158966156Y-60847400D01*
X159143444Y-60847400D01*
X159201401Y-60858929D01*
G37*
G36*
X152869800Y-56808400D02*
G01*
X151269800Y-56808400D01*
X151269800Y-52208400D01*
X152869800Y-52208400D01*
X152869800Y-56808400D01*
G37*
G36*
X150329800Y-56808400D02*
G01*
X148729800Y-56808400D01*
X148729800Y-52208400D01*
X150329800Y-52208400D01*
X150329800Y-56808400D01*
G37*
G36*
X147789800Y-56808400D02*
G01*
X146189800Y-56808400D01*
X146189800Y-52208400D01*
X147789800Y-52208400D01*
X147789800Y-56808400D01*
G37*
M02*
