M48
;DRILL file {KiCad 4.0.7} date 07/05/18 17:58:33
;FORMAT={-:-/ absolute / metric / decimal}
FMAT,2
METRIC,TZ
T1C0.250
T2C0.400
T3C0.750
T4C1.000
%
G90
G05
M71
T1
X111.633Y-91.186
X111.633Y-92.456
X111.633Y-93.726
X111.633Y-94.996
X111.633Y-96.266
X111.633Y-97.536
X111.633Y-98.806
X111.633Y-100.076
X111.633Y-101.346
X111.633Y-102.616
X111.633Y-103.886
X111.633Y-105.156
X111.633Y-106.426
X111.633Y-107.696
X111.633Y-108.966
X111.633Y-110.236
X112.522Y-87.122
X114.224Y-57.302
X114.224Y-64.922
X114.224Y-72.542
X114.224Y-80.162
X115.062Y-117.856
X118.415Y-60.604
X118.796Y-85.242
X118.796Y-87.401
X119.304Y-84.226
X119.304Y-86.385
X121.666Y-82.931
X122.036Y-97.79
X122.745Y-90.614
X122.809Y-82.804
X122.936Y-97.29
X122.936Y-98.29
X122.936Y-118.872
X123.698Y-90.678
X123.836Y-97.79
X124.333Y-90.17
X124.968Y-118.872
X125.095Y-90.043
X125.476Y-104.331
X125.476Y-105.219
X125.603Y-83.121
X125.73Y-118.872
X125.857Y-90.043
X126.035Y-60.604
X126.416Y-83.337
X126.746Y-90.17
X126.924Y-84.353
X126.924Y-86.385
X127.432Y-85.369
X127.432Y-87.401
X129.921Y-107.759
X129.921Y-109.093
X129.921Y-110.363
X129.921Y-111.697
X130.048Y-115.951
X130.302Y-107.188
X130.302Y-108.458
X130.302Y-109.728
X130.302Y-111.125
X130.302Y-112.395
X130.302Y-114.046
X130.556Y-102.616
X130.556Y-103.378
X130.937Y-115.951
X133.655Y-60.604
X133.858Y-118.491
X134.214Y-99.187
X134.302Y-102.743
X134.62Y-118.618
X135.23Y-99.187
X135.255Y-102.743
X135.382Y-118.618
X136.144Y-118.491
X136.195Y-99.187
X136.207Y-102.806
X137.16Y-99.187
X137.287Y-102.806
X138.811Y-118.491
X139.446Y-99.441
X139.446Y-118.872
X140.081Y-119.253
X140.208Y-99.441
X140.589Y-92.837
X140.843Y-119.507
X140.97Y-82.753
X140.97Y-84.074
X140.97Y-85.369
X140.97Y-86.665
X141.097Y-99.504
X141.275Y-60.604
X141.541Y-119.761
X141.922Y-99.441
X142.24Y-119.38
X142.748Y-99.187
X142.875Y-118.999
X142.926Y-77.622
X143.51Y-118.618
X143.573Y-99.441
X143.942Y-78.13
X144.018Y-102.997
X144.653Y-93.98
X144.78Y-102.997
X144.78Y-106.553
X144.958Y-77.622
X145.415Y-115.062
X145.542Y-99.441
X145.974Y-78.13
X146.05Y-115.443
X146.431Y-99.695
X146.99Y-77.622
X148.006Y-78.13
X148.336Y-100.076
X148.895Y-57.302
X149.022Y-77.622
X149.733Y-102.743
X150.038Y-78.13
X150.165Y-57.302
X150.241Y-103.378
X151.054Y-77.622
X151.435Y-57.302
X152.07Y-78.13
X152.705Y-57.302
X153.086Y-77.622
X153.416Y-97.346
X154.102Y-78.13
X154.686Y-97.536
X155.118Y-77.622
X156.134Y-78.13
X156.718Y-89.09
X156.718Y-89.852
X156.718Y-90.678
X156.718Y-93.091
X156.718Y-94.043
X157.15Y-77.622
X157.785Y-60.604
X158.166Y-78.13
X159.004Y-97.155
X160.96Y-80.797
X160.96Y-82.829
X160.96Y-84.861
X160.96Y-86.893
X161.468Y-81.813
X161.468Y-83.845
X161.468Y-85.877
X161.468Y-87.909
X165.405Y-60.604
X173.025Y-60.604
X177.343Y-68.732
X177.343Y-76.352
X177.343Y-83.972
X177.343Y-91.592
X177.343Y-99.212
X177.343Y-106.832
X177.343Y-114.452
X177.343Y-122.072
X180.594Y-60.579
T2
X109.728Y-83.82
X111.633Y-112.141
X113.284Y-90.17
X114.3Y-59.436
X114.3Y-67.056
X114.3Y-74.676
X115.316Y-83.693
X116.078Y-87.376
X117.094Y-83.566
X117.157Y-111.442
X118.11Y-88.646
X119.126Y-79.756
X119.253Y-89.281
X119.38Y-101.346
X120.015Y-104.521
X120.269Y-122.301
X120.396Y-83.566
X120.777Y-90.043
X120.904Y-60.96
X121.539Y-81.407
X124.333Y-78.74
X125.476Y-113.284
X126.492Y-101.346
X127.Y-78.613
X127.762Y-98.552
X127.889Y-91.567
X128.016Y-89.027
X128.524Y-60.96
X128.905Y-85.09
X129.286Y-100.647
X130.302Y-93.726
X130.683Y-87.757
X131.953Y-83.566
X134.493Y-113.03
X134.62Y-104.521
X135.382Y-93.091
X135.636Y-110.49
X136.144Y-60.96
X136.144Y-108.204
X137.668Y-85.217
X138.176Y-102.997
X138.176Y-114.808
X138.811Y-113.792
X139.192Y-86.868
X140.208Y-97.663
X140.335Y-112.395
X142.621Y-96.075
X142.875Y-80.391
X143.002Y-102.997
X143.764Y-60.96
X144.145Y-114.808
X144.526Y-85.788
X144.653Y-91.186
X145.542Y-89.281
X145.923Y-108.966
X145.923Y-110.49
X146.177Y-102.997
X146.749Y-82.105
X147.002Y-57.277
X147.066Y-118.11
X147.828Y-82.042
X149.479Y-114.808
X149.606Y-94.361
X149.733Y-109.728
X150.495Y-82.169
X150.876Y-94.361
X151.892Y-109.474
X153.416Y-82.042
X154.432Y-82.042
X156.21Y-99.695
X156.464Y-84.328
X156.464Y-87.122
X156.464Y-88.138
X158.369Y-80.518
X158.369Y-96.329
X160.274Y-88.392
T4
X116.268Y-114.554
X118.808Y-114.554
X129.54Y-123.19
X129.54Y-125.73
X129.54Y-128.27
X132.08Y-123.19
X132.08Y-125.73
X132.08Y-128.27
X134.62Y-123.19
X134.62Y-125.73
X134.62Y-128.27
X137.16Y-123.19
X137.16Y-125.73
X137.16Y-128.27
X139.7Y-123.19
X139.7Y-125.73
X142.24Y-123.19
X142.24Y-125.73
X144.78Y-123.19
X144.78Y-125.73
X147.32Y-123.19
X147.32Y-125.73
X149.86Y-123.19
X149.86Y-125.73
X152.4Y-123.19
X152.4Y-125.73
X152.908Y-113.538
X152.908Y-116.078
X154.94Y-105.283
X157.353Y-117.919
X157.353Y-120.459
X157.353Y-122.999
X157.353Y-125.539
X157.48Y-105.283
X159.055Y-61.747
X159.055Y-64.287
X166.675Y-61.747
X166.675Y-64.287
X173.025Y-70.637
X173.025Y-78.257
X173.025Y-85.877
X173.025Y-93.497
X173.025Y-101.117
X173.025Y-108.737
X173.025Y-116.357
X173.025Y-123.977
X174.295Y-61.747
X174.295Y-64.287
X175.565Y-70.637
X175.565Y-78.257
X175.565Y-85.877
X175.565Y-93.497
X175.565Y-101.117
X175.565Y-108.737
X175.565Y-116.357
X175.565Y-123.977
X181.915Y-61.747
X181.915Y-64.287
T3
X110.263Y-117.336G85X110.113Y-117.336
G05
X110.263Y-122.186G85X110.113Y-122.186
G05
T4
X107.438Y-116.161G85X106.938Y-116.161
G05
X107.438Y-123.361G85X106.938Y-123.361
G05
T0
M30
