G04 #@! TF.FileFunction,Soldermask,Top*
%FSLAX46Y46*%
G04 Gerber Fmt 4.6, Leading zero omitted, Abs format (unit mm)*
G04 Created by KiCad (PCBNEW 4.0.7) date 07/26/18 16:07:15*
%MOMM*%
%LPD*%
G01*
G04 APERTURE LIST*
%ADD10C,0.050000*%
G04 APERTURE END LIST*
D10*
G36*
X149167000Y-137753500D02*
X148367000Y-137753500D01*
X148367000Y-133453500D01*
X149167000Y-133453500D01*
X149167000Y-137753500D01*
X149167000Y-137753500D01*
G37*
G36*
X140167000Y-137753500D02*
X139367000Y-137753500D01*
X139367000Y-133453500D01*
X140167000Y-133453500D01*
X140167000Y-137753500D01*
X140167000Y-137753500D01*
G37*
G36*
X135167000Y-137753500D02*
X134367000Y-137753500D01*
X134367000Y-133453500D01*
X135167000Y-133453500D01*
X135167000Y-137753500D01*
X135167000Y-137753500D01*
G37*
G36*
X134167000Y-137753500D02*
X133367000Y-137753500D01*
X133367000Y-133453500D01*
X134167000Y-133453500D01*
X134167000Y-137753500D01*
X134167000Y-137753500D01*
G37*
G36*
X133167000Y-137753500D02*
X132367000Y-137753500D01*
X132367000Y-133453500D01*
X133167000Y-133453500D01*
X133167000Y-137753500D01*
X133167000Y-137753500D01*
G37*
G36*
X132167000Y-137753500D02*
X131367000Y-137753500D01*
X131367000Y-133453500D01*
X132167000Y-133453500D01*
X132167000Y-137753500D01*
X132167000Y-137753500D01*
G37*
G36*
X131167000Y-137753500D02*
X130367000Y-137753500D01*
X130367000Y-133453500D01*
X131167000Y-133453500D01*
X131167000Y-137753500D01*
X131167000Y-137753500D01*
G37*
G36*
X136167000Y-137753500D02*
X135367000Y-137753500D01*
X135367000Y-133453500D01*
X136167000Y-133453500D01*
X136167000Y-137753500D01*
X136167000Y-137753500D01*
G37*
G36*
X137167000Y-137753500D02*
X136367000Y-137753500D01*
X136367000Y-133453500D01*
X137167000Y-133453500D01*
X137167000Y-137753500D01*
X137167000Y-137753500D01*
G37*
G36*
X142167000Y-137753500D02*
X141367000Y-137753500D01*
X141367000Y-133453500D01*
X142167000Y-133453500D01*
X142167000Y-137753500D01*
X142167000Y-137753500D01*
G37*
G36*
X143167000Y-137753500D02*
X142367000Y-137753500D01*
X142367000Y-133453500D01*
X143167000Y-133453500D01*
X143167000Y-137753500D01*
X143167000Y-137753500D01*
G37*
G36*
X144167000Y-137753500D02*
X143367000Y-137753500D01*
X143367000Y-133453500D01*
X144167000Y-133453500D01*
X144167000Y-137753500D01*
X144167000Y-137753500D01*
G37*
G36*
X145167000Y-137753500D02*
X144367000Y-137753500D01*
X144367000Y-133453500D01*
X145167000Y-133453500D01*
X145167000Y-137753500D01*
X145167000Y-137753500D01*
G37*
G36*
X146167000Y-137753500D02*
X145367000Y-137753500D01*
X145367000Y-133453500D01*
X146167000Y-133453500D01*
X146167000Y-137753500D01*
X146167000Y-137753500D01*
G37*
G36*
X147167000Y-137753500D02*
X146367000Y-137753500D01*
X146367000Y-133453500D01*
X147167000Y-133453500D01*
X147167000Y-137753500D01*
X147167000Y-137753500D01*
G37*
G36*
X148167000Y-137753500D02*
X147367000Y-137753500D01*
X147367000Y-133453500D01*
X148167000Y-133453500D01*
X148167000Y-137753500D01*
X148167000Y-137753500D01*
G37*
G36*
X141167000Y-137753500D02*
X140367000Y-137753500D01*
X140367000Y-133453500D01*
X141167000Y-133453500D01*
X141167000Y-137753500D01*
X141167000Y-137753500D01*
G37*
G36*
X150167000Y-136753500D02*
X149367000Y-136753500D01*
X149367000Y-133453500D01*
X150167000Y-133453500D01*
X150167000Y-136753500D01*
X150167000Y-136753500D01*
G37*
G36*
X132260933Y-127384022D02*
X132260938Y-127384024D01*
X132260970Y-127384027D01*
X132428764Y-127435968D01*
X132583274Y-127519511D01*
X132718614Y-127631474D01*
X132829629Y-127767593D01*
X132912091Y-127922682D01*
X132962860Y-128090834D01*
X132980000Y-128265645D01*
X132980000Y-128274423D01*
X132979923Y-128285498D01*
X132979922Y-128285508D01*
X132979912Y-128286921D01*
X132960333Y-128461476D01*
X132907222Y-128628903D01*
X132822602Y-128782825D01*
X132709697Y-128917380D01*
X132572807Y-129027443D01*
X132417146Y-129108820D01*
X132248643Y-129158414D01*
X132248618Y-129158416D01*
X132248612Y-129158418D01*
X132073717Y-129174334D01*
X131899067Y-129155978D01*
X131899062Y-129155976D01*
X131899030Y-129155973D01*
X131731236Y-129104032D01*
X131576726Y-129020489D01*
X131441386Y-128908526D01*
X131330371Y-128772407D01*
X131247909Y-128617318D01*
X131197140Y-128449166D01*
X131180000Y-128274355D01*
X131180000Y-128265577D01*
X131180077Y-128254502D01*
X131180078Y-128254492D01*
X131180088Y-128253079D01*
X131199667Y-128078524D01*
X131252778Y-127911097D01*
X131337398Y-127757175D01*
X131450303Y-127622620D01*
X131587193Y-127512557D01*
X131742854Y-127431180D01*
X131911357Y-127381586D01*
X131911382Y-127381584D01*
X131911388Y-127381582D01*
X132086283Y-127365666D01*
X132260933Y-127384022D01*
X132260933Y-127384022D01*
G37*
G36*
X137340933Y-127384022D02*
X137340938Y-127384024D01*
X137340970Y-127384027D01*
X137508764Y-127435968D01*
X137663274Y-127519511D01*
X137798614Y-127631474D01*
X137909629Y-127767593D01*
X137992091Y-127922682D01*
X138042860Y-128090834D01*
X138060000Y-128265645D01*
X138060000Y-128274423D01*
X138059923Y-128285498D01*
X138059922Y-128285508D01*
X138059912Y-128286921D01*
X138040333Y-128461476D01*
X137987222Y-128628903D01*
X137902602Y-128782825D01*
X137789697Y-128917380D01*
X137652807Y-129027443D01*
X137497146Y-129108820D01*
X137328643Y-129158414D01*
X137328618Y-129158416D01*
X137328612Y-129158418D01*
X137153717Y-129174334D01*
X136979067Y-129155978D01*
X136979062Y-129155976D01*
X136979030Y-129155973D01*
X136811236Y-129104032D01*
X136656726Y-129020489D01*
X136521386Y-128908526D01*
X136410371Y-128772407D01*
X136327909Y-128617318D01*
X136277140Y-128449166D01*
X136260000Y-128274355D01*
X136260000Y-128265577D01*
X136260077Y-128254502D01*
X136260078Y-128254492D01*
X136260088Y-128253079D01*
X136279667Y-128078524D01*
X136332778Y-127911097D01*
X136417398Y-127757175D01*
X136530303Y-127622620D01*
X136667193Y-127512557D01*
X136822854Y-127431180D01*
X136991357Y-127381586D01*
X136991382Y-127381584D01*
X136991388Y-127381582D01*
X137166283Y-127365666D01*
X137340933Y-127384022D01*
X137340933Y-127384022D01*
G37*
G36*
X134800933Y-127384022D02*
X134800938Y-127384024D01*
X134800970Y-127384027D01*
X134968764Y-127435968D01*
X135123274Y-127519511D01*
X135258614Y-127631474D01*
X135369629Y-127767593D01*
X135452091Y-127922682D01*
X135502860Y-128090834D01*
X135520000Y-128265645D01*
X135520000Y-128274423D01*
X135519923Y-128285498D01*
X135519922Y-128285508D01*
X135519912Y-128286921D01*
X135500333Y-128461476D01*
X135447222Y-128628903D01*
X135362602Y-128782825D01*
X135249697Y-128917380D01*
X135112807Y-129027443D01*
X134957146Y-129108820D01*
X134788643Y-129158414D01*
X134788618Y-129158416D01*
X134788612Y-129158418D01*
X134613717Y-129174334D01*
X134439067Y-129155978D01*
X134439062Y-129155976D01*
X134439030Y-129155973D01*
X134271236Y-129104032D01*
X134116726Y-129020489D01*
X133981386Y-128908526D01*
X133870371Y-128772407D01*
X133787909Y-128617318D01*
X133737140Y-128449166D01*
X133720000Y-128274355D01*
X133720000Y-128265577D01*
X133720077Y-128254502D01*
X133720078Y-128254492D01*
X133720088Y-128253079D01*
X133739667Y-128078524D01*
X133792778Y-127911097D01*
X133877398Y-127757175D01*
X133990303Y-127622620D01*
X134127193Y-127512557D01*
X134282854Y-127431180D01*
X134451357Y-127381586D01*
X134451382Y-127381584D01*
X134451388Y-127381582D01*
X134626283Y-127365666D01*
X134800933Y-127384022D01*
X134800933Y-127384022D01*
G37*
G36*
X130440000Y-129170000D02*
X128640000Y-129170000D01*
X128640000Y-127370000D01*
X130440000Y-127370000D01*
X130440000Y-129170000D01*
X130440000Y-129170000D01*
G37*
G36*
X139880933Y-124844022D02*
X139880938Y-124844024D01*
X139880970Y-124844027D01*
X140048764Y-124895968D01*
X140203274Y-124979511D01*
X140338614Y-125091474D01*
X140449629Y-125227593D01*
X140532091Y-125382682D01*
X140582860Y-125550834D01*
X140600000Y-125725645D01*
X140600000Y-125734423D01*
X140599923Y-125745498D01*
X140599922Y-125745508D01*
X140599912Y-125746921D01*
X140580333Y-125921476D01*
X140527222Y-126088903D01*
X140442602Y-126242825D01*
X140329697Y-126377380D01*
X140192807Y-126487443D01*
X140037146Y-126568820D01*
X139868643Y-126618414D01*
X139868618Y-126618416D01*
X139868612Y-126618418D01*
X139693717Y-126634334D01*
X139519067Y-126615978D01*
X139519062Y-126615976D01*
X139519030Y-126615973D01*
X139351236Y-126564032D01*
X139196726Y-126480489D01*
X139061386Y-126368526D01*
X138950371Y-126232407D01*
X138867909Y-126077318D01*
X138817140Y-125909166D01*
X138800000Y-125734355D01*
X138800000Y-125725577D01*
X138800077Y-125714502D01*
X138800078Y-125714492D01*
X138800088Y-125713079D01*
X138819667Y-125538524D01*
X138872778Y-125371097D01*
X138957398Y-125217175D01*
X139070303Y-125082620D01*
X139207193Y-124972557D01*
X139362854Y-124891180D01*
X139531357Y-124841586D01*
X139531382Y-124841584D01*
X139531388Y-124841582D01*
X139706283Y-124825666D01*
X139880933Y-124844022D01*
X139880933Y-124844022D01*
G37*
G36*
X144960933Y-124844022D02*
X144960938Y-124844024D01*
X144960970Y-124844027D01*
X145128764Y-124895968D01*
X145283274Y-124979511D01*
X145418614Y-125091474D01*
X145529629Y-125227593D01*
X145612091Y-125382682D01*
X145662860Y-125550834D01*
X145680000Y-125725645D01*
X145680000Y-125734423D01*
X145679923Y-125745498D01*
X145679922Y-125745508D01*
X145679912Y-125746921D01*
X145660333Y-125921476D01*
X145607222Y-126088903D01*
X145522602Y-126242825D01*
X145409697Y-126377380D01*
X145272807Y-126487443D01*
X145117146Y-126568820D01*
X144948643Y-126618414D01*
X144948618Y-126618416D01*
X144948612Y-126618418D01*
X144773717Y-126634334D01*
X144599067Y-126615978D01*
X144599062Y-126615976D01*
X144599030Y-126615973D01*
X144431236Y-126564032D01*
X144276726Y-126480489D01*
X144141386Y-126368526D01*
X144030371Y-126232407D01*
X143947909Y-126077318D01*
X143897140Y-125909166D01*
X143880000Y-125734355D01*
X143880000Y-125725577D01*
X143880077Y-125714502D01*
X143880078Y-125714492D01*
X143880088Y-125713079D01*
X143899667Y-125538524D01*
X143952778Y-125371097D01*
X144037398Y-125217175D01*
X144150303Y-125082620D01*
X144287193Y-124972557D01*
X144442854Y-124891180D01*
X144611357Y-124841586D01*
X144611382Y-124841584D01*
X144611388Y-124841582D01*
X144786283Y-124825666D01*
X144960933Y-124844022D01*
X144960933Y-124844022D01*
G37*
G36*
X142420933Y-124844022D02*
X142420938Y-124844024D01*
X142420970Y-124844027D01*
X142588764Y-124895968D01*
X142743274Y-124979511D01*
X142878614Y-125091474D01*
X142989629Y-125227593D01*
X143072091Y-125382682D01*
X143122860Y-125550834D01*
X143140000Y-125725645D01*
X143140000Y-125734423D01*
X143139923Y-125745498D01*
X143139922Y-125745508D01*
X143139912Y-125746921D01*
X143120333Y-125921476D01*
X143067222Y-126088903D01*
X142982602Y-126242825D01*
X142869697Y-126377380D01*
X142732807Y-126487443D01*
X142577146Y-126568820D01*
X142408643Y-126618414D01*
X142408618Y-126618416D01*
X142408612Y-126618418D01*
X142233717Y-126634334D01*
X142059067Y-126615978D01*
X142059062Y-126615976D01*
X142059030Y-126615973D01*
X141891236Y-126564032D01*
X141736726Y-126480489D01*
X141601386Y-126368526D01*
X141490371Y-126232407D01*
X141407909Y-126077318D01*
X141357140Y-125909166D01*
X141340000Y-125734355D01*
X141340000Y-125725577D01*
X141340077Y-125714502D01*
X141340078Y-125714492D01*
X141340088Y-125713079D01*
X141359667Y-125538524D01*
X141412778Y-125371097D01*
X141497398Y-125217175D01*
X141610303Y-125082620D01*
X141747193Y-124972557D01*
X141902854Y-124891180D01*
X142071357Y-124841586D01*
X142071382Y-124841584D01*
X142071388Y-124841582D01*
X142246283Y-124825666D01*
X142420933Y-124844022D01*
X142420933Y-124844022D01*
G37*
G36*
X137340933Y-124844022D02*
X137340938Y-124844024D01*
X137340970Y-124844027D01*
X137508764Y-124895968D01*
X137663274Y-124979511D01*
X137798614Y-125091474D01*
X137909629Y-125227593D01*
X137992091Y-125382682D01*
X138042860Y-125550834D01*
X138060000Y-125725645D01*
X138060000Y-125734423D01*
X138059923Y-125745498D01*
X138059922Y-125745508D01*
X138059912Y-125746921D01*
X138040333Y-125921476D01*
X137987222Y-126088903D01*
X137902602Y-126242825D01*
X137789697Y-126377380D01*
X137652807Y-126487443D01*
X137497146Y-126568820D01*
X137328643Y-126618414D01*
X137328618Y-126618416D01*
X137328612Y-126618418D01*
X137153717Y-126634334D01*
X136979067Y-126615978D01*
X136979062Y-126615976D01*
X136979030Y-126615973D01*
X136811236Y-126564032D01*
X136656726Y-126480489D01*
X136521386Y-126368526D01*
X136410371Y-126232407D01*
X136327909Y-126077318D01*
X136277140Y-125909166D01*
X136260000Y-125734355D01*
X136260000Y-125725577D01*
X136260077Y-125714502D01*
X136260078Y-125714492D01*
X136260088Y-125713079D01*
X136279667Y-125538524D01*
X136332778Y-125371097D01*
X136417398Y-125217175D01*
X136530303Y-125082620D01*
X136667193Y-124972557D01*
X136822854Y-124891180D01*
X136991357Y-124841586D01*
X136991382Y-124841584D01*
X136991388Y-124841582D01*
X137166283Y-124825666D01*
X137340933Y-124844022D01*
X137340933Y-124844022D01*
G37*
G36*
X147500933Y-124844022D02*
X147500938Y-124844024D01*
X147500970Y-124844027D01*
X147668764Y-124895968D01*
X147823274Y-124979511D01*
X147958614Y-125091474D01*
X148069629Y-125227593D01*
X148152091Y-125382682D01*
X148202860Y-125550834D01*
X148220000Y-125725645D01*
X148220000Y-125734423D01*
X148219923Y-125745498D01*
X148219922Y-125745508D01*
X148219912Y-125746921D01*
X148200333Y-125921476D01*
X148147222Y-126088903D01*
X148062602Y-126242825D01*
X147949697Y-126377380D01*
X147812807Y-126487443D01*
X147657146Y-126568820D01*
X147488643Y-126618414D01*
X147488618Y-126618416D01*
X147488612Y-126618418D01*
X147313717Y-126634334D01*
X147139067Y-126615978D01*
X147139062Y-126615976D01*
X147139030Y-126615973D01*
X146971236Y-126564032D01*
X146816726Y-126480489D01*
X146681386Y-126368526D01*
X146570371Y-126232407D01*
X146487909Y-126077318D01*
X146437140Y-125909166D01*
X146420000Y-125734355D01*
X146420000Y-125725577D01*
X146420077Y-125714502D01*
X146420078Y-125714492D01*
X146420088Y-125713079D01*
X146439667Y-125538524D01*
X146492778Y-125371097D01*
X146577398Y-125217175D01*
X146690303Y-125082620D01*
X146827193Y-124972557D01*
X146982854Y-124891180D01*
X147151357Y-124841586D01*
X147151382Y-124841584D01*
X147151388Y-124841582D01*
X147326283Y-124825666D01*
X147500933Y-124844022D01*
X147500933Y-124844022D01*
G37*
G36*
X132260933Y-124844022D02*
X132260938Y-124844024D01*
X132260970Y-124844027D01*
X132428764Y-124895968D01*
X132583274Y-124979511D01*
X132718614Y-125091474D01*
X132829629Y-125227593D01*
X132912091Y-125382682D01*
X132962860Y-125550834D01*
X132980000Y-125725645D01*
X132980000Y-125734423D01*
X132979923Y-125745498D01*
X132979922Y-125745508D01*
X132979912Y-125746921D01*
X132960333Y-125921476D01*
X132907222Y-126088903D01*
X132822602Y-126242825D01*
X132709697Y-126377380D01*
X132572807Y-126487443D01*
X132417146Y-126568820D01*
X132248643Y-126618414D01*
X132248618Y-126618416D01*
X132248612Y-126618418D01*
X132073717Y-126634334D01*
X131899067Y-126615978D01*
X131899062Y-126615976D01*
X131899030Y-126615973D01*
X131731236Y-126564032D01*
X131576726Y-126480489D01*
X131441386Y-126368526D01*
X131330371Y-126232407D01*
X131247909Y-126077318D01*
X131197140Y-125909166D01*
X131180000Y-125734355D01*
X131180000Y-125725577D01*
X131180077Y-125714502D01*
X131180078Y-125714492D01*
X131180088Y-125713079D01*
X131199667Y-125538524D01*
X131252778Y-125371097D01*
X131337398Y-125217175D01*
X131450303Y-125082620D01*
X131587193Y-124972557D01*
X131742854Y-124891180D01*
X131911357Y-124841586D01*
X131911382Y-124841584D01*
X131911388Y-124841582D01*
X132086283Y-124825666D01*
X132260933Y-124844022D01*
X132260933Y-124844022D01*
G37*
G36*
X150040933Y-124844022D02*
X150040938Y-124844024D01*
X150040970Y-124844027D01*
X150208764Y-124895968D01*
X150363274Y-124979511D01*
X150498614Y-125091474D01*
X150609629Y-125227593D01*
X150692091Y-125382682D01*
X150742860Y-125550834D01*
X150760000Y-125725645D01*
X150760000Y-125734423D01*
X150759923Y-125745498D01*
X150759922Y-125745508D01*
X150759912Y-125746921D01*
X150740333Y-125921476D01*
X150687222Y-126088903D01*
X150602602Y-126242825D01*
X150489697Y-126377380D01*
X150352807Y-126487443D01*
X150197146Y-126568820D01*
X150028643Y-126618414D01*
X150028618Y-126618416D01*
X150028612Y-126618418D01*
X149853717Y-126634334D01*
X149679067Y-126615978D01*
X149679062Y-126615976D01*
X149679030Y-126615973D01*
X149511236Y-126564032D01*
X149356726Y-126480489D01*
X149221386Y-126368526D01*
X149110371Y-126232407D01*
X149027909Y-126077318D01*
X148977140Y-125909166D01*
X148960000Y-125734355D01*
X148960000Y-125725577D01*
X148960077Y-125714502D01*
X148960078Y-125714492D01*
X148960088Y-125713079D01*
X148979667Y-125538524D01*
X149032778Y-125371097D01*
X149117398Y-125217175D01*
X149230303Y-125082620D01*
X149367193Y-124972557D01*
X149522854Y-124891180D01*
X149691357Y-124841586D01*
X149691382Y-124841584D01*
X149691388Y-124841582D01*
X149866283Y-124825666D01*
X150040933Y-124844022D01*
X150040933Y-124844022D01*
G37*
G36*
X152580933Y-124844022D02*
X152580938Y-124844024D01*
X152580970Y-124844027D01*
X152748764Y-124895968D01*
X152903274Y-124979511D01*
X153038614Y-125091474D01*
X153149629Y-125227593D01*
X153232091Y-125382682D01*
X153282860Y-125550834D01*
X153300000Y-125725645D01*
X153300000Y-125734423D01*
X153299923Y-125745498D01*
X153299922Y-125745508D01*
X153299912Y-125746921D01*
X153280333Y-125921476D01*
X153227222Y-126088903D01*
X153142602Y-126242825D01*
X153029697Y-126377380D01*
X152892807Y-126487443D01*
X152737146Y-126568820D01*
X152568643Y-126618414D01*
X152568618Y-126618416D01*
X152568612Y-126618418D01*
X152393717Y-126634334D01*
X152219067Y-126615978D01*
X152219062Y-126615976D01*
X152219030Y-126615973D01*
X152051236Y-126564032D01*
X151896726Y-126480489D01*
X151761386Y-126368526D01*
X151650371Y-126232407D01*
X151567909Y-126077318D01*
X151517140Y-125909166D01*
X151500000Y-125734355D01*
X151500000Y-125725577D01*
X151500077Y-125714502D01*
X151500078Y-125714492D01*
X151500088Y-125713079D01*
X151519667Y-125538524D01*
X151572778Y-125371097D01*
X151657398Y-125217175D01*
X151770303Y-125082620D01*
X151907193Y-124972557D01*
X152062854Y-124891180D01*
X152231357Y-124841586D01*
X152231382Y-124841584D01*
X152231388Y-124841582D01*
X152406283Y-124825666D01*
X152580933Y-124844022D01*
X152580933Y-124844022D01*
G37*
G36*
X134800933Y-124844022D02*
X134800938Y-124844024D01*
X134800970Y-124844027D01*
X134968764Y-124895968D01*
X135123274Y-124979511D01*
X135258614Y-125091474D01*
X135369629Y-125227593D01*
X135452091Y-125382682D01*
X135502860Y-125550834D01*
X135520000Y-125725645D01*
X135520000Y-125734423D01*
X135519923Y-125745498D01*
X135519922Y-125745508D01*
X135519912Y-125746921D01*
X135500333Y-125921476D01*
X135447222Y-126088903D01*
X135362602Y-126242825D01*
X135249697Y-126377380D01*
X135112807Y-126487443D01*
X134957146Y-126568820D01*
X134788643Y-126618414D01*
X134788618Y-126618416D01*
X134788612Y-126618418D01*
X134613717Y-126634334D01*
X134439067Y-126615978D01*
X134439062Y-126615976D01*
X134439030Y-126615973D01*
X134271236Y-126564032D01*
X134116726Y-126480489D01*
X133981386Y-126368526D01*
X133870371Y-126232407D01*
X133787909Y-126077318D01*
X133737140Y-125909166D01*
X133720000Y-125734355D01*
X133720000Y-125725577D01*
X133720077Y-125714502D01*
X133720078Y-125714492D01*
X133720088Y-125713079D01*
X133739667Y-125538524D01*
X133792778Y-125371097D01*
X133877398Y-125217175D01*
X133990303Y-125082620D01*
X134127193Y-124972557D01*
X134282854Y-124891180D01*
X134451357Y-124841586D01*
X134451382Y-124841584D01*
X134451388Y-124841582D01*
X134626283Y-124825666D01*
X134800933Y-124844022D01*
X134800933Y-124844022D01*
G37*
G36*
X130440000Y-126630000D02*
X128640000Y-126630000D01*
X128640000Y-124830000D01*
X130440000Y-124830000D01*
X130440000Y-126630000D01*
X130440000Y-126630000D01*
G37*
G36*
X157447531Y-124640098D02*
X157620426Y-124675588D01*
X157783133Y-124743984D01*
X157929458Y-124842681D01*
X158053826Y-124967920D01*
X158151498Y-125114930D01*
X158218759Y-125278115D01*
X158252992Y-125451004D01*
X158252992Y-125451012D01*
X158253039Y-125451250D01*
X158250224Y-125652846D01*
X158250170Y-125653083D01*
X158250170Y-125653090D01*
X158211123Y-125824958D01*
X158139332Y-125986200D01*
X158037594Y-126130423D01*
X157909775Y-126252144D01*
X157760754Y-126346716D01*
X157596200Y-126410542D01*
X157422380Y-126441191D01*
X157245925Y-126437495D01*
X157073537Y-126399593D01*
X156911799Y-126328931D01*
X156766870Y-126228203D01*
X156644263Y-126101239D01*
X156548650Y-125952876D01*
X156483678Y-125788776D01*
X156451816Y-125615176D01*
X156454280Y-125438689D01*
X156490975Y-125266052D01*
X156560507Y-125103823D01*
X156660225Y-124958189D01*
X156786324Y-124834703D01*
X156934019Y-124738054D01*
X157097660Y-124671938D01*
X157271036Y-124638866D01*
X157447531Y-124640098D01*
X157447531Y-124640098D01*
G37*
G36*
X117985000Y-125048000D02*
X117435000Y-125048000D01*
X117435000Y-123198000D01*
X117985000Y-123198000D01*
X117985000Y-125048000D01*
X117985000Y-125048000D01*
G37*
G36*
X120585000Y-125048000D02*
X120035000Y-125048000D01*
X120035000Y-123198000D01*
X120585000Y-123198000D01*
X120585000Y-125048000D01*
X120585000Y-125048000D01*
G37*
G36*
X122535000Y-125048000D02*
X121985000Y-125048000D01*
X121985000Y-123198000D01*
X122535000Y-123198000D01*
X122535000Y-125048000D01*
X122535000Y-125048000D01*
G37*
G36*
X119935000Y-125048000D02*
X119385000Y-125048000D01*
X119385000Y-123198000D01*
X119935000Y-123198000D01*
X119935000Y-125048000D01*
X119935000Y-125048000D01*
G37*
G36*
X119285000Y-125048000D02*
X118735000Y-125048000D01*
X118735000Y-123198000D01*
X119285000Y-123198000D01*
X119285000Y-125048000D01*
X119285000Y-125048000D01*
G37*
G36*
X117335000Y-125048000D02*
X116785000Y-125048000D01*
X116785000Y-123198000D01*
X117335000Y-123198000D01*
X117335000Y-125048000D01*
X117335000Y-125048000D01*
G37*
G36*
X118635000Y-125048000D02*
X118085000Y-125048000D01*
X118085000Y-123198000D01*
X118635000Y-123198000D01*
X118635000Y-125048000D01*
X118635000Y-125048000D01*
G37*
G36*
X123185000Y-125048000D02*
X122635000Y-125048000D01*
X122635000Y-123198000D01*
X123185000Y-123198000D01*
X123185000Y-125048000D01*
X123185000Y-125048000D01*
G37*
G36*
X123835000Y-125048000D02*
X123285000Y-125048000D01*
X123285000Y-123198000D01*
X123835000Y-123198000D01*
X123835000Y-125048000D01*
X123835000Y-125048000D01*
G37*
G36*
X121885000Y-125048000D02*
X121335000Y-125048000D01*
X121335000Y-123198000D01*
X121885000Y-123198000D01*
X121885000Y-125048000D01*
X121885000Y-125048000D01*
G37*
G36*
X124485000Y-125048000D02*
X123935000Y-125048000D01*
X123935000Y-123198000D01*
X124485000Y-123198000D01*
X124485000Y-125048000D01*
X124485000Y-125048000D01*
G37*
G36*
X125135000Y-125048000D02*
X124585000Y-125048000D01*
X124585000Y-123198000D01*
X125135000Y-123198000D01*
X125135000Y-125048000D01*
X125135000Y-125048000D01*
G37*
G36*
X125785000Y-125048000D02*
X125235000Y-125048000D01*
X125235000Y-123198000D01*
X125785000Y-123198000D01*
X125785000Y-125048000D01*
X125785000Y-125048000D01*
G37*
G36*
X121235000Y-125048000D02*
X120685000Y-125048000D01*
X120685000Y-123198000D01*
X121235000Y-123198000D01*
X121235000Y-125048000D01*
X121235000Y-125048000D01*
G37*
G36*
X173924800Y-124877400D02*
X172124800Y-124877400D01*
X172124800Y-123077400D01*
X173924800Y-123077400D01*
X173924800Y-124877400D01*
X173924800Y-124877400D01*
G37*
G36*
X175580298Y-123077477D02*
X175580308Y-123077478D01*
X175581721Y-123077488D01*
X175756276Y-123097067D01*
X175923703Y-123150178D01*
X176077625Y-123234798D01*
X176212180Y-123347703D01*
X176322243Y-123484593D01*
X176403620Y-123640254D01*
X176453214Y-123808757D01*
X176453216Y-123808782D01*
X176453218Y-123808788D01*
X176469134Y-123983683D01*
X176450778Y-124158333D01*
X176450776Y-124158338D01*
X176450773Y-124158370D01*
X176398832Y-124326164D01*
X176315289Y-124480674D01*
X176203326Y-124616014D01*
X176067207Y-124727029D01*
X175912118Y-124809491D01*
X175743966Y-124860260D01*
X175569155Y-124877400D01*
X175560377Y-124877400D01*
X175549302Y-124877323D01*
X175549292Y-124877322D01*
X175547879Y-124877312D01*
X175373324Y-124857733D01*
X175205897Y-124804622D01*
X175051975Y-124720002D01*
X174917420Y-124607097D01*
X174807357Y-124470207D01*
X174725980Y-124314546D01*
X174676386Y-124146043D01*
X174676384Y-124146018D01*
X174676382Y-124146012D01*
X174660466Y-123971117D01*
X174678822Y-123796467D01*
X174678824Y-123796462D01*
X174678827Y-123796430D01*
X174730768Y-123628636D01*
X174814311Y-123474126D01*
X174926274Y-123338786D01*
X175062393Y-123227771D01*
X175217482Y-123145309D01*
X175385634Y-123094540D01*
X175560445Y-123077400D01*
X175569223Y-123077400D01*
X175580298Y-123077477D01*
X175580298Y-123077477D01*
G37*
G36*
X185574800Y-124842400D02*
X177924800Y-124842400D01*
X177924800Y-123772400D01*
X185574800Y-123772400D01*
X185574800Y-124842400D01*
X185574800Y-124842400D01*
G37*
G36*
X115360000Y-124771000D02*
X114510000Y-124771000D01*
X114510000Y-123871000D01*
X115360000Y-123871000D01*
X115360000Y-124771000D01*
X115360000Y-124771000D01*
G37*
G36*
X107452827Y-122561067D02*
X107452837Y-122561068D01*
X107454251Y-122561078D01*
X107609410Y-122578482D01*
X107758235Y-122625692D01*
X107895055Y-122700909D01*
X108014659Y-122801269D01*
X108112492Y-122922949D01*
X108184828Y-123061315D01*
X108228911Y-123211095D01*
X108228913Y-123211122D01*
X108228915Y-123211127D01*
X108243063Y-123366585D01*
X108226746Y-123521826D01*
X108226744Y-123521832D01*
X108226741Y-123521862D01*
X108180572Y-123671012D01*
X108106311Y-123808354D01*
X108006788Y-123928657D01*
X107885794Y-124027337D01*
X107747937Y-124100637D01*
X107598468Y-124145764D01*
X107443081Y-124161000D01*
X106932849Y-124161000D01*
X106923173Y-124160933D01*
X106923163Y-124160932D01*
X106921749Y-124160922D01*
X106766590Y-124143518D01*
X106617765Y-124096308D01*
X106480945Y-124021091D01*
X106361341Y-123920731D01*
X106263508Y-123799051D01*
X106191172Y-123660685D01*
X106147089Y-123510905D01*
X106147087Y-123510878D01*
X106147085Y-123510873D01*
X106132937Y-123355415D01*
X106149254Y-123200174D01*
X106149256Y-123200168D01*
X106149259Y-123200138D01*
X106195428Y-123050988D01*
X106269689Y-122913646D01*
X106369212Y-122793343D01*
X106490206Y-122694663D01*
X106628063Y-122621363D01*
X106777532Y-122576236D01*
X106932919Y-122561000D01*
X107443151Y-122561000D01*
X107452827Y-122561067D01*
X107452827Y-122561067D01*
G37*
G36*
X150040933Y-122304022D02*
X150040938Y-122304024D01*
X150040970Y-122304027D01*
X150208764Y-122355968D01*
X150363274Y-122439511D01*
X150498614Y-122551474D01*
X150609629Y-122687593D01*
X150692091Y-122842682D01*
X150742860Y-123010834D01*
X150760000Y-123185645D01*
X150760000Y-123194423D01*
X150759923Y-123205498D01*
X150759922Y-123205508D01*
X150759912Y-123206921D01*
X150740333Y-123381476D01*
X150687222Y-123548903D01*
X150602602Y-123702825D01*
X150489697Y-123837380D01*
X150352807Y-123947443D01*
X150197146Y-124028820D01*
X150028643Y-124078414D01*
X150028618Y-124078416D01*
X150028612Y-124078418D01*
X149853717Y-124094334D01*
X149679067Y-124075978D01*
X149679062Y-124075976D01*
X149679030Y-124075973D01*
X149511236Y-124024032D01*
X149356726Y-123940489D01*
X149221386Y-123828526D01*
X149110371Y-123692407D01*
X149027909Y-123537318D01*
X148977140Y-123369166D01*
X148960000Y-123194355D01*
X148960000Y-123185645D01*
X148960036Y-123180433D01*
X148960077Y-123174502D01*
X148960078Y-123174492D01*
X148960088Y-123173079D01*
X148979667Y-122998524D01*
X149032778Y-122831097D01*
X149117398Y-122677175D01*
X149230303Y-122542620D01*
X149367193Y-122432557D01*
X149522854Y-122351180D01*
X149691357Y-122301586D01*
X149691382Y-122301584D01*
X149691388Y-122301582D01*
X149866283Y-122285666D01*
X150040933Y-122304022D01*
X150040933Y-122304022D01*
G37*
G36*
X132260933Y-122304022D02*
X132260938Y-122304024D01*
X132260970Y-122304027D01*
X132428764Y-122355968D01*
X132583274Y-122439511D01*
X132718614Y-122551474D01*
X132829629Y-122687593D01*
X132912091Y-122842682D01*
X132962860Y-123010834D01*
X132980000Y-123185645D01*
X132980000Y-123194423D01*
X132979923Y-123205498D01*
X132979922Y-123205508D01*
X132979912Y-123206921D01*
X132960333Y-123381476D01*
X132907222Y-123548903D01*
X132822602Y-123702825D01*
X132709697Y-123837380D01*
X132572807Y-123947443D01*
X132417146Y-124028820D01*
X132248643Y-124078414D01*
X132248618Y-124078416D01*
X132248612Y-124078418D01*
X132073717Y-124094334D01*
X131899067Y-124075978D01*
X131899062Y-124075976D01*
X131899030Y-124075973D01*
X131731236Y-124024032D01*
X131576726Y-123940489D01*
X131441386Y-123828526D01*
X131330371Y-123692407D01*
X131247909Y-123537318D01*
X131197140Y-123369166D01*
X131180000Y-123194355D01*
X131180000Y-123185645D01*
X131180036Y-123180433D01*
X131180077Y-123174502D01*
X131180078Y-123174492D01*
X131180088Y-123173079D01*
X131199667Y-122998524D01*
X131252778Y-122831097D01*
X131337398Y-122677175D01*
X131450303Y-122542620D01*
X131587193Y-122432557D01*
X131742854Y-122351180D01*
X131911357Y-122301586D01*
X131911382Y-122301584D01*
X131911388Y-122301582D01*
X132086283Y-122285666D01*
X132260933Y-122304022D01*
X132260933Y-122304022D01*
G37*
G36*
X152580933Y-122304022D02*
X152580938Y-122304024D01*
X152580970Y-122304027D01*
X152748764Y-122355968D01*
X152903274Y-122439511D01*
X153038614Y-122551474D01*
X153149629Y-122687593D01*
X153232091Y-122842682D01*
X153282860Y-123010834D01*
X153300000Y-123185645D01*
X153300000Y-123194423D01*
X153299923Y-123205498D01*
X153299922Y-123205508D01*
X153299912Y-123206921D01*
X153280333Y-123381476D01*
X153227222Y-123548903D01*
X153142602Y-123702825D01*
X153029697Y-123837380D01*
X152892807Y-123947443D01*
X152737146Y-124028820D01*
X152568643Y-124078414D01*
X152568618Y-124078416D01*
X152568612Y-124078418D01*
X152393717Y-124094334D01*
X152219067Y-124075978D01*
X152219062Y-124075976D01*
X152219030Y-124075973D01*
X152051236Y-124024032D01*
X151896726Y-123940489D01*
X151761386Y-123828526D01*
X151650371Y-123692407D01*
X151567909Y-123537318D01*
X151517140Y-123369166D01*
X151500000Y-123194355D01*
X151500000Y-123185645D01*
X151500036Y-123180433D01*
X151500077Y-123174502D01*
X151500078Y-123174492D01*
X151500088Y-123173079D01*
X151519667Y-122998524D01*
X151572778Y-122831097D01*
X151657398Y-122677175D01*
X151770303Y-122542620D01*
X151907193Y-122432557D01*
X152062854Y-122351180D01*
X152231357Y-122301586D01*
X152231382Y-122301584D01*
X152231388Y-122301582D01*
X152406283Y-122285666D01*
X152580933Y-122304022D01*
X152580933Y-122304022D01*
G37*
G36*
X134800933Y-122304022D02*
X134800938Y-122304024D01*
X134800970Y-122304027D01*
X134968764Y-122355968D01*
X135123274Y-122439511D01*
X135258614Y-122551474D01*
X135369629Y-122687593D01*
X135452091Y-122842682D01*
X135502860Y-123010834D01*
X135520000Y-123185645D01*
X135520000Y-123194423D01*
X135519923Y-123205498D01*
X135519922Y-123205508D01*
X135519912Y-123206921D01*
X135500333Y-123381476D01*
X135447222Y-123548903D01*
X135362602Y-123702825D01*
X135249697Y-123837380D01*
X135112807Y-123947443D01*
X134957146Y-124028820D01*
X134788643Y-124078414D01*
X134788618Y-124078416D01*
X134788612Y-124078418D01*
X134613717Y-124094334D01*
X134439067Y-124075978D01*
X134439062Y-124075976D01*
X134439030Y-124075973D01*
X134271236Y-124024032D01*
X134116726Y-123940489D01*
X133981386Y-123828526D01*
X133870371Y-123692407D01*
X133787909Y-123537318D01*
X133737140Y-123369166D01*
X133720000Y-123194355D01*
X133720000Y-123185645D01*
X133720036Y-123180433D01*
X133720077Y-123174502D01*
X133720078Y-123174492D01*
X133720088Y-123173079D01*
X133739667Y-122998524D01*
X133792778Y-122831097D01*
X133877398Y-122677175D01*
X133990303Y-122542620D01*
X134127193Y-122432557D01*
X134282854Y-122351180D01*
X134451357Y-122301586D01*
X134451382Y-122301584D01*
X134451388Y-122301582D01*
X134626283Y-122285666D01*
X134800933Y-122304022D01*
X134800933Y-122304022D01*
G37*
G36*
X137340933Y-122304022D02*
X137340938Y-122304024D01*
X137340970Y-122304027D01*
X137508764Y-122355968D01*
X137663274Y-122439511D01*
X137798614Y-122551474D01*
X137909629Y-122687593D01*
X137992091Y-122842682D01*
X138042860Y-123010834D01*
X138060000Y-123185645D01*
X138060000Y-123194423D01*
X138059923Y-123205498D01*
X138059922Y-123205508D01*
X138059912Y-123206921D01*
X138040333Y-123381476D01*
X137987222Y-123548903D01*
X137902602Y-123702825D01*
X137789697Y-123837380D01*
X137652807Y-123947443D01*
X137497146Y-124028820D01*
X137328643Y-124078414D01*
X137328618Y-124078416D01*
X137328612Y-124078418D01*
X137153717Y-124094334D01*
X136979067Y-124075978D01*
X136979062Y-124075976D01*
X136979030Y-124075973D01*
X136811236Y-124024032D01*
X136656726Y-123940489D01*
X136521386Y-123828526D01*
X136410371Y-123692407D01*
X136327909Y-123537318D01*
X136277140Y-123369166D01*
X136260000Y-123194355D01*
X136260000Y-123185645D01*
X136260036Y-123180433D01*
X136260077Y-123174502D01*
X136260078Y-123174492D01*
X136260088Y-123173079D01*
X136279667Y-122998524D01*
X136332778Y-122831097D01*
X136417398Y-122677175D01*
X136530303Y-122542620D01*
X136667193Y-122432557D01*
X136822854Y-122351180D01*
X136991357Y-122301586D01*
X136991382Y-122301584D01*
X136991388Y-122301582D01*
X137166283Y-122285666D01*
X137340933Y-122304022D01*
X137340933Y-122304022D01*
G37*
G36*
X144960933Y-122304022D02*
X144960938Y-122304024D01*
X144960970Y-122304027D01*
X145128764Y-122355968D01*
X145283274Y-122439511D01*
X145418614Y-122551474D01*
X145529629Y-122687593D01*
X145612091Y-122842682D01*
X145662860Y-123010834D01*
X145680000Y-123185645D01*
X145680000Y-123194423D01*
X145679923Y-123205498D01*
X145679922Y-123205508D01*
X145679912Y-123206921D01*
X145660333Y-123381476D01*
X145607222Y-123548903D01*
X145522602Y-123702825D01*
X145409697Y-123837380D01*
X145272807Y-123947443D01*
X145117146Y-124028820D01*
X144948643Y-124078414D01*
X144948618Y-124078416D01*
X144948612Y-124078418D01*
X144773717Y-124094334D01*
X144599067Y-124075978D01*
X144599062Y-124075976D01*
X144599030Y-124075973D01*
X144431236Y-124024032D01*
X144276726Y-123940489D01*
X144141386Y-123828526D01*
X144030371Y-123692407D01*
X143947909Y-123537318D01*
X143897140Y-123369166D01*
X143880000Y-123194355D01*
X143880000Y-123185645D01*
X143880036Y-123180433D01*
X143880077Y-123174502D01*
X143880078Y-123174492D01*
X143880088Y-123173079D01*
X143899667Y-122998524D01*
X143952778Y-122831097D01*
X144037398Y-122677175D01*
X144150303Y-122542620D01*
X144287193Y-122432557D01*
X144442854Y-122351180D01*
X144611357Y-122301586D01*
X144611382Y-122301584D01*
X144611388Y-122301582D01*
X144786283Y-122285666D01*
X144960933Y-122304022D01*
X144960933Y-122304022D01*
G37*
G36*
X142420933Y-122304022D02*
X142420938Y-122304024D01*
X142420970Y-122304027D01*
X142588764Y-122355968D01*
X142743274Y-122439511D01*
X142878614Y-122551474D01*
X142989629Y-122687593D01*
X143072091Y-122842682D01*
X143122860Y-123010834D01*
X143140000Y-123185645D01*
X143140000Y-123194423D01*
X143139923Y-123205498D01*
X143139922Y-123205508D01*
X143139912Y-123206921D01*
X143120333Y-123381476D01*
X143067222Y-123548903D01*
X142982602Y-123702825D01*
X142869697Y-123837380D01*
X142732807Y-123947443D01*
X142577146Y-124028820D01*
X142408643Y-124078414D01*
X142408618Y-124078416D01*
X142408612Y-124078418D01*
X142233717Y-124094334D01*
X142059067Y-124075978D01*
X142059062Y-124075976D01*
X142059030Y-124075973D01*
X141891236Y-124024032D01*
X141736726Y-123940489D01*
X141601386Y-123828526D01*
X141490371Y-123692407D01*
X141407909Y-123537318D01*
X141357140Y-123369166D01*
X141340000Y-123194355D01*
X141340000Y-123185645D01*
X141340036Y-123180433D01*
X141340077Y-123174502D01*
X141340078Y-123174492D01*
X141340088Y-123173079D01*
X141359667Y-122998524D01*
X141412778Y-122831097D01*
X141497398Y-122677175D01*
X141610303Y-122542620D01*
X141747193Y-122432557D01*
X141902854Y-122351180D01*
X142071357Y-122301586D01*
X142071382Y-122301584D01*
X142071388Y-122301582D01*
X142246283Y-122285666D01*
X142420933Y-122304022D01*
X142420933Y-122304022D01*
G37*
G36*
X139880933Y-122304022D02*
X139880938Y-122304024D01*
X139880970Y-122304027D01*
X140048764Y-122355968D01*
X140203274Y-122439511D01*
X140338614Y-122551474D01*
X140449629Y-122687593D01*
X140532091Y-122842682D01*
X140582860Y-123010834D01*
X140600000Y-123185645D01*
X140600000Y-123194423D01*
X140599923Y-123205498D01*
X140599922Y-123205508D01*
X140599912Y-123206921D01*
X140580333Y-123381476D01*
X140527222Y-123548903D01*
X140442602Y-123702825D01*
X140329697Y-123837380D01*
X140192807Y-123947443D01*
X140037146Y-124028820D01*
X139868643Y-124078414D01*
X139868618Y-124078416D01*
X139868612Y-124078418D01*
X139693717Y-124094334D01*
X139519067Y-124075978D01*
X139519062Y-124075976D01*
X139519030Y-124075973D01*
X139351236Y-124024032D01*
X139196726Y-123940489D01*
X139061386Y-123828526D01*
X138950371Y-123692407D01*
X138867909Y-123537318D01*
X138817140Y-123369166D01*
X138800000Y-123194355D01*
X138800000Y-123185645D01*
X138800036Y-123180433D01*
X138800077Y-123174502D01*
X138800078Y-123174492D01*
X138800088Y-123173079D01*
X138819667Y-122998524D01*
X138872778Y-122831097D01*
X138957398Y-122677175D01*
X139070303Y-122542620D01*
X139207193Y-122432557D01*
X139362854Y-122351180D01*
X139531357Y-122301586D01*
X139531382Y-122301584D01*
X139531388Y-122301582D01*
X139706283Y-122285666D01*
X139880933Y-122304022D01*
X139880933Y-122304022D01*
G37*
G36*
X147500933Y-122304022D02*
X147500938Y-122304024D01*
X147500970Y-122304027D01*
X147668764Y-122355968D01*
X147823274Y-122439511D01*
X147958614Y-122551474D01*
X148069629Y-122687593D01*
X148152091Y-122842682D01*
X148202860Y-123010834D01*
X148220000Y-123185645D01*
X148220000Y-123194423D01*
X148219923Y-123205498D01*
X148219922Y-123205508D01*
X148219912Y-123206921D01*
X148200333Y-123381476D01*
X148147222Y-123548903D01*
X148062602Y-123702825D01*
X147949697Y-123837380D01*
X147812807Y-123947443D01*
X147657146Y-124028820D01*
X147488643Y-124078414D01*
X147488618Y-124078416D01*
X147488612Y-124078418D01*
X147313717Y-124094334D01*
X147139067Y-124075978D01*
X147139062Y-124075976D01*
X147139030Y-124075973D01*
X146971236Y-124024032D01*
X146816726Y-123940489D01*
X146681386Y-123828526D01*
X146570371Y-123692407D01*
X146487909Y-123537318D01*
X146437140Y-123369166D01*
X146420000Y-123194355D01*
X146420000Y-123185645D01*
X146420036Y-123180433D01*
X146420077Y-123174502D01*
X146420078Y-123174492D01*
X146420088Y-123173079D01*
X146439667Y-122998524D01*
X146492778Y-122831097D01*
X146577398Y-122677175D01*
X146690303Y-122542620D01*
X146827193Y-122432557D01*
X146982854Y-122351180D01*
X147151357Y-122301586D01*
X147151382Y-122301584D01*
X147151388Y-122301582D01*
X147326283Y-122285666D01*
X147500933Y-122304022D01*
X147500933Y-122304022D01*
G37*
G36*
X130440000Y-124090000D02*
X128640000Y-124090000D01*
X128640000Y-122290000D01*
X130440000Y-122290000D01*
X130440000Y-124090000D01*
X130440000Y-124090000D01*
G37*
G36*
X157368498Y-122099577D02*
X157368508Y-122099578D01*
X157369921Y-122099588D01*
X157544476Y-122119167D01*
X157711903Y-122172278D01*
X157865825Y-122256898D01*
X158000380Y-122369803D01*
X158110443Y-122506693D01*
X158191820Y-122662354D01*
X158241414Y-122830857D01*
X158241416Y-122830882D01*
X158241418Y-122830888D01*
X158257334Y-123005783D01*
X158238978Y-123180433D01*
X158238976Y-123180438D01*
X158238973Y-123180470D01*
X158187032Y-123348264D01*
X158103489Y-123502774D01*
X157991526Y-123638114D01*
X157855407Y-123749129D01*
X157700318Y-123831591D01*
X157532166Y-123882360D01*
X157357355Y-123899500D01*
X157348577Y-123899500D01*
X157337502Y-123899423D01*
X157337492Y-123899422D01*
X157336079Y-123899412D01*
X157161524Y-123879833D01*
X156994097Y-123826722D01*
X156840175Y-123742102D01*
X156705620Y-123629197D01*
X156595557Y-123492307D01*
X156514180Y-123336646D01*
X156464586Y-123168143D01*
X156464584Y-123168118D01*
X156464582Y-123168112D01*
X156448666Y-122993217D01*
X156467022Y-122818567D01*
X156467024Y-122818562D01*
X156467027Y-122818530D01*
X156518968Y-122650736D01*
X156602511Y-122496226D01*
X156714474Y-122360886D01*
X156850593Y-122249871D01*
X157005682Y-122167409D01*
X157173834Y-122116640D01*
X157348645Y-122099500D01*
X157357423Y-122099500D01*
X157368498Y-122099577D01*
X157368498Y-122099577D01*
G37*
G36*
X115360000Y-123271000D02*
X114510000Y-123271000D01*
X114510000Y-122371000D01*
X115360000Y-122371000D01*
X115360000Y-123271000D01*
X115360000Y-123271000D01*
G37*
G36*
X181124800Y-122857400D02*
X177924800Y-122857400D01*
X177924800Y-121287400D01*
X181124800Y-121287400D01*
X181124800Y-122857400D01*
X181124800Y-122857400D01*
G37*
G36*
X110298341Y-121586048D02*
X110298342Y-121586048D01*
X110299764Y-121586058D01*
X110416134Y-121599111D01*
X110527752Y-121634519D01*
X110630367Y-121690932D01*
X110720071Y-121766202D01*
X110793446Y-121857462D01*
X110847697Y-121961236D01*
X110880759Y-122073571D01*
X110880761Y-122073598D01*
X110880763Y-122073603D01*
X110891374Y-122190189D01*
X110879137Y-122306610D01*
X110879135Y-122306615D01*
X110879132Y-122306647D01*
X110844505Y-122418509D01*
X110788810Y-122521516D01*
X110714168Y-122611742D01*
X110623422Y-122685753D01*
X110520029Y-122740728D01*
X110407928Y-122774573D01*
X110291387Y-122786000D01*
X110084546Y-122786000D01*
X110077659Y-122785952D01*
X110077658Y-122785952D01*
X110076236Y-122785942D01*
X109959866Y-122772889D01*
X109848248Y-122737481D01*
X109745633Y-122681068D01*
X109655929Y-122605798D01*
X109582554Y-122514538D01*
X109528303Y-122410764D01*
X109495241Y-122298429D01*
X109495239Y-122298402D01*
X109495237Y-122298397D01*
X109484626Y-122181811D01*
X109496863Y-122065390D01*
X109496865Y-122065385D01*
X109496868Y-122065353D01*
X109531495Y-121953491D01*
X109587190Y-121850484D01*
X109661832Y-121760258D01*
X109752578Y-121686247D01*
X109855971Y-121631272D01*
X109968072Y-121597427D01*
X110084613Y-121586000D01*
X110291454Y-121586000D01*
X110298341Y-121586048D01*
X110298341Y-121586048D01*
G37*
G36*
X138601000Y-121469000D02*
X137751000Y-121469000D01*
X137751000Y-120569000D01*
X138601000Y-120569000D01*
X138601000Y-121469000D01*
X138601000Y-121469000D01*
G37*
G36*
X157368498Y-119559577D02*
X157368508Y-119559578D01*
X157369921Y-119559588D01*
X157544476Y-119579167D01*
X157711903Y-119632278D01*
X157865825Y-119716898D01*
X158000380Y-119829803D01*
X158110443Y-119966693D01*
X158191820Y-120122354D01*
X158241414Y-120290857D01*
X158241416Y-120290882D01*
X158241418Y-120290888D01*
X158257334Y-120465783D01*
X158238978Y-120640433D01*
X158238976Y-120640438D01*
X158238973Y-120640470D01*
X158187032Y-120808264D01*
X158103489Y-120962774D01*
X157991526Y-121098114D01*
X157855407Y-121209129D01*
X157700318Y-121291591D01*
X157532166Y-121342360D01*
X157357355Y-121359500D01*
X157348577Y-121359500D01*
X157337502Y-121359423D01*
X157337492Y-121359422D01*
X157336079Y-121359412D01*
X157161524Y-121339833D01*
X156994097Y-121286722D01*
X156840175Y-121202102D01*
X156705620Y-121089197D01*
X156595557Y-120952307D01*
X156514180Y-120796646D01*
X156464586Y-120628143D01*
X156464584Y-120628118D01*
X156464582Y-120628112D01*
X156448666Y-120453217D01*
X156467022Y-120278567D01*
X156467024Y-120278562D01*
X156467027Y-120278530D01*
X156518968Y-120110736D01*
X156602511Y-119956226D01*
X156714474Y-119820886D01*
X156850593Y-119709871D01*
X157005682Y-119627409D01*
X157173834Y-119576640D01*
X157348645Y-119559500D01*
X157357423Y-119559500D01*
X157368498Y-119559577D01*
X157368498Y-119559577D01*
G37*
G36*
X144697000Y-121342000D02*
X143847000Y-121342000D01*
X143847000Y-120442000D01*
X144697000Y-120442000D01*
X144697000Y-121342000D01*
X144697000Y-121342000D01*
G37*
G36*
X110588000Y-121311000D02*
X109138000Y-121311000D01*
X109138000Y-120811000D01*
X110588000Y-120811000D01*
X110588000Y-121311000D01*
X110588000Y-121311000D01*
G37*
G36*
X131122000Y-120896000D02*
X130522000Y-120896000D01*
X130522000Y-119896000D01*
X131122000Y-119896000D01*
X131122000Y-120896000D01*
X131122000Y-120896000D01*
G37*
G36*
X132622000Y-120896000D02*
X132022000Y-120896000D01*
X132022000Y-119896000D01*
X132622000Y-119896000D01*
X132622000Y-120896000D01*
X132622000Y-120896000D01*
G37*
G36*
X128174000Y-120846000D02*
X127274000Y-120846000D01*
X127274000Y-119946000D01*
X128174000Y-119946000D01*
X128174000Y-120846000D01*
X128174000Y-120846000D01*
G37*
G36*
X129774000Y-120846000D02*
X128874000Y-120846000D01*
X128874000Y-119946000D01*
X129774000Y-119946000D01*
X129774000Y-120846000D01*
X129774000Y-120846000D01*
G37*
G36*
X110588000Y-120661000D02*
X109138000Y-120661000D01*
X109138000Y-120161000D01*
X110588000Y-120161000D01*
X110588000Y-120661000D01*
X110588000Y-120661000D01*
G37*
G36*
X185574800Y-120372400D02*
X177924800Y-120372400D01*
X177924800Y-119302400D01*
X185574800Y-119302400D01*
X185574800Y-120372400D01*
X185574800Y-120372400D01*
G37*
G36*
X110588000Y-120011000D02*
X109138000Y-120011000D01*
X109138000Y-119511000D01*
X110588000Y-119511000D01*
X110588000Y-120011000D01*
X110588000Y-120011000D01*
G37*
G36*
X138601000Y-119969000D02*
X137751000Y-119969000D01*
X137751000Y-119069000D01*
X138601000Y-119069000D01*
X138601000Y-119969000D01*
X138601000Y-119969000D01*
G37*
G36*
X144697000Y-119842000D02*
X143847000Y-119842000D01*
X143847000Y-118942000D01*
X144697000Y-118942000D01*
X144697000Y-119842000D01*
X144697000Y-119842000D01*
G37*
G36*
X131122000Y-119372000D02*
X130522000Y-119372000D01*
X130522000Y-118372000D01*
X131122000Y-118372000D01*
X131122000Y-119372000D01*
X131122000Y-119372000D01*
G37*
G36*
X132622000Y-119372000D02*
X132022000Y-119372000D01*
X132022000Y-118372000D01*
X132622000Y-118372000D01*
X132622000Y-119372000D01*
X132622000Y-119372000D01*
G37*
G36*
X110588000Y-119361000D02*
X109138000Y-119361000D01*
X109138000Y-118861000D01*
X110588000Y-118861000D01*
X110588000Y-119361000D01*
X110588000Y-119361000D01*
G37*
G36*
X129774000Y-119322000D02*
X128874000Y-119322000D01*
X128874000Y-118422000D01*
X129774000Y-118422000D01*
X129774000Y-119322000D01*
X129774000Y-119322000D01*
G37*
G36*
X128174000Y-119322000D02*
X127274000Y-119322000D01*
X127274000Y-118422000D01*
X128174000Y-118422000D01*
X128174000Y-119322000D01*
X128174000Y-119322000D01*
G37*
G36*
X157368498Y-117019577D02*
X157368508Y-117019578D01*
X157369921Y-117019588D01*
X157544476Y-117039167D01*
X157711903Y-117092278D01*
X157865825Y-117176898D01*
X158000380Y-117289803D01*
X158110443Y-117426693D01*
X158191820Y-117582354D01*
X158241414Y-117750857D01*
X158241416Y-117750882D01*
X158241418Y-117750888D01*
X158257334Y-117925783D01*
X158238978Y-118100433D01*
X158238976Y-118100438D01*
X158238973Y-118100470D01*
X158187032Y-118268264D01*
X158103489Y-118422774D01*
X157991526Y-118558114D01*
X157855407Y-118669129D01*
X157700318Y-118751591D01*
X157532166Y-118802360D01*
X157357355Y-118819500D01*
X157348577Y-118819500D01*
X157337502Y-118819423D01*
X157337492Y-118819422D01*
X157336079Y-118819412D01*
X157161524Y-118799833D01*
X156994097Y-118746722D01*
X156840175Y-118662102D01*
X156705620Y-118549197D01*
X156595557Y-118412307D01*
X156514180Y-118256646D01*
X156464586Y-118088143D01*
X156464584Y-118088118D01*
X156464582Y-118088112D01*
X156448666Y-117913217D01*
X156467022Y-117738567D01*
X156467024Y-117738562D01*
X156467027Y-117738530D01*
X156518968Y-117570736D01*
X156602511Y-117416226D01*
X156714474Y-117280886D01*
X156850593Y-117169871D01*
X157005682Y-117087409D01*
X157173834Y-117036640D01*
X157348645Y-117019500D01*
X157357423Y-117019500D01*
X157368498Y-117019577D01*
X157368498Y-117019577D01*
G37*
G36*
X110588000Y-118711000D02*
X109138000Y-118711000D01*
X109138000Y-118211000D01*
X110588000Y-118211000D01*
X110588000Y-118711000D01*
X110588000Y-118711000D01*
G37*
G36*
X114471000Y-118421000D02*
X113621000Y-118421000D01*
X113621000Y-117521000D01*
X114471000Y-117521000D01*
X114471000Y-118421000D01*
X114471000Y-118421000D01*
G37*
G36*
X110298341Y-116736048D02*
X110298342Y-116736048D01*
X110299764Y-116736058D01*
X110416134Y-116749111D01*
X110527752Y-116784519D01*
X110630367Y-116840932D01*
X110720071Y-116916202D01*
X110793446Y-117007462D01*
X110847697Y-117111236D01*
X110880759Y-117223571D01*
X110880761Y-117223598D01*
X110880763Y-117223603D01*
X110891374Y-117340189D01*
X110879137Y-117456610D01*
X110879135Y-117456615D01*
X110879132Y-117456647D01*
X110844505Y-117568509D01*
X110788810Y-117671516D01*
X110714168Y-117761742D01*
X110623422Y-117835753D01*
X110520029Y-117890728D01*
X110407928Y-117924573D01*
X110291387Y-117936000D01*
X110084546Y-117936000D01*
X110077659Y-117935952D01*
X110077658Y-117935952D01*
X110076236Y-117935942D01*
X109959866Y-117922889D01*
X109848248Y-117887481D01*
X109745633Y-117831068D01*
X109655929Y-117755798D01*
X109582554Y-117664538D01*
X109528303Y-117560764D01*
X109495241Y-117448429D01*
X109495239Y-117448402D01*
X109495237Y-117448397D01*
X109484626Y-117331811D01*
X109496863Y-117215390D01*
X109496865Y-117215385D01*
X109496868Y-117215353D01*
X109531495Y-117103491D01*
X109587190Y-117000484D01*
X109661832Y-116910258D01*
X109752578Y-116836247D01*
X109855971Y-116781272D01*
X109968072Y-116747427D01*
X110084613Y-116736000D01*
X110291454Y-116736000D01*
X110298341Y-116736048D01*
X110298341Y-116736048D01*
G37*
G36*
X119285000Y-117848000D02*
X118735000Y-117848000D01*
X118735000Y-115998000D01*
X119285000Y-115998000D01*
X119285000Y-117848000D01*
X119285000Y-117848000D01*
G37*
G36*
X125785000Y-117848000D02*
X125235000Y-117848000D01*
X125235000Y-115998000D01*
X125785000Y-115998000D01*
X125785000Y-117848000D01*
X125785000Y-117848000D01*
G37*
G36*
X125135000Y-117848000D02*
X124585000Y-117848000D01*
X124585000Y-115998000D01*
X125135000Y-115998000D01*
X125135000Y-117848000D01*
X125135000Y-117848000D01*
G37*
G36*
X121885000Y-117848000D02*
X121335000Y-117848000D01*
X121335000Y-115998000D01*
X121885000Y-115998000D01*
X121885000Y-117848000D01*
X121885000Y-117848000D01*
G37*
G36*
X117335000Y-117848000D02*
X116785000Y-117848000D01*
X116785000Y-115998000D01*
X117335000Y-115998000D01*
X117335000Y-117848000D01*
X117335000Y-117848000D01*
G37*
G36*
X117985000Y-117848000D02*
X117435000Y-117848000D01*
X117435000Y-115998000D01*
X117985000Y-115998000D01*
X117985000Y-117848000D01*
X117985000Y-117848000D01*
G37*
G36*
X118635000Y-117848000D02*
X118085000Y-117848000D01*
X118085000Y-115998000D01*
X118635000Y-115998000D01*
X118635000Y-117848000D01*
X118635000Y-117848000D01*
G37*
G36*
X119935000Y-117848000D02*
X119385000Y-117848000D01*
X119385000Y-115998000D01*
X119935000Y-115998000D01*
X119935000Y-117848000D01*
X119935000Y-117848000D01*
G37*
G36*
X120585000Y-117848000D02*
X120035000Y-117848000D01*
X120035000Y-115998000D01*
X120585000Y-115998000D01*
X120585000Y-117848000D01*
X120585000Y-117848000D01*
G37*
G36*
X121235000Y-117848000D02*
X120685000Y-117848000D01*
X120685000Y-115998000D01*
X121235000Y-115998000D01*
X121235000Y-117848000D01*
X121235000Y-117848000D01*
G37*
G36*
X122535000Y-117848000D02*
X121985000Y-117848000D01*
X121985000Y-115998000D01*
X122535000Y-115998000D01*
X122535000Y-117848000D01*
X122535000Y-117848000D01*
G37*
G36*
X123185000Y-117848000D02*
X122635000Y-117848000D01*
X122635000Y-115998000D01*
X123185000Y-115998000D01*
X123185000Y-117848000D01*
X123185000Y-117848000D01*
G37*
G36*
X123835000Y-117848000D02*
X123285000Y-117848000D01*
X123285000Y-115998000D01*
X123835000Y-115998000D01*
X123835000Y-117848000D01*
X123835000Y-117848000D01*
G37*
G36*
X124485000Y-117848000D02*
X123935000Y-117848000D01*
X123935000Y-115998000D01*
X124485000Y-115998000D01*
X124485000Y-117848000D01*
X124485000Y-117848000D01*
G37*
G36*
X142898000Y-117666000D02*
X142518000Y-117666000D01*
X142518000Y-116066000D01*
X142898000Y-116066000D01*
X142898000Y-117666000D01*
X142898000Y-117666000D01*
G37*
G36*
X143398000Y-117666000D02*
X143018000Y-117666000D01*
X143018000Y-116066000D01*
X143398000Y-116066000D01*
X143398000Y-117666000D01*
X143398000Y-117666000D01*
G37*
G36*
X143898000Y-117666000D02*
X143518000Y-117666000D01*
X143518000Y-116066000D01*
X143898000Y-116066000D01*
X143898000Y-117666000D01*
X143898000Y-117666000D01*
G37*
G36*
X134898000Y-117666000D02*
X134518000Y-117666000D01*
X134518000Y-116066000D01*
X134898000Y-116066000D01*
X134898000Y-117666000D01*
X134898000Y-117666000D01*
G37*
G36*
X136398000Y-117666000D02*
X136018000Y-117666000D01*
X136018000Y-116066000D01*
X136398000Y-116066000D01*
X136398000Y-117666000D01*
X136398000Y-117666000D01*
G37*
G36*
X138398000Y-117666000D02*
X138018000Y-117666000D01*
X138018000Y-116066000D01*
X138398000Y-116066000D01*
X138398000Y-117666000D01*
X138398000Y-117666000D01*
G37*
G36*
X137898000Y-117666000D02*
X137518000Y-117666000D01*
X137518000Y-116066000D01*
X137898000Y-116066000D01*
X137898000Y-117666000D01*
X137898000Y-117666000D01*
G37*
G36*
X137398000Y-117666000D02*
X137018000Y-117666000D01*
X137018000Y-116066000D01*
X137398000Y-116066000D01*
X137398000Y-117666000D01*
X137398000Y-117666000D01*
G37*
G36*
X136898000Y-117666000D02*
X136518000Y-117666000D01*
X136518000Y-116066000D01*
X136898000Y-116066000D01*
X136898000Y-117666000D01*
X136898000Y-117666000D01*
G37*
G36*
X135898000Y-117666000D02*
X135518000Y-117666000D01*
X135518000Y-116066000D01*
X135898000Y-116066000D01*
X135898000Y-117666000D01*
X135898000Y-117666000D01*
G37*
G36*
X135398000Y-117666000D02*
X135018000Y-117666000D01*
X135018000Y-116066000D01*
X135398000Y-116066000D01*
X135398000Y-117666000D01*
X135398000Y-117666000D01*
G37*
G36*
X134398000Y-117666000D02*
X134018000Y-117666000D01*
X134018000Y-116066000D01*
X134398000Y-116066000D01*
X134398000Y-117666000D01*
X134398000Y-117666000D01*
G37*
G36*
X141898000Y-117666000D02*
X141518000Y-117666000D01*
X141518000Y-116066000D01*
X141898000Y-116066000D01*
X141898000Y-117666000D01*
X141898000Y-117666000D01*
G37*
G36*
X142398000Y-117666000D02*
X142018000Y-117666000D01*
X142018000Y-116066000D01*
X142398000Y-116066000D01*
X142398000Y-117666000D01*
X142398000Y-117666000D01*
G37*
G36*
X145398000Y-117666000D02*
X145018000Y-117666000D01*
X145018000Y-116066000D01*
X145398000Y-116066000D01*
X145398000Y-117666000D01*
X145398000Y-117666000D01*
G37*
G36*
X145898000Y-117666000D02*
X145518000Y-117666000D01*
X145518000Y-116066000D01*
X145898000Y-116066000D01*
X145898000Y-117666000D01*
X145898000Y-117666000D01*
G37*
G36*
X144398000Y-117666000D02*
X144018000Y-117666000D01*
X144018000Y-116066000D01*
X144398000Y-116066000D01*
X144398000Y-117666000D01*
X144398000Y-117666000D01*
G37*
G36*
X146398000Y-117666000D02*
X146018000Y-117666000D01*
X146018000Y-116066000D01*
X146398000Y-116066000D01*
X146398000Y-117666000D01*
X146398000Y-117666000D01*
G37*
G36*
X138898000Y-117666000D02*
X138518000Y-117666000D01*
X138518000Y-116066000D01*
X138898000Y-116066000D01*
X138898000Y-117666000D01*
X138898000Y-117666000D01*
G37*
G36*
X144898000Y-117666000D02*
X144518000Y-117666000D01*
X144518000Y-116066000D01*
X144898000Y-116066000D01*
X144898000Y-117666000D01*
X144898000Y-117666000D01*
G37*
G36*
X139398000Y-117666000D02*
X139018000Y-117666000D01*
X139018000Y-116066000D01*
X139398000Y-116066000D01*
X139398000Y-117666000D01*
X139398000Y-117666000D01*
G37*
G36*
X141398000Y-117666000D02*
X141018000Y-117666000D01*
X141018000Y-116066000D01*
X141398000Y-116066000D01*
X141398000Y-117666000D01*
X141398000Y-117666000D01*
G37*
G36*
X140898000Y-117666000D02*
X140518000Y-117666000D01*
X140518000Y-116066000D01*
X140898000Y-116066000D01*
X140898000Y-117666000D01*
X140898000Y-117666000D01*
G37*
G36*
X139898000Y-117666000D02*
X139518000Y-117666000D01*
X139518000Y-116066000D01*
X139898000Y-116066000D01*
X139898000Y-117666000D01*
X139898000Y-117666000D01*
G37*
G36*
X140398000Y-117666000D02*
X140018000Y-117666000D01*
X140018000Y-116066000D01*
X140398000Y-116066000D01*
X140398000Y-117666000D01*
X140398000Y-117666000D01*
G37*
G36*
X173924800Y-117257400D02*
X172124800Y-117257400D01*
X172124800Y-115457400D01*
X173924800Y-115457400D01*
X173924800Y-117257400D01*
X173924800Y-117257400D01*
G37*
G36*
X175580298Y-115457477D02*
X175580308Y-115457478D01*
X175581721Y-115457488D01*
X175756276Y-115477067D01*
X175923703Y-115530178D01*
X176077625Y-115614798D01*
X176212180Y-115727703D01*
X176322243Y-115864593D01*
X176403620Y-116020254D01*
X176453214Y-116188757D01*
X176453216Y-116188782D01*
X176453218Y-116188788D01*
X176469134Y-116363683D01*
X176450778Y-116538333D01*
X176450776Y-116538338D01*
X176450773Y-116538370D01*
X176398832Y-116706164D01*
X176315289Y-116860674D01*
X176203326Y-116996014D01*
X176067207Y-117107029D01*
X175912118Y-117189491D01*
X175743966Y-117240260D01*
X175569155Y-117257400D01*
X175560377Y-117257400D01*
X175549302Y-117257323D01*
X175549292Y-117257322D01*
X175547879Y-117257312D01*
X175373324Y-117237733D01*
X175205897Y-117184622D01*
X175051975Y-117100002D01*
X174917420Y-116987097D01*
X174807357Y-116850207D01*
X174725980Y-116694546D01*
X174676386Y-116526043D01*
X174676384Y-116526018D01*
X174676382Y-116526012D01*
X174660466Y-116351117D01*
X174678822Y-116176467D01*
X174678824Y-116176462D01*
X174678827Y-116176430D01*
X174730768Y-116008636D01*
X174814311Y-115854126D01*
X174926274Y-115718786D01*
X175062393Y-115607771D01*
X175217482Y-115525309D01*
X175385634Y-115474540D01*
X175560445Y-115457400D01*
X175569223Y-115457400D01*
X175580298Y-115457477D01*
X175580298Y-115457477D01*
G37*
G36*
X185574800Y-117222400D02*
X177924800Y-117222400D01*
X177924800Y-116152400D01*
X185574800Y-116152400D01*
X185574800Y-117222400D01*
X185574800Y-117222400D01*
G37*
G36*
X153808000Y-116978000D02*
X152008000Y-116978000D01*
X152008000Y-115178000D01*
X153808000Y-115178000D01*
X153808000Y-116978000D01*
X153808000Y-116978000D01*
G37*
G36*
X107452827Y-115361067D02*
X107452837Y-115361068D01*
X107454251Y-115361078D01*
X107609410Y-115378482D01*
X107758235Y-115425692D01*
X107895055Y-115500909D01*
X108014659Y-115601269D01*
X108112492Y-115722949D01*
X108184828Y-115861315D01*
X108228911Y-116011095D01*
X108228913Y-116011122D01*
X108228915Y-116011127D01*
X108243063Y-116166585D01*
X108226746Y-116321826D01*
X108226744Y-116321832D01*
X108226741Y-116321862D01*
X108180572Y-116471012D01*
X108106311Y-116608354D01*
X108006788Y-116728657D01*
X107885794Y-116827337D01*
X107747937Y-116900637D01*
X107598468Y-116945764D01*
X107443081Y-116961000D01*
X106932849Y-116961000D01*
X106923173Y-116960933D01*
X106923163Y-116960932D01*
X106921749Y-116960922D01*
X106766590Y-116943518D01*
X106617765Y-116896308D01*
X106480945Y-116821091D01*
X106361341Y-116720731D01*
X106263508Y-116599051D01*
X106191172Y-116460685D01*
X106147089Y-116310905D01*
X106147087Y-116310878D01*
X106147085Y-116310873D01*
X106132937Y-116155415D01*
X106149254Y-116000174D01*
X106149256Y-116000168D01*
X106149259Y-116000138D01*
X106195428Y-115850988D01*
X106269689Y-115713646D01*
X106369212Y-115593343D01*
X106490206Y-115494663D01*
X106628063Y-115421363D01*
X106777532Y-115376236D01*
X106932919Y-115361000D01*
X107443151Y-115361000D01*
X107452827Y-115361067D01*
X107452827Y-115361067D01*
G37*
G36*
X114471000Y-116921000D02*
X113621000Y-116921000D01*
X113621000Y-116021000D01*
X114471000Y-116021000D01*
X114471000Y-116921000D01*
X114471000Y-116921000D01*
G37*
G36*
X118989433Y-113668022D02*
X118989438Y-113668024D01*
X118989470Y-113668027D01*
X119157264Y-113719968D01*
X119311774Y-113803511D01*
X119447114Y-113915474D01*
X119558129Y-114051593D01*
X119640591Y-114206682D01*
X119691360Y-114374834D01*
X119708500Y-114549645D01*
X119708500Y-114558423D01*
X119708423Y-114569498D01*
X119708422Y-114569508D01*
X119708412Y-114570921D01*
X119688833Y-114745476D01*
X119635722Y-114912903D01*
X119551102Y-115066825D01*
X119438197Y-115201380D01*
X119301307Y-115311443D01*
X119145646Y-115392820D01*
X118977143Y-115442414D01*
X118977118Y-115442416D01*
X118977112Y-115442418D01*
X118802217Y-115458334D01*
X118627567Y-115439978D01*
X118627562Y-115439976D01*
X118627530Y-115439973D01*
X118459736Y-115388032D01*
X118305226Y-115304489D01*
X118169886Y-115192526D01*
X118058871Y-115056407D01*
X117976409Y-114901318D01*
X117925640Y-114733166D01*
X117908500Y-114558355D01*
X117908500Y-114549577D01*
X117908577Y-114538502D01*
X117908578Y-114538492D01*
X117908588Y-114537079D01*
X117928167Y-114362524D01*
X117981278Y-114195097D01*
X118065898Y-114041175D01*
X118178803Y-113906620D01*
X118315693Y-113796557D01*
X118471354Y-113715180D01*
X118639857Y-113665586D01*
X118639882Y-113665584D01*
X118639888Y-113665582D01*
X118814783Y-113649666D01*
X118989433Y-113668022D01*
X118989433Y-113668022D01*
G37*
G36*
X117168500Y-115454000D02*
X115368500Y-115454000D01*
X115368500Y-113654000D01*
X117168500Y-113654000D01*
X117168500Y-115454000D01*
X117168500Y-115454000D01*
G37*
G36*
X181124800Y-115237400D02*
X177924800Y-115237400D01*
X177924800Y-113667400D01*
X181124800Y-113667400D01*
X181124800Y-115237400D01*
X181124800Y-115237400D01*
G37*
G36*
X133108000Y-115156000D02*
X131508000Y-115156000D01*
X131508000Y-114776000D01*
X133108000Y-114776000D01*
X133108000Y-115156000D01*
X133108000Y-115156000D01*
G37*
G36*
X148908000Y-115156000D02*
X147308000Y-115156000D01*
X147308000Y-114776000D01*
X148908000Y-114776000D01*
X148908000Y-115156000D01*
X148908000Y-115156000D01*
G37*
G36*
X148908000Y-114656000D02*
X147308000Y-114656000D01*
X147308000Y-114276000D01*
X148908000Y-114276000D01*
X148908000Y-114656000D01*
X148908000Y-114656000D01*
G37*
G36*
X133108000Y-114656000D02*
X131508000Y-114656000D01*
X131508000Y-114276000D01*
X133108000Y-114276000D01*
X133108000Y-114656000D01*
X133108000Y-114656000D01*
G37*
G36*
X152923498Y-112638077D02*
X152923508Y-112638078D01*
X152924921Y-112638088D01*
X153099476Y-112657667D01*
X153266903Y-112710778D01*
X153420825Y-112795398D01*
X153555380Y-112908303D01*
X153665443Y-113045193D01*
X153746820Y-113200854D01*
X153796414Y-113369357D01*
X153796416Y-113369382D01*
X153796418Y-113369388D01*
X153812334Y-113544283D01*
X153793978Y-113718933D01*
X153793976Y-113718938D01*
X153793973Y-113718970D01*
X153742032Y-113886764D01*
X153658489Y-114041274D01*
X153546526Y-114176614D01*
X153410407Y-114287629D01*
X153255318Y-114370091D01*
X153087166Y-114420860D01*
X152912355Y-114438000D01*
X152903577Y-114438000D01*
X152892502Y-114437923D01*
X152892492Y-114437922D01*
X152891079Y-114437912D01*
X152716524Y-114418333D01*
X152549097Y-114365222D01*
X152395175Y-114280602D01*
X152260620Y-114167697D01*
X152150557Y-114030807D01*
X152069180Y-113875146D01*
X152019586Y-113706643D01*
X152019584Y-113706618D01*
X152019582Y-113706612D01*
X152003666Y-113531717D01*
X152022022Y-113357067D01*
X152022024Y-113357062D01*
X152022027Y-113357030D01*
X152073968Y-113189236D01*
X152157511Y-113034726D01*
X152269474Y-112899386D01*
X152405593Y-112788371D01*
X152560682Y-112705909D01*
X152728834Y-112655140D01*
X152903645Y-112638000D01*
X152912423Y-112638000D01*
X152923498Y-112638077D01*
X152923498Y-112638077D01*
G37*
G36*
X133108000Y-114156000D02*
X131508000Y-114156000D01*
X131508000Y-113776000D01*
X133108000Y-113776000D01*
X133108000Y-114156000D01*
X133108000Y-114156000D01*
G37*
G36*
X148908000Y-114156000D02*
X147308000Y-114156000D01*
X147308000Y-113776000D01*
X148908000Y-113776000D01*
X148908000Y-114156000D01*
X148908000Y-114156000D01*
G37*
G36*
X127462000Y-113709000D02*
X126562000Y-113709000D01*
X126562000Y-112859000D01*
X127462000Y-112859000D01*
X127462000Y-113709000D01*
X127462000Y-113709000D01*
G37*
G36*
X128962000Y-113709000D02*
X128062000Y-113709000D01*
X128062000Y-112859000D01*
X128962000Y-112859000D01*
X128962000Y-113709000D01*
X128962000Y-113709000D01*
G37*
G36*
X133108000Y-113656000D02*
X131508000Y-113656000D01*
X131508000Y-113276000D01*
X133108000Y-113276000D01*
X133108000Y-113656000D01*
X133108000Y-113656000D01*
G37*
G36*
X148908000Y-113656000D02*
X147308000Y-113656000D01*
X147308000Y-113276000D01*
X148908000Y-113276000D01*
X148908000Y-113656000D01*
X148908000Y-113656000D01*
G37*
G36*
X133108000Y-113156000D02*
X131508000Y-113156000D01*
X131508000Y-112776000D01*
X133108000Y-112776000D01*
X133108000Y-113156000D01*
X133108000Y-113156000D01*
G37*
G36*
X148908000Y-113156000D02*
X147308000Y-113156000D01*
X147308000Y-112776000D01*
X148908000Y-112776000D01*
X148908000Y-113156000D01*
X148908000Y-113156000D01*
G37*
G36*
X110758000Y-112941000D02*
X106158000Y-112941000D01*
X106158000Y-111341000D01*
X110758000Y-111341000D01*
X110758000Y-112941000D01*
X110758000Y-112941000D01*
G37*
G36*
X185574800Y-112752400D02*
X177924800Y-112752400D01*
X177924800Y-111682400D01*
X185574800Y-111682400D01*
X185574800Y-112752400D01*
X185574800Y-112752400D01*
G37*
G36*
X148908000Y-112656000D02*
X147308000Y-112656000D01*
X147308000Y-112276000D01*
X148908000Y-112276000D01*
X148908000Y-112656000D01*
X148908000Y-112656000D01*
G37*
G36*
X133108000Y-112656000D02*
X131508000Y-112656000D01*
X131508000Y-112276000D01*
X133108000Y-112276000D01*
X133108000Y-112656000D01*
X133108000Y-112656000D01*
G37*
G36*
X148908000Y-112156000D02*
X147308000Y-112156000D01*
X147308000Y-111776000D01*
X148908000Y-111776000D01*
X148908000Y-112156000D01*
X148908000Y-112156000D01*
G37*
G36*
X133108000Y-112156000D02*
X131508000Y-112156000D01*
X131508000Y-111776000D01*
X133108000Y-111776000D01*
X133108000Y-112156000D01*
X133108000Y-112156000D01*
G37*
G36*
X156672000Y-111804000D02*
X155772000Y-111804000D01*
X155772000Y-110954000D01*
X156672000Y-110954000D01*
X156672000Y-111804000D01*
X156672000Y-111804000D01*
G37*
G36*
X158172000Y-111804000D02*
X157272000Y-111804000D01*
X157272000Y-110954000D01*
X158172000Y-110954000D01*
X158172000Y-111804000D01*
X158172000Y-111804000D01*
G37*
G36*
X148908000Y-111656000D02*
X147308000Y-111656000D01*
X147308000Y-111276000D01*
X148908000Y-111276000D01*
X148908000Y-111656000D01*
X148908000Y-111656000D01*
G37*
G36*
X133108000Y-111656000D02*
X131508000Y-111656000D01*
X131508000Y-111276000D01*
X133108000Y-111276000D01*
X133108000Y-111656000D01*
X133108000Y-111656000D01*
G37*
G36*
X152608000Y-111423000D02*
X151708000Y-111423000D01*
X151708000Y-110573000D01*
X152608000Y-110573000D01*
X152608000Y-111423000D01*
X152608000Y-111423000D01*
G37*
G36*
X154108000Y-111423000D02*
X153208000Y-111423000D01*
X153208000Y-110573000D01*
X154108000Y-110573000D01*
X154108000Y-111423000D01*
X154108000Y-111423000D01*
G37*
G36*
X133108000Y-111156000D02*
X131508000Y-111156000D01*
X131508000Y-110776000D01*
X133108000Y-110776000D01*
X133108000Y-111156000D01*
X133108000Y-111156000D01*
G37*
G36*
X148908000Y-111156000D02*
X147308000Y-111156000D01*
X147308000Y-110776000D01*
X148908000Y-110776000D01*
X148908000Y-111156000D01*
X148908000Y-111156000D01*
G37*
G36*
X133108000Y-110656000D02*
X131508000Y-110656000D01*
X131508000Y-110276000D01*
X133108000Y-110276000D01*
X133108000Y-110656000D01*
X133108000Y-110656000D01*
G37*
G36*
X148908000Y-110656000D02*
X147308000Y-110656000D01*
X147308000Y-110276000D01*
X148908000Y-110276000D01*
X148908000Y-110656000D01*
X148908000Y-110656000D01*
G37*
G36*
X110758000Y-110401000D02*
X106158000Y-110401000D01*
X106158000Y-108801000D01*
X110758000Y-108801000D01*
X110758000Y-110401000D01*
X110758000Y-110401000D01*
G37*
G36*
X157160000Y-110385000D02*
X155260000Y-110385000D01*
X155260000Y-109285000D01*
X157160000Y-109285000D01*
X157160000Y-110385000D01*
X157160000Y-110385000D01*
G37*
G36*
X148908000Y-110156000D02*
X147308000Y-110156000D01*
X147308000Y-109776000D01*
X148908000Y-109776000D01*
X148908000Y-110156000D01*
X148908000Y-110156000D01*
G37*
G36*
X133108000Y-110156000D02*
X131508000Y-110156000D01*
X131508000Y-109776000D01*
X133108000Y-109776000D01*
X133108000Y-110156000D01*
X133108000Y-110156000D01*
G37*
G36*
X154095000Y-109912000D02*
X153245000Y-109912000D01*
X153245000Y-109012000D01*
X154095000Y-109012000D01*
X154095000Y-109912000D01*
X154095000Y-109912000D01*
G37*
G36*
X148908000Y-109656000D02*
X147308000Y-109656000D01*
X147308000Y-109276000D01*
X148908000Y-109276000D01*
X148908000Y-109656000D01*
X148908000Y-109656000D01*
G37*
G36*
X133108000Y-109656000D02*
X131508000Y-109656000D01*
X131508000Y-109276000D01*
X133108000Y-109276000D01*
X133108000Y-109656000D01*
X133108000Y-109656000D01*
G37*
G36*
X173924800Y-109637400D02*
X172124800Y-109637400D01*
X172124800Y-107837400D01*
X173924800Y-107837400D01*
X173924800Y-109637400D01*
X173924800Y-109637400D01*
G37*
G36*
X175580298Y-107837477D02*
X175580308Y-107837478D01*
X175581721Y-107837488D01*
X175756276Y-107857067D01*
X175923703Y-107910178D01*
X176077625Y-107994798D01*
X176212180Y-108107703D01*
X176322243Y-108244593D01*
X176403620Y-108400254D01*
X176453214Y-108568757D01*
X176453216Y-108568782D01*
X176453218Y-108568788D01*
X176469134Y-108743683D01*
X176450778Y-108918333D01*
X176450776Y-108918338D01*
X176450773Y-108918370D01*
X176398832Y-109086164D01*
X176315289Y-109240674D01*
X176203326Y-109376014D01*
X176067207Y-109487029D01*
X175912118Y-109569491D01*
X175743966Y-109620260D01*
X175569155Y-109637400D01*
X175560377Y-109637400D01*
X175549302Y-109637323D01*
X175549292Y-109637322D01*
X175547879Y-109637312D01*
X175373324Y-109617733D01*
X175205897Y-109564622D01*
X175051975Y-109480002D01*
X174917420Y-109367097D01*
X174807357Y-109230207D01*
X174725980Y-109074546D01*
X174676386Y-108906043D01*
X174676384Y-108906018D01*
X174676382Y-108906012D01*
X174660466Y-108731117D01*
X174678822Y-108556467D01*
X174678824Y-108556462D01*
X174678827Y-108556430D01*
X174730768Y-108388636D01*
X174814311Y-108234126D01*
X174926274Y-108098786D01*
X175062393Y-107987771D01*
X175217482Y-107905309D01*
X175385634Y-107854540D01*
X175560445Y-107837400D01*
X175569223Y-107837400D01*
X175580298Y-107837477D01*
X175580298Y-107837477D01*
G37*
G36*
X185574800Y-109602400D02*
X177924800Y-109602400D01*
X177924800Y-108532400D01*
X185574800Y-108532400D01*
X185574800Y-109602400D01*
X185574800Y-109602400D01*
G37*
G36*
X158667000Y-109277000D02*
X157817000Y-109277000D01*
X157817000Y-108377000D01*
X158667000Y-108377000D01*
X158667000Y-109277000D01*
X158667000Y-109277000D01*
G37*
G36*
X148908000Y-109156000D02*
X147308000Y-109156000D01*
X147308000Y-108776000D01*
X148908000Y-108776000D01*
X148908000Y-109156000D01*
X148908000Y-109156000D01*
G37*
G36*
X133108000Y-109156000D02*
X131508000Y-109156000D01*
X131508000Y-108776000D01*
X133108000Y-108776000D01*
X133108000Y-109156000D01*
X133108000Y-109156000D01*
G37*
G36*
X133108000Y-108656000D02*
X131508000Y-108656000D01*
X131508000Y-108276000D01*
X133108000Y-108276000D01*
X133108000Y-108656000D01*
X133108000Y-108656000D01*
G37*
G36*
X148908000Y-108656000D02*
X147308000Y-108656000D01*
X147308000Y-108276000D01*
X148908000Y-108276000D01*
X148908000Y-108656000D01*
X148908000Y-108656000D01*
G37*
G36*
X154095000Y-108412000D02*
X153245000Y-108412000D01*
X153245000Y-107512000D01*
X154095000Y-107512000D01*
X154095000Y-108412000D01*
X154095000Y-108412000D01*
G37*
G36*
X133108000Y-108156000D02*
X131508000Y-108156000D01*
X131508000Y-107776000D01*
X133108000Y-107776000D01*
X133108000Y-108156000D01*
X133108000Y-108156000D01*
G37*
G36*
X148908000Y-108156000D02*
X147308000Y-108156000D01*
X147308000Y-107776000D01*
X148908000Y-107776000D01*
X148908000Y-108156000D01*
X148908000Y-108156000D01*
G37*
G36*
X157160000Y-107885000D02*
X155260000Y-107885000D01*
X155260000Y-106785000D01*
X157160000Y-106785000D01*
X157160000Y-107885000D01*
X157160000Y-107885000D01*
G37*
G36*
X110758000Y-107861000D02*
X106158000Y-107861000D01*
X106158000Y-106261000D01*
X110758000Y-106261000D01*
X110758000Y-107861000D01*
X110758000Y-107861000D01*
G37*
G36*
X158667000Y-107777000D02*
X157817000Y-107777000D01*
X157817000Y-106877000D01*
X158667000Y-106877000D01*
X158667000Y-107777000D01*
X158667000Y-107777000D01*
G37*
G36*
X133108000Y-107656000D02*
X131508000Y-107656000D01*
X131508000Y-107276000D01*
X133108000Y-107276000D01*
X133108000Y-107656000D01*
X133108000Y-107656000D01*
G37*
G36*
X148908000Y-107656000D02*
X147308000Y-107656000D01*
X147308000Y-107276000D01*
X148908000Y-107276000D01*
X148908000Y-107656000D01*
X148908000Y-107656000D01*
G37*
G36*
X181124800Y-107617400D02*
X177924800Y-107617400D01*
X177924800Y-106047400D01*
X181124800Y-106047400D01*
X181124800Y-107617400D01*
X181124800Y-107617400D01*
G37*
G36*
X148908000Y-107156000D02*
X147308000Y-107156000D01*
X147308000Y-106776000D01*
X148908000Y-106776000D01*
X148908000Y-107156000D01*
X148908000Y-107156000D01*
G37*
G36*
X133108000Y-107156000D02*
X131508000Y-107156000D01*
X131508000Y-106776000D01*
X133108000Y-106776000D01*
X133108000Y-107156000D01*
X133108000Y-107156000D01*
G37*
G36*
X133108000Y-106656000D02*
X131508000Y-106656000D01*
X131508000Y-106276000D01*
X133108000Y-106276000D01*
X133108000Y-106656000D01*
X133108000Y-106656000D01*
G37*
G36*
X148908000Y-106656000D02*
X147308000Y-106656000D01*
X147308000Y-106276000D01*
X148908000Y-106276000D01*
X148908000Y-106656000D01*
X148908000Y-106656000D01*
G37*
G36*
X155120933Y-104397022D02*
X155120938Y-104397024D01*
X155120970Y-104397027D01*
X155288764Y-104448968D01*
X155443274Y-104532511D01*
X155578614Y-104644474D01*
X155689629Y-104780593D01*
X155772091Y-104935682D01*
X155822860Y-105103834D01*
X155840000Y-105278645D01*
X155840000Y-105287423D01*
X155839923Y-105298498D01*
X155839922Y-105298508D01*
X155839912Y-105299921D01*
X155820333Y-105474476D01*
X155767222Y-105641903D01*
X155682602Y-105795825D01*
X155569697Y-105930380D01*
X155432807Y-106040443D01*
X155277146Y-106121820D01*
X155108643Y-106171414D01*
X155108618Y-106171416D01*
X155108612Y-106171418D01*
X154933717Y-106187334D01*
X154759067Y-106168978D01*
X154759062Y-106168976D01*
X154759030Y-106168973D01*
X154591236Y-106117032D01*
X154436726Y-106033489D01*
X154301386Y-105921526D01*
X154190371Y-105785407D01*
X154107909Y-105630318D01*
X154057140Y-105462166D01*
X154040000Y-105287355D01*
X154040000Y-105278577D01*
X154040077Y-105267502D01*
X154040078Y-105267492D01*
X154040088Y-105266079D01*
X154059667Y-105091524D01*
X154112778Y-104924097D01*
X154197398Y-104770175D01*
X154310303Y-104635620D01*
X154447193Y-104525557D01*
X154602854Y-104444180D01*
X154771357Y-104394586D01*
X154771382Y-104394584D01*
X154771388Y-104394582D01*
X154946283Y-104378666D01*
X155120933Y-104397022D01*
X155120933Y-104397022D01*
G37*
G36*
X158380000Y-106183000D02*
X156580000Y-106183000D01*
X156580000Y-104383000D01*
X158380000Y-104383000D01*
X158380000Y-106183000D01*
X158380000Y-106183000D01*
G37*
G36*
X148908000Y-106156000D02*
X147308000Y-106156000D01*
X147308000Y-105776000D01*
X148908000Y-105776000D01*
X148908000Y-106156000D01*
X148908000Y-106156000D01*
G37*
G36*
X133108000Y-106156000D02*
X131508000Y-106156000D01*
X131508000Y-105776000D01*
X133108000Y-105776000D01*
X133108000Y-106156000D01*
X133108000Y-106156000D01*
G37*
G36*
X128644500Y-106025500D02*
X127744500Y-106025500D01*
X127744500Y-105175500D01*
X128644500Y-105175500D01*
X128644500Y-106025500D01*
X128644500Y-106025500D01*
G37*
G36*
X127144500Y-106025500D02*
X126244500Y-106025500D01*
X126244500Y-105175500D01*
X127144500Y-105175500D01*
X127144500Y-106025500D01*
X127144500Y-106025500D01*
G37*
G36*
X148908000Y-105656000D02*
X147308000Y-105656000D01*
X147308000Y-105276000D01*
X148908000Y-105276000D01*
X148908000Y-105656000D01*
X148908000Y-105656000D01*
G37*
G36*
X133108000Y-105656000D02*
X131508000Y-105656000D01*
X131508000Y-105276000D01*
X133108000Y-105276000D01*
X133108000Y-105656000D01*
X133108000Y-105656000D01*
G37*
G36*
X110758000Y-105321000D02*
X106158000Y-105321000D01*
X106158000Y-103721000D01*
X110758000Y-103721000D01*
X110758000Y-105321000D01*
X110758000Y-105321000D01*
G37*
G36*
X148908000Y-105156000D02*
X147308000Y-105156000D01*
X147308000Y-104776000D01*
X148908000Y-104776000D01*
X148908000Y-105156000D01*
X148908000Y-105156000D01*
G37*
G36*
X133108000Y-105156000D02*
X131508000Y-105156000D01*
X131508000Y-104776000D01*
X133108000Y-104776000D01*
X133108000Y-105156000D01*
X133108000Y-105156000D01*
G37*
G36*
X185574800Y-105132400D02*
X177924800Y-105132400D01*
X177924800Y-104062400D01*
X185574800Y-104062400D01*
X185574800Y-105132400D01*
X185574800Y-105132400D01*
G37*
G36*
X152952000Y-104959000D02*
X152102000Y-104959000D01*
X152102000Y-104059000D01*
X152952000Y-104059000D01*
X152952000Y-104959000D01*
X152952000Y-104959000D01*
G37*
G36*
X128431000Y-104830500D02*
X127831000Y-104830500D01*
X127831000Y-103830500D01*
X128431000Y-103830500D01*
X128431000Y-104830500D01*
X128431000Y-104830500D01*
G37*
G36*
X126931000Y-104830500D02*
X126331000Y-104830500D01*
X126331000Y-103830500D01*
X126931000Y-103830500D01*
X126931000Y-104830500D01*
X126931000Y-104830500D01*
G37*
G36*
X133108000Y-104656000D02*
X131508000Y-104656000D01*
X131508000Y-104276000D01*
X133108000Y-104276000D01*
X133108000Y-104656000D01*
X133108000Y-104656000D01*
G37*
G36*
X148908000Y-104656000D02*
X147308000Y-104656000D01*
X147308000Y-104276000D01*
X148908000Y-104276000D01*
X148908000Y-104656000D01*
X148908000Y-104656000D01*
G37*
G36*
X133108000Y-104156000D02*
X131508000Y-104156000D01*
X131508000Y-103776000D01*
X133108000Y-103776000D01*
X133108000Y-104156000D01*
X133108000Y-104156000D01*
G37*
G36*
X148908000Y-104156000D02*
X147308000Y-104156000D01*
X147308000Y-103776000D01*
X148908000Y-103776000D01*
X148908000Y-104156000D01*
X148908000Y-104156000D01*
G37*
G36*
X133108000Y-103656000D02*
X131508000Y-103656000D01*
X131508000Y-103276000D01*
X133108000Y-103276000D01*
X133108000Y-103656000D01*
X133108000Y-103656000D01*
G37*
G36*
X148908000Y-103656000D02*
X147308000Y-103656000D01*
X147308000Y-103276000D01*
X148908000Y-103276000D01*
X148908000Y-103656000D01*
X148908000Y-103656000D01*
G37*
G36*
X155240000Y-103590000D02*
X153740000Y-103590000D01*
X153740000Y-102290000D01*
X155240000Y-102290000D01*
X155240000Y-103590000D01*
X155240000Y-103590000D01*
G37*
G36*
X157440000Y-103590000D02*
X155940000Y-103590000D01*
X155940000Y-102290000D01*
X157440000Y-102290000D01*
X157440000Y-103590000D01*
X157440000Y-103590000D01*
G37*
G36*
X152952000Y-103459000D02*
X152102000Y-103459000D01*
X152102000Y-102559000D01*
X152952000Y-102559000D01*
X152952000Y-103459000D01*
X152952000Y-103459000D01*
G37*
G36*
X159048000Y-103435000D02*
X158198000Y-103435000D01*
X158198000Y-102535000D01*
X159048000Y-102535000D01*
X159048000Y-103435000D01*
X159048000Y-103435000D01*
G37*
G36*
X148908000Y-103156000D02*
X147308000Y-103156000D01*
X147308000Y-102776000D01*
X148908000Y-102776000D01*
X148908000Y-103156000D01*
X148908000Y-103156000D01*
G37*
G36*
X133108000Y-103156000D02*
X131508000Y-103156000D01*
X131508000Y-102776000D01*
X133108000Y-102776000D01*
X133108000Y-103156000D01*
X133108000Y-103156000D01*
G37*
G36*
X110758000Y-102781000D02*
X106158000Y-102781000D01*
X106158000Y-101181000D01*
X110758000Y-101181000D01*
X110758000Y-102781000D01*
X110758000Y-102781000D01*
G37*
G36*
X173924800Y-102017400D02*
X172124800Y-102017400D01*
X172124800Y-100217400D01*
X173924800Y-100217400D01*
X173924800Y-102017400D01*
X173924800Y-102017400D01*
G37*
G36*
X175580298Y-100217477D02*
X175580308Y-100217478D01*
X175581721Y-100217488D01*
X175756276Y-100237067D01*
X175923703Y-100290178D01*
X176077625Y-100374798D01*
X176212180Y-100487703D01*
X176322243Y-100624593D01*
X176403620Y-100780254D01*
X176453214Y-100948757D01*
X176453216Y-100948782D01*
X176453218Y-100948788D01*
X176469134Y-101123683D01*
X176450778Y-101298333D01*
X176450776Y-101298338D01*
X176450773Y-101298370D01*
X176398832Y-101466164D01*
X176315289Y-101620674D01*
X176203326Y-101756014D01*
X176067207Y-101867029D01*
X175912118Y-101949491D01*
X175743966Y-102000260D01*
X175569155Y-102017400D01*
X175560377Y-102017400D01*
X175549302Y-102017323D01*
X175549292Y-102017322D01*
X175547879Y-102017312D01*
X175373324Y-101997733D01*
X175205897Y-101944622D01*
X175051975Y-101860002D01*
X174917420Y-101747097D01*
X174807357Y-101610207D01*
X174725980Y-101454546D01*
X174676386Y-101286043D01*
X174676384Y-101286018D01*
X174676382Y-101286012D01*
X174660466Y-101111117D01*
X174678822Y-100936467D01*
X174678824Y-100936462D01*
X174678827Y-100936430D01*
X174730768Y-100768636D01*
X174814311Y-100614126D01*
X174926274Y-100478786D01*
X175062393Y-100367771D01*
X175217482Y-100285309D01*
X175385634Y-100234540D01*
X175560445Y-100217400D01*
X175569223Y-100217400D01*
X175580298Y-100217477D01*
X175580298Y-100217477D01*
G37*
G36*
X185574800Y-101982400D02*
X177924800Y-101982400D01*
X177924800Y-100912400D01*
X185574800Y-100912400D01*
X185574800Y-101982400D01*
X185574800Y-101982400D01*
G37*
G36*
X159048000Y-101935000D02*
X158198000Y-101935000D01*
X158198000Y-101035000D01*
X159048000Y-101035000D01*
X159048000Y-101935000D01*
X159048000Y-101935000D01*
G37*
G36*
X155240000Y-101890000D02*
X153740000Y-101890000D01*
X153740000Y-100590000D01*
X155240000Y-100590000D01*
X155240000Y-101890000D01*
X155240000Y-101890000D01*
G37*
G36*
X157440000Y-101890000D02*
X155940000Y-101890000D01*
X155940000Y-100590000D01*
X157440000Y-100590000D01*
X157440000Y-101890000D01*
X157440000Y-101890000D01*
G37*
G36*
X146398000Y-101866000D02*
X146018000Y-101866000D01*
X146018000Y-100266000D01*
X146398000Y-100266000D01*
X146398000Y-101866000D01*
X146398000Y-101866000D01*
G37*
G36*
X145398000Y-101866000D02*
X145018000Y-101866000D01*
X145018000Y-100266000D01*
X145398000Y-100266000D01*
X145398000Y-101866000D01*
X145398000Y-101866000D01*
G37*
G36*
X144898000Y-101866000D02*
X144518000Y-101866000D01*
X144518000Y-100266000D01*
X144898000Y-100266000D01*
X144898000Y-101866000D01*
X144898000Y-101866000D01*
G37*
G36*
X144398000Y-101866000D02*
X144018000Y-101866000D01*
X144018000Y-100266000D01*
X144398000Y-100266000D01*
X144398000Y-101866000D01*
X144398000Y-101866000D01*
G37*
G36*
X143898000Y-101866000D02*
X143518000Y-101866000D01*
X143518000Y-100266000D01*
X143898000Y-100266000D01*
X143898000Y-101866000D01*
X143898000Y-101866000D01*
G37*
G36*
X143398000Y-101866000D02*
X143018000Y-101866000D01*
X143018000Y-100266000D01*
X143398000Y-100266000D01*
X143398000Y-101866000D01*
X143398000Y-101866000D01*
G37*
G36*
X142898000Y-101866000D02*
X142518000Y-101866000D01*
X142518000Y-100266000D01*
X142898000Y-100266000D01*
X142898000Y-101866000D01*
X142898000Y-101866000D01*
G37*
G36*
X137398000Y-101866000D02*
X137018000Y-101866000D01*
X137018000Y-100266000D01*
X137398000Y-100266000D01*
X137398000Y-101866000D01*
X137398000Y-101866000D01*
G37*
G36*
X142398000Y-101866000D02*
X142018000Y-101866000D01*
X142018000Y-100266000D01*
X142398000Y-100266000D01*
X142398000Y-101866000D01*
X142398000Y-101866000D01*
G37*
G36*
X141898000Y-101866000D02*
X141518000Y-101866000D01*
X141518000Y-100266000D01*
X141898000Y-100266000D01*
X141898000Y-101866000D01*
X141898000Y-101866000D01*
G37*
G36*
X141398000Y-101866000D02*
X141018000Y-101866000D01*
X141018000Y-100266000D01*
X141398000Y-100266000D01*
X141398000Y-101866000D01*
X141398000Y-101866000D01*
G37*
G36*
X140898000Y-101866000D02*
X140518000Y-101866000D01*
X140518000Y-100266000D01*
X140898000Y-100266000D01*
X140898000Y-101866000D01*
X140898000Y-101866000D01*
G37*
G36*
X140398000Y-101866000D02*
X140018000Y-101866000D01*
X140018000Y-100266000D01*
X140398000Y-100266000D01*
X140398000Y-101866000D01*
X140398000Y-101866000D01*
G37*
G36*
X139398000Y-101866000D02*
X139018000Y-101866000D01*
X139018000Y-100266000D01*
X139398000Y-100266000D01*
X139398000Y-101866000D01*
X139398000Y-101866000D01*
G37*
G36*
X139898000Y-101866000D02*
X139518000Y-101866000D01*
X139518000Y-100266000D01*
X139898000Y-100266000D01*
X139898000Y-101866000D01*
X139898000Y-101866000D01*
G37*
G36*
X145898000Y-101866000D02*
X145518000Y-101866000D01*
X145518000Y-100266000D01*
X145898000Y-100266000D01*
X145898000Y-101866000D01*
X145898000Y-101866000D01*
G37*
G36*
X134898000Y-101866000D02*
X134518000Y-101866000D01*
X134518000Y-100266000D01*
X134898000Y-100266000D01*
X134898000Y-101866000D01*
X134898000Y-101866000D01*
G37*
G36*
X135398000Y-101866000D02*
X135018000Y-101866000D01*
X135018000Y-100266000D01*
X135398000Y-100266000D01*
X135398000Y-101866000D01*
X135398000Y-101866000D01*
G37*
G36*
X134398000Y-101866000D02*
X134018000Y-101866000D01*
X134018000Y-100266000D01*
X134398000Y-100266000D01*
X134398000Y-101866000D01*
X134398000Y-101866000D01*
G37*
G36*
X135898000Y-101866000D02*
X135518000Y-101866000D01*
X135518000Y-100266000D01*
X135898000Y-100266000D01*
X135898000Y-101866000D01*
X135898000Y-101866000D01*
G37*
G36*
X136898000Y-101866000D02*
X136518000Y-101866000D01*
X136518000Y-100266000D01*
X136898000Y-100266000D01*
X136898000Y-101866000D01*
X136898000Y-101866000D01*
G37*
G36*
X136398000Y-101866000D02*
X136018000Y-101866000D01*
X136018000Y-100266000D01*
X136398000Y-100266000D01*
X136398000Y-101866000D01*
X136398000Y-101866000D01*
G37*
G36*
X138898000Y-101866000D02*
X138518000Y-101866000D01*
X138518000Y-100266000D01*
X138898000Y-100266000D01*
X138898000Y-101866000D01*
X138898000Y-101866000D01*
G37*
G36*
X137898000Y-101866000D02*
X137518000Y-101866000D01*
X137518000Y-100266000D01*
X137898000Y-100266000D01*
X137898000Y-101866000D01*
X137898000Y-101866000D01*
G37*
G36*
X138398000Y-101866000D02*
X138018000Y-101866000D01*
X138018000Y-100266000D01*
X138398000Y-100266000D01*
X138398000Y-101866000D01*
X138398000Y-101866000D01*
G37*
G36*
X151555000Y-100514000D02*
X150705000Y-100514000D01*
X150705000Y-99614000D01*
X151555000Y-99614000D01*
X151555000Y-100514000D01*
X151555000Y-100514000D01*
G37*
G36*
X149777000Y-100514000D02*
X148927000Y-100514000D01*
X148927000Y-99614000D01*
X149777000Y-99614000D01*
X149777000Y-100514000D01*
X149777000Y-100514000D01*
G37*
G36*
X110758000Y-100241000D02*
X106158000Y-100241000D01*
X106158000Y-98641000D01*
X110758000Y-98641000D01*
X110758000Y-100241000D01*
X110758000Y-100241000D01*
G37*
G36*
X181124800Y-99997400D02*
X177924800Y-99997400D01*
X177924800Y-98427400D01*
X181124800Y-98427400D01*
X181124800Y-99997400D01*
X181124800Y-99997400D01*
G37*
G36*
X149777000Y-99014000D02*
X148927000Y-99014000D01*
X148927000Y-98114000D01*
X149777000Y-98114000D01*
X149777000Y-99014000D01*
X149777000Y-99014000D01*
G37*
G36*
X151555000Y-99014000D02*
X150705000Y-99014000D01*
X150705000Y-98114000D01*
X151555000Y-98114000D01*
X151555000Y-99014000D01*
X151555000Y-99014000D01*
G37*
G36*
X145599000Y-98469000D02*
X144699000Y-98469000D01*
X144699000Y-97619000D01*
X145599000Y-97619000D01*
X145599000Y-98469000D01*
X145599000Y-98469000D01*
G37*
G36*
X144099000Y-98469000D02*
X143199000Y-98469000D01*
X143199000Y-97619000D01*
X144099000Y-97619000D01*
X144099000Y-98469000D01*
X144099000Y-98469000D01*
G37*
G36*
X138614000Y-98469000D02*
X137714000Y-98469000D01*
X137714000Y-97619000D01*
X138614000Y-97619000D01*
X138614000Y-98469000D01*
X138614000Y-98469000D01*
G37*
G36*
X137114000Y-98469000D02*
X136214000Y-98469000D01*
X136214000Y-97619000D01*
X137114000Y-97619000D01*
X137114000Y-98469000D01*
X137114000Y-98469000D01*
G37*
G36*
X110758000Y-97701000D02*
X106158000Y-97701000D01*
X106158000Y-96101000D01*
X110758000Y-96101000D01*
X110758000Y-97701000D01*
X110758000Y-97701000D01*
G37*
G36*
X185574800Y-97512400D02*
X177924800Y-97512400D01*
X177924800Y-96442400D01*
X185574800Y-96442400D01*
X185574800Y-97512400D01*
X185574800Y-97512400D01*
G37*
G36*
X144645800Y-96790400D02*
X144095800Y-96790400D01*
X144095800Y-95190400D01*
X144645800Y-95190400D01*
X144645800Y-96790400D01*
X144645800Y-96790400D01*
G37*
G36*
X145295800Y-96790400D02*
X144745800Y-96790400D01*
X144745800Y-95190400D01*
X145295800Y-95190400D01*
X145295800Y-96790400D01*
X145295800Y-96790400D01*
G37*
G36*
X145945800Y-96790400D02*
X145395800Y-96790400D01*
X145395800Y-95190400D01*
X145945800Y-95190400D01*
X145945800Y-96790400D01*
X145945800Y-96790400D01*
G37*
G36*
X146595800Y-96790400D02*
X146045800Y-96790400D01*
X146045800Y-95190400D01*
X146595800Y-95190400D01*
X146595800Y-96790400D01*
X146595800Y-96790400D01*
G37*
G36*
X147245800Y-96790400D02*
X146695800Y-96790400D01*
X146695800Y-95190400D01*
X147245800Y-95190400D01*
X147245800Y-96790400D01*
X147245800Y-96790400D01*
G37*
G36*
X148545800Y-96790400D02*
X147995800Y-96790400D01*
X147995800Y-95190400D01*
X148545800Y-95190400D01*
X148545800Y-96790400D01*
X148545800Y-96790400D01*
G37*
G36*
X147895800Y-96790400D02*
X147345800Y-96790400D01*
X147345800Y-95190400D01*
X147895800Y-95190400D01*
X147895800Y-96790400D01*
X147895800Y-96790400D01*
G37*
G36*
X156995800Y-96790400D02*
X156445800Y-96790400D01*
X156445800Y-95190400D01*
X156995800Y-95190400D01*
X156995800Y-96790400D01*
X156995800Y-96790400D01*
G37*
G36*
X156345800Y-96790400D02*
X155795800Y-96790400D01*
X155795800Y-95190400D01*
X156345800Y-95190400D01*
X156345800Y-96790400D01*
X156345800Y-96790400D01*
G37*
G36*
X155695800Y-96790400D02*
X155145800Y-96790400D01*
X155145800Y-95190400D01*
X155695800Y-95190400D01*
X155695800Y-96790400D01*
X155695800Y-96790400D01*
G37*
G36*
X149845800Y-96790400D02*
X149295800Y-96790400D01*
X149295800Y-95190400D01*
X149845800Y-95190400D01*
X149845800Y-96790400D01*
X149845800Y-96790400D01*
G37*
G36*
X150495800Y-96790400D02*
X149945800Y-96790400D01*
X149945800Y-95190400D01*
X150495800Y-95190400D01*
X150495800Y-96790400D01*
X150495800Y-96790400D01*
G37*
G36*
X151145800Y-96790400D02*
X150595800Y-96790400D01*
X150595800Y-95190400D01*
X151145800Y-95190400D01*
X151145800Y-96790400D01*
X151145800Y-96790400D01*
G37*
G36*
X151795800Y-96790400D02*
X151245800Y-96790400D01*
X151245800Y-95190400D01*
X151795800Y-95190400D01*
X151795800Y-96790400D01*
X151795800Y-96790400D01*
G37*
G36*
X152445800Y-96790400D02*
X151895800Y-96790400D01*
X151895800Y-95190400D01*
X152445800Y-95190400D01*
X152445800Y-96790400D01*
X152445800Y-96790400D01*
G37*
G36*
X153095800Y-96790400D02*
X152545800Y-96790400D01*
X152545800Y-95190400D01*
X153095800Y-95190400D01*
X153095800Y-96790400D01*
X153095800Y-96790400D01*
G37*
G36*
X153745800Y-96790400D02*
X153195800Y-96790400D01*
X153195800Y-95190400D01*
X153745800Y-95190400D01*
X153745800Y-96790400D01*
X153745800Y-96790400D01*
G37*
G36*
X149195800Y-96790400D02*
X148645800Y-96790400D01*
X148645800Y-95190400D01*
X149195800Y-95190400D01*
X149195800Y-96790400D01*
X149195800Y-96790400D01*
G37*
G36*
X154395800Y-96790400D02*
X153845800Y-96790400D01*
X153845800Y-95190400D01*
X154395800Y-95190400D01*
X154395800Y-96790400D01*
X154395800Y-96790400D01*
G37*
G36*
X155045800Y-96790400D02*
X154495800Y-96790400D01*
X154495800Y-95190400D01*
X155045800Y-95190400D01*
X155045800Y-96790400D01*
X155045800Y-96790400D01*
G37*
G36*
X110758000Y-95161000D02*
X106158000Y-95161000D01*
X106158000Y-93561000D01*
X110758000Y-93561000D01*
X110758000Y-95161000D01*
X110758000Y-95161000D01*
G37*
G36*
X143645800Y-94740400D02*
X142045800Y-94740400D01*
X142045800Y-94190400D01*
X143645800Y-94190400D01*
X143645800Y-94740400D01*
X143645800Y-94740400D01*
G37*
G36*
X159045800Y-94740400D02*
X157445800Y-94740400D01*
X157445800Y-94190400D01*
X159045800Y-94190400D01*
X159045800Y-94740400D01*
X159045800Y-94740400D01*
G37*
G36*
X173924800Y-94397400D02*
X172124800Y-94397400D01*
X172124800Y-92597400D01*
X173924800Y-92597400D01*
X173924800Y-94397400D01*
X173924800Y-94397400D01*
G37*
G36*
X175580298Y-92597477D02*
X175580308Y-92597478D01*
X175581721Y-92597488D01*
X175756276Y-92617067D01*
X175923703Y-92670178D01*
X176077625Y-92754798D01*
X176212180Y-92867703D01*
X176322243Y-93004593D01*
X176403620Y-93160254D01*
X176453214Y-93328757D01*
X176453216Y-93328782D01*
X176453218Y-93328788D01*
X176469134Y-93503683D01*
X176450778Y-93678333D01*
X176450776Y-93678338D01*
X176450773Y-93678370D01*
X176398832Y-93846164D01*
X176315289Y-94000674D01*
X176203326Y-94136014D01*
X176067207Y-94247029D01*
X175912118Y-94329491D01*
X175743966Y-94380260D01*
X175569155Y-94397400D01*
X175560377Y-94397400D01*
X175549302Y-94397323D01*
X175549292Y-94397322D01*
X175547879Y-94397312D01*
X175373324Y-94377733D01*
X175205897Y-94324622D01*
X175051975Y-94240002D01*
X174917420Y-94127097D01*
X174807357Y-93990207D01*
X174725980Y-93834546D01*
X174676386Y-93666043D01*
X174676384Y-93666018D01*
X174676382Y-93666012D01*
X174660466Y-93491117D01*
X174678822Y-93316467D01*
X174678824Y-93316462D01*
X174678827Y-93316430D01*
X174730768Y-93148636D01*
X174814311Y-92994126D01*
X174926274Y-92858786D01*
X175062393Y-92747771D01*
X175217482Y-92665309D01*
X175385634Y-92614540D01*
X175560445Y-92597400D01*
X175569223Y-92597400D01*
X175580298Y-92597477D01*
X175580298Y-92597477D01*
G37*
G36*
X185574800Y-94362400D02*
X177924800Y-94362400D01*
X177924800Y-93292400D01*
X185574800Y-93292400D01*
X185574800Y-94362400D01*
X185574800Y-94362400D01*
G37*
G36*
X143645800Y-94090400D02*
X142045800Y-94090400D01*
X142045800Y-93540400D01*
X143645800Y-93540400D01*
X143645800Y-94090400D01*
X143645800Y-94090400D01*
G37*
G36*
X159045800Y-94090400D02*
X157445800Y-94090400D01*
X157445800Y-93540400D01*
X159045800Y-93540400D01*
X159045800Y-94090400D01*
X159045800Y-94090400D01*
G37*
G36*
X138868000Y-93643000D02*
X137968000Y-93643000D01*
X137968000Y-92793000D01*
X138868000Y-92793000D01*
X138868000Y-93643000D01*
X138868000Y-93643000D01*
G37*
G36*
X137368000Y-93643000D02*
X136468000Y-93643000D01*
X136468000Y-92793000D01*
X137368000Y-92793000D01*
X137368000Y-93643000D01*
X137368000Y-93643000D01*
G37*
G36*
X159045800Y-93440400D02*
X157445800Y-93440400D01*
X157445800Y-92890400D01*
X159045800Y-92890400D01*
X159045800Y-93440400D01*
X159045800Y-93440400D01*
G37*
G36*
X143645800Y-93440400D02*
X142045800Y-93440400D01*
X142045800Y-92890400D01*
X143645800Y-92890400D01*
X143645800Y-93440400D01*
X143645800Y-93440400D01*
G37*
G36*
X143645800Y-92790400D02*
X142045800Y-92790400D01*
X142045800Y-92240400D01*
X143645800Y-92240400D01*
X143645800Y-92790400D01*
X143645800Y-92790400D01*
G37*
G36*
X159045800Y-92790400D02*
X157445800Y-92790400D01*
X157445800Y-92240400D01*
X159045800Y-92240400D01*
X159045800Y-92790400D01*
X159045800Y-92790400D01*
G37*
G36*
X110758000Y-92621000D02*
X106158000Y-92621000D01*
X106158000Y-91021000D01*
X110758000Y-91021000D01*
X110758000Y-92621000D01*
X110758000Y-92621000D01*
G37*
G36*
X181124800Y-92377400D02*
X177924800Y-92377400D01*
X177924800Y-90807400D01*
X181124800Y-90807400D01*
X181124800Y-92377400D01*
X181124800Y-92377400D01*
G37*
G36*
X143645800Y-92140400D02*
X142045800Y-92140400D01*
X142045800Y-91590400D01*
X143645800Y-91590400D01*
X143645800Y-92140400D01*
X143645800Y-92140400D01*
G37*
G36*
X159045800Y-92140400D02*
X157445800Y-92140400D01*
X157445800Y-91590400D01*
X159045800Y-91590400D01*
X159045800Y-92140400D01*
X159045800Y-92140400D01*
G37*
G36*
X137368000Y-91865000D02*
X136468000Y-91865000D01*
X136468000Y-91015000D01*
X137368000Y-91015000D01*
X137368000Y-91865000D01*
X137368000Y-91865000D01*
G37*
G36*
X138868000Y-91865000D02*
X137968000Y-91865000D01*
X137968000Y-91015000D01*
X138868000Y-91015000D01*
X138868000Y-91865000D01*
X138868000Y-91865000D01*
G37*
G36*
X159045800Y-91490400D02*
X157445800Y-91490400D01*
X157445800Y-90940400D01*
X159045800Y-90940400D01*
X159045800Y-91490400D01*
X159045800Y-91490400D01*
G37*
G36*
X143645800Y-91490400D02*
X142045800Y-91490400D01*
X142045800Y-90940400D01*
X143645800Y-90940400D01*
X143645800Y-91490400D01*
X143645800Y-91490400D01*
G37*
G36*
X143645800Y-90840400D02*
X142045800Y-90840400D01*
X142045800Y-90290400D01*
X143645800Y-90290400D01*
X143645800Y-90840400D01*
X143645800Y-90840400D01*
G37*
G36*
X159045800Y-90840400D02*
X157445800Y-90840400D01*
X157445800Y-90290400D01*
X159045800Y-90290400D01*
X159045800Y-90840400D01*
X159045800Y-90840400D01*
G37*
G36*
X143645800Y-90190400D02*
X142045800Y-90190400D01*
X142045800Y-89640400D01*
X143645800Y-89640400D01*
X143645800Y-90190400D01*
X143645800Y-90190400D01*
G37*
G36*
X159045800Y-90190400D02*
X157445800Y-90190400D01*
X157445800Y-89640400D01*
X159045800Y-89640400D01*
X159045800Y-90190400D01*
X159045800Y-90190400D01*
G37*
G36*
X129888800Y-90125400D02*
X129038800Y-90125400D01*
X129038800Y-89225400D01*
X129888800Y-89225400D01*
X129888800Y-90125400D01*
X129888800Y-90125400D01*
G37*
G36*
X137368000Y-90087000D02*
X136468000Y-90087000D01*
X136468000Y-89237000D01*
X137368000Y-89237000D01*
X137368000Y-90087000D01*
X137368000Y-90087000D01*
G37*
G36*
X138868000Y-90087000D02*
X137968000Y-90087000D01*
X137968000Y-89237000D01*
X138868000Y-89237000D01*
X138868000Y-90087000D01*
X138868000Y-90087000D01*
G37*
G36*
X110758000Y-90081000D02*
X106158000Y-90081000D01*
X106158000Y-88481000D01*
X110758000Y-88481000D01*
X110758000Y-90081000D01*
X110758000Y-90081000D01*
G37*
G36*
X185574800Y-89892400D02*
X177924800Y-89892400D01*
X177924800Y-88822400D01*
X185574800Y-88822400D01*
X185574800Y-89892400D01*
X185574800Y-89892400D01*
G37*
G36*
X143645800Y-89540400D02*
X142045800Y-89540400D01*
X142045800Y-88990400D01*
X143645800Y-88990400D01*
X143645800Y-89540400D01*
X143645800Y-89540400D01*
G37*
G36*
X159045800Y-89540400D02*
X157445800Y-89540400D01*
X157445800Y-88990400D01*
X159045800Y-88990400D01*
X159045800Y-89540400D01*
X159045800Y-89540400D01*
G37*
G36*
X121538800Y-89185400D02*
X121188800Y-89185400D01*
X121188800Y-88385400D01*
X121538800Y-88385400D01*
X121538800Y-89185400D01*
X121538800Y-89185400D01*
G37*
G36*
X124538800Y-89185400D02*
X124188800Y-89185400D01*
X124188800Y-88385400D01*
X124538800Y-88385400D01*
X124538800Y-89185400D01*
X124538800Y-89185400D01*
G37*
G36*
X125038800Y-89185400D02*
X124688800Y-89185400D01*
X124688800Y-88385400D01*
X125038800Y-88385400D01*
X125038800Y-89185400D01*
X125038800Y-89185400D01*
G37*
G36*
X124038800Y-89185400D02*
X123688800Y-89185400D01*
X123688800Y-88385400D01*
X124038800Y-88385400D01*
X124038800Y-89185400D01*
X124038800Y-89185400D01*
G37*
G36*
X123538800Y-89185400D02*
X123188800Y-89185400D01*
X123188800Y-88385400D01*
X123538800Y-88385400D01*
X123538800Y-89185400D01*
X123538800Y-89185400D01*
G37*
G36*
X123038800Y-89185400D02*
X122688800Y-89185400D01*
X122688800Y-88385400D01*
X123038800Y-88385400D01*
X123038800Y-89185400D01*
X123038800Y-89185400D01*
G37*
G36*
X122538800Y-89185400D02*
X122188800Y-89185400D01*
X122188800Y-88385400D01*
X122538800Y-88385400D01*
X122538800Y-89185400D01*
X122538800Y-89185400D01*
G37*
G36*
X122038800Y-89185400D02*
X121688800Y-89185400D01*
X121688800Y-88385400D01*
X122038800Y-88385400D01*
X122038800Y-89185400D01*
X122038800Y-89185400D01*
G37*
G36*
X159045800Y-88890400D02*
X157445800Y-88890400D01*
X157445800Y-88340400D01*
X159045800Y-88340400D01*
X159045800Y-88890400D01*
X159045800Y-88890400D01*
G37*
G36*
X143645800Y-88890400D02*
X142045800Y-88890400D01*
X142045800Y-88340400D01*
X143645800Y-88340400D01*
X143645800Y-88890400D01*
X143645800Y-88890400D01*
G37*
G36*
X129888800Y-88625400D02*
X129038800Y-88625400D01*
X129038800Y-87725400D01*
X129888800Y-87725400D01*
X129888800Y-88625400D01*
X129888800Y-88625400D01*
G37*
G36*
X125913800Y-88310400D02*
X125113800Y-88310400D01*
X125113800Y-87960400D01*
X125913800Y-87960400D01*
X125913800Y-88310400D01*
X125913800Y-88310400D01*
G37*
G36*
X121113800Y-88310400D02*
X120313800Y-88310400D01*
X120313800Y-87960400D01*
X121113800Y-87960400D01*
X121113800Y-88310400D01*
X121113800Y-88310400D01*
G37*
G36*
X137368000Y-88309000D02*
X136468000Y-88309000D01*
X136468000Y-87459000D01*
X137368000Y-87459000D01*
X137368000Y-88309000D01*
X137368000Y-88309000D01*
G37*
G36*
X138868000Y-88309000D02*
X137968000Y-88309000D01*
X137968000Y-87459000D01*
X138868000Y-87459000D01*
X138868000Y-88309000D01*
X138868000Y-88309000D01*
G37*
G36*
X143645800Y-88240400D02*
X142045800Y-88240400D01*
X142045800Y-87690400D01*
X143645800Y-87690400D01*
X143645800Y-88240400D01*
X143645800Y-88240400D01*
G37*
G36*
X159045800Y-88240400D02*
X157445800Y-88240400D01*
X157445800Y-87690400D01*
X159045800Y-87690400D01*
X159045800Y-88240400D01*
X159045800Y-88240400D01*
G37*
G36*
X124888800Y-88160400D02*
X121338800Y-88160400D01*
X121338800Y-84610400D01*
X124888800Y-84610400D01*
X124888800Y-88160400D01*
X124888800Y-88160400D01*
G37*
G36*
X125913800Y-87810400D02*
X125113800Y-87810400D01*
X125113800Y-87460400D01*
X125913800Y-87460400D01*
X125913800Y-87810400D01*
X125913800Y-87810400D01*
G37*
G36*
X121113800Y-87810400D02*
X120313800Y-87810400D01*
X120313800Y-87460400D01*
X121113800Y-87460400D01*
X121113800Y-87810400D01*
X121113800Y-87810400D01*
G37*
G36*
X110294000Y-87622000D02*
X109694000Y-87622000D01*
X109694000Y-86622000D01*
X110294000Y-86622000D01*
X110294000Y-87622000D01*
X110294000Y-87622000D01*
G37*
G36*
X111794000Y-87622000D02*
X111194000Y-87622000D01*
X111194000Y-86622000D01*
X111794000Y-86622000D01*
X111794000Y-87622000D01*
X111794000Y-87622000D01*
G37*
G36*
X143645800Y-87590400D02*
X142045800Y-87590400D01*
X142045800Y-87040400D01*
X143645800Y-87040400D01*
X143645800Y-87590400D01*
X143645800Y-87590400D01*
G37*
G36*
X159045800Y-87590400D02*
X157445800Y-87590400D01*
X157445800Y-87040400D01*
X159045800Y-87040400D01*
X159045800Y-87590400D01*
X159045800Y-87590400D01*
G37*
G36*
X107346000Y-87572000D02*
X106446000Y-87572000D01*
X106446000Y-86672000D01*
X107346000Y-86672000D01*
X107346000Y-87572000D01*
X107346000Y-87572000D01*
G37*
G36*
X108946000Y-87572000D02*
X108046000Y-87572000D01*
X108046000Y-86672000D01*
X108946000Y-86672000D01*
X108946000Y-87572000D01*
X108946000Y-87572000D01*
G37*
G36*
X121113800Y-87310400D02*
X120313800Y-87310400D01*
X120313800Y-86960400D01*
X121113800Y-86960400D01*
X121113800Y-87310400D01*
X121113800Y-87310400D01*
G37*
G36*
X125913800Y-87310400D02*
X125113800Y-87310400D01*
X125113800Y-86960400D01*
X125913800Y-86960400D01*
X125913800Y-87310400D01*
X125913800Y-87310400D01*
G37*
G36*
X143645800Y-86940400D02*
X142045800Y-86940400D01*
X142045800Y-86390400D01*
X143645800Y-86390400D01*
X143645800Y-86940400D01*
X143645800Y-86940400D01*
G37*
G36*
X159045800Y-86940400D02*
X157445800Y-86940400D01*
X157445800Y-86390400D01*
X159045800Y-86390400D01*
X159045800Y-86940400D01*
X159045800Y-86940400D01*
G37*
G36*
X125913800Y-86810400D02*
X125113800Y-86810400D01*
X125113800Y-86460400D01*
X125913800Y-86460400D01*
X125913800Y-86810400D01*
X125913800Y-86810400D01*
G37*
G36*
X121113800Y-86810400D02*
X120313800Y-86810400D01*
X120313800Y-86460400D01*
X121113800Y-86460400D01*
X121113800Y-86810400D01*
X121113800Y-86810400D01*
G37*
G36*
X173924800Y-86777400D02*
X172124800Y-86777400D01*
X172124800Y-84977400D01*
X173924800Y-84977400D01*
X173924800Y-86777400D01*
X173924800Y-86777400D01*
G37*
G36*
X175580298Y-84977477D02*
X175580308Y-84977478D01*
X175581721Y-84977488D01*
X175756276Y-84997067D01*
X175923703Y-85050178D01*
X176077625Y-85134798D01*
X176212180Y-85247703D01*
X176322243Y-85384593D01*
X176403620Y-85540254D01*
X176453214Y-85708757D01*
X176453216Y-85708782D01*
X176453218Y-85708788D01*
X176469134Y-85883683D01*
X176450778Y-86058333D01*
X176450776Y-86058338D01*
X176450773Y-86058370D01*
X176398832Y-86226164D01*
X176315289Y-86380674D01*
X176203326Y-86516014D01*
X176067207Y-86627029D01*
X175912118Y-86709491D01*
X175743966Y-86760260D01*
X175569155Y-86777400D01*
X175560377Y-86777400D01*
X175549302Y-86777323D01*
X175549292Y-86777322D01*
X175547879Y-86777312D01*
X175373324Y-86757733D01*
X175205897Y-86704622D01*
X175051975Y-86620002D01*
X174917420Y-86507097D01*
X174807357Y-86370207D01*
X174725980Y-86214546D01*
X174676386Y-86046043D01*
X174676384Y-86046018D01*
X174676382Y-86046012D01*
X174660466Y-85871117D01*
X174678822Y-85696467D01*
X174678824Y-85696462D01*
X174678827Y-85696430D01*
X174730768Y-85528636D01*
X174814311Y-85374126D01*
X174926274Y-85238786D01*
X175062393Y-85127771D01*
X175217482Y-85045309D01*
X175385634Y-84994540D01*
X175560445Y-84977400D01*
X175569223Y-84977400D01*
X175580298Y-84977477D01*
X175580298Y-84977477D01*
G37*
G36*
X185574800Y-86742400D02*
X177924800Y-86742400D01*
X177924800Y-85672400D01*
X185574800Y-85672400D01*
X185574800Y-86742400D01*
X185574800Y-86742400D01*
G37*
G36*
X138868000Y-86531000D02*
X137968000Y-86531000D01*
X137968000Y-85681000D01*
X138868000Y-85681000D01*
X138868000Y-86531000D01*
X138868000Y-86531000D01*
G37*
G36*
X137368000Y-86531000D02*
X136468000Y-86531000D01*
X136468000Y-85681000D01*
X137368000Y-85681000D01*
X137368000Y-86531000D01*
X137368000Y-86531000D01*
G37*
G36*
X125913800Y-86310400D02*
X125113800Y-86310400D01*
X125113800Y-85960400D01*
X125913800Y-85960400D01*
X125913800Y-86310400D01*
X125913800Y-86310400D01*
G37*
G36*
X121113800Y-86310400D02*
X120313800Y-86310400D01*
X120313800Y-85960400D01*
X121113800Y-85960400D01*
X121113800Y-86310400D01*
X121113800Y-86310400D01*
G37*
G36*
X143645800Y-86290400D02*
X142045800Y-86290400D01*
X142045800Y-85740400D01*
X143645800Y-85740400D01*
X143645800Y-86290400D01*
X143645800Y-86290400D01*
G37*
G36*
X159045800Y-86290400D02*
X157445800Y-86290400D01*
X157445800Y-85740400D01*
X159045800Y-85740400D01*
X159045800Y-86290400D01*
X159045800Y-86290400D01*
G37*
G36*
X121113800Y-85810400D02*
X120313800Y-85810400D01*
X120313800Y-85460400D01*
X121113800Y-85460400D01*
X121113800Y-85810400D01*
X121113800Y-85810400D01*
G37*
G36*
X125913800Y-85810400D02*
X125113800Y-85810400D01*
X125113800Y-85460400D01*
X125913800Y-85460400D01*
X125913800Y-85810400D01*
X125913800Y-85810400D01*
G37*
G36*
X159045800Y-85640400D02*
X157445800Y-85640400D01*
X157445800Y-85090400D01*
X159045800Y-85090400D01*
X159045800Y-85640400D01*
X159045800Y-85640400D01*
G37*
G36*
X143645800Y-85640400D02*
X142045800Y-85640400D01*
X142045800Y-85090400D01*
X143645800Y-85090400D01*
X143645800Y-85640400D01*
X143645800Y-85640400D01*
G37*
G36*
X125913800Y-85310400D02*
X125113800Y-85310400D01*
X125113800Y-84960400D01*
X125913800Y-84960400D01*
X125913800Y-85310400D01*
X125913800Y-85310400D01*
G37*
G36*
X121113800Y-85310400D02*
X120313800Y-85310400D01*
X120313800Y-84960400D01*
X121113800Y-84960400D01*
X121113800Y-85310400D01*
X121113800Y-85310400D01*
G37*
G36*
X159045800Y-84990400D02*
X157445800Y-84990400D01*
X157445800Y-84440400D01*
X159045800Y-84440400D01*
X159045800Y-84990400D01*
X159045800Y-84990400D01*
G37*
G36*
X143645800Y-84990400D02*
X142045800Y-84990400D01*
X142045800Y-84440400D01*
X143645800Y-84440400D01*
X143645800Y-84990400D01*
X143645800Y-84990400D01*
G37*
G36*
X121113800Y-84810400D02*
X120313800Y-84810400D01*
X120313800Y-84460400D01*
X121113800Y-84460400D01*
X121113800Y-84810400D01*
X121113800Y-84810400D01*
G37*
G36*
X125913800Y-84810400D02*
X125113800Y-84810400D01*
X125113800Y-84460400D01*
X125913800Y-84460400D01*
X125913800Y-84810400D01*
X125913800Y-84810400D01*
G37*
G36*
X181124800Y-84757400D02*
X177924800Y-84757400D01*
X177924800Y-83187400D01*
X181124800Y-83187400D01*
X181124800Y-84757400D01*
X181124800Y-84757400D01*
G37*
G36*
X125038800Y-84385400D02*
X124688800Y-84385400D01*
X124688800Y-83585400D01*
X125038800Y-83585400D01*
X125038800Y-84385400D01*
X125038800Y-84385400D01*
G37*
G36*
X121538800Y-84385400D02*
X121188800Y-84385400D01*
X121188800Y-83585400D01*
X121538800Y-83585400D01*
X121538800Y-84385400D01*
X121538800Y-84385400D01*
G37*
G36*
X122038800Y-84385400D02*
X121688800Y-84385400D01*
X121688800Y-83585400D01*
X122038800Y-83585400D01*
X122038800Y-84385400D01*
X122038800Y-84385400D01*
G37*
G36*
X122538800Y-84385400D02*
X122188800Y-84385400D01*
X122188800Y-83585400D01*
X122538800Y-83585400D01*
X122538800Y-84385400D01*
X122538800Y-84385400D01*
G37*
G36*
X123038800Y-84385400D02*
X122688800Y-84385400D01*
X122688800Y-83585400D01*
X123038800Y-83585400D01*
X123038800Y-84385400D01*
X123038800Y-84385400D01*
G37*
G36*
X124538800Y-84385400D02*
X124188800Y-84385400D01*
X124188800Y-83585400D01*
X124538800Y-83585400D01*
X124538800Y-84385400D01*
X124538800Y-84385400D01*
G37*
G36*
X124038800Y-84385400D02*
X123688800Y-84385400D01*
X123688800Y-83585400D01*
X124038800Y-83585400D01*
X124038800Y-84385400D01*
X124038800Y-84385400D01*
G37*
G36*
X123538800Y-84385400D02*
X123188800Y-84385400D01*
X123188800Y-83585400D01*
X123538800Y-83585400D01*
X123538800Y-84385400D01*
X123538800Y-84385400D01*
G37*
G36*
X159045800Y-84340400D02*
X157445800Y-84340400D01*
X157445800Y-83790400D01*
X159045800Y-83790400D01*
X159045800Y-84340400D01*
X159045800Y-84340400D01*
G37*
G36*
X143645800Y-84340400D02*
X142045800Y-84340400D01*
X142045800Y-83790400D01*
X143645800Y-83790400D01*
X143645800Y-84340400D01*
X143645800Y-84340400D01*
G37*
G36*
X159045800Y-83690400D02*
X157445800Y-83690400D01*
X157445800Y-83140400D01*
X159045800Y-83140400D01*
X159045800Y-83690400D01*
X159045800Y-83690400D01*
G37*
G36*
X143645800Y-83690400D02*
X142045800Y-83690400D01*
X142045800Y-83140400D01*
X143645800Y-83140400D01*
X143645800Y-83690400D01*
X143645800Y-83690400D01*
G37*
G36*
X143645800Y-83040400D02*
X142045800Y-83040400D01*
X142045800Y-82490400D01*
X143645800Y-82490400D01*
X143645800Y-83040400D01*
X143645800Y-83040400D01*
G37*
G36*
X159045800Y-83040400D02*
X157445800Y-83040400D01*
X157445800Y-82490400D01*
X159045800Y-82490400D01*
X159045800Y-83040400D01*
X159045800Y-83040400D01*
G37*
G36*
X113514800Y-82932400D02*
X105864800Y-82932400D01*
X105864800Y-81862400D01*
X113514800Y-81862400D01*
X113514800Y-82932400D01*
X113514800Y-82932400D01*
G37*
G36*
X159045800Y-82390400D02*
X157445800Y-82390400D01*
X157445800Y-81840400D01*
X159045800Y-81840400D01*
X159045800Y-82390400D01*
X159045800Y-82390400D01*
G37*
G36*
X143645800Y-82390400D02*
X142045800Y-82390400D01*
X142045800Y-81840400D01*
X143645800Y-81840400D01*
X143645800Y-82390400D01*
X143645800Y-82390400D01*
G37*
G36*
X185574800Y-82272400D02*
X177924800Y-82272400D01*
X177924800Y-81202400D01*
X185574800Y-81202400D01*
X185574800Y-82272400D01*
X185574800Y-82272400D01*
G37*
G36*
X124758000Y-81845000D02*
X123908000Y-81845000D01*
X123908000Y-80945000D01*
X124758000Y-80945000D01*
X124758000Y-81845000D01*
X124758000Y-81845000D01*
G37*
G36*
X122980000Y-81845000D02*
X122130000Y-81845000D01*
X122130000Y-80945000D01*
X122980000Y-80945000D01*
X122980000Y-81845000D01*
X122980000Y-81845000D01*
G37*
G36*
X126536000Y-81845000D02*
X125686000Y-81845000D01*
X125686000Y-80945000D01*
X126536000Y-80945000D01*
X126536000Y-81845000D01*
X126536000Y-81845000D01*
G37*
G36*
X153095800Y-81390400D02*
X152545800Y-81390400D01*
X152545800Y-79790400D01*
X153095800Y-79790400D01*
X153095800Y-81390400D01*
X153095800Y-81390400D01*
G37*
G36*
X145945800Y-81390400D02*
X145395800Y-81390400D01*
X145395800Y-79790400D01*
X145945800Y-79790400D01*
X145945800Y-81390400D01*
X145945800Y-81390400D01*
G37*
G36*
X146595800Y-81390400D02*
X146045800Y-81390400D01*
X146045800Y-79790400D01*
X146595800Y-79790400D01*
X146595800Y-81390400D01*
X146595800Y-81390400D01*
G37*
G36*
X147245800Y-81390400D02*
X146695800Y-81390400D01*
X146695800Y-79790400D01*
X147245800Y-79790400D01*
X147245800Y-81390400D01*
X147245800Y-81390400D01*
G37*
G36*
X147895800Y-81390400D02*
X147345800Y-81390400D01*
X147345800Y-79790400D01*
X147895800Y-79790400D01*
X147895800Y-81390400D01*
X147895800Y-81390400D01*
G37*
G36*
X148545800Y-81390400D02*
X147995800Y-81390400D01*
X147995800Y-79790400D01*
X148545800Y-79790400D01*
X148545800Y-81390400D01*
X148545800Y-81390400D01*
G37*
G36*
X149195800Y-81390400D02*
X148645800Y-81390400D01*
X148645800Y-79790400D01*
X149195800Y-79790400D01*
X149195800Y-81390400D01*
X149195800Y-81390400D01*
G37*
G36*
X149845800Y-81390400D02*
X149295800Y-81390400D01*
X149295800Y-79790400D01*
X149845800Y-79790400D01*
X149845800Y-81390400D01*
X149845800Y-81390400D01*
G37*
G36*
X150495800Y-81390400D02*
X149945800Y-81390400D01*
X149945800Y-79790400D01*
X150495800Y-79790400D01*
X150495800Y-81390400D01*
X150495800Y-81390400D01*
G37*
G36*
X151145800Y-81390400D02*
X150595800Y-81390400D01*
X150595800Y-79790400D01*
X151145800Y-79790400D01*
X151145800Y-81390400D01*
X151145800Y-81390400D01*
G37*
G36*
X151795800Y-81390400D02*
X151245800Y-81390400D01*
X151245800Y-79790400D01*
X151795800Y-79790400D01*
X151795800Y-81390400D01*
X151795800Y-81390400D01*
G37*
G36*
X153745800Y-81390400D02*
X153195800Y-81390400D01*
X153195800Y-79790400D01*
X153745800Y-79790400D01*
X153745800Y-81390400D01*
X153745800Y-81390400D01*
G37*
G36*
X154395800Y-81390400D02*
X153845800Y-81390400D01*
X153845800Y-79790400D01*
X154395800Y-79790400D01*
X154395800Y-81390400D01*
X154395800Y-81390400D01*
G37*
G36*
X155045800Y-81390400D02*
X154495800Y-81390400D01*
X154495800Y-79790400D01*
X155045800Y-79790400D01*
X155045800Y-81390400D01*
X155045800Y-81390400D01*
G37*
G36*
X155695800Y-81390400D02*
X155145800Y-81390400D01*
X155145800Y-79790400D01*
X155695800Y-79790400D01*
X155695800Y-81390400D01*
X155695800Y-81390400D01*
G37*
G36*
X144645800Y-81390400D02*
X144095800Y-81390400D01*
X144095800Y-79790400D01*
X144645800Y-79790400D01*
X144645800Y-81390400D01*
X144645800Y-81390400D01*
G37*
G36*
X156345800Y-81390400D02*
X155795800Y-81390400D01*
X155795800Y-79790400D01*
X156345800Y-79790400D01*
X156345800Y-81390400D01*
X156345800Y-81390400D01*
G37*
G36*
X156995800Y-81390400D02*
X156445800Y-81390400D01*
X156445800Y-79790400D01*
X156995800Y-79790400D01*
X156995800Y-81390400D01*
X156995800Y-81390400D01*
G37*
G36*
X145295800Y-81390400D02*
X144745800Y-81390400D01*
X144745800Y-79790400D01*
X145295800Y-79790400D01*
X145295800Y-81390400D01*
X145295800Y-81390400D01*
G37*
G36*
X152445800Y-81390400D02*
X151895800Y-81390400D01*
X151895800Y-79790400D01*
X152445800Y-79790400D01*
X152445800Y-81390400D01*
X152445800Y-81390400D01*
G37*
G36*
X113514800Y-80947400D02*
X110314800Y-80947400D01*
X110314800Y-79377400D01*
X113514800Y-79377400D01*
X113514800Y-80947400D01*
X113514800Y-80947400D01*
G37*
G36*
X122980000Y-80345000D02*
X122130000Y-80345000D01*
X122130000Y-79445000D01*
X122980000Y-79445000D01*
X122980000Y-80345000D01*
X122980000Y-80345000D01*
G37*
G36*
X124758000Y-80345000D02*
X123908000Y-80345000D01*
X123908000Y-79445000D01*
X124758000Y-79445000D01*
X124758000Y-80345000D01*
X124758000Y-80345000D01*
G37*
G36*
X126536000Y-80345000D02*
X125686000Y-80345000D01*
X125686000Y-79445000D01*
X126536000Y-79445000D01*
X126536000Y-80345000D01*
X126536000Y-80345000D01*
G37*
G36*
X173924800Y-79157400D02*
X172124800Y-79157400D01*
X172124800Y-77357400D01*
X173924800Y-77357400D01*
X173924800Y-79157400D01*
X173924800Y-79157400D01*
G37*
G36*
X175580298Y-77357477D02*
X175580308Y-77357478D01*
X175581721Y-77357488D01*
X175756276Y-77377067D01*
X175923703Y-77430178D01*
X176077625Y-77514798D01*
X176212180Y-77627703D01*
X176322243Y-77764593D01*
X176403620Y-77920254D01*
X176453214Y-78088757D01*
X176453216Y-78088782D01*
X176453218Y-78088788D01*
X176469134Y-78263683D01*
X176450778Y-78438333D01*
X176450776Y-78438338D01*
X176450773Y-78438370D01*
X176398832Y-78606164D01*
X176315289Y-78760674D01*
X176203326Y-78896014D01*
X176067207Y-79007029D01*
X175912118Y-79089491D01*
X175743966Y-79140260D01*
X175569155Y-79157400D01*
X175560377Y-79157400D01*
X175549302Y-79157323D01*
X175549292Y-79157322D01*
X175547879Y-79157312D01*
X175373324Y-79137733D01*
X175205897Y-79084622D01*
X175051975Y-79000002D01*
X174917420Y-78887097D01*
X174807357Y-78750207D01*
X174725980Y-78594546D01*
X174676386Y-78426043D01*
X174676384Y-78426018D01*
X174676382Y-78426012D01*
X174660466Y-78251117D01*
X174678822Y-78076467D01*
X174678824Y-78076462D01*
X174678827Y-78076430D01*
X174730768Y-77908636D01*
X174814311Y-77754126D01*
X174926274Y-77618786D01*
X175062393Y-77507771D01*
X175217482Y-77425309D01*
X175385634Y-77374540D01*
X175560445Y-77357400D01*
X175569223Y-77357400D01*
X175580298Y-77357477D01*
X175580298Y-77357477D01*
G37*
G36*
X185574800Y-79122400D02*
X177924800Y-79122400D01*
X177924800Y-78052400D01*
X185574800Y-78052400D01*
X185574800Y-79122400D01*
X185574800Y-79122400D01*
G37*
G36*
X113514800Y-78462400D02*
X105864800Y-78462400D01*
X105864800Y-77392400D01*
X113514800Y-77392400D01*
X113514800Y-78462400D01*
X113514800Y-78462400D01*
G37*
G36*
X181124800Y-77137400D02*
X177924800Y-77137400D01*
X177924800Y-75567400D01*
X181124800Y-75567400D01*
X181124800Y-77137400D01*
X181124800Y-77137400D01*
G37*
G36*
X113514800Y-75312400D02*
X105864800Y-75312400D01*
X105864800Y-74242400D01*
X113514800Y-74242400D01*
X113514800Y-75312400D01*
X113514800Y-75312400D01*
G37*
G36*
X185574800Y-74652400D02*
X177924800Y-74652400D01*
X177924800Y-73582400D01*
X185574800Y-73582400D01*
X185574800Y-74652400D01*
X185574800Y-74652400D01*
G37*
G36*
X113514800Y-73327400D02*
X110314800Y-73327400D01*
X110314800Y-71757400D01*
X113514800Y-71757400D01*
X113514800Y-73327400D01*
X113514800Y-73327400D01*
G37*
G36*
X175580298Y-69737477D02*
X175580308Y-69737478D01*
X175581721Y-69737488D01*
X175756276Y-69757067D01*
X175923703Y-69810178D01*
X176077625Y-69894798D01*
X176212180Y-70007703D01*
X176322243Y-70144593D01*
X176403620Y-70300254D01*
X176453214Y-70468757D01*
X176453216Y-70468782D01*
X176453218Y-70468788D01*
X176469134Y-70643683D01*
X176450778Y-70818333D01*
X176450776Y-70818338D01*
X176450773Y-70818370D01*
X176398832Y-70986164D01*
X176315289Y-71140674D01*
X176203326Y-71276014D01*
X176067207Y-71387029D01*
X175912118Y-71469491D01*
X175743966Y-71520260D01*
X175569155Y-71537400D01*
X175560377Y-71537400D01*
X175549302Y-71537323D01*
X175549292Y-71537322D01*
X175547879Y-71537312D01*
X175373324Y-71517733D01*
X175205897Y-71464622D01*
X175051975Y-71380002D01*
X174917420Y-71267097D01*
X174807357Y-71130207D01*
X174725980Y-70974546D01*
X174676386Y-70806043D01*
X174676384Y-70806018D01*
X174676382Y-70806012D01*
X174660466Y-70631117D01*
X174678822Y-70456467D01*
X174678824Y-70456462D01*
X174678827Y-70456430D01*
X174730768Y-70288636D01*
X174814311Y-70134126D01*
X174926274Y-69998786D01*
X175062393Y-69887771D01*
X175217482Y-69805309D01*
X175385634Y-69754540D01*
X175560445Y-69737400D01*
X175569223Y-69737400D01*
X175580298Y-69737477D01*
X175580298Y-69737477D01*
G37*
G36*
X173924800Y-71537400D02*
X172124800Y-71537400D01*
X172124800Y-69737400D01*
X173924800Y-69737400D01*
X173924800Y-71537400D01*
X173924800Y-71537400D01*
G37*
G36*
X185574800Y-71502400D02*
X177924800Y-71502400D01*
X177924800Y-70432400D01*
X185574800Y-70432400D01*
X185574800Y-71502400D01*
X185574800Y-71502400D01*
G37*
G36*
X113514800Y-70842400D02*
X105864800Y-70842400D01*
X105864800Y-69772400D01*
X113514800Y-69772400D01*
X113514800Y-70842400D01*
X113514800Y-70842400D01*
G37*
G36*
X181124800Y-69517400D02*
X177924800Y-69517400D01*
X177924800Y-67947400D01*
X181124800Y-67947400D01*
X181124800Y-69517400D01*
X181124800Y-69517400D01*
G37*
G36*
X113514800Y-67692400D02*
X105864800Y-67692400D01*
X105864800Y-66622400D01*
X113514800Y-66622400D01*
X113514800Y-67692400D01*
X113514800Y-67692400D01*
G37*
G36*
X185574800Y-67032400D02*
X177924800Y-67032400D01*
X177924800Y-65962400D01*
X185574800Y-65962400D01*
X185574800Y-67032400D01*
X185574800Y-67032400D01*
G37*
G36*
X113514800Y-65707400D02*
X110314800Y-65707400D01*
X110314800Y-64137400D01*
X113514800Y-64137400D01*
X113514800Y-65707400D01*
X113514800Y-65707400D01*
G37*
G36*
X167574800Y-65187400D02*
X165774800Y-65187400D01*
X165774800Y-63387400D01*
X167574800Y-63387400D01*
X167574800Y-65187400D01*
X167574800Y-65187400D01*
G37*
G36*
X182814800Y-65187400D02*
X181014800Y-65187400D01*
X181014800Y-63387400D01*
X182814800Y-63387400D01*
X182814800Y-65187400D01*
X182814800Y-65187400D01*
G37*
G36*
X159954800Y-65187400D02*
X158154800Y-65187400D01*
X158154800Y-63387400D01*
X159954800Y-63387400D01*
X159954800Y-65187400D01*
X159954800Y-65187400D01*
G37*
G36*
X175194800Y-65187400D02*
X173394800Y-65187400D01*
X173394800Y-63387400D01*
X175194800Y-63387400D01*
X175194800Y-65187400D01*
X175194800Y-65187400D01*
G37*
G36*
X113514800Y-63222400D02*
X105864800Y-63222400D01*
X105864800Y-62152400D01*
X113514800Y-62152400D01*
X113514800Y-63222400D01*
X113514800Y-63222400D01*
G37*
G36*
X159235733Y-60861422D02*
X159235738Y-60861424D01*
X159235770Y-60861427D01*
X159403564Y-60913368D01*
X159558074Y-60996911D01*
X159693414Y-61108874D01*
X159804429Y-61244993D01*
X159886891Y-61400082D01*
X159937660Y-61568234D01*
X159954800Y-61743045D01*
X159954800Y-61751823D01*
X159954723Y-61762898D01*
X159954722Y-61762908D01*
X159954712Y-61764321D01*
X159935133Y-61938876D01*
X159882022Y-62106303D01*
X159797402Y-62260225D01*
X159684497Y-62394780D01*
X159547607Y-62504843D01*
X159391946Y-62586220D01*
X159223443Y-62635814D01*
X159223418Y-62635816D01*
X159223412Y-62635818D01*
X159048517Y-62651734D01*
X158873867Y-62633378D01*
X158873862Y-62633376D01*
X158873830Y-62633373D01*
X158706036Y-62581432D01*
X158551526Y-62497889D01*
X158416186Y-62385926D01*
X158305171Y-62249807D01*
X158222709Y-62094718D01*
X158171940Y-61926566D01*
X158154800Y-61751755D01*
X158154800Y-61742977D01*
X158154877Y-61731902D01*
X158154878Y-61731892D01*
X158154888Y-61730479D01*
X158174467Y-61555924D01*
X158227578Y-61388497D01*
X158312198Y-61234575D01*
X158425103Y-61100020D01*
X158561993Y-60989957D01*
X158717654Y-60908580D01*
X158886157Y-60858986D01*
X158886182Y-60858984D01*
X158886188Y-60858982D01*
X159061083Y-60843066D01*
X159235733Y-60861422D01*
X159235733Y-60861422D01*
G37*
G36*
X166855733Y-60861422D02*
X166855738Y-60861424D01*
X166855770Y-60861427D01*
X167023564Y-60913368D01*
X167178074Y-60996911D01*
X167313414Y-61108874D01*
X167424429Y-61244993D01*
X167506891Y-61400082D01*
X167557660Y-61568234D01*
X167574800Y-61743045D01*
X167574800Y-61751823D01*
X167574723Y-61762898D01*
X167574722Y-61762908D01*
X167574712Y-61764321D01*
X167555133Y-61938876D01*
X167502022Y-62106303D01*
X167417402Y-62260225D01*
X167304497Y-62394780D01*
X167167607Y-62504843D01*
X167011946Y-62586220D01*
X166843443Y-62635814D01*
X166843418Y-62635816D01*
X166843412Y-62635818D01*
X166668517Y-62651734D01*
X166493867Y-62633378D01*
X166493862Y-62633376D01*
X166493830Y-62633373D01*
X166326036Y-62581432D01*
X166171526Y-62497889D01*
X166036186Y-62385926D01*
X165925171Y-62249807D01*
X165842709Y-62094718D01*
X165791940Y-61926566D01*
X165774800Y-61751755D01*
X165774800Y-61742977D01*
X165774877Y-61731902D01*
X165774878Y-61731892D01*
X165774888Y-61730479D01*
X165794467Y-61555924D01*
X165847578Y-61388497D01*
X165932198Y-61234575D01*
X166045103Y-61100020D01*
X166181993Y-60989957D01*
X166337654Y-60908580D01*
X166506157Y-60858986D01*
X166506182Y-60858984D01*
X166506188Y-60858982D01*
X166681083Y-60843066D01*
X166855733Y-60861422D01*
X166855733Y-60861422D01*
G37*
G36*
X174475733Y-60861422D02*
X174475738Y-60861424D01*
X174475770Y-60861427D01*
X174643564Y-60913368D01*
X174798074Y-60996911D01*
X174933414Y-61108874D01*
X175044429Y-61244993D01*
X175126891Y-61400082D01*
X175177660Y-61568234D01*
X175194800Y-61743045D01*
X175194800Y-61751823D01*
X175194723Y-61762898D01*
X175194722Y-61762908D01*
X175194712Y-61764321D01*
X175175133Y-61938876D01*
X175122022Y-62106303D01*
X175037402Y-62260225D01*
X174924497Y-62394780D01*
X174787607Y-62504843D01*
X174631946Y-62586220D01*
X174463443Y-62635814D01*
X174463418Y-62635816D01*
X174463412Y-62635818D01*
X174288517Y-62651734D01*
X174113867Y-62633378D01*
X174113862Y-62633376D01*
X174113830Y-62633373D01*
X173946036Y-62581432D01*
X173791526Y-62497889D01*
X173656186Y-62385926D01*
X173545171Y-62249807D01*
X173462709Y-62094718D01*
X173411940Y-61926566D01*
X173394800Y-61751755D01*
X173394800Y-61742977D01*
X173394877Y-61731902D01*
X173394878Y-61731892D01*
X173394888Y-61730479D01*
X173414467Y-61555924D01*
X173467578Y-61388497D01*
X173552198Y-61234575D01*
X173665103Y-61100020D01*
X173801993Y-60989957D01*
X173957654Y-60908580D01*
X174126157Y-60858986D01*
X174126182Y-60858984D01*
X174126188Y-60858982D01*
X174301083Y-60843066D01*
X174475733Y-60861422D01*
X174475733Y-60861422D01*
G37*
G36*
X182095733Y-60861422D02*
X182095738Y-60861424D01*
X182095770Y-60861427D01*
X182263564Y-60913368D01*
X182418074Y-60996911D01*
X182553414Y-61108874D01*
X182664429Y-61244993D01*
X182746891Y-61400082D01*
X182797660Y-61568234D01*
X182814800Y-61743045D01*
X182814800Y-61751823D01*
X182814723Y-61762898D01*
X182814722Y-61762908D01*
X182814712Y-61764321D01*
X182795133Y-61938876D01*
X182742022Y-62106303D01*
X182657402Y-62260225D01*
X182544497Y-62394780D01*
X182407607Y-62504843D01*
X182251946Y-62586220D01*
X182083443Y-62635814D01*
X182083418Y-62635816D01*
X182083412Y-62635818D01*
X181908517Y-62651734D01*
X181733867Y-62633378D01*
X181733862Y-62633376D01*
X181733830Y-62633373D01*
X181566036Y-62581432D01*
X181411526Y-62497889D01*
X181276186Y-62385926D01*
X181165171Y-62249807D01*
X181082709Y-62094718D01*
X181031940Y-61926566D01*
X181014800Y-61751755D01*
X181014800Y-61742977D01*
X181014877Y-61731902D01*
X181014878Y-61731892D01*
X181014888Y-61730479D01*
X181034467Y-61555924D01*
X181087578Y-61388497D01*
X181172198Y-61234575D01*
X181285103Y-61100020D01*
X181421993Y-60989957D01*
X181577654Y-60908580D01*
X181746157Y-60858986D01*
X181746182Y-60858984D01*
X181746188Y-60858982D01*
X181921083Y-60843066D01*
X182095733Y-60861422D01*
X182095733Y-60861422D01*
G37*
G36*
X113514800Y-60072400D02*
X105864800Y-60072400D01*
X105864800Y-59002400D01*
X113514800Y-59002400D01*
X113514800Y-60072400D01*
X113514800Y-60072400D01*
G37*
G36*
X119199800Y-60022400D02*
X117629800Y-60022400D01*
X117629800Y-56822400D01*
X119199800Y-56822400D01*
X119199800Y-60022400D01*
X119199800Y-60022400D01*
G37*
G36*
X124334800Y-60022400D02*
X123264800Y-60022400D01*
X123264800Y-52372400D01*
X124334800Y-52372400D01*
X124334800Y-60022400D01*
X124334800Y-60022400D01*
G37*
G36*
X166189800Y-60022400D02*
X164619800Y-60022400D01*
X164619800Y-56822400D01*
X166189800Y-56822400D01*
X166189800Y-60022400D01*
X166189800Y-60022400D01*
G37*
G36*
X168174800Y-60022400D02*
X167104800Y-60022400D01*
X167104800Y-52372400D01*
X168174800Y-52372400D01*
X168174800Y-60022400D01*
X168174800Y-60022400D01*
G37*
G36*
X171324800Y-60022400D02*
X170254800Y-60022400D01*
X170254800Y-52372400D01*
X171324800Y-52372400D01*
X171324800Y-60022400D01*
X171324800Y-60022400D01*
G37*
G36*
X173809800Y-60022400D02*
X172239800Y-60022400D01*
X172239800Y-56822400D01*
X173809800Y-56822400D01*
X173809800Y-60022400D01*
X173809800Y-60022400D01*
G37*
G36*
X175794800Y-60022400D02*
X174724800Y-60022400D01*
X174724800Y-52372400D01*
X175794800Y-52372400D01*
X175794800Y-60022400D01*
X175794800Y-60022400D01*
G37*
G36*
X178944800Y-60022400D02*
X177874800Y-60022400D01*
X177874800Y-52372400D01*
X178944800Y-52372400D01*
X178944800Y-60022400D01*
X178944800Y-60022400D01*
G37*
G36*
X181429800Y-60022400D02*
X179859800Y-60022400D01*
X179859800Y-56822400D01*
X181429800Y-56822400D01*
X181429800Y-60022400D01*
X181429800Y-60022400D01*
G37*
G36*
X183414800Y-60022400D02*
X182344800Y-60022400D01*
X182344800Y-52372400D01*
X183414800Y-52372400D01*
X183414800Y-60022400D01*
X183414800Y-60022400D01*
G37*
G36*
X116714800Y-60022400D02*
X115644800Y-60022400D01*
X115644800Y-52372400D01*
X116714800Y-52372400D01*
X116714800Y-60022400D01*
X116714800Y-60022400D01*
G37*
G36*
X121184800Y-60022400D02*
X120114800Y-60022400D01*
X120114800Y-52372400D01*
X121184800Y-52372400D01*
X121184800Y-60022400D01*
X121184800Y-60022400D01*
G37*
G36*
X128804800Y-60022400D02*
X127734800Y-60022400D01*
X127734800Y-52372400D01*
X128804800Y-52372400D01*
X128804800Y-60022400D01*
X128804800Y-60022400D01*
G37*
G36*
X163704800Y-60022400D02*
X162634800Y-60022400D01*
X162634800Y-52372400D01*
X163704800Y-52372400D01*
X163704800Y-60022400D01*
X163704800Y-60022400D01*
G37*
G36*
X160554800Y-60022400D02*
X159484800Y-60022400D01*
X159484800Y-52372400D01*
X160554800Y-52372400D01*
X160554800Y-60022400D01*
X160554800Y-60022400D01*
G37*
G36*
X158569800Y-60022400D02*
X156999800Y-60022400D01*
X156999800Y-56822400D01*
X158569800Y-56822400D01*
X158569800Y-60022400D01*
X158569800Y-60022400D01*
G37*
G36*
X156084800Y-60022400D02*
X155014800Y-60022400D01*
X155014800Y-52372400D01*
X156084800Y-52372400D01*
X156084800Y-60022400D01*
X156084800Y-60022400D01*
G37*
G36*
X144044800Y-60022400D02*
X142974800Y-60022400D01*
X142974800Y-52372400D01*
X144044800Y-52372400D01*
X144044800Y-60022400D01*
X144044800Y-60022400D01*
G37*
G36*
X142059800Y-60022400D02*
X140489800Y-60022400D01*
X140489800Y-56822400D01*
X142059800Y-56822400D01*
X142059800Y-60022400D01*
X142059800Y-60022400D01*
G37*
G36*
X139574800Y-60022400D02*
X138504800Y-60022400D01*
X138504800Y-52372400D01*
X139574800Y-52372400D01*
X139574800Y-60022400D01*
X139574800Y-60022400D01*
G37*
G36*
X136424800Y-60022400D02*
X135354800Y-60022400D01*
X135354800Y-52372400D01*
X136424800Y-52372400D01*
X136424800Y-60022400D01*
X136424800Y-60022400D01*
G37*
G36*
X134439800Y-60022400D02*
X132869800Y-60022400D01*
X132869800Y-56822400D01*
X134439800Y-56822400D01*
X134439800Y-60022400D01*
X134439800Y-60022400D01*
G37*
G36*
X131954800Y-60022400D02*
X130884800Y-60022400D01*
X130884800Y-52372400D01*
X131954800Y-52372400D01*
X131954800Y-60022400D01*
X131954800Y-60022400D01*
G37*
G36*
X126819800Y-60022400D02*
X125249800Y-60022400D01*
X125249800Y-56822400D01*
X126819800Y-56822400D01*
X126819800Y-60022400D01*
X126819800Y-60022400D01*
G37*
G36*
X113514800Y-58087400D02*
X110314800Y-58087400D01*
X110314800Y-56517400D01*
X113514800Y-56517400D01*
X113514800Y-58087400D01*
X113514800Y-58087400D01*
G37*
G36*
X147789800Y-56808400D02*
X146189800Y-56808400D01*
X146189800Y-52208400D01*
X147789800Y-52208400D01*
X147789800Y-56808400D01*
X147789800Y-56808400D01*
G37*
G36*
X150329800Y-56808400D02*
X148729800Y-56808400D01*
X148729800Y-52208400D01*
X150329800Y-52208400D01*
X150329800Y-56808400D01*
X150329800Y-56808400D01*
G37*
G36*
X152869800Y-56808400D02*
X151269800Y-56808400D01*
X151269800Y-52208400D01*
X152869800Y-52208400D01*
X152869800Y-56808400D01*
X152869800Y-56808400D01*
G37*
G36*
X113514800Y-55602400D02*
X105864800Y-55602400D01*
X105864800Y-54532400D01*
X113514800Y-54532400D01*
X113514800Y-55602400D01*
X113514800Y-55602400D01*
G37*
M02*
